<svg xmlns="http://www.w3.org/2000/svg" xmlns:xlink="http://www.w3.org/1999/xlink" width="690.672" height="417.309" viewBox="0 0 690.672 417.309">
  <defs>
    <radialGradient id="radial-gradient" cx="0.076" cy="0.019" r="1.465" gradientTransform="translate(0.001)" gradientUnits="objectBoundingBox">
      <stop offset="0.038" stop-color="#d8d9dd"/>
      <stop offset="0.554" stop-color="#edeef0"/>
      <stop offset="1" stop-color="#f7f7f8"/>
    </radialGradient>
    <radialGradient id="radial-gradient-2" cx="0.353" cy="0.228" r="0.864" gradientTransform="translate(0.053) scale(0.895 1)" gradientUnits="objectBoundingBox">
      <stop offset="0" stop-color="#828282"/>
      <stop offset="0.301" stop-color="#838384" stop-opacity="0.98"/>
      <stop offset="0.469" stop-color="#8a8a8a" stop-opacity="0.918"/>
      <stop offset="0.604" stop-color="#959696" stop-opacity="0.812"/>
      <stop offset="0.721" stop-color="#a6a6a7" stop-opacity="0.663"/>
      <stop offset="0.828" stop-color="#bbbbbc" stop-opacity="0.467"/>
      <stop offset="0.924" stop-color="#d4d5d6" stop-opacity="0.231"/>
      <stop offset="1" stop-color="#edeef0" stop-opacity="0"/>
    </radialGradient>
    <radialGradient id="radial-gradient-3" cx="0.076" cy="0.019" r="1.465" gradientTransform="translate(0.001)" gradientUnits="objectBoundingBox">
      <stop offset="0" stop-color="#f7f7f8"/>
      <stop offset="0.505" stop-color="#fafafb"/>
      <stop offset="0.715" stop-color="#fff"/>
    </radialGradient>
    <linearGradient id="linear-gradient" x1="0.232" y1="-0.031" x2="0.998" y2="1.087" gradientUnits="objectBoundingBox">
      <stop offset="0" stop-color="#9d73d8"/>
      <stop offset="0.5" stop-color="#31d9e7"/>
      <stop offset="1" stop-color="#bb83ff"/>
    </linearGradient>
    <radialGradient id="radial-gradient-4" cx="0.397" cy="0.359" r="0.68" gradientTransform="translate(0)" gradientUnits="objectBoundingBox">
      <stop offset="0" stop-color="#464646"/>
      <stop offset="0.324" stop-color="#787878" stop-opacity="0.729"/>
      <stop offset="0.978" stop-color="#fafafa" stop-opacity="0.024"/>
      <stop offset="1" stop-color="#fff" stop-opacity="0"/>
    </radialGradient>
    <linearGradient id="linear-gradient-2" x1="-0.171" y1="0.749" x2="0.651" y2="0.4" gradientUnits="objectBoundingBox">
      <stop offset="0" stop-color="#ff3c7d"/>
      <stop offset="0.294" stop-color="#fe3d7d"/>
      <stop offset="0.399" stop-color="#fe447d"/>
      <stop offset="0.475" stop-color="#fe507e"/>
      <stop offset="0.536" stop-color="#fe617f"/>
      <stop offset="0.588" stop-color="#fe7781"/>
      <stop offset="0.634" stop-color="#fe9283"/>
      <stop offset="0.676" stop-color="#feb285"/>
      <stop offset="0.713" stop-color="#fed788"/>
      <stop offset="0.731" stop-color="#feeb8a"/>
    </linearGradient>
    <radialGradient id="radial-gradient-5" cx="0.397" cy="0.359" r="0.68" xlink:href="#radial-gradient-4"/>
    <radialGradient id="radial-gradient-6" cx="0.397" cy="0.359" r="0.68" xlink:href="#radial-gradient-4"/>
    <radialGradient id="radial-gradient-7" cx="0.397" cy="0.359" r="0.68" xlink:href="#radial-gradient-4"/>
    <radialGradient id="radial-gradient-8" cx="0.397" cy="0.359" r="0.68" xlink:href="#radial-gradient-4"/>
    <radialGradient id="radial-gradient-9" cx="0.353" cy="0.228" r="0.864" gradientTransform="translate(0.053) scale(0.895 1)" gradientUnits="objectBoundingBox">
      <stop offset="0" stop-color="#ff9100"/>
      <stop offset="0.246" stop-color="#ff9100" stop-opacity="0.992"/>
      <stop offset="0.383" stop-color="#ff9203" stop-opacity="0.961"/>
      <stop offset="0.493" stop-color="#ff9408" stop-opacity="0.906"/>
      <stop offset="0.589" stop-color="#ff970e" stop-opacity="0.827"/>
      <stop offset="0.676" stop-color="#ff9b17" stop-opacity="0.729"/>
      <stop offset="0.756" stop-color="#ff9f21" stop-opacity="0.604"/>
      <stop offset="0.831" stop-color="#ffa52e" stop-opacity="0.459"/>
      <stop offset="0.903" stop-color="#ffab3c" stop-opacity="0.29"/>
      <stop offset="0.968" stop-color="#ffb24c" stop-opacity="0.102"/>
      <stop offset="1" stop-color="#ffb655" stop-opacity="0"/>
    </radialGradient>
    <radialGradient id="radial-gradient-10" cx="0.076" cy="0.019" r="1.465" xlink:href="#radial-gradient-3"/>
    <radialGradient id="radial-gradient-11" cx="0.353" cy="0.228" r="0.864" gradientTransform="translate(0.053) scale(0.895 1)" gradientUnits="objectBoundingBox">
      <stop offset="0.006" stop-color="#855db5"/>
      <stop offset="0.277" stop-color="#855db5" stop-opacity="0.988"/>
      <stop offset="0.428" stop-color="#885fb9" stop-opacity="0.941"/>
      <stop offset="0.549" stop-color="#8c62be" stop-opacity="0.867"/>
      <stop offset="0.655" stop-color="#9266c6" stop-opacity="0.757"/>
      <stop offset="0.751" stop-color="#996bd1" stop-opacity="0.616"/>
      <stop offset="0.839" stop-color="#a372de" stop-opacity="0.443"/>
      <stop offset="0.92" stop-color="#ad79ed" stop-opacity="0.243"/>
      <stop offset="0.997" stop-color="#ba82fe" stop-opacity="0.012"/>
      <stop offset="1" stop-color="#bb83ff" stop-opacity="0"/>
    </radialGradient>
    <radialGradient id="radial-gradient-12" cx="0.076" cy="0.019" r="1.465" xlink:href="#radial-gradient-3"/>
    <radialGradient id="radial-gradient-13" cx="0.353" cy="0.228" r="0.864" gradientTransform="translate(0.053) scale(0.895 1)" gradientUnits="objectBoundingBox">
      <stop offset="0" stop-color="#2b3894"/>
      <stop offset="0.289" stop-color="#2d3994" stop-opacity="0.984"/>
      <stop offset="0.451" stop-color="#363f98" stop-opacity="0.929"/>
      <stop offset="0.581" stop-color="#464a9e" stop-opacity="0.835"/>
      <stop offset="0.694" stop-color="#5c59a6" stop-opacity="0.702"/>
      <stop offset="0.796" stop-color="#796cb0" stop-opacity="0.533"/>
      <stop offset="0.89" stop-color="#9c84bd" stop-opacity="0.322"/>
      <stop offset="0.977" stop-color="#c59fcc" stop-opacity="0.075"/>
      <stop offset="1" stop-color="#d2a8d1" stop-opacity="0"/>
    </radialGradient>
    <radialGradient id="radial-gradient-14" cx="0.076" cy="0.019" r="1.465" xlink:href="#radial-gradient-3"/>
    <radialGradient id="radial-gradient-15" cx="0.353" cy="0.228" r="0.864" gradientTransform="translate(0.037 0) scale(0.895 1)" xlink:href="#radial-gradient-13"/>
    <radialGradient id="radial-gradient-16" cx="0.076" cy="0.019" r="1.465" gradientTransform="translate(0 0)" xlink:href="#radial-gradient-3"/>
    <radialGradient id="radial-gradient-17" cx="0.353" cy="0.228" r="0.864" gradientTransform="translate(0.053) scale(0.895 1)" gradientUnits="objectBoundingBox">
      <stop offset="0" stop-color="#920035"/>
      <stop offset="0.291" stop-color="#930136" stop-opacity="0.984"/>
      <stop offset="0.453" stop-color="#99063b" stop-opacity="0.929"/>
      <stop offset="0.583" stop-color="#a40f44" stop-opacity="0.835"/>
      <stop offset="0.697" stop-color="#b21c51" stop-opacity="0.698"/>
      <stop offset="0.799" stop-color="#c52c61" stop-opacity="0.525"/>
      <stop offset="0.894" stop-color="#dd4075" stop-opacity="0.31"/>
      <stop offset="0.981" stop-color="#f8588d" stop-opacity="0.063"/>
      <stop offset="1" stop-color="#ff5e93" stop-opacity="0"/>
    </radialGradient>
    <radialGradient id="radial-gradient-18" cx="0.076" cy="0.019" r="1.465" xlink:href="#radial-gradient-3"/>
  </defs>
  <g id="Grupo_61940" data-name="Grupo 61940" transform="translate(-335.719 -4524.691)">
    <path id="Trazado_109151" data-name="Trazado 109151" d="M20.719,17V5.625H24.8a5.786,5.786,0,0,1,3.34.8,2.677,2.677,0,0,1,1.145,2.336,2.707,2.707,0,0,1-.406,1.508,2.367,2.367,0,0,1-1.2.922,2.4,2.4,0,0,1,1.367.875,2.544,2.544,0,0,1,.477,1.563,3.012,3.012,0,0,1-1.059,2.512A5.038,5.038,0,0,1,25.336,17Zm2.742-4.836v2.727h1.8a1.709,1.709,0,0,0,1.141-.34,1.189,1.189,0,0,0,.4-.957,1.261,1.261,0,0,0-1.414-1.43Zm0-1.8h1.43a2.031,2.031,0,0,0,1.281-.329,1.168,1.168,0,0,0,.383-.948,1.226,1.226,0,0,0-.414-1.038A2.216,2.216,0,0,0,24.8,7.734H23.461ZM30.586,12.7a4.989,4.989,0,0,1,.492-2.254,3.52,3.52,0,0,1,1.414-1.52,4.259,4.259,0,0,1,2.164-.531,3.887,3.887,0,0,1,2.992,1.176,4.512,4.512,0,0,1,1.094,3.2v.094A4.378,4.378,0,0,1,37.645,16a3.9,3.9,0,0,1-2.973,1.16,3.942,3.942,0,0,1-2.9-1.082,4.232,4.232,0,0,1-1.18-2.934Zm2.633.164a3.145,3.145,0,0,0,.367,1.719,1.223,1.223,0,0,0,1.086.547q1.406,0,1.438-2.164V12.7q0-2.273-1.453-2.273-1.32,0-1.43,1.961Zm11.719,3.227a2.714,2.714,0,0,1-2.258,1.07,2.662,2.662,0,0,1-2.105-.809,3.4,3.4,0,0,1-.715-2.324V8.547h2.633v5.492a.946.946,0,0,0,1.055,1.086,1.376,1.376,0,0,0,1.289-.648V8.547h2.648V17H45.016Zm7.055-9.641v2.1h1.391v1.828H51.992v3.867a.987.987,0,0,0,.172.664.922.922,0,0,0,.68.188,3.862,3.862,0,0,0,.656-.047V16.93a4.859,4.859,0,0,1-1.484.227,2.758,2.758,0,0,1-2.008-.641,2.626,2.626,0,0,1-.648-1.945v-4.2H48.281V8.547h1.078v-2.1ZM57.2,17H54.555V8.547H57.2ZM54.4,6.367a1.175,1.175,0,0,1,.406-.922,1.727,1.727,0,0,1,2.109,0,1.175,1.175,0,0,1,.406.922,1.175,1.175,0,0,1-.406.922,1.727,1.727,0,0,1-2.109,0A1.175,1.175,0,0,1,54.4,6.367Zm4.086,6.32a5.074,5.074,0,0,1,.875-3.156,2.874,2.874,0,0,1,2.414-1.141,2.454,2.454,0,0,1,2.078,1.063l.188-.906H66.32v11.7H63.68V16.3a2.451,2.451,0,0,1-1.922.859A2.849,2.849,0,0,1,59.371,16,5.357,5.357,0,0,1,58.484,12.688Zm2.633.164q0,2.273,1.313,2.273a1.271,1.271,0,0,0,1.25-.687V11.094a1.244,1.244,0,0,0-1.234-.672q-1.227,0-1.32,1.961Zm11.727,3.234a2.714,2.714,0,0,1-2.258,1.07,2.662,2.662,0,0,1-2.105-.809,3.4,3.4,0,0,1-.715-2.324V8.547H70.4v5.492a.946.946,0,0,0,1.055,1.086,1.376,1.376,0,0,0,1.289-.648V8.547h2.648V17H72.922Zm8.078,1.07A4.345,4.345,0,0,1,77.773,16a4.006,4.006,0,0,1-1.2-3.02v-.219a5.191,5.191,0,0,1,.48-2.289,3.516,3.516,0,0,1,1.4-1.535,4.233,4.233,0,0,1,2.188-.543A3.659,3.659,0,0,1,83.453,9.5a4.344,4.344,0,0,1,1.031,3.082V13.6H79.25a1.9,1.9,0,0,0,.617,1.117,1.836,1.836,0,0,0,1.234.406,2.366,2.366,0,0,0,1.953-.875l1.2,1.422a3.363,3.363,0,0,1-1.395,1.082A4.713,4.713,0,0,1,80.922,17.156Zm-.3-6.734q-1.156,0-1.375,1.531h2.656v-.2a1.3,1.3,0,0,0-.32-.98A1.275,1.275,0,0,0,80.625,10.422Zm9.344,4.2a.608.608,0,0,0-.352-.539,5.348,5.348,0,0,0-1.336-.422,6.092,6.092,0,0,1-1.625-.574,2.722,2.722,0,0,1-.977-.863,2.061,2.061,0,0,1-.336-1.164A2.336,2.336,0,0,1,86.3,9.145a3.958,3.958,0,0,1,2.516-.754,4.386,4.386,0,0,1,2.688.758,2.37,2.37,0,0,1,1.016,1.992H89.883q0-1.016-1.07-1.016a1.061,1.061,0,0,0-.7.23.714.714,0,0,0-.281.574.655.655,0,0,0,.344.57,3.248,3.248,0,0,0,1.1.359A9.486,9.486,0,0,1,90.6,12.2a2.406,2.406,0,0,1,1.906,2.352A2.214,2.214,0,0,1,91.48,16.43a4.505,4.505,0,0,1-2.66.727,4.6,4.6,0,0,1-1.937-.391A3.24,3.24,0,0,1,85.555,15.7a2.406,2.406,0,0,1-.477-1.414h2.461a1.017,1.017,0,0,0,.391.855,1.607,1.607,0,0,0,.961.27A1.264,1.264,0,0,0,89.7,15.2.7.7,0,0,0,89.969,14.625Z" transform="translate(315 4803)" fill="#12263f"/>
    <path id="Trazado_109149" data-name="Trazado 109149" d="M19.6,12.172H15.289v2.719h5.094V17H12.547V5.625H20.4V7.742H15.289v2.4H19.6Zm6.2,2.453a.608.608,0,0,0-.352-.539,5.348,5.348,0,0,0-1.336-.422,6.092,6.092,0,0,1-1.625-.574,2.722,2.722,0,0,1-.977-.863,2.061,2.061,0,0,1-.336-1.164,2.336,2.336,0,0,1,.961-1.918,3.958,3.958,0,0,1,2.516-.754,4.386,4.386,0,0,1,2.688.758,2.37,2.37,0,0,1,1.016,1.992H25.719q0-1.016-1.07-1.016a1.061,1.061,0,0,0-.7.23.714.714,0,0,0-.281.574.655.655,0,0,0,.344.57,3.248,3.248,0,0,0,1.1.359,9.486,9.486,0,0,1,1.324.336,2.406,2.406,0,0,1,1.906,2.352,2.214,2.214,0,0,1-1.027,1.883,4.505,4.505,0,0,1-2.66.727,4.6,4.6,0,0,1-1.937-.391A3.24,3.24,0,0,1,21.391,15.7a2.406,2.406,0,0,1-.477-1.414h2.461a1.017,1.017,0,0,0,.391.855,1.607,1.607,0,0,0,.961.27,1.264,1.264,0,0,0,.809-.219A.7.7,0,0,0,25.8,14.625Zm6.836-8.18v2.1h1.391v1.828H32.641v3.867a.987.987,0,0,0,.172.664.922.922,0,0,0,.68.188,3.862,3.862,0,0,0,.656-.047V16.93a4.859,4.859,0,0,1-1.484.227,2.758,2.758,0,0,1-2.008-.641,2.626,2.626,0,0,1-.648-1.945v-4.2H28.93V8.547h1.078v-2.1ZM39.828,17a2.973,2.973,0,0,1-.25-.758,2.448,2.448,0,0,1-2.031.914,3,3,0,0,1-2.031-.723,2.3,2.3,0,0,1-.836-1.816A2.364,2.364,0,0,1,35.7,12.539a5.174,5.174,0,0,1,2.953-.7h.813v-.448q0-1.17-1.008-1.17a.824.824,0,0,0-.937.926H34.883a2.36,2.36,0,0,1,1.043-1.99,4.383,4.383,0,0,1,2.66-.765,3.843,3.843,0,0,1,2.555.789,2.743,2.743,0,0,1,.961,2.164v3.742a3.832,3.832,0,0,0,.359,1.781V17ZM38.18,15.281A1.469,1.469,0,0,0,39,15.07a1.322,1.322,0,0,0,.465-.477V13.242H38.7q-1.375,0-1.375,1.234a.754.754,0,0,0,.242.582A.876.876,0,0,0,38.18,15.281Zm13.227-2.437a5.152,5.152,0,0,1-.859,3.2,2.878,2.878,0,0,1-2.422,1.117,2.5,2.5,0,0,1-2.078-1.023L45.938,17H43.578V5h2.633V9.227a2.41,2.41,0,0,1,1.9-.836,2.879,2.879,0,0,1,2.438,1.133,5.179,5.179,0,0,1,.859,3.188Zm-2.641-.168a3.437,3.437,0,0,0-.324-1.735,1.093,1.093,0,0,0-1-.519,1.261,1.261,0,0,0-1.234.679v3.354a1.268,1.268,0,0,0,1.25.671,1.118,1.118,0,0,0,1.18-.9A6.5,6.5,0,0,0,48.766,12.676ZM55.344,17H52.7V5h2.641Zm5.711.156A4.345,4.345,0,0,1,57.906,16a4.006,4.006,0,0,1-1.2-3.02v-.219a5.191,5.191,0,0,1,.48-2.289,3.516,3.516,0,0,1,1.4-1.535,4.233,4.233,0,0,1,2.188-.543A3.659,3.659,0,0,1,63.586,9.5a4.344,4.344,0,0,1,1.031,3.082V13.6H59.383A1.9,1.9,0,0,0,60,14.719a1.836,1.836,0,0,0,1.234.406,2.366,2.366,0,0,0,1.953-.875l1.2,1.422A3.363,3.363,0,0,1,63,16.754,4.713,4.713,0,0,1,61.055,17.156Zm-.3-6.734q-1.156,0-1.375,1.531h2.656v-.2a1.3,1.3,0,0,0-.32-.98A1.275,1.275,0,0,0,60.758,10.422Zm8.492,4.7a1.171,1.171,0,0,0,.859-.3,1.1,1.1,0,0,0,.3-.84h2.469a2.922,2.922,0,0,1-1,2.281,3.705,3.705,0,0,1-2.566.891A3.751,3.751,0,0,1,66.406,16a4.556,4.556,0,0,1-1.062-3.2v-.109a5.149,5.149,0,0,1,.473-2.262A3.441,3.441,0,0,1,67.18,8.918a4.065,4.065,0,0,1,2.109-.527,3.658,3.658,0,0,1,2.617.914,3.242,3.242,0,0,1,.969,2.477H70.406a1.445,1.445,0,0,0-.32-1.008,1.106,1.106,0,0,0-.859-.352q-1.023,0-1.2,1.3a9.206,9.206,0,0,0-.055,1.141,3.616,3.616,0,0,0,.3,1.766A1.055,1.055,0,0,0,69.25,15.125ZM76.766,17H74.125V8.547h2.641Zm-2.8-10.633a1.175,1.175,0,0,1,.406-.922,1.727,1.727,0,0,1,2.109,0,1.175,1.175,0,0,1,.406.922,1.175,1.175,0,0,1-.406.922,1.727,1.727,0,0,1-2.109,0A1.175,1.175,0,0,1,73.969,6.367Zm6.906,2.18.086.992a2.906,2.906,0,0,1,2.414-1.148,2.14,2.14,0,0,1,2.164,1.273,2.813,2.813,0,0,1,2.484-1.273q2.57,0,2.641,3.109V17H88.023V11.664a1.611,1.611,0,0,0-.219-.945.931.931,0,0,0-.8-.3,1.247,1.247,0,0,0-1.164.7l.008.109V17H83.211V11.68A1.694,1.694,0,0,0,83,10.719a.928.928,0,0,0-.8-.3,1.263,1.263,0,0,0-1.156.7V17H78.406V8.547ZM94.945,17H92.3V8.547h2.641Zm-2.8-10.633a1.175,1.175,0,0,1,.406-.922,1.727,1.727,0,0,1,2.109,0,1.175,1.175,0,0,1,.406.922,1.175,1.175,0,0,1-.406.922,1.727,1.727,0,0,1-2.109,0A1.175,1.175,0,0,1,92.148,6.367Zm8.508,10.789A4.345,4.345,0,0,1,97.508,16a4.006,4.006,0,0,1-1.2-3.02v-.219a5.191,5.191,0,0,1,.48-2.289,3.516,3.516,0,0,1,1.4-1.535,4.233,4.233,0,0,1,2.188-.543A3.659,3.659,0,0,1,103.188,9.5a4.344,4.344,0,0,1,1.031,3.082V13.6H98.984a1.9,1.9,0,0,0,.617,1.117,1.836,1.836,0,0,0,1.234.406,2.366,2.366,0,0,0,1.953-.875l1.2,1.422a3.363,3.363,0,0,1-1.395,1.082A4.713,4.713,0,0,1,100.656,17.156Zm-.3-6.734q-1.156,0-1.375,1.531h2.656v-.2a1.3,1.3,0,0,0-.32-.98A1.275,1.275,0,0,0,100.359,10.422ZM107.7,8.547l.086.992A2.867,2.867,0,0,1,110.2,8.391a2.412,2.412,0,0,1,1.973.789,3.757,3.757,0,0,1,.676,2.375V17H110.2V11.664a1.426,1.426,0,0,0-.258-.941,1.193,1.193,0,0,0-.937-.3,1.256,1.256,0,0,0-1.148.609V17h-2.633V8.547Zm9.672-2.1v2.1h1.391v1.828h-1.391v3.867a.987.987,0,0,0,.172.664.922.922,0,0,0,.68.188,3.862,3.862,0,0,0,.656-.047V16.93a4.859,4.859,0,0,1-1.484.227,2.758,2.758,0,0,1-2.008-.641,2.626,2.626,0,0,1-.648-1.945v-4.2h-1.078V8.547h1.078v-2.1Zm1.859,6.25a4.989,4.989,0,0,1,.492-2.254,3.52,3.52,0,0,1,1.414-1.52,4.259,4.259,0,0,1,2.164-.531,3.887,3.887,0,0,1,2.992,1.176,4.512,4.512,0,0,1,1.094,3.2v.094a4.378,4.378,0,0,1-1.1,3.137,3.9,3.9,0,0,1-2.973,1.16,3.942,3.942,0,0,1-2.9-1.082,4.232,4.232,0,0,1-1.18-2.934Zm2.633.164a3.145,3.145,0,0,0,.367,1.719,1.223,1.223,0,0,0,1.086.547q1.406,0,1.438-2.164V12.7q0-2.273-1.453-2.273-1.32,0-1.43,1.961Zm11.109,1.766a.608.608,0,0,0-.352-.539,5.348,5.348,0,0,0-1.336-.422,6.092,6.092,0,0,1-1.625-.574,2.722,2.722,0,0,1-.977-.863,2.061,2.061,0,0,1-.336-1.164,2.336,2.336,0,0,1,.961-1.918,3.958,3.958,0,0,1,2.516-.754,4.386,4.386,0,0,1,2.688.758,2.37,2.37,0,0,1,1.016,1.992h-2.641q0-1.016-1.07-1.016a1.061,1.061,0,0,0-.7.23.714.714,0,0,0-.281.574.655.655,0,0,0,.344.57,3.248,3.248,0,0,0,1.1.359,9.485,9.485,0,0,1,1.324.336,2.406,2.406,0,0,1,1.906,2.352,2.214,2.214,0,0,1-1.027,1.883,4.505,4.505,0,0,1-2.66.727,4.6,4.6,0,0,1-1.937-.391,3.24,3.24,0,0,1-1.328-1.062,2.406,2.406,0,0,1-.477-1.414h2.461a1.017,1.017,0,0,0,.391.855,1.607,1.607,0,0,0,.961.27,1.264,1.264,0,0,0,.809-.219A.7.7,0,0,0,132.969,14.625ZM33.3,37.156A4.345,4.345,0,0,1,30.148,36a4.006,4.006,0,0,1-1.2-3.02v-.219a5.191,5.191,0,0,1,.48-2.289,3.516,3.516,0,0,1,1.4-1.535,4.233,4.233,0,0,1,2.188-.543A3.659,3.659,0,0,1,35.828,29.5a4.344,4.344,0,0,1,1.031,3.082V33.6H31.625a1.9,1.9,0,0,0,.617,1.117,1.836,1.836,0,0,0,1.234.406,2.366,2.366,0,0,0,1.953-.875l1.2,1.422a3.363,3.363,0,0,1-1.395,1.082A4.713,4.713,0,0,1,33.3,37.156ZM33,30.422q-1.156,0-1.375,1.531h2.656v-.2a1.3,1.3,0,0,0-.32-.98A1.275,1.275,0,0,0,33,30.422Zm9.344,4.2a.608.608,0,0,0-.352-.539,5.347,5.347,0,0,0-1.336-.422,6.092,6.092,0,0,1-1.625-.574,2.722,2.722,0,0,1-.977-.863,2.061,2.061,0,0,1-.336-1.164,2.336,2.336,0,0,1,.961-1.918,3.958,3.958,0,0,1,2.516-.754,4.386,4.386,0,0,1,2.688.758A2.37,2.37,0,0,1,44.9,31.141H42.258q0-1.016-1.07-1.016a1.061,1.061,0,0,0-.7.23.714.714,0,0,0-.281.574.655.655,0,0,0,.344.57,3.248,3.248,0,0,0,1.1.359,9.486,9.486,0,0,1,1.324.336,2.406,2.406,0,0,1,1.906,2.352,2.214,2.214,0,0,1-1.027,1.883,4.505,4.505,0,0,1-2.66.727,4.6,4.6,0,0,1-1.937-.391A3.24,3.24,0,0,1,37.93,35.7a2.406,2.406,0,0,1-.477-1.414h2.461a1.017,1.017,0,0,0,.391.855,1.607,1.607,0,0,0,.961.27,1.264,1.264,0,0,0,.809-.219A.7.7,0,0,0,42.344,34.625Zm11.617-1.789a5.1,5.1,0,0,1-.887,3.145,2.843,2.843,0,0,1-2.395,1.176,2.437,2.437,0,0,1-1.914-.852V40.25H46.133v-11.7h2.461l.078.781a2.437,2.437,0,0,1,1.992-.937,2.866,2.866,0,0,1,2.43,1.152,5.16,5.16,0,0,1,.867,3.168Zm-2.633-.164q0-2.25-1.312-2.25a1.239,1.239,0,0,0-1.25.672v3.328a1.279,1.279,0,0,0,1.266.7q1.258,0,1.3-2.172Zm7.883,4.484A4.345,4.345,0,0,1,56.063,36a4.006,4.006,0,0,1-1.2-3.02v-.219a5.191,5.191,0,0,1,.48-2.289,3.516,3.516,0,0,1,1.4-1.535,4.233,4.233,0,0,1,2.188-.543A3.659,3.659,0,0,1,61.742,29.5a4.344,4.344,0,0,1,1.031,3.082V33.6H57.539a1.9,1.9,0,0,0,.617,1.117,1.836,1.836,0,0,0,1.234.406,2.366,2.366,0,0,0,1.953-.875l1.2,1.422a3.363,3.363,0,0,1-1.395,1.082A4.713,4.713,0,0,1,59.211,37.156Zm-.3-6.734q-1.156,0-1.375,1.531H60.2v-.2a1.3,1.3,0,0,0-.32-.98A1.275,1.275,0,0,0,58.914,30.422Zm8.492,4.7a1.171,1.171,0,0,0,.859-.3,1.1,1.1,0,0,0,.3-.84h2.469a2.923,2.923,0,0,1-1,2.281,3.705,3.705,0,0,1-2.566.891A3.751,3.751,0,0,1,64.563,36,4.556,4.556,0,0,1,63.5,32.8v-.109a5.149,5.149,0,0,1,.473-2.262,3.441,3.441,0,0,1,1.363-1.508,4.065,4.065,0,0,1,2.109-.527,3.658,3.658,0,0,1,2.617.914,3.242,3.242,0,0,1,.969,2.477H68.563a1.445,1.445,0,0,0-.32-1.008,1.106,1.106,0,0,0-.859-.352q-1.023,0-1.2,1.3a9.206,9.206,0,0,0-.055,1.141,3.616,3.616,0,0,0,.3,1.766A1.055,1.055,0,0,0,67.406,35.125ZM74.922,37H72.281V28.547h2.641Zm-2.8-10.633a1.175,1.175,0,0,1,.406-.922,1.727,1.727,0,0,1,2.109,0,1.249,1.249,0,0,1,0,1.844,1.727,1.727,0,0,1-2.109,0A1.175,1.175,0,0,1,72.125,26.367ZM81.3,37a2.973,2.973,0,0,1-.25-.758,2.448,2.448,0,0,1-2.031.914,3,3,0,0,1-2.031-.723,2.3,2.3,0,0,1-.836-1.816,2.364,2.364,0,0,1,1.016-2.078,5.174,5.174,0,0,1,2.953-.7h.813v-.448q0-1.17-1.008-1.17a.824.824,0,0,0-.937.926H76.359a2.36,2.36,0,0,1,1.043-1.99,4.383,4.383,0,0,1,2.66-.765,3.843,3.843,0,0,1,2.555.789,2.743,2.743,0,0,1,.961,2.164v3.742a3.832,3.832,0,0,0,.359,1.781V37Zm-1.648-1.719a1.469,1.469,0,0,0,.816-.211,1.322,1.322,0,0,0,.465-.477V33.242h-.766q-1.375,0-1.375,1.234a.754.754,0,0,0,.242.582A.876.876,0,0,0,79.656,35.281ZM87.813,37H85.172V25h2.641Zm4.4,0H89.57V28.547h2.641Zm-2.8-10.633a1.175,1.175,0,0,1,.406-.922,1.727,1.727,0,0,1,2.109,0,1.249,1.249,0,0,1,0,1.844,1.727,1.727,0,0,1-2.109,0A1.175,1.175,0,0,1,89.414,26.367Zm7.523,8.6h3.852V37h-7.18V35.531l3.75-4.953H93.773V28.547h6.93v1.422ZM106.828,37a2.973,2.973,0,0,1-.25-.758,2.448,2.448,0,0,1-2.031.914,3,3,0,0,1-2.031-.723,2.3,2.3,0,0,1-.836-1.816,2.364,2.364,0,0,1,1.016-2.078,5.174,5.174,0,0,1,2.953-.7h.813v-.448q0-1.17-1.008-1.17a.824.824,0,0,0-.937.926h-2.633a2.36,2.36,0,0,1,1.043-1.99,4.383,4.383,0,0,1,2.66-.765,3.843,3.843,0,0,1,2.555.789,2.743,2.743,0,0,1,.961,2.164v3.742a3.832,3.832,0,0,0,.359,1.781V37Zm-1.648-1.719A1.469,1.469,0,0,0,106,35.07a1.322,1.322,0,0,0,.465-.477V33.242H105.7q-1.375,0-1.375,1.234a.754.754,0,0,0,.242.582A.876.876,0,0,0,105.18,35.281Zm5.047-2.57a5.164,5.164,0,0,1,.867-3.164,2.854,2.854,0,0,1,2.422-1.156,2.428,2.428,0,0,1,1.906.891V25h2.641V37H115.7l-.133-.906a2.493,2.493,0,0,1-2.062,1.063A2.849,2.849,0,0,1,111.109,36,5.327,5.327,0,0,1,110.227,32.711Zm2.633.164q0,2.25,1.313,2.25a1.3,1.3,0,0,0,1.25-.734V31.172a1.261,1.261,0,0,0-1.234-.75q-1.219,0-1.32,1.969Zm6.367-.18a4.989,4.989,0,0,1,.492-2.254,3.52,3.52,0,0,1,1.414-1.52,4.259,4.259,0,0,1,2.164-.531,3.887,3.887,0,0,1,2.992,1.176,4.512,4.512,0,0,1,1.094,3.2v.094a4.378,4.378,0,0,1-1.1,3.137,3.9,3.9,0,0,1-2.973,1.16,3.942,3.942,0,0,1-2.9-1.082,4.232,4.232,0,0,1-1.18-2.934Zm2.633.164a3.145,3.145,0,0,0,.367,1.719,1.223,1.223,0,0,0,1.086.547q1.406,0,1.438-2.164V32.7q0-2.273-1.453-2.273-1.32,0-1.43,1.961Zm11.109,1.766a.608.608,0,0,0-.352-.539,5.347,5.347,0,0,0-1.336-.422,6.092,6.092,0,0,1-1.625-.574,2.722,2.722,0,0,1-.977-.863,2.061,2.061,0,0,1-.336-1.164,2.336,2.336,0,0,1,.961-1.918,3.958,3.958,0,0,1,2.516-.754,4.386,4.386,0,0,1,2.688.758,2.37,2.37,0,0,1,1.016,1.992h-2.641q0-1.016-1.07-1.016a1.061,1.061,0,0,0-.7.23.714.714,0,0,0-.281.574.655.655,0,0,0,.344.57,3.248,3.248,0,0,0,1.1.359,9.485,9.485,0,0,1,1.324.336,2.406,2.406,0,0,1,1.906,2.352,2.214,2.214,0,0,1-1.027,1.883,4.505,4.505,0,0,1-2.66.727,4.6,4.6,0,0,1-1.937-.391,3.24,3.24,0,0,1-1.328-1.062,2.406,2.406,0,0,1-.477-1.414h2.461a1.017,1.017,0,0,0,.391.855,1.607,1.607,0,0,0,.961.27,1.264,1.264,0,0,0,.809-.219A.7.7,0,0,0,132.969,34.625Z" transform="translate(326 4650)" fill="#12263f"/>
    <path id="Trazado_109147" data-name="Trazado 109147" d="M91.016,15.594a4.409,4.409,0,0,1-1.852,1.133,7.986,7.986,0,0,1-2.672.43,4.764,4.764,0,0,1-3.57-1.367,5.534,5.534,0,0,1-1.43-3.8L81.484,11a6.788,6.788,0,0,1,.594-2.934,4.409,4.409,0,0,1,1.7-1.93,4.807,4.807,0,0,1,2.559-.676,5.039,5.039,0,0,1,3.3.973,4.121,4.121,0,0,1,1.371,2.9H88.367a2.157,2.157,0,0,0-.609-1.359A1.966,1.966,0,0,0,86.43,7.57a1.789,1.789,0,0,0-1.594.875,4.672,4.672,0,0,0-.57,2.5v.688a4.574,4.574,0,0,0,.582,2.559,2.059,2.059,0,0,0,1.832.855,2.3,2.3,0,0,0,1.594-.477V12.8H86.367V10.922h4.648ZM97.6,10.93l-.867-.062a1.558,1.558,0,0,0-1.594.781V17H92.508V8.547h2.469l.086,1.086a2.039,2.039,0,0,1,1.852-1.242,2.567,2.567,0,0,1,.734.094ZM103.078,17a2.973,2.973,0,0,1-.25-.758,2.448,2.448,0,0,1-2.031.914,3,3,0,0,1-2.031-.723,2.3,2.3,0,0,1-.836-1.816,2.364,2.364,0,0,1,1.016-2.078,5.174,5.174,0,0,1,2.953-.7h.813v-.448q0-1.17-1.008-1.17a.824.824,0,0,0-.937.926H98.133a2.36,2.36,0,0,1,1.043-1.99,4.383,4.383,0,0,1,2.66-.765,3.843,3.843,0,0,1,2.555.789,2.743,2.743,0,0,1,.961,2.164v3.742a3.832,3.832,0,0,0,.359,1.781V17Zm-1.648-1.719a1.469,1.469,0,0,0,.816-.211,1.322,1.322,0,0,0,.465-.477V13.242h-.766q-1.375,0-1.375,1.234a.754.754,0,0,0,.242.582A.876.876,0,0,0,101.43,15.281Zm7.8-6.734.086.992a2.867,2.867,0,0,1,2.414-1.148,2.412,2.412,0,0,1,1.973.789,3.757,3.757,0,0,1,.676,2.375V17h-2.641V11.664a1.426,1.426,0,0,0-.258-.941,1.193,1.193,0,0,0-.937-.3,1.256,1.256,0,0,0-1.148.609V17h-2.633V8.547Zm6.273,4.164a5.164,5.164,0,0,1,.867-3.164,2.854,2.854,0,0,1,2.422-1.156,2.428,2.428,0,0,1,1.906.891V5h2.641V17h-2.367l-.133-.906a2.493,2.493,0,0,1-2.062,1.063A2.849,2.849,0,0,1,116.383,16,5.327,5.327,0,0,1,115.5,12.711Zm2.633.164q0,2.25,1.313,2.25a1.3,1.3,0,0,0,1.25-.734V11.172a1.261,1.261,0,0,0-1.234-.75q-1.219,0-1.32,1.969Zm10.789,4.281A4.345,4.345,0,0,1,125.773,16a4.006,4.006,0,0,1-1.2-3.02v-.219a5.191,5.191,0,0,1,.48-2.289,3.516,3.516,0,0,1,1.4-1.535,4.233,4.233,0,0,1,2.188-.543A3.659,3.659,0,0,1,131.453,9.5a4.344,4.344,0,0,1,1.031,3.082V13.6H127.25a1.9,1.9,0,0,0,.617,1.117,1.836,1.836,0,0,0,1.234.406,2.366,2.366,0,0,0,1.953-.875l1.2,1.422a3.363,3.363,0,0,1-1.395,1.082A4.713,4.713,0,0,1,128.922,17.156Zm-.3-6.734q-1.156,0-1.375,1.531h2.656v-.2a1.3,1.3,0,0,0-.32-.98A1.275,1.275,0,0,0,128.625,10.422Zm9.344,4.2a.608.608,0,0,0-.352-.539,5.348,5.348,0,0,0-1.336-.422,6.092,6.092,0,0,1-1.625-.574,2.722,2.722,0,0,1-.977-.863,2.061,2.061,0,0,1-.336-1.164,2.336,2.336,0,0,1,.961-1.918,3.958,3.958,0,0,1,2.516-.754,4.386,4.386,0,0,1,2.688.758,2.37,2.37,0,0,1,1.016,1.992h-2.641q0-1.016-1.07-1.016a1.061,1.061,0,0,0-.7.23.714.714,0,0,0-.281.574.655.655,0,0,0,.344.57,3.248,3.248,0,0,0,1.1.359,9.485,9.485,0,0,1,1.324.336,2.406,2.406,0,0,1,1.906,2.352,2.214,2.214,0,0,1-1.027,1.883,4.505,4.505,0,0,1-2.66.727,4.6,4.6,0,0,1-1.937-.391,3.24,3.24,0,0,1-1.328-1.062,2.406,2.406,0,0,1-.477-1.414h2.461a1.017,1.017,0,0,0,.391.855,1.607,1.607,0,0,0,.961.27,1.264,1.264,0,0,0,.809-.219A.7.7,0,0,0,137.969,14.625ZM68.383,37a2.973,2.973,0,0,1-.25-.758,2.448,2.448,0,0,1-2.031.914,3,3,0,0,1-2.031-.723,2.3,2.3,0,0,1-.836-1.816,2.364,2.364,0,0,1,1.016-2.078,5.174,5.174,0,0,1,2.953-.7h.813v-.448q0-1.17-1.008-1.17a.824.824,0,0,0-.937.926H63.438a2.36,2.36,0,0,1,1.043-1.99,4.383,4.383,0,0,1,2.66-.765,3.843,3.843,0,0,1,2.555.789,2.743,2.743,0,0,1,.961,2.164v3.742a3.832,3.832,0,0,0,.359,1.781V37Zm-1.648-1.719a1.469,1.469,0,0,0,.816-.211,1.322,1.322,0,0,0,.465-.477V33.242H67.25q-1.375,0-1.375,1.234a.754.754,0,0,0,.242.582A.876.876,0,0,0,66.734,35.281ZM74.891,37H72.25V25h2.641ZM79,28.547l.086.992A2.906,2.906,0,0,1,81.5,28.391a2.14,2.14,0,0,1,2.164,1.273,2.813,2.813,0,0,1,2.484-1.273q2.57,0,2.641,3.109V37H86.148V31.664a1.611,1.611,0,0,0-.219-.945.931.931,0,0,0-.8-.3,1.247,1.247,0,0,0-1.164.7l.008.109V37H81.336V31.68a1.694,1.694,0,0,0-.211-.961.929.929,0,0,0-.8-.3,1.263,1.263,0,0,0-1.156.7V37H76.531V28.547ZM95.055,37a2.973,2.973,0,0,1-.25-.758,2.448,2.448,0,0,1-2.031.914,3,3,0,0,1-2.031-.723,2.3,2.3,0,0,1-.836-1.816,2.364,2.364,0,0,1,1.016-2.078,5.174,5.174,0,0,1,2.953-.7h.813v-.448q0-1.17-1.008-1.17a.824.824,0,0,0-.937.926H90.109a2.36,2.36,0,0,1,1.043-1.99,4.383,4.383,0,0,1,2.66-.765,3.843,3.843,0,0,1,2.555.789,2.743,2.743,0,0,1,.961,2.164v3.742a3.832,3.832,0,0,0,.359,1.781V37Zm-1.648-1.719a1.469,1.469,0,0,0,.816-.211,1.322,1.322,0,0,0,.465-.477V33.242h-.766q-1.375,0-1.375,1.234a.754.754,0,0,0,.242.582A.876.876,0,0,0,93.406,35.281Zm8.953-.156a1.171,1.171,0,0,0,.859-.3,1.1,1.1,0,0,0,.3-.84h2.469a2.923,2.923,0,0,1-1,2.281,3.705,3.705,0,0,1-2.566.891A3.751,3.751,0,0,1,99.516,36a4.556,4.556,0,0,1-1.062-3.2v-.109a5.149,5.149,0,0,1,.473-2.262,3.441,3.441,0,0,1,1.363-1.508,4.065,4.065,0,0,1,2.109-.527,3.658,3.658,0,0,1,2.617.914,3.242,3.242,0,0,1,.969,2.477h-2.469a1.445,1.445,0,0,0-.32-1.008,1.106,1.106,0,0,0-.859-.352q-1.023,0-1.2,1.3a9.206,9.206,0,0,0-.055,1.141,3.616,3.616,0,0,0,.3,1.766A1.055,1.055,0,0,0,102.359,35.125Zm8.828,2.031A4.345,4.345,0,0,1,108.039,36a4.006,4.006,0,0,1-1.2-3.02v-.219a5.191,5.191,0,0,1,.48-2.289,3.516,3.516,0,0,1,1.4-1.535,4.233,4.233,0,0,1,2.188-.543,3.659,3.659,0,0,1,2.813,1.105,4.344,4.344,0,0,1,1.031,3.082V33.6h-5.234a1.9,1.9,0,0,0,.617,1.117,1.836,1.836,0,0,0,1.234.406,2.366,2.366,0,0,0,1.953-.875l1.2,1.422a3.363,3.363,0,0,1-1.395,1.082A4.713,4.713,0,0,1,111.188,37.156Zm-.3-6.734q-1.156,0-1.375,1.531h2.656v-.2a1.3,1.3,0,0,0-.32-.98A1.275,1.275,0,0,0,110.891,30.422Zm7.336-1.875.086.992a2.867,2.867,0,0,1,2.414-1.148,2.412,2.412,0,0,1,1.973.789,3.757,3.757,0,0,1,.676,2.375V37h-2.641V31.664a1.426,1.426,0,0,0-.258-.941,1.193,1.193,0,0,0-.937-.3,1.256,1.256,0,0,0-1.148.609V37h-2.633V28.547Zm10.7,8.609A4.345,4.345,0,0,1,125.773,36a4.006,4.006,0,0,1-1.2-3.02v-.219a5.191,5.191,0,0,1,.48-2.289,3.516,3.516,0,0,1,1.4-1.535,4.233,4.233,0,0,1,2.188-.543,3.659,3.659,0,0,1,2.813,1.105,4.344,4.344,0,0,1,1.031,3.082V33.6H127.25a1.9,1.9,0,0,0,.617,1.117,1.836,1.836,0,0,0,1.234.406,2.366,2.366,0,0,0,1.953-.875l1.2,1.422a3.363,3.363,0,0,1-1.395,1.082A4.713,4.713,0,0,1,128.922,37.156Zm-.3-6.734q-1.156,0-1.375,1.531h2.656v-.2a1.3,1.3,0,0,0-.32-.98A1.275,1.275,0,0,0,128.625,30.422Zm9.344,4.2a.608.608,0,0,0-.352-.539,5.347,5.347,0,0,0-1.336-.422,6.092,6.092,0,0,1-1.625-.574,2.722,2.722,0,0,1-.977-.863,2.061,2.061,0,0,1-.336-1.164,2.336,2.336,0,0,1,.961-1.918,3.958,3.958,0,0,1,2.516-.754,4.386,4.386,0,0,1,2.688.758,2.37,2.37,0,0,1,1.016,1.992h-2.641q0-1.016-1.07-1.016a1.061,1.061,0,0,0-.7.23.714.714,0,0,0-.281.574.655.655,0,0,0,.344.57,3.248,3.248,0,0,0,1.1.359,9.485,9.485,0,0,1,1.324.336,2.406,2.406,0,0,1,1.906,2.352,2.214,2.214,0,0,1-1.027,1.883,4.505,4.505,0,0,1-2.66.727,4.6,4.6,0,0,1-1.937-.391,3.24,3.24,0,0,1-1.328-1.062,2.406,2.406,0,0,1-.477-1.414h2.461a1.017,1.017,0,0,0,.391.855,1.607,1.607,0,0,0,.961.27,1.264,1.264,0,0,0,.809-.219A.7.7,0,0,0,137.969,34.625Z" transform="translate(590 4530)" fill="#12263f"/>
    <path id="Trazado_109145" data-name="Trazado 109145" d="M9.789,7.742H6.375V17H3.633V7.742H.281V5.625H9.789ZM13.6,17H10.961V8.547H13.6ZM10.8,6.367a1.175,1.175,0,0,1,.406-.922,1.533,1.533,0,0,1,1.055-.359,1.533,1.533,0,0,1,1.055.359,1.175,1.175,0,0,1,.406.922,1.175,1.175,0,0,1-.406.922,1.533,1.533,0,0,1-1.055.359,1.533,1.533,0,0,1-1.055-.359A1.175,1.175,0,0,1,10.8,6.367Zm8.508,10.789A4.345,4.345,0,0,1,16.164,16a4.006,4.006,0,0,1-1.2-3.02v-.219a5.191,5.191,0,0,1,.48-2.289,3.516,3.516,0,0,1,1.4-1.535,4.233,4.233,0,0,1,2.188-.543A3.659,3.659,0,0,1,21.844,9.5a4.344,4.344,0,0,1,1.031,3.082V13.6H17.641a1.9,1.9,0,0,0,.617,1.117,1.836,1.836,0,0,0,1.234.406,2.366,2.366,0,0,0,1.953-.875l1.2,1.422a3.363,3.363,0,0,1-1.395,1.082A4.713,4.713,0,0,1,19.313,17.156Zm-.3-6.734q-1.156,0-1.375,1.531H20.3v-.2a1.3,1.3,0,0,0-.32-.98A1.275,1.275,0,0,0,19.016,10.422Zm7.336-1.875.086.992a2.867,2.867,0,0,1,2.414-1.148,2.412,2.412,0,0,1,1.973.789,3.757,3.757,0,0,1,.676,2.375V17H28.859V11.664a1.426,1.426,0,0,0-.258-.941,1.193,1.193,0,0,0-.937-.3,1.256,1.256,0,0,0-1.148.609V17H23.883V8.547Zm6.273,4.164a5.164,5.164,0,0,1,.867-3.164,2.854,2.854,0,0,1,2.422-1.156,2.428,2.428,0,0,1,1.906.891V5h2.641V17H38.094l-.133-.906A2.493,2.493,0,0,1,35.9,17.156,2.849,2.849,0,0,1,33.508,16,5.327,5.327,0,0,1,32.625,12.711Zm2.633.164q0,2.25,1.313,2.25a1.3,1.3,0,0,0,1.25-.734V11.172a1.261,1.261,0,0,0-1.234-.75q-1.219,0-1.32,1.969ZM46.719,17a2.973,2.973,0,0,1-.25-.758,2.448,2.448,0,0,1-2.031.914,3,3,0,0,1-2.031-.723,2.3,2.3,0,0,1-.836-1.816,2.364,2.364,0,0,1,1.016-2.078,5.174,5.174,0,0,1,2.953-.7h.813v-.448q0-1.17-1.008-1.17a.824.824,0,0,0-.937.926H41.773a2.36,2.36,0,0,1,1.043-1.99,4.383,4.383,0,0,1,2.66-.765,3.843,3.843,0,0,1,2.555.789,2.743,2.743,0,0,1,.961,2.164v3.742a3.832,3.832,0,0,0,.359,1.781V17ZM45.07,15.281a1.469,1.469,0,0,0,.816-.211,1.322,1.322,0,0,0,.465-.477V13.242h-.766q-1.375,0-1.375,1.234a.754.754,0,0,0,.242.582A.876.876,0,0,0,45.07,15.281Zm9.8-.656a.608.608,0,0,0-.352-.539,5.348,5.348,0,0,0-1.336-.422,6.092,6.092,0,0,1-1.625-.574,2.722,2.722,0,0,1-.977-.863,2.061,2.061,0,0,1-.336-1.164,2.336,2.336,0,0,1,.961-1.918,3.958,3.958,0,0,1,2.516-.754,4.386,4.386,0,0,1,2.688.758,2.37,2.37,0,0,1,1.016,1.992H54.789q0-1.016-1.07-1.016a1.061,1.061,0,0,0-.7.23.714.714,0,0,0-.281.574.655.655,0,0,0,.344.57,3.248,3.248,0,0,0,1.1.359,9.485,9.485,0,0,1,1.324.336,2.406,2.406,0,0,1,1.906,2.352,2.214,2.214,0,0,1-1.027,1.883,4.505,4.505,0,0,1-2.66.727,4.6,4.6,0,0,1-1.937-.391A3.24,3.24,0,0,1,50.461,15.7a2.406,2.406,0,0,1-.477-1.414h2.461a1.017,1.017,0,0,0,.391.855,1.607,1.607,0,0,0,.961.27,1.264,1.264,0,0,0,.809-.219A.7.7,0,0,0,54.875,14.625ZM62.3,12.711a5.164,5.164,0,0,1,.867-3.164,2.854,2.854,0,0,1,2.422-1.156,2.428,2.428,0,0,1,1.906.891V5h2.641V17H67.766l-.133-.906a2.493,2.493,0,0,1-2.062,1.063A2.849,2.849,0,0,1,63.18,16,5.327,5.327,0,0,1,62.3,12.711Zm2.633.164q0,2.25,1.313,2.25a1.3,1.3,0,0,0,1.25-.734V11.172a1.261,1.261,0,0,0-1.234-.75q-1.219,0-1.32,1.969Zm10.789,4.281A4.345,4.345,0,0,1,72.57,16a4.006,4.006,0,0,1-1.2-3.02v-.219a5.191,5.191,0,0,1,.48-2.289,3.516,3.516,0,0,1,1.4-1.535,4.233,4.233,0,0,1,2.188-.543A3.659,3.659,0,0,1,78.25,9.5a4.344,4.344,0,0,1,1.031,3.082V13.6H74.047a1.9,1.9,0,0,0,.617,1.117,1.836,1.836,0,0,0,1.234.406,2.366,2.366,0,0,0,1.953-.875l1.2,1.422a3.363,3.363,0,0,1-1.395,1.082A4.713,4.713,0,0,1,75.719,17.156Zm-.3-6.734q-1.156,0-1.375,1.531H76.7v-.2a1.3,1.3,0,0,0-.32-.98A1.275,1.275,0,0,0,75.422,10.422ZM.406,32.711a5.164,5.164,0,0,1,.867-3.164A2.854,2.854,0,0,1,3.7,28.391a2.428,2.428,0,0,1,1.906.891V25H8.242V37H5.875l-.133-.906A2.493,2.493,0,0,1,3.68,37.156,2.849,2.849,0,0,1,1.289,36,5.327,5.327,0,0,1,.406,32.711Zm2.633.164q0,2.25,1.313,2.25a1.3,1.3,0,0,0,1.25-.734V31.172a1.261,1.261,0,0,0-1.234-.75q-1.219,0-1.32,1.969Zm10.789,4.281A4.345,4.345,0,0,1,10.68,36a4.006,4.006,0,0,1-1.2-3.02v-.219a5.191,5.191,0,0,1,.48-2.289,3.516,3.516,0,0,1,1.4-1.535,4.233,4.233,0,0,1,2.188-.543A3.659,3.659,0,0,1,16.359,29.5a4.344,4.344,0,0,1,1.031,3.082V33.6H12.156a1.9,1.9,0,0,0,.617,1.117,1.836,1.836,0,0,0,1.234.406,2.366,2.366,0,0,0,1.953-.875l1.2,1.422a3.363,3.363,0,0,1-1.395,1.082A4.713,4.713,0,0,1,13.828,37.156Zm-.3-6.734q-1.156,0-1.375,1.531h2.656v-.2a1.3,1.3,0,0,0-.32-.98A1.275,1.275,0,0,0,13.531,30.422Zm9.344,4.2a.608.608,0,0,0-.352-.539,5.347,5.347,0,0,0-1.336-.422,6.092,6.092,0,0,1-1.625-.574,2.722,2.722,0,0,1-.977-.863,2.061,2.061,0,0,1-.336-1.164,2.336,2.336,0,0,1,.961-1.918,3.958,3.958,0,0,1,2.516-.754,4.386,4.386,0,0,1,2.688.758,2.37,2.37,0,0,1,1.016,1.992H22.789q0-1.016-1.07-1.016a1.061,1.061,0,0,0-.7.23.714.714,0,0,0-.281.574.655.655,0,0,0,.344.57,3.248,3.248,0,0,0,1.1.359,9.486,9.486,0,0,1,1.324.336,2.406,2.406,0,0,1,1.906,2.352,2.214,2.214,0,0,1-1.027,1.883,4.505,4.505,0,0,1-2.66.727,4.6,4.6,0,0,1-1.937-.391A3.24,3.24,0,0,1,18.461,35.7a2.406,2.406,0,0,1-.477-1.414h2.461a1.017,1.017,0,0,0,.391.855,1.607,1.607,0,0,0,.961.27,1.264,1.264,0,0,0,.809-.219A.7.7,0,0,0,22.875,34.625Zm7.344.5a1.171,1.171,0,0,0,.859-.3,1.1,1.1,0,0,0,.3-.84h2.469a2.923,2.923,0,0,1-1,2.281,3.705,3.705,0,0,1-2.566.891A3.751,3.751,0,0,1,27.375,36a4.556,4.556,0,0,1-1.062-3.2v-.109a5.149,5.149,0,0,1,.473-2.262,3.441,3.441,0,0,1,1.363-1.508,4.065,4.065,0,0,1,2.109-.527,3.658,3.658,0,0,1,2.617.914,3.242,3.242,0,0,1,.969,2.477H31.375a1.445,1.445,0,0,0-.32-1.008,1.106,1.106,0,0,0-.859-.352q-1.023,0-1.2,1.3a9.206,9.206,0,0,0-.055,1.141,3.616,3.616,0,0,0,.3,1.766A1.055,1.055,0,0,0,30.219,35.125Zm9.773.961a2.714,2.714,0,0,1-2.258,1.07,2.662,2.662,0,0,1-2.105-.809,3.4,3.4,0,0,1-.715-2.324V28.547h2.633v5.492A.946.946,0,0,0,38.6,35.125a1.376,1.376,0,0,0,1.289-.648v-5.93h2.648V37H40.07Zm8.078,1.07A4.345,4.345,0,0,1,44.922,36a4.006,4.006,0,0,1-1.2-3.02v-.219a5.191,5.191,0,0,1,.48-2.289,3.516,3.516,0,0,1,1.4-1.535,4.233,4.233,0,0,1,2.188-.543A3.659,3.659,0,0,1,50.6,29.5a4.344,4.344,0,0,1,1.031,3.082V33.6H46.4a1.9,1.9,0,0,0,.617,1.117,1.836,1.836,0,0,0,1.234.406A2.366,2.366,0,0,0,50.2,34.25l1.2,1.422a3.363,3.363,0,0,1-1.395,1.082A4.713,4.713,0,0,1,48.07,37.156Zm-.3-6.734q-1.156,0-1.375,1.531h2.656v-.2a1.3,1.3,0,0,0-.32-.98A1.275,1.275,0,0,0,47.773,30.422Zm7.336-1.875.086.992a2.867,2.867,0,0,1,2.414-1.148,2.412,2.412,0,0,1,1.973.789,3.757,3.757,0,0,1,.676,2.375V37H57.617V31.664a1.426,1.426,0,0,0-.258-.941,1.193,1.193,0,0,0-.937-.3,1.256,1.256,0,0,0-1.148.609V37H52.641V28.547Zm9.672-2.1v2.1h1.391v1.828H64.781v3.867a.987.987,0,0,0,.172.664.922.922,0,0,0,.68.188,3.862,3.862,0,0,0,.656-.047V36.93a4.859,4.859,0,0,1-1.484.227,2.758,2.758,0,0,1-2.008-.641,2.626,2.626,0,0,1-.648-1.945v-4.2H61.07V28.547h1.078v-2.1Zm1.859,6.25a4.989,4.989,0,0,1,.492-2.254,3.52,3.52,0,0,1,1.414-1.52,4.259,4.259,0,0,1,2.164-.531A3.887,3.887,0,0,1,73.7,29.566a4.512,4.512,0,0,1,1.094,3.2v.094A4.378,4.378,0,0,1,73.7,36a3.9,3.9,0,0,1-2.973,1.16,3.942,3.942,0,0,1-2.9-1.082,4.232,4.232,0,0,1-1.18-2.934Zm2.633.164a3.145,3.145,0,0,0,.367,1.719,1.223,1.223,0,0,0,1.086.547q1.406,0,1.438-2.164V32.7q0-2.273-1.453-2.273-1.32,0-1.43,1.961Z" transform="translate(855 4650)" fill="#12263f"/>
    <path id="Trazado_109143" data-name="Trazado 109143" d="M8.023,12.469H3.6V17H.859V5.625H8.469V7.742H3.6v2.617H8.023ZM12.266,17H9.625V5h2.641Zm6.383,0a2.973,2.973,0,0,1-.25-.758,2.448,2.448,0,0,1-2.031.914,3,3,0,0,1-2.031-.723,2.3,2.3,0,0,1-.836-1.816,2.364,2.364,0,0,1,1.016-2.078,5.174,5.174,0,0,1,2.953-.7h.813v-.448q0-1.17-1.008-1.17a.824.824,0,0,0-.937.926H13.7a2.36,2.36,0,0,1,1.043-1.99,4.383,4.383,0,0,1,2.66-.765,3.843,3.843,0,0,1,2.555.789,2.743,2.743,0,0,1,.961,2.164v3.742a3.832,3.832,0,0,0,.359,1.781V17ZM17,15.281a1.469,1.469,0,0,0,.816-.211,1.322,1.322,0,0,0,.465-.477V13.242h-.766q-1.375,0-1.375,1.234a.754.754,0,0,0,.242.582A.876.876,0,0,0,17,15.281Zm5.07-2.57a5.708,5.708,0,0,1,.422-2.266A3.4,3.4,0,0,1,23.7,8.926a3.192,3.192,0,0,1,1.836-.535,2.538,2.538,0,0,1,2.063.891l.094-.734h2.391V16.68a3.564,3.564,0,0,1-.52,1.941,3.334,3.334,0,0,1-1.5,1.266,5.528,5.528,0,0,1-2.281.441,4.769,4.769,0,0,1-1.8-.352,3.251,3.251,0,0,1-1.332-.914l1.1-1.547a2.414,2.414,0,0,0,1.938.867,1.568,1.568,0,0,0,1.75-1.8V16.32a2.472,2.472,0,0,1-1.914.836,3.055,3.055,0,0,1-2.5-1.184A4.9,4.9,0,0,1,22.07,12.8Zm2.641.164A3.007,3.007,0,0,0,25.1,14.52a1.232,1.232,0,0,0,1.094.605,1.4,1.4,0,0,0,1.242-.57V11a1.363,1.363,0,0,0-1.227-.578,1.241,1.241,0,0,0-1.1.629A3.429,3.429,0,0,0,24.711,12.875Zm11.3,1.75a.608.608,0,0,0-.352-.539,5.348,5.348,0,0,0-1.336-.422A6.092,6.092,0,0,1,32.7,13.09a2.722,2.722,0,0,1-.977-.863,2.061,2.061,0,0,1-.336-1.164,2.336,2.336,0,0,1,.961-1.918,3.958,3.958,0,0,1,2.516-.754,4.386,4.386,0,0,1,2.688.758,2.37,2.37,0,0,1,1.016,1.992H35.922q0-1.016-1.07-1.016a1.061,1.061,0,0,0-.7.23.714.714,0,0,0-.281.574.655.655,0,0,0,.344.57,3.248,3.248,0,0,0,1.1.359,9.485,9.485,0,0,1,1.324.336,2.406,2.406,0,0,1,1.906,2.352A2.214,2.214,0,0,1,37.52,16.43a4.505,4.505,0,0,1-2.66.727,4.6,4.6,0,0,1-1.937-.391A3.24,3.24,0,0,1,31.594,15.7a2.406,2.406,0,0,1-.477-1.414h2.461a1.017,1.017,0,0,0,.391.855,1.607,1.607,0,0,0,.961.27,1.264,1.264,0,0,0,.809-.219A.7.7,0,0,0,36.008,14.625Zm6.344-5.172a2.89,2.89,0,0,1,4.266-.234,3.721,3.721,0,0,1,.727,2.445V17H44.7V11.727a1.488,1.488,0,0,0-.273-.988,1.175,1.175,0,0,0-.93-.316,1.266,1.266,0,0,0-1.148.516V17H39.719V5h2.633ZM51.586,17H48.945V8.547h2.641Zm-2.8-10.633a1.175,1.175,0,0,1,.406-.922,1.727,1.727,0,0,1,2.109,0,1.175,1.175,0,0,1,.406.922,1.175,1.175,0,0,1-.406.922,1.727,1.727,0,0,1-2.109,0A1.175,1.175,0,0,1,48.789,6.367Zm12.266,6.469a5.1,5.1,0,0,1-.887,3.145,2.843,2.843,0,0,1-2.395,1.176,2.437,2.437,0,0,1-1.914-.852V20.25H53.227V8.547h2.461l.078.781a2.437,2.437,0,0,1,1.992-.937,2.866,2.866,0,0,1,2.43,1.152,5.16,5.16,0,0,1,.867,3.168Zm-2.633-.164q0-2.25-1.312-2.25a1.239,1.239,0,0,0-1.25.672v3.328a1.279,1.279,0,0,0,1.266.7q1.258,0,1.3-2.172Zm12.2,1.953a.608.608,0,0,0-.352-.539,5.348,5.348,0,0,0-1.336-.422,6.092,6.092,0,0,1-1.625-.574,2.722,2.722,0,0,1-.977-.863A2.061,2.061,0,0,1,66,11.063a2.336,2.336,0,0,1,.961-1.918,3.958,3.958,0,0,1,2.516-.754,4.386,4.386,0,0,1,2.688.758,2.37,2.37,0,0,1,1.016,1.992H70.539q0-1.016-1.07-1.016a1.061,1.061,0,0,0-.7.23.714.714,0,0,0-.281.574.655.655,0,0,0,.344.57,3.248,3.248,0,0,0,1.1.359,9.486,9.486,0,0,1,1.324.336,2.406,2.406,0,0,1,1.906,2.352,2.214,2.214,0,0,1-1.027,1.883,4.505,4.505,0,0,1-2.66.727,4.6,4.6,0,0,1-1.937-.391A3.24,3.24,0,0,1,66.211,15.7a2.406,2.406,0,0,1-.477-1.414H68.2a1.017,1.017,0,0,0,.391.855,1.607,1.607,0,0,0,.961.27,1.264,1.264,0,0,0,.809-.219A.7.7,0,0,0,70.625,14.625Zm6.836-8.18v2.1h1.391v1.828H77.461v3.867a.987.987,0,0,0,.172.664.922.922,0,0,0,.68.188,3.862,3.862,0,0,0,.656-.047V16.93a4.859,4.859,0,0,1-1.484.227,2.758,2.758,0,0,1-2.008-.641,2.626,2.626,0,0,1-.648-1.945v-4.2H73.75V8.547h1.078v-2.1ZM79.32,12.7a4.989,4.989,0,0,1,.492-2.254,3.52,3.52,0,0,1,1.414-1.52,4.259,4.259,0,0,1,2.164-.531,3.887,3.887,0,0,1,2.992,1.176,4.512,4.512,0,0,1,1.094,3.2v.094A4.378,4.378,0,0,1,86.379,16a3.9,3.9,0,0,1-2.973,1.16,3.942,3.942,0,0,1-2.9-1.082,4.232,4.232,0,0,1-1.18-2.934Zm2.633.164a3.145,3.145,0,0,0,.367,1.719,1.223,1.223,0,0,0,1.086.547q1.406,0,1.438-2.164V12.7q0-2.273-1.453-2.273-1.32,0-1.43,1.961Zm11.8-1.93-.867-.062a1.558,1.558,0,0,0-1.594.781V17H88.656V8.547h2.469l.086,1.086a2.039,2.039,0,0,1,1.852-1.242,2.567,2.567,0,0,1,.734.094Zm5.039,6.227A4.345,4.345,0,0,1,95.641,16a4.006,4.006,0,0,1-1.2-3.02v-.219a5.191,5.191,0,0,1,.48-2.289,3.516,3.516,0,0,1,1.4-1.535,4.233,4.233,0,0,1,2.188-.543A3.659,3.659,0,0,1,101.32,9.5a4.344,4.344,0,0,1,1.031,3.082V13.6H97.117a1.9,1.9,0,0,0,.617,1.117,1.836,1.836,0,0,0,1.234.406,2.366,2.366,0,0,0,1.953-.875l1.2,1.422a3.363,3.363,0,0,1-1.395,1.082A4.713,4.713,0,0,1,98.789,17.156Zm-.3-6.734q-1.156,0-1.375,1.531h2.656v-.2a1.3,1.3,0,0,0-.32-.98A1.275,1.275,0,0,0,98.492,10.422Zm9.344,4.2a.608.608,0,0,0-.352-.539,5.348,5.348,0,0,0-1.336-.422,6.092,6.092,0,0,1-1.625-.574,2.722,2.722,0,0,1-.977-.863,2.061,2.061,0,0,1-.336-1.164,2.336,2.336,0,0,1,.961-1.918,3.958,3.958,0,0,1,2.516-.754,4.386,4.386,0,0,1,2.688.758,2.37,2.37,0,0,1,1.016,1.992H107.75q0-1.016-1.07-1.016a1.061,1.061,0,0,0-.7.23.714.714,0,0,0-.281.574.655.655,0,0,0,.344.57,3.248,3.248,0,0,0,1.1.359,9.486,9.486,0,0,1,1.324.336,2.406,2.406,0,0,1,1.906,2.352,2.214,2.214,0,0,1-1.027,1.883,4.505,4.505,0,0,1-2.66.727,4.6,4.6,0,0,1-1.937-.391,3.24,3.24,0,0,1-1.328-1.062,2.406,2.406,0,0,1-.477-1.414h2.461a1.017,1.017,0,0,0,.391.855,1.607,1.607,0,0,0,.961.27,1.264,1.264,0,0,0,.809-.219A.7.7,0,0,0,107.836,14.625Z" transform="translate(916 4805)" fill="#12263f"/>
    <g id="Grupo_59370" data-name="Grupo 59370" transform="translate(-148.178 4323.688)">
      <g id="Grupo_59335" data-name="Grupo 59335" transform="translate(708.619 391.942)">
        <g id="Grupo_59334" data-name="Grupo 59334">
          <path id="Trazado_107593" data-name="Trazado 107593" d="M848.713,431.661A101.363,101.363,0,1,0,747.348,533.024,100.979,100.979,0,0,0,848.713,431.661Z" transform="translate(-648.569 -333.12)" fill="url(#radial-gradient)"/>
          <path id="Trazado_107594" data-name="Trazado 107594" d="M672.837,459.5l47.233,47.234q4.177.344,8.45.35A101.363,101.363,0,0,0,829.882,405.725q0-2.411-.112-4.795l-34.386-34.384Z" transform="translate(-629.739 -307.184)" fill="url(#radial-gradient-2)"/>
          <g id="Grupo_59333" data-name="Grupo 59333" transform="translate(21.681 21.471)">
            <g id="Grupo_59331" data-name="Grupo 59331">
              <g id="Grupo_59330" data-name="Grupo 59330">
                <g id="Grupo_59329" data-name="Grupo 59329">
                  <path id="Trazado_107595" data-name="Trazado 107595" d="M815.581,422.614a77.4,77.4,0,1,1-77.4-77.4A77.4,77.4,0,0,1,815.581,422.614Z" transform="translate(-660.777 -345.21)" fill="#fff"/>
                </g>
              </g>
            </g>
            <path id="Trazado_107596" data-name="Trazado 107596" d="M814.718,421.672a77.4,77.4,0,1,0-77.4,77.4A77.1,77.1,0,0,0,814.718,421.672Z" transform="translate(-659.913 -344.268)" fill="url(#radial-gradient-3)"/>
            <g id="Grupo_59332" data-name="Grupo 59332" transform="translate(13.714 43.457)">
              <path id="Trazado_107597" data-name="Trazado 107597" d="M801.763,369.68A77.411,77.411,0,0,1,668.5,446.761,77.165,77.165,0,0,0,801.763,369.68Z" transform="translate(-668.499 -369.68)" fill="#edeef0"/>
            </g>
          </g>
        </g>
      </g>
      <path id="Trazado_107598" data-name="Trazado 107598" d="M760.152,323.527A121.11,121.11,0,1,1,674.516,359a120.316,120.316,0,0,1,85.635-35.472m0-5.31A126.419,126.419,0,1,0,886.571,444.636,126.418,126.418,0,0,0,760.152,318.217Z" transform="translate(48.539 47.258)" fill="#edeef0"/>
      <rect id="Rectángulo_5673" data-name="Rectángulo 5673" width="51.048" height="4.138" transform="translate(932.681 492.067)" fill="#bb83ff"/>
      <path id="Trazado_107599" data-name="Trazado 107599" d="M704.361,318.22v4.644A121.249,121.249,0,0,1,826.619,445.121h4.644a125.887,125.887,0,0,0-126.9-126.9Z" transform="translate(103.341 47.258)" fill="url(#linear-gradient)"/>
      <path id="Trazado_107600" data-name="Trazado 107600" d="M793.2,396.939h0l-8.34-8.326-.005.005a8.615,8.615,0,1,0-12.005,12.318l7.754,7.754v0a8.619,8.619,0,1,0,12.595-11.75Z" transform="translate(154.178 99.704)" fill="url(#radial-gradient-4)" style="mix-blend-mode: multiply;isolation: isolate"/>
      <path id="Trazado_107601" data-name="Trazado 107601" d="M633.673,444.265h4.644a121.268,121.268,0,0,1,121.406-121.4v-4.644a125.907,125.907,0,0,0-126.05,126.048Z" transform="translate(48.492 47.258)" fill="url(#linear-gradient-2)"/>
      <path id="Trazado_107602" data-name="Trazado 107602" d="M772.556,346.15v0l-8.34-8.326-.005.007a8.615,8.615,0,1,0-12.005,12.318l7.754,7.752h0a8.619,8.619,0,1,0,12.6-11.75Z" transform="translate(138.158 60.294)" opacity="0.6" fill="url(#radial-gradient-5)" style="mix-blend-mode: multiply;isolation: isolate"/>
      <path id="Trazado_107603" data-name="Trazado 107603" d="M723.115,325.944l0,0-8.34-8.326-.005.007a8.615,8.615,0,1,0-12.005,12.318l7.754,7.752h0a8.619,8.619,0,1,0,12.595-11.75Z" transform="translate(99.797 44.617)" opacity="0.6" fill="url(#radial-gradient-6)" style="mix-blend-mode: multiply;isolation: isolate"/>
      <path id="Trazado_107604" data-name="Trazado 107604" d="M674.249,346.629h0l-8.34-8.326-.005.005a8.614,8.614,0,1,0-12,12.318l7.752,7.754h0a8.619,8.619,0,1,0,12.595-11.751Z" transform="translate(61.879 60.668)" opacity="0.6" fill="url(#radial-gradient-7)" style="mix-blend-mode: multiply;isolation: isolate"/>
      <g id="Grupo_59336" data-name="Grupo 59336" transform="translate(683.869 367.231)">
        <rect id="Rectángulo_5674" data-name="Rectángulo 5674" width="4.138" height="51.048" transform="translate(0 2.926) rotate(-45)" fill="#feeb8a"/>
        <path id="Trazado_107605" data-name="Trazado 107605" d="M653.453,350.22a8.623,8.623,0,1,1,12.194,0A8.619,8.619,0,0,1,653.453,350.22Z" transform="translate(-621.99 -306.563)" fill="#feeb8a"/>
      </g>
      <circle id="Elipse_4108" data-name="Elipse 4108" cx="8.623" cy="8.623" r="8.623" transform="translate(921.398 489.506) rotate(-22.689)" fill="#bb83ff"/>
      <g id="Grupo_59337" data-name="Grupo 59337" transform="translate(887.39 366.377)">
        <rect id="Rectángulo_5675" data-name="Rectángulo 5675" width="51.048" height="4.139" transform="matrix(0.707, -0.707, 0.707, 0.707, 7.161, 36.097)" fill="#31d9e7"/>
        <path id="Trazado_107606" data-name="Trazado 107606" d="M751.757,337.543a8.625,8.625,0,1,1,0,12.2A8.623,8.623,0,0,1,751.757,337.543Z" transform="translate(-749.232 -306.082)" fill="#31d9e7"/>
      </g>
      <path id="Trazado_107607" data-name="Trazado 107607" d="M653.731,396.939h0l-8.34-8.326-.005.005a8.614,8.614,0,1,0-12,12.318l7.754,7.754v0a8.619,8.619,0,1,0,12.595-11.75Z" transform="translate(45.958 99.704)" fill="url(#radial-gradient-8)" style="mix-blend-mode: multiply;isolation: isolate"/>
      <rect id="Rectángulo_5676" data-name="Rectángulo 5676" width="51.047" height="4.139" transform="translate(633.941 492.066)" fill="#f17781"/>
      <path id="Trazado_107608" data-name="Trazado 107608" d="M639.03,403.055a8.623,8.623,0,1,1,8.624-8.624A8.623,8.623,0,0,1,639.03,403.055Z" transform="translate(45.958 99.704)" fill="#f17781"/>
      <g id="Grupo_59343" data-name="Grupo 59343" transform="translate(630.073 313.369)">
        <path id="Trazado_107609" data-name="Trazado 107609" d="M679.854,326.056A38.245,38.245,0,1,0,641.609,364.3,38.1,38.1,0,0,0,679.854,326.056Z" transform="translate(-604.341 -288.877)" fill="#feeb8a"/>
        <path id="Trazado_107610" data-name="Trazado 107610" d="M613.5,336.56l17.818,17.821q1.577.131,3.19.133a38.246,38.246,0,0,0,38.245-38.245c0-.606-.016-1.209-.043-1.808l-12.973-12.973Z" transform="translate(-597.237 -279.091)" fill="url(#radial-gradient-9)"/>
        <g id="Grupo_59342" data-name="Grupo 59342" transform="translate(8.18 8.102)">
          <g id="Grupo_59340" data-name="Grupo 59340">
            <g id="Grupo_59339" data-name="Grupo 59339">
              <g id="Grupo_59338" data-name="Grupo 59338">
                <path id="Trazado_107611" data-name="Trazado 107611" d="M667.354,322.642a29.2,29.2,0,1,1-29.2-29.2A29.2,29.2,0,0,1,667.354,322.642Z" transform="translate(-608.947 -293.439)" fill="#fff"/>
              </g>
            </g>
          </g>
          <path id="Trazado_107612" data-name="Trazado 107612" d="M667.029,322.287a29.2,29.2,0,1,0-29.2,29.2A29.091,29.091,0,0,0,667.029,322.287Z" transform="translate(-608.622 -293.084)" fill="url(#radial-gradient-10)"/>
          <g id="Grupo_59341" data-name="Grupo 59341" transform="translate(5.173 16.395)">
            <path id="Trazado_107613" data-name="Trazado 107613" d="M662.14,302.671a29.207,29.207,0,0,1-50.28,29.083,29.114,29.114,0,0,0,50.28-29.083Z" transform="translate(-611.86 -302.671)" fill="#d8d9dd"/>
          </g>
        </g>
      </g>
      <g id="Grupo_59349" data-name="Grupo 59349" transform="translate(970.451 453.41)">
        <path id="Trazado_107614" data-name="Trazado 107614" d="M871.142,404.728a38.056,38.056,0,1,0-38.056,38.055A37.916,37.916,0,0,0,871.142,404.728Z" transform="translate(-796.003 -367.732)" fill="#bb83ff"/>
        <path id="Trazado_107615" data-name="Trazado 107615" d="M805.322,415.654l17.733,17.733c1.046.085,2.1.131,3.174.131a38.056,38.056,0,0,0,38.055-38.056q0-.9-.043-1.8l-12.909-12.909Z" transform="translate(-788.772 -357.629)" fill="url(#radial-gradient-11)"/>
        <g id="Grupo_59348" data-name="Grupo 59348" transform="translate(8.51 8.899)">
          <g id="Grupo_59346" data-name="Grupo 59346">
            <g id="Grupo_59345" data-name="Grupo 59345">
              <g id="Grupo_59344" data-name="Grupo 59344">
                <path id="Trazado_107616" data-name="Trazado 107616" d="M858.914,401.8a29.06,29.06,0,1,1-29.06-29.06A29.06,29.06,0,0,1,858.914,401.8Z" transform="translate(-800.795 -372.743)" fill="#fff"/>
              </g>
            </g>
          </g>
          <path id="Trazado_107617" data-name="Trazado 107617" d="M858.59,401.449a29.06,29.06,0,1,0-29.06,29.06A28.943,28.943,0,0,0,858.59,401.449Z" transform="translate(-800.471 -372.389)" fill="url(#radial-gradient-12)"/>
          <g id="Grupo_59347" data-name="Grupo 59347" transform="translate(5.148 16.314)">
            <path id="Trazado_107618" data-name="Trazado 107618" d="M853.725,381.929a29.063,29.063,0,0,1-50.031,28.941,28.918,28.918,0,0,0,52.971-16.195A28.923,28.923,0,0,0,853.725,381.929Z" transform="translate(-803.694 -381.929)" fill="#d8d9dd"/>
          </g>
        </g>
      </g>
      <g id="Grupo_59355" data-name="Grupo 59355" transform="translate(911.913 312.849)">
        <path id="Trazado_107619" data-name="Trazado 107619" d="M838.553,325.763a38.245,38.245,0,1,0-38.245,38.243A38.094,38.094,0,0,0,838.553,325.763Z" transform="translate(-763.041 -288.584)" fill="#31d9e7"/>
        <path id="Trazado_107620" data-name="Trazado 107620" d="M772.2,336.268l17.82,17.82q1.577.131,3.188.133a38.244,38.244,0,0,0,38.245-38.243c0-.607-.016-1.209-.044-1.81L818.432,301.2Z" transform="translate(-755.937 -278.799)" fill="url(#radial-gradient-13)"/>
        <g id="Grupo_59354" data-name="Grupo 59354" transform="translate(8.18 8.102)">
          <g id="Grupo_59352" data-name="Grupo 59352">
            <g id="Grupo_59351" data-name="Grupo 59351">
              <g id="Grupo_59350" data-name="Grupo 59350">
                <path id="Trazado_107621" data-name="Trazado 107621" d="M826.054,322.348a29.2,29.2,0,1,1-29.2-29.2A29.2,29.2,0,0,1,826.054,322.348Z" transform="translate(-767.647 -293.146)" fill="#fff"/>
              </g>
            </g>
          </g>
          <path id="Trazado_107622" data-name="Trazado 107622" d="M825.728,321.992a29.2,29.2,0,1,0-29.2,29.2A29.091,29.091,0,0,0,825.728,321.992Z" transform="translate(-767.321 -292.791)" fill="url(#radial-gradient-14)"/>
          <g id="Grupo_59353" data-name="Grupo 59353" transform="translate(5.173 16.395)">
            <path id="Trazado_107623" data-name="Trazado 107623" d="M820.838,302.378a29.206,29.206,0,0,1-50.278,29.083,29.113,29.113,0,0,0,50.278-29.083Z" transform="translate(-770.56 -302.378)" fill="#d8d9dd"/>
          </g>
        </g>
      </g>
      <g id="Grupo_59363" data-name="Grupo 59363" transform="translate(770.938 257.312)">
        <g id="Grupo_59356" data-name="Grupo 59356" transform="translate(28.653 59.693)">
          <rect id="Rectángulo_5677" data-name="Rectángulo 5677" width="4.139" height="51.048" transform="translate(6.554)" fill="#9d73d8"/>
          <path id="Trazado_107624" data-name="Trazado 107624" d="M699.794,323.436a8.624,8.624,0,1,1,8.624,8.622A8.621,8.621,0,0,1,699.794,323.436Z" transform="translate(-699.794 -272.388)" fill="#9d73d8"/>
        </g>
        <g id="Grupo_59362" data-name="Grupo 59362">
          <path id="Trazado_107625" data-name="Trazado 107625" d="M759.172,294.489a38.245,38.245,0,1,0-38.246,38.245A38.093,38.093,0,0,0,759.172,294.489Z" transform="translate(-683.66 -257.312)" fill="#9d73d8"/>
          <path id="Trazado_107626" data-name="Trazado 107626" d="M692.815,305l17.82,17.82q1.577.131,3.188.133A38.245,38.245,0,0,0,752.069,284.7c0-.606-.016-1.208-.044-1.808l-12.973-12.973Z" transform="translate(-676.556 -247.527)" fill="url(#radial-gradient-15)"/>
          <g id="Grupo_59361" data-name="Grupo 59361" transform="translate(8.178 8.1)">
            <g id="Grupo_59359" data-name="Grupo 59359">
              <g id="Grupo_59358" data-name="Grupo 59358">
                <g id="Grupo_59357" data-name="Grupo 59357">
                  <path id="Trazado_107627" data-name="Trazado 107627" d="M746.672,291.076a29.2,29.2,0,1,1-29.2-29.2A29.2,29.2,0,0,1,746.672,291.076Z" transform="translate(-688.265 -261.873)" fill="#fff"/>
                </g>
              </g>
            </g>
            <path id="Trazado_107628" data-name="Trazado 107628" d="M746.345,290.72a29.2,29.2,0,1,0-29.2,29.2A29.088,29.088,0,0,0,746.345,290.72Z" transform="translate(-687.938 -261.517)" fill="url(#radial-gradient-16)"/>
            <g id="Grupo_59360" data-name="Grupo 59360" transform="translate(5.175 16.395)">
              <path id="Trazado_107629" data-name="Trazado 107629" d="M741.457,271.1a29.207,29.207,0,0,1-50.278,29.084,29.5,29.5,0,0,0,2.905,3.889A29.207,29.207,0,0,0,741.457,271.1Z" transform="translate(-691.179 -271.105)" fill="#d8d9dd"/>
            </g>
          </g>
        </g>
      </g>
      <g id="Grupo_59369" data-name="Grupo 59369" transform="translate(571.178 454.182)">
        <path id="Trazado_107630" data-name="Trazado 107630" d="M646.69,405.346a38.245,38.245,0,1,0-38.245,38.243A38.1,38.1,0,0,0,646.69,405.346Z" transform="translate(-571.178 -368.167)" fill="#f17781"/>
        <path id="Trazado_107631" data-name="Trazado 107631" d="M580.334,415.851l17.82,17.821q1.577.131,3.188.131a38.244,38.244,0,0,0,38.245-38.243c0-.607-.014-1.209-.043-1.81L626.57,380.778Z" transform="translate(-564.074 -358.382)" fill="url(#radial-gradient-17)"/>
        <g id="Grupo_59368" data-name="Grupo 59368" transform="translate(8.18 8.102)">
          <g id="Grupo_59366" data-name="Grupo 59366">
            <g id="Grupo_59365" data-name="Grupo 59365">
              <g id="Grupo_59364" data-name="Grupo 59364">
                <path id="Trazado_107632" data-name="Trazado 107632" d="M634.191,401.932a29.2,29.2,0,1,1-29.2-29.2A29.2,29.2,0,0,1,634.191,401.932Z" transform="translate(-575.784 -372.729)" fill="#fff"/>
              </g>
            </g>
          </g>
          <path id="Trazado_107633" data-name="Trazado 107633" d="M633.865,401.577a29.2,29.2,0,1,0-29.2,29.2A29.086,29.086,0,0,0,633.865,401.577Z" transform="translate(-575.458 -372.374)" fill="url(#radial-gradient-18)"/>
          <g id="Grupo_59367" data-name="Grupo 59367" transform="translate(5.173 16.394)">
            <path id="Trazado_107634" data-name="Trazado 107634" d="M628.977,381.96a29.207,29.207,0,0,1-50.28,29.084,29.114,29.114,0,0,0,50.28-29.084Z" transform="translate(-578.697 -381.96)" fill="#d8d9dd"/>
          </g>
        </g>
      </g>
    </g>
    <path id="Trazado_109142" data-name="Trazado 109142" d="M12.236,9.428H7.969V21H4.541V9.428H.352V6.781H12.236ZM17,21H13.7V10.434H17Zm-3.5-13.291a1.469,1.469,0,0,1,.508-1.152,1.916,1.916,0,0,1,1.318-.449,1.916,1.916,0,0,1,1.318.449,1.469,1.469,0,0,1,.508,1.152,1.469,1.469,0,0,1-.508,1.152,1.916,1.916,0,0,1-1.318.449,1.916,1.916,0,0,1-1.318-.449A1.469,1.469,0,0,1,13.506,7.709Zm15.332,8.086a6.372,6.372,0,0,1-1.108,3.931,3.554,3.554,0,0,1-2.993,1.47,3.046,3.046,0,0,1-2.393-1.064v4.932H19.053V10.434h3.076l.1.977a3.046,3.046,0,0,1,2.49-1.172,3.582,3.582,0,0,1,3.037,1.44,6.45,6.45,0,0,1,1.084,3.96Zm-3.291-.205q0-2.812-1.641-2.812a1.549,1.549,0,0,0-1.562.84v4.16a1.6,1.6,0,0,0,1.582.879q1.572,0,1.621-2.715Zm4.326.029a6.236,6.236,0,0,1,.615-2.817,4.4,4.4,0,0,1,1.768-1.9,5.323,5.323,0,0,1,2.705-.664,4.858,4.858,0,0,1,3.74,1.47,5.64,5.64,0,0,1,1.367,4v.117A5.472,5.472,0,0,1,38.7,19.745,4.871,4.871,0,0,1,34.98,21.2a4.927,4.927,0,0,1-3.623-1.353,5.29,5.29,0,0,1-1.475-3.667Zm3.291.205a3.932,3.932,0,0,0,.459,2.148,1.529,1.529,0,0,0,1.357.684q1.758,0,1.8-2.705v-.332q0-2.842-1.816-2.842-1.65,0-1.787,2.451Zm13.887,2.207a.76.76,0,0,0-.439-.674,6.684,6.684,0,0,0-1.67-.527,7.615,7.615,0,0,1-2.031-.718,3.4,3.4,0,0,1-1.221-1.079,2.577,2.577,0,0,1-.42-1.455,2.92,2.92,0,0,1,1.2-2.4,4.948,4.948,0,0,1,3.145-.942,5.482,5.482,0,0,1,3.359.947,2.962,2.962,0,0,1,1.27,2.49h-3.3q0-1.27-1.338-1.27a1.326,1.326,0,0,0-.869.288.892.892,0,0,0-.352.718.819.819,0,0,0,.43.713,4.06,4.06,0,0,0,1.372.449,11.857,11.857,0,0,1,1.655.42,3.007,3.007,0,0,1,2.383,2.939,2.767,2.767,0,0,1-1.284,2.354,5.632,5.632,0,0,1-3.325.908,5.747,5.747,0,0,1-2.422-.488,4.05,4.05,0,0,1-1.66-1.328,3.007,3.007,0,0,1-.6-1.768h3.076a1.272,1.272,0,0,0,.488,1.069,2.009,2.009,0,0,0,1.2.337,1.58,1.58,0,0,0,1.011-.273A.875.875,0,0,0,47.051,18.031Zm9.277-2.393a6.455,6.455,0,0,1,1.084-3.955,3.568,3.568,0,0,1,3.027-1.445,3.035,3.035,0,0,1,2.383,1.113V6h3.3V21H63.164L63,19.867A3.116,3.116,0,0,1,60.42,21.2a3.562,3.562,0,0,1-2.988-1.445A6.659,6.659,0,0,1,56.328,15.639Zm3.291.205q0,2.813,1.641,2.813a1.62,1.62,0,0,0,1.563-.918V13.715a1.576,1.576,0,0,0-1.543-.937q-1.523,0-1.65,2.461ZM73.105,21.2a5.432,5.432,0,0,1-3.936-1.45,5.008,5.008,0,0,1-1.5-3.774V15.7a6.489,6.489,0,0,1,.6-2.861,4.395,4.395,0,0,1,1.753-1.919,5.292,5.292,0,0,1,2.734-.679A4.574,4.574,0,0,1,76.27,11.62a5.43,5.43,0,0,1,1.289,3.853v1.279H71.016a2.372,2.372,0,0,0,.771,1.4,2.3,2.3,0,0,0,1.543.508,2.958,2.958,0,0,0,2.441-1.094l1.5,1.777a4.2,4.2,0,0,1-1.743,1.353A5.891,5.891,0,0,1,73.105,21.2Zm-.371-8.418q-1.445,0-1.719,1.914h3.32v-.254a1.63,1.63,0,0,0-.4-1.226A1.593,1.593,0,0,0,72.734,12.777Zm16.25,3.193H87.129L86.25,21H82.91L85.371,6.781l5.02.01a5.515,5.515,0,0,1,3.716,1.127A3.505,3.505,0,0,1,95.273,11a4.588,4.588,0,0,1-.889,2.551,5.231,5.231,0,0,1-2.187,1.6l1.914,5.692V21H90.547Zm-1.406-2.637,1.953.02a2.461,2.461,0,0,0,1.392-.392,2.156,2.156,0,0,0,.845-1.072,2.519,2.519,0,0,0,.146-1.317,1.311,1.311,0,0,0-1.387-1.145l-2.266-.01ZM100.771,21.2a4.912,4.912,0,0,1-2.524-.669,4.215,4.215,0,0,1-1.675-1.836,4.933,4.933,0,0,1-.449-2.593l.029-.273A6.477,6.477,0,0,1,97.964,11.7a5.011,5.011,0,0,1,3.794-1.46,4.086,4.086,0,0,1,2.324.689,3.853,3.853,0,0,1,1.416,1.848,5.662,5.662,0,0,1,.293,2.646l-.186,1.34H99.316a2.06,2.06,0,0,0,.469,1.348,1.722,1.722,0,0,0,1.309.547,3.325,3.325,0,0,0,2.51-1.074l1.348,1.782a3.976,3.976,0,0,1-1.665,1.329,5.848,5.848,0,0,1-2.339.5Zm.781-8.418a1.653,1.653,0,0,0-1.187.427,3.588,3.588,0,0,0-.874,1.5h3.213l.059-.282a2.143,2.143,0,0,0,.02-.641A1.131,1.131,0,0,0,101.553,12.777Zm10.654-4.971-.459,2.627h1.689l-.4,2.285h-1.689l-.82,4.854a1.294,1.294,0,0,0,.063.752q.132.254.659.273a7.637,7.637,0,0,0,.84-.049l-.234,2.383a5.192,5.192,0,0,1-1.729.244,2.847,2.847,0,0,1-2.236-.879,3,3,0,0,1-.605-2.334l.859-5.244h-1.309l.391-2.285h1.309l.459-2.627ZM118.9,21a2.865,2.865,0,0,1-.137-.957,3.259,3.259,0,0,1-2.588,1.152,3.184,3.184,0,0,1-2.285-.918,2.759,2.759,0,0,1-.85-2.178,3.1,3.1,0,0,1,1.436-2.642,6.768,6.768,0,0,1,3.789-.923l1.074.02.117-.6.039-.518a.839.839,0,0,0-.889-.918,1.235,1.235,0,0,0-1.3,1.162l-3.223.01a3.061,3.061,0,0,1,.693-1.851,4.109,4.109,0,0,1,1.753-1.211,6.125,6.125,0,0,1,2.358-.4,4.723,4.723,0,0,1,2.1.5,3.133,3.133,0,0,1,1.353,1.318,3.368,3.368,0,0,1,.342,1.948l-.791,4.971-.049.605a2.669,2.669,0,0,0,.186,1.23l-.01.186Zm-1.836-2.129A2.072,2.072,0,0,0,118.789,18l.322-1.7-.83-.01a2.188,2.188,0,0,0-1.328.454,1.722,1.722,0,0,0-.654,1.187.865.865,0,0,0,.151.659A.773.773,0,0,0,117.061,18.871ZM126.719,21H123.5l1.836-10.566h3.223Zm-1.1-13.232a1.49,1.49,0,0,1,.5-1.191,1.806,1.806,0,0,1,1.265-.479,1.864,1.864,0,0,1,1.255.43,1.464,1.464,0,0,1,.522,1.123,1.493,1.493,0,0,1-.5,1.2,1.811,1.811,0,0,1-1.27.474,1.887,1.887,0,0,1-1.245-.425A1.447,1.447,0,0,1,125.615,7.768ZM132.148,21h-3.223l2.6-15h3.223Z" transform="translate(592 4800)" fill="#12263f"/>
    <path id="Trazado_109152" data-name="Trazado 109152" d="M24.094,18.027a8.147,8.147,0,0,1-1.553,5.332,5.366,5.366,0,0,1-4.377,1.875,5.4,5.4,0,0,1-4.406-1.887,8.135,8.135,0,0,1-1.559-5.32V14.91a8.147,8.147,0,0,1,1.553-5.332A5.379,5.379,0,0,1,18.141,7.7,5.381,5.381,0,0,1,22.535,9.59a8.155,8.155,0,0,1,1.559,5.332Zm-3.949-3.621a6.085,6.085,0,0,0-.48-2.748,1.606,1.606,0,0,0-1.523-.908,1.568,1.568,0,0,0-1.482.844,5.733,5.733,0,0,0-.5,2.555v4.359a6.131,6.131,0,0,0,.48,2.795,1.612,1.612,0,0,0,1.523.885,1.59,1.59,0,0,0,1.488-.861,5.853,5.853,0,0,0,.492-2.7ZM34.9,25H30.938V12.391l-3.891,1.137v-3l7.488-2.59H34.9Z" transform="translate(369 4772)" fill="#12263f"/>
    <path id="Trazado_109150" data-name="Trazado 109150" d="M24.094,18.027a8.147,8.147,0,0,1-1.553,5.332,5.366,5.366,0,0,1-4.377,1.875,5.4,5.4,0,0,1-4.406-1.887,8.135,8.135,0,0,1-1.559-5.32V14.91a8.147,8.147,0,0,1,1.553-5.332A5.379,5.379,0,0,1,18.141,7.7,5.381,5.381,0,0,1,22.535,9.59a8.155,8.155,0,0,1,1.559,5.332Zm-3.949-3.621a6.085,6.085,0,0,0-.48-2.748,1.606,1.606,0,0,0-1.523-.908,1.568,1.568,0,0,0-1.482.844,5.733,5.733,0,0,0-.5,2.555v4.359a6.131,6.131,0,0,0,.48,2.795,1.612,1.612,0,0,0,1.523.885,1.59,1.59,0,0,0,1.488-.861,5.853,5.853,0,0,0,.492-2.7ZM38.051,25H26.145V22.422l5.484-5.766q2.027-2.309,2.027-3.668a2.551,2.551,0,0,0-.48-1.676,1.715,1.715,0,0,0-1.395-.574,1.737,1.737,0,0,0-1.465.768,3.155,3.155,0,0,0-.562,1.916H25.793a5.6,5.6,0,0,1,.785-2.9,5.506,5.506,0,0,1,2.18-2.08,6.475,6.475,0,0,1,3.117-.75,6.369,6.369,0,0,1,4.26,1.277,4.56,4.56,0,0,1,1.494,3.668,5.326,5.326,0,0,1-.375,1.963,8.608,8.608,0,0,1-1.166,2,29.372,29.372,0,0,1-2.549,2.807l-2.2,2.543h6.715Z" transform="translate(423 4621)" fill="#12263f"/>
    <path id="Trazado_109148" data-name="Trazado 109148" d="M12.891,18.027a8.147,8.147,0,0,1-1.553,5.332,5.366,5.366,0,0,1-4.377,1.875,5.4,5.4,0,0,1-4.406-1.887A8.135,8.135,0,0,1,1,18.027V14.91A8.147,8.147,0,0,1,2.549,9.578,5.379,5.379,0,0,1,6.938,7.7,5.381,5.381,0,0,1,11.332,9.59a8.155,8.155,0,0,1,1.559,5.332ZM8.941,14.406a6.085,6.085,0,0,0-.48-2.748,1.606,1.606,0,0,0-1.523-.908,1.568,1.568,0,0,0-1.482.844,5.733,5.733,0,0,0-.5,2.555v4.359a6.131,6.131,0,0,0,.48,2.795,1.612,1.612,0,0,0,1.523.885,1.59,1.59,0,0,0,1.488-.861,5.853,5.853,0,0,0,.492-2.7Zm9.609.41h1.863a1.937,1.937,0,0,0,2.215-2.168,1.875,1.875,0,0,0-.527-1.377,2,2,0,0,0-1.488-.533,2.141,2.141,0,0,0-1.365.457,1.394,1.394,0,0,0-.58,1.137H14.719a4.043,4.043,0,0,1,.75-2.4,4.953,4.953,0,0,1,2.08-1.646,7.112,7.112,0,0,1,2.924-.592,6.988,6.988,0,0,1,4.477,1.3,4.324,4.324,0,0,1,1.629,3.574,3.6,3.6,0,0,1-.674,2.08,4.8,4.8,0,0,1-1.963,1.588,4.587,4.587,0,0,1,2.133,1.494,3.935,3.935,0,0,1,.773,2.479,4.4,4.4,0,0,1-1.758,3.656,7.3,7.3,0,0,1-4.617,1.371,7.567,7.567,0,0,1-3.111-.639,4.875,4.875,0,0,1-2.174-1.77,4.6,4.6,0,0,1-.738-2.572h3.973a1.778,1.778,0,0,0,.633,1.359,2.234,2.234,0,0,0,1.559.574,2.34,2.34,0,0,0,1.664-.58,1.939,1.939,0,0,0,.621-1.482,2.267,2.267,0,0,0-.645-1.828,2.694,2.694,0,0,0-1.781-.539H18.551Z" transform="translate(581 4517)" fill="#12263f"/>
    <path id="Trazado_109146" data-name="Trazado 109146" d="M12.891,18.027a8.147,8.147,0,0,1-1.553,5.332,5.366,5.366,0,0,1-4.377,1.875,5.4,5.4,0,0,1-4.406-1.887A8.135,8.135,0,0,1,1,18.027V14.91A8.147,8.147,0,0,1,2.549,9.578,5.379,5.379,0,0,1,6.938,7.7,5.381,5.381,0,0,1,11.332,9.59a8.155,8.155,0,0,1,1.559,5.332ZM8.941,14.406a6.085,6.085,0,0,0-.48-2.748,1.606,1.606,0,0,0-1.523-.908,1.568,1.568,0,0,0-1.482.844,5.733,5.733,0,0,0-.5,2.555v4.359a6.131,6.131,0,0,0,.48,2.795,1.612,1.612,0,0,0,1.523.885,1.59,1.59,0,0,0,1.488-.861,5.853,5.853,0,0,0,.492-2.7Zm16.43,3.926h1.734v3.047H25.371V25H21.422V21.379h-6.6l-.234-2.414L21.422,7.973V7.938h3.949Zm-7.02,0h3.07v-5.25l-.246.4Z" transform="translate(855 4621)" fill="#12263f"/>
    <path id="Trazado_109144" data-name="Trazado 109144" d="M12.891,18.027a8.147,8.147,0,0,1-1.553,5.332,5.366,5.366,0,0,1-4.377,1.875,5.4,5.4,0,0,1-4.406-1.887A8.135,8.135,0,0,1,1,18.027V14.91A8.147,8.147,0,0,1,2.549,9.578,5.379,5.379,0,0,1,6.938,7.7,5.381,5.381,0,0,1,11.332,9.59a8.155,8.155,0,0,1,1.559,5.332ZM8.941,14.406a6.085,6.085,0,0,0-.48-2.748,1.606,1.606,0,0,0-1.523-.908,1.568,1.568,0,0,0-1.482.844,5.733,5.733,0,0,0-.5,2.555v4.359a6.131,6.131,0,0,0,.48,2.795,1.612,1.612,0,0,0,1.523.885,1.59,1.59,0,0,0,1.488-.861,5.853,5.853,0,0,0,.492-2.7Zm6.234,2.259,1.043-8.728h9.973v3.07H19.43L19.043,14.4a4.658,4.658,0,0,1,1.107-.436,5.053,5.053,0,0,1,1.342-.188A5.006,5.006,0,0,1,25.4,15.279,6.066,6.066,0,0,1,26.766,19.5a6.055,6.055,0,0,1-.732,2.971,5.034,5.034,0,0,1-2.057,2.045,6.493,6.493,0,0,1-3.129.715,6.987,6.987,0,0,1-3.012-.662,5.4,5.4,0,0,1-2.2-1.815,4.41,4.41,0,0,1-.785-2.605h3.961a2.24,2.24,0,0,0,.6,1.485,1.9,1.9,0,0,0,1.418.55q1.992,0,1.992-2.947,0-2.725-2.437-2.725a2.432,2.432,0,0,0-2.062.889Z" transform="translate(916 4774)" fill="#12263f"/>
    <g id="Grupo_61174" data-name="Grupo 61174" transform="translate(537.198 4581.68)">
      <path id="Trazado_108464" data-name="Trazado 108464" d="M306.432,222.608h31.142v25.581H306.432Z" transform="translate(0.117 0.758)" fill="#dcbfff"/>
      <path id="Trazado_108465" data-name="Trazado 108465" d="M316.387,229.576h17.8v15.572h-17.8Z" transform="translate(1.283 1.575)" fill="#bb83ff"/>
      <path id="Trazado_108466" data-name="Trazado 108466" d="M337.574,217.19v1.669H306.432V217.19a.555.555,0,0,1,.556-.555h30.029A.555.555,0,0,1,337.574,217.19Z" transform="translate(0.117 0.058)" fill="#f9e478"/>
      <path id="Trazado_108467" data-name="Trazado 108467" d="M305.934,218.626h32.255v4.449H305.934Z" transform="translate(0.058 0.292)" fill="#bb83ff"/>
      <path id="Trazado_108468" data-name="Trazado 108468" d="M308.423,233.061H315.1v1.668h-6.673Z" transform="translate(0.35 1.984)" fill="#c595ff"/>
      <path id="Trazado_108469" data-name="Trazado 108469" d="M308.423,231.567H315.1v1.669h-6.673Z" transform="translate(0.35 1.808)" fill="#c595ff"/>
      <path id="Trazado_108470" data-name="Trazado 108470" d="M308.423,234.554H315.1v12.234h-6.673Z" transform="translate(0.35 2.159)" fill="#47ecfa"/>
      <path id="Trazado_108471" data-name="Trazado 108471" d="M333.125,223.105H306.432v3.337a2.224,2.224,0,0,0,4.449,0,2.224,2.224,0,0,0,4.449,0,2.225,2.225,0,0,0,4.45,0,2.224,2.224,0,0,0,4.449,0,2.224,2.224,0,0,0,4.449,0,2.224,2.224,0,0,0,4.449,0,2.224,2.224,0,0,0,4.449,0v-3.337Z" transform="translate(0.117 0.817)" fill="#2d2d30"/>
      <path id="Trazado_108472" data-name="Trazado 108472" d="M314.863,222.608v3.336a2.224,2.224,0,1,1-4.449,0v-3.336Z" transform="translate(0.583 0.758)" fill="#f9e478"/>
      <path id="Trazado_108473" data-name="Trazado 108473" d="M322.828,222.608v3.336a2.224,2.224,0,1,1-4.449,0v-3.336Z" transform="translate(1.517 0.758)" fill="#f9e478"/>
      <path id="Trazado_108474" data-name="Trazado 108474" d="M330.792,222.608v3.336a2.224,2.224,0,1,1-4.449,0v-3.336Z" transform="translate(2.45 0.758)" fill="#f9e478"/>
      <g id="Grupo_61173" data-name="Grupo 61173" transform="translate(306.549 223.366)">
        <path id="Trazado_108475" data-name="Trazado 108475" d="M334.774,222.608v3.336a2.224,2.224,0,1,1-4.449,0v-3.336Z" transform="translate(-303.632 -222.608)" fill="#f17781"/>
        <path id="Trazado_108476" data-name="Trazado 108476" d="M326.81,222.608v3.336a2.224,2.224,0,1,1-4.449,0v-3.336Z" transform="translate(-304.565 -222.608)" fill="#f17781"/>
        <path id="Trazado_108477" data-name="Trazado 108477" d="M318.846,222.608v3.336a2.225,2.225,0,0,1-4.45,0v-3.336Z" transform="translate(-305.499 -222.608)" fill="#f17781"/>
        <path id="Trazado_108478" data-name="Trazado 108478" d="M310.881,222.608v3.336a2.224,2.224,0,1,1-4.449,0v-3.336Z" transform="translate(-306.432 -222.608)" fill="#f17781"/>
      </g>
      <path id="Trazado_108479" data-name="Trazado 108479" d="M321.392,229.576l-5.005,4.449v2.781l7.786-7.229Z" transform="translate(1.283 1.575)" fill="#c595ff"/>
      <path id="Trazado_108480" data-name="Trazado 108480" d="M328,229.576,316.387,240.2v3.84l15.572-14.459Z" transform="translate(1.283 1.575)" fill="#c595ff"/>
      <path id="Trazado_108481" data-name="Trazado 108481" d="M308.979,233.236h-.556l1.113-1.669h.556Z" transform="translate(0.35 1.808)" fill="#dcbfff"/>
      <path id="Trazado_108482" data-name="Trazado 108482" d="M310.472,233.236h-.555l1.112-1.669h.556Z" transform="translate(0.525 1.808)" fill="#dcbfff"/>
      <path id="Trazado_108483" data-name="Trazado 108483" d="M329.5,235.46v7.229h-8.9V235.46l-2.224-.556.555-3.337h12.234l.556,3.337Z" transform="translate(1.517 1.808)" fill="#f9e478"/>
      <path id="Trazado_108484" data-name="Trazado 108484" d="M324.849,235.55h2.225v2.224h-2.225Z" transform="translate(2.275 2.275)" fill="#f17781"/>
      <path id="Trazado_108485" data-name="Trazado 108485" d="M322.361,231.567h4.449a2.224,2.224,0,0,1-4.449,0Z" transform="translate(1.984 1.808)" fill="#d4c266"/>
      <path id="Trazado_108486" data-name="Trazado 108486" d="M309.419,238.536h1.112v2.224h-1.112Z" transform="translate(0.467 2.625)" fill="#855db5"/>
      <path id="Trazado_108487" data-name="Trazado 108487" d="M338.8,223.366v-4.449a.555.555,0,0,0-.555-.556v-1.113a1.115,1.115,0,0,0-1.113-1.112H307.1a1.115,1.115,0,0,0-1.113,1.112v1.113a.556.556,0,0,0-.555.556v4.449a.555.555,0,0,0,.555.555v24.469h-.555V249.5H338.8v-1.113h-.555V223.922A.555.555,0,0,0,338.8,223.366Zm-31.7-6.118h30.029v1.113H307.1Zm7.786,31.142h-5.561V237.269h5.561Zm0-12.234h-5.561V235.6h5.561Zm0-1.668h-5.561v-.556h5.561Zm22.243,13.9H316V233.375a.556.556,0,0,0-.556-.555h-6.673a.555.555,0,0,0-.555.555v15.015H307.1V228.91a2.736,2.736,0,0,0,1.668.573A2.778,2.778,0,0,0,311,228.355a2.756,2.756,0,0,0,4.449,0,2.759,2.759,0,0,0,4.45,0,2.758,2.758,0,0,0,4.449,0,2.758,2.758,0,0,0,4.449,0,2.758,2.758,0,0,0,4.449,0,2.778,2.778,0,0,0,2.224,1.128,2.731,2.731,0,0,0,1.668-.573ZM307.1,226.7v-2.781h3.337V226.7a1.669,1.669,0,1,1-3.337,0Zm4.449,0v-2.781h3.337V226.7a1.669,1.669,0,1,1-3.337,0Zm4.449,0v-2.781h3.337V226.7a1.669,1.669,0,1,1-3.337,0Zm4.449,0v-2.781h3.337V226.7a1.669,1.669,0,1,1-3.337,0Zm4.449,0v-2.781h3.337V226.7a1.669,1.669,0,1,1-3.337,0Zm4.45,0v-2.781h3.336V226.7a1.668,1.668,0,1,1-3.336,0Zm7.785,0a1.668,1.668,0,1,1-3.336,0v-2.781h3.336Zm.556-3.892H306.549v-3.337h31.142Z" fill="#855db5"/>
      <path id="Trazado_108488" data-name="Trazado 108488" d="M334.241,229.079h-17.8a.555.555,0,0,0-.555.555v15.572a.555.555,0,0,0,.555.555h17.8a.555.555,0,0,0,.556-.555V229.634A.555.555,0,0,0,334.241,229.079Zm-.556,15.57H317V230.191h16.683Z" transform="translate(1.225 1.517)" fill="#855db5"/>
      <path id="Trazado_108489" data-name="Trazado 108489" d="M331.778,231.537a.555.555,0,0,0-.551-.467H318.993a.555.555,0,0,0-.55.467l-.556,3.336a.557.557,0,0,0,.417.629l1.8.45v6.8a.555.555,0,0,0,.556.555h8.9a.555.555,0,0,0,.556-.555v-6.8l1.8-.45a.558.558,0,0,0,.418-.629Zm-5.1.645a1.661,1.661,0,0,1-3.136,0Zm2.747,2.8a.556.556,0,0,0-.422.54v6.673h-7.786v-6.673a.556.556,0,0,0-.422-.54l-1.724-.434.394-2.364h2.92a2.78,2.78,0,0,0,5.45,0h2.919l.394,2.364Z" transform="translate(1.458 1.75)" fill="#855db5"/>
      <path id="Trazado_108490" data-name="Trazado 108490" d="M324.907,238.388h2.225a.556.556,0,0,0,.555-.555v-2.224a.556.556,0,0,0-.555-.556h-2.225a.556.556,0,0,0-.555.556v2.224A.556.556,0,0,0,324.907,238.388Zm.556-2.224h1.113v1.113h-1.113Z" transform="translate(2.217 2.217)" fill="#855db5"/>
    </g>
    <g id="Grupo_61176" data-name="Grupo 61176" transform="translate(437.563 4440.781)">
      <path id="Trazado_108491" data-name="Trazado 108491" d="M351.792,221.235h22.721V223.4H351.792Z" transform="translate(0.389 0.475)" fill="#bb83ff"/>
      <path id="Trazado_108492" data-name="Trazado 108492" d="M347.81,221.235h2.164V223.4H347.81Z" transform="translate(0.043 0.475)" fill="#dcbfff"/>
      <path id="Trazado_108493" data-name="Trazado 108493" d="M349.8,221.235h2.164v3.246H349.8Z" transform="translate(0.216 0.475)" fill="#9d73d8"/>
      <path id="Trazado_108494" data-name="Trazado 108494" d="M349.8,224.222h2.164v20.557H349.8Z" transform="translate(0.216 0.735)" fill="#bb83ff"/>
      <path id="Trazado_108495" data-name="Trazado 108495" d="M348.307,243.137h5.41V245.3h-5.41Z" transform="translate(0.086 2.376)" fill="#9d73d8"/>
      <path id="Trazado_108496" data-name="Trazado 108496" d="M376.853,223.4h-2.164v-2.164h2.164Z" transform="translate(2.376 0.475)" fill="#dcbfff"/>
      <path id="Trazado_108497" data-name="Trazado 108497" d="M374.862,224.481H372.7v-3.246h2.164Z" transform="translate(2.204 0.475)" fill="#9d73d8"/>
      <path id="Trazado_108498" data-name="Trazado 108498" d="M374.862,244.779H372.7V224.222h2.164Z" transform="translate(2.204 0.735)" fill="#bb83ff"/>
      <path id="Trazado_108499" data-name="Trazado 108499" d="M376.614,245.3h-5.409v-2.164h5.409Z" transform="translate(2.074 2.376)" fill="#9d73d8"/>
      <path id="Trazado_108500" data-name="Trazado 108500" d="M363.24,216.258H371.9V219.5H363.24Z" transform="translate(1.383 0.043)" fill="#f9e478"/>
      <path id="Trazado_108501" data-name="Trazado 108501" d="M368.716,219.244H369.8v2.164h-1.081Z" transform="translate(1.858 0.302)" fill="#7d8d9c"/>
      <path id="Trazado_108502" data-name="Trazado 108502" d="M364.734,219.244h1.081v2.164h-1.081Z" transform="translate(1.512 0.302)" fill="#7d8d9c"/>
      <path id="Trazado_108503" data-name="Trazado 108503" d="M352.787,216.258h8.655V219.5h-8.655Z" transform="translate(0.475 0.043)" fill="#f9e478"/>
      <path id="Trazado_108504" data-name="Trazado 108504" d="M354.281,219.244h1.081v2.164h-1.081Z" transform="translate(0.605 0.302)" fill="#7d8d9c"/>
      <path id="Trazado_108505" data-name="Trazado 108505" d="M358.263,219.244h1.081v2.164h-1.081Z" transform="translate(0.951 0.302)" fill="#7d8d9c"/>
      <path id="Trazado_108506" data-name="Trazado 108506" d="M363.911,240.365l-2.164,1.081V226.3a1.082,1.082,0,1,1,2.164,0Z" transform="translate(1.253 0.821)" fill="#95f7ff"/>
      <path id="Trazado_108507" data-name="Trazado 108507" d="M365.9,241.446l-2.164-1.081V226.3a1.082,1.082,0,1,1,2.164,0Z" transform="translate(1.426 0.821)" fill="#bb83ff"/>
      <path id="Trazado_108508" data-name="Trazado 108508" d="M367.893,238.2l-2.164-1.082V226.3a1.082,1.082,0,1,1,2.164,0Z" transform="translate(1.599 0.821)" fill="#f17781"/>
      <path id="Trazado_108509" data-name="Trazado 108509" d="M366.227,223.226h1.081v2.164h-1.081Z" transform="translate(1.642 0.648)" fill="#7d8d9c"/>
      <path id="Trazado_108510" data-name="Trazado 108510" d="M369.884,239.824l-2.164,1.081V226.3a1.082,1.082,0,1,1,2.164,0Z" transform="translate(1.772 0.821)" fill="#95f7ff"/>
      <path id="Trazado_108511" data-name="Trazado 108511" d="M368.218,223.226H369.3v2.164h-1.081Z" transform="translate(1.815 0.648)" fill="#7d8d9c"/>
      <path id="Trazado_108512" data-name="Trazado 108512" d="M355.947,236.037l-2.164-1.082V226.3a1.082,1.082,0,1,1,2.164,0Z" transform="translate(0.562 0.821)" fill="#bb83ff"/>
      <path id="Trazado_108513" data-name="Trazado 108513" d="M354.281,223.226h1.081v2.164h-1.081Z" transform="translate(0.605 0.648)" fill="#7d8d9c"/>
      <path id="Trazado_108514" data-name="Trazado 108514" d="M356.855,225.217a1.083,1.083,0,0,1,1.082,1.082v7.573h-2.164V226.3A1.082,1.082,0,0,1,356.855,225.217Z" transform="translate(0.735 0.821)" fill="#f9e478"/>
      <path id="Trazado_108515" data-name="Trazado 108515" d="M356.272,223.226h1.081v2.164h-1.081Z" transform="translate(0.778 0.648)" fill="#7d8d9c"/>
      <path id="Trazado_108516" data-name="Trazado 108516" d="M360.837,225.217a1.083,1.083,0,0,1,1.082,1.082v9.738h-2.164V226.3A1.082,1.082,0,0,1,360.837,225.217Z" transform="translate(1.08 0.821)" fill="#f17781"/>
      <g id="Grupo_61175" data-name="Grupo 61175" transform="translate(361.377 223.874)">
        <path id="Trazado_108517" data-name="Trazado 108517" d="M364.236,223.226h1.081v2.164h-1.081Z" transform="translate(-359.908 -223.226)" fill="#7d8d9c"/>
        <path id="Trazado_108518" data-name="Trazado 108518" d="M362.245,223.226h1.081v2.164h-1.081Z" transform="translate(-360.081 -223.226)" fill="#7d8d9c"/>
        <path id="Trazado_108519" data-name="Trazado 108519" d="M360.254,223.226h1.081v2.164h-1.081Z" transform="translate(-360.254 -223.226)" fill="#7d8d9c"/>
      </g>
      <path id="Trazado_108520" data-name="Trazado 108520" d="M349.8,238.657h2.164v4.869H349.8Z" transform="translate(0.216 1.988)" fill="#9d73d8"/>
      <path id="Trazado_108521" data-name="Trazado 108521" d="M372.7,238.657h2.164v4.869H372.7Z" transform="translate(2.204 1.988)" fill="#9d73d8"/>
      <path id="Trazado_108522" data-name="Trazado 108522" d="M379.229,221.169h-7.574v-1.081h1.624a.541.541,0,0,0,.54-.541V216.3a.541.541,0,0,0-.54-.541h-8.656a.54.54,0,0,0-.54.541v3.245a.54.54,0,0,0,.54.541h1.624v1.081h-5.951v-1.081h1.623a.541.541,0,0,0,.541-.541V216.3a.541.541,0,0,0-.541-.541h-8.655a.54.54,0,0,0-.54.541v3.245a.54.54,0,0,0,.54.541h1.624v1.081h-7.033a.541.541,0,0,0-.541.541v2.164a.541.541,0,0,0,.541.541h1.623v20.557h-1.082a.541.541,0,0,0-.54.541v2.164a.541.541,0,0,0,.54.541h5.41a.541.541,0,0,0,.541-.541v-2.164a.541.541,0,0,0-.541-.541h-1.081V224.415h2.164V225.6a1.623,1.623,0,0,0-1.082,1.524v8.655a.542.542,0,0,0,.3.487l2.164,1.081a.541.541,0,0,0,.784-.486v-1.624h1.623a.541.541,0,0,0,.541-.541V227.12a1.623,1.623,0,0,0-1.082-1.524v-1.181h3.246V225.6a1.623,1.623,0,0,0-1.082,1.524v9.738a.541.541,0,0,0,.541.54h1.623v4.869a.541.541,0,0,0,.783.487l1.923-.964,1.923.964a.541.541,0,0,0,.783-.487v-3.452l1.081.54v2.37a.541.541,0,0,0,.784.487l2.164-1.081a.543.543,0,0,0,.3-.487V227.12a1.623,1.623,0,0,0-1.082-1.524v-1.181h3.246v20.557h-1.081a.541.541,0,0,0-.541.541v2.164a.541.541,0,0,0,.541.541h5.409a.541.541,0,0,0,.541-.541v-2.164a.541.541,0,0,0-.541-.541h-1.081V224.415h1.623a.541.541,0,0,0,.541-.541V221.71A.541.541,0,0,0,379.229,221.169Zm-3.786,4.329h1.081V240.1h-1.081Zm0-3.246h1.081v2.164h-1.081Zm-10.279-5.41h7.574v2.164h-7.574Zm2.164,3.246h3.246v1.081h-3.246ZM353.8,216.841h7.574v2.164H353.8Zm2.164,3.246h3.246v1.081h-3.246Zm-5.41,5.41h1.082V240.1h-1.082Zm1.082-1.082h-1.082v-2.164h1.082Zm-3.246-1.082v-1.081h1.082v1.081Zm4.869,23.8h-4.328v-1.082h4.328Zm-2.705-2.164v-3.786h1.082v3.786Zm5.41-8.99-1.081-.541V227.12a.541.541,0,1,1,1.081,0Zm2.164-1.829H357.05V227.12a.541.541,0,1,1,1.081,0ZM357.05,225.6a.613.613,0,0,1-1.082,0v-1.181h1.082Zm6.491-1.181V225.6a.613.613,0,0,1-1.082,0v-1.181Zm4.328,1.181a.613.613,0,0,1-1.082,0v-1.181h1.082Zm-2.164,0a.613.613,0,0,1-1.082,0v-1.181h1.082Zm-4.328,10.72v-9.2a.541.541,0,1,1,1.081,0v9.2Zm2.164.541V227.12a.541.541,0,1,1,1.081,0v13.731l-1.081.541Zm3.245,4.534-1.081-.541V227.12a.541.541,0,1,1,1.081,0Zm1.082-3.788V227.12a.541.541,0,1,1,1.081,0v11.026Zm3.245,2.705-1.081.541V227.12a.541.541,0,1,1,1.081,0ZM370.033,225.6a.613.613,0,0,1-1.082,0v-1.18h1.082Zm-17.311-2.263v-1.081H374.36v1.081Zm25.425,23.8h-4.328v-1.082h4.328Zm-2.7-2.164v-3.786h1.081v3.786Zm3.245-21.639h-1.081v-1.081h1.081Z" fill="#855db5"/>
    </g>
    <g id="Grupo_61178" data-name="Grupo 61178" transform="translate(55.021 4581.308)">
      <path id="Trazado_108523" data-name="Trazado 108523" d="M388.518,247.58V224.873a.682.682,0,0,1,.682-.682H421.74a.682.682,0,0,1,.683.682V247.59a.682.682,0,0,1-.683.682H389.21A.692.692,0,0,1,388.518,247.58Z" transform="translate(0.045 0.909)" fill="#dcbfff"/>
      <path id="Trazado_108524" data-name="Trazado 108524" d="M409.089,236.137H420.51v10.3a.682.682,0,0,1-.683.682H408.366V236.86A.722.722,0,0,1,409.089,236.137Z" transform="translate(1.959 2.061)" fill="#f9e478"/>
      <path id="Trazado_108525" data-name="Trazado 108525" d="M393.542,222.155v-6.242a.682.682,0,0,1,.683-.682h21.523a.681.681,0,0,1,.682.682v6.413Z" transform="translate(0.529 0.045)" fill="#dcbfff"/>
      <path id="Trazado_108526" data-name="Trazado 108526" d="M388.518,224.873V247.58a.692.692,0,0,0,.692.692h15.681V224.191H389.2A.682.682,0,0,0,388.518,224.873Z" transform="translate(0.045 0.909)" fill="#95f7ff"/>
      <path id="Trazado_108527" data-name="Trazado 108527" d="M391.256,227.364h10.165v17.6H391.256Z" transform="translate(0.309 1.215)" fill="#dcbfff"/>
      <path id="Trazado_108528" data-name="Trazado 108528" d="M393.714,238.5c-.714-1.472.49-2.811.8-3.7a2.356,2.356,0,0,0-.4-1.875l-.669-1.026s-.045-.535,1.115-1.026c.855-.362.714-1.472.714-1.472h1.7s-.155,1.144.714,1.472c1.294.491,1.116,1.026,1.116,1.026l-.67,1.026a2.352,2.352,0,0,0-.4,1.875c.312.892,1.517,2.231.8,3.7Z" transform="translate(0.52 1.411)" fill="#f17781"/>
      <path id="Trazado_108529" data-name="Trazado 108529" d="M389.887,221.391h30.9v3h-30.9Z" transform="translate(0.177 0.639)" fill="#f17781"/>
      <g id="Grupo_61177" data-name="Grupo 61177" transform="translate(392.735 222.03)">
        <path id="Trazado_108530" data-name="Trazado 108530" d="M397.5,221.391h2.84v3H397.5Z" transform="translate(-391.823 -221.391)" fill="#ce666e"/>
        <path id="Trazado_108531" data-name="Trazado 108531" d="M392.323,221.391h2.84v3h-2.84Z" transform="translate(-392.323 -221.391)" fill="#ce666e"/>
        <path id="Trazado_108532" data-name="Trazado 108532" d="M407.866,221.391h2.84v3h-2.84Z" transform="translate(-390.824 -221.391)" fill="#ce666e"/>
        <path id="Trazado_108533" data-name="Trazado 108533" d="M413.046,221.391h2.841v3h-2.841Z" transform="translate(-390.325 -221.391)" fill="#ce666e"/>
        <path id="Trazado_108534" data-name="Trazado 108534" d="M402.685,221.391h2.84v3h-2.84Z" transform="translate(-391.324 -221.391)" fill="#ce666e"/>
      </g>
      <path id="Trazado_108535" data-name="Trazado 108535" d="M415.352,234.233h-4.539a.766.766,0,0,1-.766-.766v-2.287a.766.766,0,0,1,.766-.766h4.539a.766.766,0,0,1,.766.766v2.287A.766.766,0,0,1,415.352,234.233Z" transform="translate(2.121 1.509)" fill="#47ecfa"/>
      <path id="Trazado_108536" data-name="Trazado 108536" d="M422.469,224.588h-.99V222.03a.511.511,0,0,0-.511-.512h-3.5v-6.242a.512.512,0,0,0-.512-.512H394.071a.512.512,0,0,0-.511.512v1.6a.512.512,0,0,0,1.023,0v-1.091h21.865v5.73H394.583v-1.91a.512.512,0,0,0-1.023,0v1.91h-3.5a.512.512,0,0,0-.512.512v2.558h-.989a.512.512,0,0,0-.512.512V249.18a.512.512,0,0,0,.512.512h2.763a.512.512,0,0,0,0-1.023h-2.251V225.611h15.349V248.67h-9.96a.512.512,0,0,0,0,1.023h28a.511.511,0,0,0,.511-.512V225.1A.511.511,0,0,0,422.469,224.588Zm-27.4-2.047v1.979h-1.817v-1.979Zm22.721,0v1.979h-1.817v-1.979Zm-2.84,1.979h-1.817v-1.979h1.817Zm-2.841,0h-1.817v-1.979H412.1Zm-2.84,0h-1.817v-1.979h1.817Zm-2.841,0h-1.817v-1.979h1.817Zm-2.84,0h-1.817v-1.979h1.817Zm-2.84,0h-1.817v-1.979h1.817Zm-2.841,0h-1.817v-1.979H397.9Zm22.552,0h-1.648v-1.979h1.648Zm-29.88-1.979h1.648v1.979h-1.648Zm31.381,26.129h-11.12v-2.32a.512.512,0,0,0-1.023,0v2.32h-4.366V225.611h16.509v12.075h-6.242v-1.432h1.758a1.28,1.28,0,0,0,1.278-1.278v-2.287a1.28,1.28,0,0,0-1.278-1.278h-4.539a1.28,1.28,0,0,0-1.277,1.278v2.287a1.28,1.28,0,0,0,1.277,1.278h1.759v1.432h-4.367a.512.512,0,0,0-.511.512v5.219a.512.512,0,0,0,1.023,0V238.71h11.12Zm-9.024-13.44a.255.255,0,0,1-.254-.254v-2.287a.255.255,0,0,1,.254-.255h4.539a.255.255,0,0,1,.254.255v2.287a.255.255,0,0,1-.254.254Z" transform="translate(0 0)" fill="#855db5"/>
      <path id="Trazado_108537" data-name="Trazado 108537" d="M393.062,232.222c.22.339.453.673.663,1.017a1.815,1.815,0,0,1,.031,2.1,3.612,3.612,0,0,0-.458,3.426.511.511,0,0,0,.461.288h1.9v3.012h-1.889a.512.512,0,0,0,0,1.023h4.8a.512.512,0,0,0,0-1.023h-1.889v-3.012h1.893a.511.511,0,0,0,.461-.288,3.609,3.609,0,0,0-.458-3.426,1.809,1.809,0,0,1,.036-2.112,6.3,6.3,0,0,0,.715-1.127c.056-.168.25-1.034-1.42-1.667-.473-.18-.388-.921-.388-.925a.517.517,0,0,0-.507-.58h-1.7a.513.513,0,0,0-.508.572c0,.03.078.736-.406.941-1.429.6-1.439,1.388-1.425,1.539A.51.51,0,0,0,393.062,232.222Zm1.743-.834a1.657,1.657,0,0,0,.978-1.232c.015-.069.026-.136.035-.2h.694c.008.067.019.136.034.208a1.616,1.616,0,0,0,1,1.231,1.814,1.814,0,0,1,.755.441l-.552.844a3.586,3.586,0,0,0-.372.705,2.338,2.338,0,0,0-.09,1.627,6.29,6.29,0,0,0,.385.811,3.09,3.09,0,0,1,.55,2.211h-4.117a3.089,3.089,0,0,1,.55-2.211,6.144,6.144,0,0,0,.385-.811,2.835,2.835,0,0,0-.462-2.331l-.527-.808A1.931,1.931,0,0,1,394.806,231.388Z" transform="translate(0.475 1.366)" fill="#855db5"/>
      <path id="Trazado_108538" data-name="Trazado 108538" d="M401.977,245.01v-17.6a.511.511,0,0,0-.511-.512H391.3a.512.512,0,0,0-.512.512v17.6a.511.511,0,0,0,.512.511h10.165A.51.51,0,0,0,401.977,245.01Zm-1.023-.512h-9.142V227.921h9.142Z" transform="translate(0.264 1.17)" fill="#855db5"/>
      <path id="Trazado_108539" data-name="Trazado 108539" d="M413.3,218.836a.512.512,0,0,0,0-1.023H396.246a.512.512,0,0,0,0,1.023Z" transform="translate(0.742 0.294)" fill="#855db5"/>
    </g>
    <g id="Grupo_61183" data-name="Grupo 61183" transform="translate(33.563 4443.067)">
      <g id="Grupo_61182" data-name="Grupo 61182" transform="translate(468.467 216.783)">
        <path id="Trazado_108540" data-name="Trazado 108540" d="M495.752,247.835l-3.892-13.889.775-3.716,1.057-5.076-3.053-1.558-2.626,3.5h-5.863l-2.6-3.464-.028-.038-3.054,1.558,1.058,5.076.774,3.716-3.8,13.576a1.467,1.467,0,0,0,1.948,1.889c1.252-.485,1.856-.749,2.681-.264a2.326,2.326,0,0,0,2.106.223,3.058,3.058,0,0,1,2.447-.373,3.637,3.637,0,0,0,2.668,0c.638-.35,2.12.15,2.578.373a2.327,2.327,0,0,0,2.106-.223c.825-.485,1.71-.112,2.962.372s1.952-.98,1.755-1.684Zm-8.8-6.9h2.882a.605.605,0,0,1,.6.6v2.673a.605.605,0,0,1-.6.6h-2.882a.6.6,0,0,1-.6-.6v-2.673a.6.6,0,0,1,.6-.6Zm-6.732-.1h2.882a.605.605,0,0,1,.6.6V244.1a.6.6,0,0,1-.6.6h-2.882a.6.6,0,0,1-.6-.6v-2.673A.6.6,0,0,1,480.223,240.826Z" transform="translate(-467.456 -215.642)" fill="#f9e478"/>
        <g id="Grupo_61179" data-name="Grupo 61179" transform="translate(12.165 25.184)">
          <path id="Trazado_108541" data-name="Trazado 108541" d="M483.024,241.833V239.16a.605.605,0,0,0-.6-.6h-2.882a.6.6,0,0,0-.6.6v2.673a.6.6,0,0,0,.6.6h2.882A.6.6,0,0,0,483.024,241.833Z" transform="translate(-478.937 -238.558)" fill="#f17781"/>
          <path id="Trazado_108542" data-name="Trazado 108542" d="M484.783,239.251v2.673a.6.6,0,0,0,.6.6h2.882a.6.6,0,0,0,.6-.6v-2.673a.605.605,0,0,0-.6-.6h-2.882A.6.6,0,0,0,484.783,239.251Z" transform="translate(-478.051 -238.544)" fill="#f17781"/>
        </g>
        <g id="Grupo_61180" data-name="Grupo 61180" transform="translate(3.443 9.511)">
          <path id="Trazado_108543" data-name="Trazado 108543" d="M472.334,232.9l5.66-2.878-1.057-5.076-5.575,2.94Z" transform="translate(-471.362 -224.948)" fill="#f17781"/>
          <path id="Trazado_108544" data-name="Trazado 108544" d="M491.3,224.948l-1.057,5.076,5.66,2.878.972-5.014Z" transform="translate(-468.501 -224.948)" fill="#f17781"/>
        </g>
        <g id="Grupo_61181" data-name="Grupo 61181">
          <path id="Trazado_108545" data-name="Trazado 108545" d="M469.449,218.839h16.491v-2.15H469.449a1.075,1.075,0,1,0,0,2.15Z" transform="translate(-468.373 -216.689)" fill="#dcbfff"/>
          <path id="Trazado_108546" data-name="Trazado 108546" d="M483.627,216.689v2.15h16.612a1.075,1.075,0,1,0,0-2.15Z" transform="translate(-466.061 -216.689)" fill="#dcbfff"/>
        </g>
      </g>
      <path id="Trazado_108547" data-name="Trazado 108547" d="M502.645,216.067h-33.1a1.791,1.791,0,1,0,0,3.583h15.773v1.215l-4.925,3.17a.736.736,0,0,0-.179.063l-3.054,1.558,0,0h0l-5.575,2.94a.715.715,0,0,0-.369.769l.972,5.015a.717.717,0,0,0,1.027.5l4.825-2.454.548,2.629-3.758,13.408a2.365,2.365,0,0,0,.349,2.09,2.081,2.081,0,0,0,1.676.827,2.417,2.417,0,0,0,.873-.168l.129-.051a4.775,4.775,0,0,1,1.418-.421.95.95,0,0,1,.513.158,3.368,3.368,0,0,0,1.7.48,2.488,2.488,0,0,0,1.084-.23l.029-.014a3.51,3.51,0,0,1,1.4-.434.911.911,0,0,1,.4.078,4.13,4.13,0,0,0,1.686.324h0a3.62,3.62,0,0,0,1.633-.342.608.608,0,0,1,.252-.033,4.808,4.808,0,0,1,1.667.421,2.488,2.488,0,0,0,1.084.23,3.368,3.368,0,0,0,1.7-.48.914.914,0,0,1,.485-.128,5.627,5.627,0,0,1,1.725.5l.13.051a2.046,2.046,0,0,0,.743.145,1.892,1.892,0,0,0,1.521-.793,2.308,2.308,0,0,0,.44-1.9l-3.845-13.72.548-2.629,4.825,2.454a.718.718,0,0,0,1.028-.5l.972-5.014a.718.718,0,0,0-.37-.77l-5.575-2.94h0l0,0L492,224.112l-5.252-3.256V219.65h15.9a1.791,1.791,0,1,0,0-3.583Zm-12.037,8.866-1.942,2.589h-5.144l-1.921-2.561,4.439-2.858Zm-17.2,8.245-.69-3.558,4.263-2.248.751,3.608Zm25.38,0-4.324-2.2.751-3.608,4.263,2.248Zm-5.8-2.132a.713.713,0,0,0-.073.343l-.624,3h-1.495a.717.717,0,0,0,0,1.434h1.543l3.74,13.348a.954.954,0,0,1-.2.644.484.484,0,0,1-.38.226.656.656,0,0,1-.226-.047l-.13-.051a6.48,6.48,0,0,0-2.242-.6,2.323,2.323,0,0,0-1.21.325,1.928,1.928,0,0,1-.974.283,1.038,1.038,0,0,1-.455-.086,6.147,6.147,0,0,0-2.3-.565,1.941,1.941,0,0,0-.942.21,2.187,2.187,0,0,1-.943.165h0a2.8,2.8,0,0,1-1.072-.184,2.34,2.34,0,0,0-1.01-.216,4.813,4.813,0,0,0-2.031.579l-.028.014a1.062,1.062,0,0,1-.455.085,1.928,1.928,0,0,1-.974-.283,2.4,2.4,0,0,0-1.238-.356,5.473,5.473,0,0,0-1.936.519l-.129.05a.733.733,0,0,1-.889-.187.957.957,0,0,1-.111-.84l3.8-13.576a.721.721,0,0,0,.012-.34l-.739-3.55a.712.712,0,0,0-.073-.343l-.909-4.362,2.029-1.035,2.264,3.019a.716.716,0,0,0,.572.287h5.863a.718.718,0,0,0,.572-.287l2.264-3.019,2.029,1.035Zm-23.439-12.831a.358.358,0,1,1,0-.716h15.773v.716Zm33.1,0h-15.9V217.5h15.9a.358.358,0,1,1,0,.716Z" transform="translate(0 0)" fill="#855db5"/>
      <path id="Trazado_108548" data-name="Trazado 108548" d="M482.516,237.936h-2.882a1.321,1.321,0,0,0-1.319,1.319v2.673a1.321,1.321,0,0,0,1.319,1.319h2.882a1.321,1.321,0,0,0,1.319-1.319v-2.673A1.321,1.321,0,0,0,482.516,237.936Zm-.114,3.877h-2.654V239.37H482.4Z" transform="translate(1.601 3.315)" fill="#855db5"/>
      <path id="Trazado_108549" data-name="Trazado 108549" d="M484.161,239.346v2.673a1.321,1.321,0,0,0,1.319,1.319h2.882a1.321,1.321,0,0,0,1.319-1.319v-2.673a1.321,1.321,0,0,0-1.319-1.319H485.48A1.321,1.321,0,0,0,484.161,239.346Zm1.433.114h2.654V241.9h-2.654Z" transform="translate(2.487 3.329)" fill="#855db5"/>
      <path id="Trazado_108550" data-name="Trazado 108550" d="M485.97,233.408h.061a.717.717,0,0,0,0-1.434h-.061a.716.716,0,0,0,0,1.433Z" transform="translate(2.653 2.411)" fill="#855db5"/>
    </g>
    <g id="Grupo_61185" data-name="Grupo 61185" transform="translate(213.249 4382.236)">
      <path id="Trazado_108551" data-name="Trazado 108551" d="M430.558,246.578V228.391h8.295a3.034,3.034,0,0,1,1.932.728,9.82,9.82,0,0,0,12.4,0,3.04,3.04,0,0,1,1.933-.728h8.294v18.187Z" transform="translate(0.267 2.311)" fill="#c595ff"/>
      <path id="Trazado_108552" data-name="Trazado 108552" d="M464.762,224.746h-4.31a4.732,4.732,0,0,1-4.45-2.968,9.615,9.615,0,0,0-17.679,0,4.732,4.732,0,0,1-4.45,2.968h-4.31v5.867h9.467a3.034,3.034,0,0,1,1.932.728,9.82,9.82,0,0,0,12.4,0,3.04,3.04,0,0,1,1.933-.728h9.467Z" transform="translate(0.089 0.089)" fill="#9d73d8"/>
      <path id="Trazado_108553" data-name="Trazado 108553" d="M429.563,243.822h35.2v2.347h-35.2Z" transform="translate(0.089 5.067)" fill="#f17781"/>
      <path id="Trazado_108554" data-name="Trazado 108554" d="M448.9,223.36h2.347v-2.933h-4.106a1.76,1.76,0,1,1-3.519,0h-4.107v2.933h2.346v5.279h7.04Z" transform="translate(1.867 0.889)" fill="#f9e478"/>
      <path id="Trazado_108555" data-name="Trazado 108555" d="M441.509,245.778V232.871h17.6v12.907" transform="translate(2.222 3.111)" fill="#dcbfff"/>
      <path id="Trazado_108556" data-name="Trazado 108556" d="M448.513,240.55l-.587-2.932v-1.761H445.58v1.761l-.586,2.932Z" transform="translate(2.844 3.645)" fill="#95f7ff"/>
      <path id="Trazado_108557" data-name="Trazado 108557" d="M445.989,234.364h1.174v1.76h-1.174Z" transform="translate(3.022 3.378)" fill="#ccc"/>
      <path id="Trazado_108558" data-name="Trazado 108558" d="M445.989,239.839h1.174v4.694h-1.174Z" transform="translate(3.022 4.356)" fill="#ccc"/>
      <path id="Trazado_108559" data-name="Trazado 108559" d="M453.491,240.55l-.587-2.932v-1.761h-2.346v1.761l-.587,2.932Z" transform="translate(3.733 3.645)" fill="#95f7ff"/>
      <path id="Trazado_108560" data-name="Trazado 108560" d="M450.967,234.364h1.173v1.76h-1.173Z" transform="translate(3.911 3.378)" fill="#ccc"/>
      <path id="Trazado_108561" data-name="Trazado 108561" d="M450.967,239.839h1.173v4.694h-1.173Z" transform="translate(3.911 4.356)" fill="#ccc"/>
      <path id="Trazado_108562" data-name="Trazado 108562" d="M432.55,246.133V230.88h7.04v15.253" transform="translate(0.622 2.756)" fill="#dcbfff"/>
      <g id="Grupo_61184" data-name="Grupo 61184" transform="translate(431.412 226.596)">
        <path id="Trazado_108563" data-name="Trazado 108563" d="M431.056,224.907h1.174v1.173h-1.174Z" transform="translate(-431.056 -224.907)" fill="#213d68"/>
        <path id="Trazado_108564" data-name="Trazado 108564" d="M433.047,224.907h1.174v1.173h-1.174Z" transform="translate(-430.701 -224.907)" fill="#213d68"/>
        <path id="Trazado_108565" data-name="Trazado 108565" d="M435.038,224.907h1.174v1.173h-1.174Z" transform="translate(-430.345 -224.907)" fill="#213d68"/>
        <path id="Trazado_108566" data-name="Trazado 108566" d="M452.958,224.907h1.173v1.173h-1.173Z" transform="translate(-427.145 -224.907)" fill="#213d68"/>
        <path id="Trazado_108567" data-name="Trazado 108567" d="M454.949,224.907h1.173v1.173h-1.173Z" transform="translate(-426.789 -224.907)" fill="#213d68"/>
        <path id="Trazado_108568" data-name="Trazado 108568" d="M456.94,224.907h1.173v1.173H456.94Z" transform="translate(-426.434 -224.907)" fill="#213d68"/>
      </g>
      <path id="Trazado_108569" data-name="Trazado 108569" d="M464.851,231.289a.586.586,0,0,0,.586-.587v-5.867a.585.585,0,0,0-.586-.586H460.54a4.156,4.156,0,0,1-3.9-2.59,10.2,10.2,0,0,0-18.772,0,4.157,4.157,0,0,1-3.9,2.59h-4.31a.586.586,0,0,0-.587.586V230.7a.587.587,0,0,0,.587.587h.587V248.3h-.587a.587.587,0,0,0-.587.587v2.347a.586.586,0,0,0,.587.586h35.2a.585.585,0,0,0,.586-.586v-2.347a.586.586,0,0,0-.586-.587h-.587V231.289Zm-34.612-5.867h3.723a5.335,5.335,0,0,0,5-3.344,9.028,9.028,0,0,1,16.583,0,5.332,5.332,0,0,0,5,3.344h3.724v4.693h-8.882a3.643,3.643,0,0,0-2.305.864,9.232,9.232,0,0,1-11.651,0,3.646,3.646,0,0,0-2.306-.864h-8.881Zm34.025,25.226H430.239v-1.174h34.025ZM439.625,248.3h-5.867V234.223h5.867Zm21.119,0h-4.693v-3.52h1.174a.587.587,0,0,0,.587-.586.654.654,0,0,0-.012-.118l-.575-2.875v-1.7a.586.586,0,0,0-.587-.586h-.587v-1.174h-1.173v1.174h-.587a.586.586,0,0,0-.587.586v1.7l-.575,2.875a.587.587,0,0,0,.458.692.551.551,0,0,0,.117.012h1.174v3.52h-4.693v-3.52h1.173a.587.587,0,0,0,.587-.586.564.564,0,0,0-.012-.118l-.575-2.875v-1.7a.586.586,0,0,0-.587-.586h-.586v-1.174h-1.174v1.174h-.587a.585.585,0,0,0-.586.586v1.7l-.575,2.875a.587.587,0,0,0,.457.692.562.562,0,0,0,.118.012h1.173v3.52h-4.693V236.569h16.426Zm-4.693-8.214v1.174a.658.658,0,0,0,.012.117l.447,2.23h-2.09l.447-2.23a.652.652,0,0,0,.012-.117v-1.174Zm-5.866,0v1.174a.561.561,0,0,0,.012.117l.445,2.23h-2.088l.445-2.23a.561.561,0,0,0,.012-.117v-1.174Zm12.905,8.214h-1.173v-12.32a.587.587,0,0,0-.587-.587h-17.6a.587.587,0,0,0-.587.587V248.3H440.8V233.636a.586.586,0,0,0-.586-.587h-7.04a.587.587,0,0,0-.587.587V248.3h-1.174V231.289h7.708a2.437,2.437,0,0,1,1.558.593,10.406,10.406,0,0,0,13.148,0,2.431,2.431,0,0,1,1.557-.593h7.708Z" transform="translate(0)" fill="#855db5"/>
      <path id="Trazado_108570" data-name="Trazado 108570" d="M439.607,224.035h1.76v4.693a.587.587,0,0,0,.587.587h7.04a.587.587,0,0,0,.587-.587v-4.693h1.76a.587.587,0,0,0,.587-.586v-2.933a.587.587,0,0,0-.587-.587h-4.106a.587.587,0,0,0-.587.587,1.173,1.173,0,0,1-2.347,0,.587.587,0,0,0-.586-.587h-4.107a.587.587,0,0,0-.587.587v2.933A.587.587,0,0,0,439.607,224.035Zm.587-2.933H443.2a2.346,2.346,0,0,0,4.545,0h3.008v1.761h-1.761a.586.586,0,0,0-.586.587v4.693H442.54v-4.693a.587.587,0,0,0-.587-.587h-1.76Z" transform="translate(1.778 0.8)" fill="#855db5"/>
      <path id="Trazado_108571" data-name="Trazado 108571" d="M431.056,224.907h1.174v1.173h-1.174Z" transform="translate(0.356 1.689)" fill="#c595ff"/>
      <path id="Trazado_108572" data-name="Trazado 108572" d="M433.047,224.907h1.174v1.173h-1.174Z" transform="translate(0.711 1.689)" fill="#c595ff"/>
      <path id="Trazado_108573" data-name="Trazado 108573" d="M435.038,224.907h1.174v1.173h-1.174Z" transform="translate(1.067 1.689)" fill="#c595ff"/>
      <path id="Trazado_108574" data-name="Trazado 108574" d="M452.958,224.907h1.173v1.173h-1.173Z" transform="translate(4.267 1.689)" fill="#c595ff"/>
      <path id="Trazado_108575" data-name="Trazado 108575" d="M454.949,224.907h1.173v1.173h-1.173Z" transform="translate(4.622 1.689)" fill="#c595ff"/>
      <path id="Trazado_108576" data-name="Trazado 108576" d="M456.94,224.907h1.173v1.173H456.94Z" transform="translate(4.978 1.689)" fill="#c595ff"/>
    </g>
  </g>
</svg>
