<svg xmlns="http://www.w3.org/2000/svg" width="405.5" height="405.5" viewBox="0 0 405.5 405.5">
  <g id="Grupo_61939" data-name="Grupo 61939" transform="translate(-480 -3419)">
    <g id="Grupo_59660" data-name="Grupo 59660" transform="translate(-0.25 50.25)">
      <g id="Grupo_59659" data-name="Grupo 59659" transform="translate(320.789 3354.187)">
        <g id="Grupo_59654" data-name="Grupo 59654" transform="translate(221.282 73.192)">
          <g id="Grupo_59653" data-name="Grupo 59653">
            <path id="Trazado_107826" data-name="Trazado 107826" d="M199.42,85.238l-2.1,5.591,6.052,2.273-1.1,2.919-14.562-5.468,3.58-9.531,2.249.845-2.484,6.612,4.011,1.505,2.1-5.591Z" transform="translate(-187.714 5.768)"/>
            <path id="Trazado_107827" data-name="Trazado 107827" d="M203.4,81.447l-2.2,4.538,2.564,2.4-1.424,2.936-11.7-11.512,1.394-2.875L208.3,79.03l-1.42,2.932Zm-4.066,2.779,1.534-3.162-5.68-.847-.031.059Z" transform="translate(-184.248 0.918)"/>
            <path id="Trazado_107828" data-name="Trazado 107828" d="M206.207,86.015,192.98,77.823l2.683-4.335a7.433,7.433,0,0,1,3.168-3.074,3.64,3.64,0,0,1,3.525.372,3.31,3.31,0,0,1,1.558,3.527,3.359,3.359,0,0,1,2.223-1.2,3.821,3.821,0,0,1,2.361.593,4.036,4.036,0,0,1,2.1,3.037,6.656,6.656,0,0,1-1.223,4.155ZM200.166,78.6l1.094-1.775a3.111,3.111,0,0,0,.578-1.9,1.767,1.767,0,0,0-.917-1.359,1.872,1.872,0,0,0-1.711-.263,3.306,3.306,0,0,0-1.5,1.451l-1.042,1.683ZM202,79.74l3.816,2.363,1.525-2.464a2.9,2.9,0,0,0,.536-1.893,1.958,1.958,0,0,0-1.015-1.394,2.3,2.3,0,0,0-1.82-.372,2.708,2.708,0,0,0-1.532,1.324Z" transform="translate(-181.457 -7.188)"/>
            <path id="Trazado_107829" data-name="Trazado 107829" d="M206.062,74.717l4.923,3.8-1.908,2.47-12.312-9.505,3.291-4.262a6.451,6.451,0,0,1,3.5-2.554,4.12,4.12,0,0,1,3.6.877,3.421,3.421,0,0,1,1.247,1.766,4.442,4.442,0,0,1-.022,2.326,3.349,3.349,0,0,1,2.284-.74,4.331,4.331,0,0,1,2.232.958l.9.7a5.666,5.666,0,0,0,1.188.691,1.872,1.872,0,0,0,1.2.166l.175.138L214.4,74.091a1.718,1.718,0,0,1-1.234-.256A9.67,9.67,0,0,1,211.883,73l-.873-.672a2.471,2.471,0,0,0-1.823-.6,2.4,2.4,0,0,0-1.61,1.031Zm-1.9-1.47,1.352-1.75a2.911,2.911,0,0,0,.753-1.886,2.067,2.067,0,0,0-.91-1.514,2.274,2.274,0,0,0-1.74-.525,2.605,2.605,0,0,0-1.656,1.116l-1.385,1.794Z" transform="translate(-176.96 -13.8)"/>
            <path id="Trazado_107830" data-name="Trazado 107830" d="M214.776,71.642l-2.085,2.319-11.566-10.4,2.087-2.319Z" transform="translate(-171.781 -17.738)"/>
            <path id="Trazado_107831" data-name="Trazado 107831" d="M217.879,62.635l.059.033a4.858,4.858,0,0,1,1.6,3.866,6.189,6.189,0,0,1-2.138,3.993,5.963,5.963,0,0,1-4.512,1.823,6.454,6.454,0,0,1-4.457-2.177L206.3,67.941a6.568,6.568,0,0,1-2-4.521,5.713,5.713,0,0,1,1.932-4.352A6.569,6.569,0,0,1,210.4,57a4.793,4.793,0,0,1,3.829,1.753l.028.059-2.192,2.1A3.041,3.041,0,0,0,210,59.8a3,3,0,0,0-2.116,1.009,2.526,2.526,0,0,0-.8,2.324,5.018,5.018,0,0,0,1.444,2.648l2.151,2.247a4.808,4.808,0,0,0,2.619,1.545,2.685,2.685,0,0,0,2.446-.77,2.751,2.751,0,0,0,1.007-1.971,3.19,3.19,0,0,0-1.057-2.1Z" transform="translate(-168.017 -22.778)"/>
            <path id="Trazado_107832" data-name="Trazado 107832" d="M220.666,62.119l-3.987,3.09,1.232,3.3-2.58,2L209.946,54.99l2.527-1.958,13.658,9.094-2.575,2Zm-4.877.685,2.781-2.153-4.722-3.278-.048.039Z" transform="translate(-161.3 -27.488)"/>
            <path id="Trazado_107833" data-name="Trazado 107833" d="M232.994,61.046l-2.659,1.63L219.5,57.011l-.05.044,5.477,8.934-2.659,1.632-8.129-13.264,2.656-1.63,10.827,5.656.05-.042L222.2,49.414l2.661-1.63Z" transform="translate(-156.314 -33.723)"/>
            <path id="Trazado_107834" data-name="Trazado 107834" d="M231.991,46.973l-4,1.926,5.7,11.855-2.814,1.35-5.693-11.855-3.949,1.9-1.042-2.168,10.765-5.173Z" transform="translate(-149.136 -37.26)"/>
            <path id="Trazado_107835" data-name="Trazado 107835" d="M237.737,51.261l-5.409,2.011,1.549,4.164,6.426-2.387.836,2.243-9.354,3.477-5.418-14.584,9.334-3.468.838,2.254-6.411,2.381,1.363,3.667,5.407-2.011Z" transform="translate(-141.789 -39.744)"/>
            <path id="Trazado_107836" data-name="Trazado 107836" d="M242.589,52.277a1.825,1.825,0,0,0-.976-1.234,6.275,6.275,0,0,0-2.387-.429,12.453,12.453,0,0,1-4.44-.8,3.612,3.612,0,0,1-2.118-2.54,3.782,3.782,0,0,1,.713-3.427,6.369,6.369,0,0,1,3.562-2.2,6.3,6.3,0,0,1,4.354.19,4.062,4.062,0,0,1,2.35,2.912l0,.066-2.926.779a2.26,2.26,0,0,0-1.138-1.549,2.872,2.872,0,0,0-2.07-.1,2.6,2.6,0,0,0-1.582,1,1.794,1.794,0,0,0-.245,1.536,1.544,1.544,0,0,0,.993,1.077,9.111,9.111,0,0,0,2.56.433,10.114,10.114,0,0,1,4.265.827,3.891,3.891,0,0,1,2.094,2.632,3.721,3.721,0,0,1-.7,3.448,6.792,6.792,0,0,1-3.691,2.173,7.366,7.366,0,0,1-4.488-.1,4.125,4.125,0,0,1-2.645-3.155l0-.07L237,52.975a2.454,2.454,0,0,0,1.309,1.753,3.429,3.429,0,0,0,2.293.066,3,3,0,0,0,1.709-1A1.706,1.706,0,0,0,242.589,52.277Z" transform="translate(-134.473 -41.358)"/>
            <path id="Trazado_107837" data-name="Trazado 107837" d="M283.558,57.942l.057.026,8.49-8.678,3.687,1.731L289.179,65.1l-2.825-1.326,4.514-9.612-.052-.037-8,7.987-1.915-.9,1.046-11.275-.061-.018-4.525,9.632-2.825-1.326,6.617-14.08,3.7,1.74Z" transform="translate(-84.563 -38.047)"/>
            <path id="Trazado_107838" data-name="Trazado 107838" d="M291.546,61.878l-4.267-2.687-2.676,2.28-2.753-1.74,12.73-10.363,2.7,1.7L293.413,67.02l-2.759-1.737Zm-2.308-4.346,2.971,1.873,1.466-5.556-.055-.035Z" transform="translate(-75.869 -31.84)"/>
            <path id="Trazado_107839" data-name="Trazado 107839" d="M294.614,61.085l.048.035,7.044-3.65,2.72,2.068L294.08,64.343,290.768,68.7l-2.484-1.891,3.409-4.481,1.831-11.076,2.72,2.07Z" transform="translate(-68.226 -29.602)"/>
            <path id="Trazado_107840" data-name="Trazado 107840" d="M304.087,69.979a6.529,6.529,0,0,1-4.558,2.219,6.83,6.83,0,0,1-6.836-6.426,6.557,6.557,0,0,1,1.936-4.68l1.915-2.039a6.571,6.571,0,0,1,4.542-2.219,6.137,6.137,0,0,1,4.68,1.825,6.25,6.25,0,0,1,2.149,4.593,6.514,6.514,0,0,1-1.91,4.691Zm-.333-4.181a4.7,4.7,0,0,0,1.378-2.8,3.007,3.007,0,0,0-1.031-2.569,2.914,2.914,0,0,0-2.591-.838,4.789,4.789,0,0,0-2.685,1.571l-1.932,2.055a4.825,4.825,0,0,0-1.416,2.8,2.923,2.923,0,0,0,1.007,2.547,2.987,2.987,0,0,0,2.619.864,4.781,4.781,0,0,0,2.718-1.58Z" transform="translate(-62.988 -22.983)"/>
            <path id="Trazado_107841" data-name="Trazado 107841" d="M303.359,69.55l-4.72,4.05-2.028-2.368,11.8-10.133,3.505,4.087a6.453,6.453,0,0,1,1.794,3.947,4.111,4.111,0,0,1-1.591,3.341,3.39,3.39,0,0,1-1.98.864,4.417,4.417,0,0,1-2.276-.49,3.338,3.338,0,0,1,.263,2.385,4.346,4.346,0,0,1-1.392,1.991l-.867.746a5.535,5.535,0,0,0-.919,1.017,1.882,1.882,0,0,0-.409,1.144l-.171.147-2.092-2.442a1.716,1.716,0,0,1,.5-1.153,9.752,9.752,0,0,1,1.079-1.087l.836-.72a2.468,2.468,0,0,0,.956-1.659,2.413,2.413,0,0,0-.68-1.79Zm1.823-1.567,1.44,1.68a2.933,2.933,0,0,0,1.7,1.12,2.06,2.06,0,0,0,1.665-.584,2.269,2.269,0,0,0,.866-1.6,2.609,2.609,0,0,0-.757-1.849l-1.475-1.72Z" transform="translate(-58.333 -17.902)"/>
            <path id="Trazado_107842" data-name="Trazado 107842" d="M302.55,78.2,300.7,75.684l12.538-9.205,1.845,2.514Z" transform="translate(-53.469 -11.511)"/>
            <path id="Trazado_107843" data-name="Trazado 107843" d="M309.291,81.37a1.809,1.809,0,0,0,.888-1.3,6.289,6.289,0,0,0-.291-2.407,12.428,12.428,0,0,1-.545-4.479,3.616,3.616,0,0,1,1.805-2.772,3.776,3.776,0,0,1,3.484-.326,6.373,6.373,0,0,1,3.151,2.755,6.307,6.307,0,0,1,1.1,4.221,4.071,4.071,0,0,1-2.09,3.1l-.066.015-1.6-2.562a2.277,2.277,0,0,0,1.144-1.549,2.894,2.894,0,0,0-.521-2.007,2.6,2.6,0,0,0-1.416-1.219,1.8,1.8,0,0,0-1.536.219,1.555,1.555,0,0,0-.742,1.269,9.1,9.1,0,0,0,.343,2.571,10.133,10.133,0,0,1,.462,4.324A3.883,3.883,0,0,1,310.96,84a3.716,3.716,0,0,1-3.5.348,6.792,6.792,0,0,1-3.164-2.886,7.384,7.384,0,0,1-1.225-4.317,4.122,4.122,0,0,1,2.236-3.459l.063-.013,1.6,2.56A2.439,2.439,0,0,0,305.687,78a3.4,3.4,0,0,0,.613,2.21,3.022,3.022,0,0,0,1.453,1.343A1.716,1.716,0,0,0,309.291,81.37Z" transform="translate(-50.665 -7.551)"/>
            <path id="Trazado_107844" data-name="Trazado 107844" d="M321.366,86.313l-1.978-3.98-11.781,5.853-1.385-2.794L318,79.541l-1.947-3.923,2.151-1.07,5.317,10.7Z" transform="translate(-46.914 -1.924)"/>
            <path id="Trazado_107845" data-name="Trazado 107845" d="M314.138,90.165l-1.825-4.7-3.508.239-1.179-3.039,16.4-.744,1.155,2.978-12.6,10.5-1.182-3.035Zm.731-4.869,1.276,3.276,4.483-3.591-.02-.059Z" transform="translate(-45.246 6.834)"/>
            <path id="Trazado_107846" data-name="Trazado 107846" d="M315.6,97.232a1.816,1.816,0,0,0,1.225-.985,6.325,6.325,0,0,0,.409-2.389,12.417,12.417,0,0,1,.757-4.448,3.611,3.611,0,0,1,2.529-2.14,3.782,3.782,0,0,1,3.427.683,7.275,7.275,0,0,1,2.079,7.9,4.074,4.074,0,0,1-2.89,2.374l-.068,0-.805-2.917a2.264,2.264,0,0,0,1.54-1.155,2.889,2.889,0,0,0,.079-2.07,2.62,2.62,0,0,0-1.007-1.571,1.813,1.813,0,0,0-1.54-.232,1.546,1.546,0,0,0-1.07,1,9.14,9.14,0,0,0-.409,2.562,10.135,10.135,0,0,1-.792,4.271,3.882,3.882,0,0,1-2.617,2.116,3.711,3.711,0,0,1-3.451-.667,6.781,6.781,0,0,1-2.206-3.669,7.376,7.376,0,0,1,.063-4.488,4.119,4.119,0,0,1,3.129-2.676l.068,0,.8,2.917a2.441,2.441,0,0,0-1.742,1.322,3.427,3.427,0,0,0-.046,2.293,3.023,3.023,0,0,0,1.013,1.7A1.7,1.7,0,0,0,315.6,97.232Z" transform="translate(-41.868 13.011)"/>
          </g>
        </g>
        <path id="Trazado_107847" data-name="Trazado 107847" d="M167.955,107.224A184.163,184.163,0,0,0,352.119,291.388V107.224Z" transform="translate(10.092 110.09)" fill="#855db5"/>
        <path id="Trazado_107848" data-name="Trazado 107848" d="M252.121,23.058V207.222H436.285A184.163,184.163,0,0,0,252.121,23.058Z" transform="translate(110.09 10.092)" fill="#f9e478"/>
        <path id="Trazado_107849" data-name="Trazado 107849" d="M264.574,309.952c102.255-6.184,184.092-88.023,190.275-190.275a11.732,11.732,0,0,0-11.7-12.453H263.83a11.709,11.709,0,0,0-11.709,11.709v179.32A11.733,11.733,0,0,0,264.574,309.952Z" transform="translate(110.09 110.09)" fill="#31d9e7"/>
        <path id="Trazado_107850" data-name="Trazado 107850" d="M349.758,14.586C247.506,20.77,165.667,102.609,159.483,204.861a11.733,11.733,0,0,0,11.7,12.452H350.5a11.707,11.707,0,0,0,11.706-11.709V26.286A11.734,11.734,0,0,0,349.758,14.586Z" transform="translate(0 0)" fill="#f17781"/>
        <circle id="Elipse_4119" data-name="Elipse 4119" cx="75.236" cy="75.236" r="75.236" transform="translate(286.975 142.078)" fill="#fff"/>
        <g id="Grupo_59655" data-name="Grupo 59655" transform="translate(221.384 73.205)">
          <path id="Trazado_107851" data-name="Trazado 107851" d="M199.472,85.247l-2.1,5.588,6.05,2.273-1.1,2.919-14.564-5.468,3.582-9.531,2.252.847-2.488,6.612,4.013,1.505,2.1-5.591Z" transform="translate(-187.761 5.762)" fill="#fff"/>
          <path id="Trazado_107852" data-name="Trazado 107852" d="M203.447,81.454l-2.2,4.536,2.564,2.4-1.422,2.934L190.677,79.82l1.4-2.873,16.273,2.085-1.422,2.934Zm-4.063,2.777,1.534-3.162-5.685-.845-.026.057Z" transform="translate(-184.296 0.913)" fill="#fff"/>
          <path id="Trazado_107853" data-name="Trazado 107853" d="M206.252,86.02l-13.223-8.19,2.678-4.332a7.5,7.5,0,0,1,3.173-3.079,3.644,3.644,0,0,1,3.521.372,3.312,3.312,0,0,1,1.56,3.529,3.347,3.347,0,0,1,2.225-1.2,3.781,3.781,0,0,1,2.361.593,4.031,4.031,0,0,1,2.1,3.035,6.636,6.636,0,0,1-1.225,4.153Zm-6.039-7.411,1.094-1.77a3.144,3.144,0,0,0,.582-1.9,1.779,1.779,0,0,0-.919-1.359,1.875,1.875,0,0,0-1.716-.265,3.382,3.382,0,0,0-1.5,1.451l-1.039,1.68Zm1.834,1.138,3.816,2.361,1.521-2.462a2.852,2.852,0,0,0,.538-1.888,1.943,1.943,0,0,0-1.015-1.4,2.314,2.314,0,0,0-1.818-.374,2.738,2.738,0,0,0-1.534,1.326Z" transform="translate(-181.502 -7.195)" fill="#fff"/>
          <path id="Trazado_107854" data-name="Trazado 107854" d="M206.111,74.723l4.923,3.8-1.906,2.468-12.317-9.505,3.291-4.262a6.429,6.429,0,0,1,3.5-2.551,4.084,4.084,0,0,1,3.591.875,3.379,3.379,0,0,1,1.247,1.766,4.429,4.429,0,0,1-.015,2.324,3.346,3.346,0,0,1,2.28-.74,4.32,4.32,0,0,1,2.232.961l.906.7a5.622,5.622,0,0,0,1.188.7,1.851,1.851,0,0,0,1.2.162l.175.138L214.448,74.1a1.715,1.715,0,0,1-1.234-.254,9.657,9.657,0,0,1-1.282-.834l-.875-.674a2.228,2.228,0,0,0-3.433.427Zm-1.9-1.468,1.346-1.753a2.912,2.912,0,0,0,.757-1.886,2.06,2.06,0,0,0-.91-1.514,2.265,2.265,0,0,0-1.74-.525A2.6,2.6,0,0,0,202,68.693l-1.385,1.794Z" transform="translate(-177.007 -13.806)" fill="#fff"/>
          <path id="Trazado_107855" data-name="Trazado 107855" d="M214.827,71.647l-2.092,2.322L201.171,63.562l2.09-2.317Z" transform="translate(-171.829 -17.743)" fill="#fff"/>
          <path id="Trazado_107856" data-name="Trazado 107856" d="M217.927,62.641l.061.031a4.875,4.875,0,0,1,1.6,3.869,6.176,6.176,0,0,1-2.142,3.993,5.965,5.965,0,0,1-4.507,1.823,6.447,6.447,0,0,1-4.457-2.175l-2.138-2.236a6.592,6.592,0,0,1-2-4.521,5.716,5.716,0,0,1,1.932-4.35,6.563,6.563,0,0,1,4.175-2.068,4.78,4.78,0,0,1,3.825,1.75l.031.063-2.192,2.1a3.041,3.041,0,0,0-2.059-1.114,2.985,2.985,0,0,0-2.116,1.009,2.5,2.5,0,0,0-.8,2.324,4.97,4.97,0,0,0,1.444,2.65l2.144,2.245a4.828,4.828,0,0,0,2.624,1.545,3.088,3.088,0,0,0,3.451-2.742,3.176,3.176,0,0,0-1.053-2.1Z" transform="translate(-168.063 -22.784)" fill="#fff"/>
          <path id="Trazado_107857" data-name="Trazado 107857" d="M220.711,62.125l-3.982,3.09,1.225,3.293-2.573,2L209.994,55l2.525-1.958,13.663,9.094-2.578,2Zm-4.877.683,2.779-2.151-4.713-3.28-.057.042Z" transform="translate(-161.346 -27.494)" fill="#fff"/>
          <path id="Trazado_107858" data-name="Trazado 107858" d="M233.042,61.052l-2.659,1.63L219.55,57.017l-.046.044L224.981,66l-2.656,1.63-8.133-13.264,2.659-1.63,10.825,5.656.046-.039-5.47-8.93,2.659-1.63Z" transform="translate(-156.359 -33.729)" fill="#fff"/>
          <path id="Trazado_107859" data-name="Trazado 107859" d="M232.039,46.977l-4,1.926,5.7,11.857-2.812,1.35-5.7-11.855-3.95,1.9-1.042-2.166L231,44.813Z" transform="translate(-149.182 -37.266)" fill="#fff"/>
          <path id="Trazado_107860" data-name="Trazado 107860" d="M237.786,51.264l-5.411,2.011,1.551,4.166,6.429-2.389.827,2.243-9.35,3.477-5.416-14.584,9.33-3.466.838,2.252-6.407,2.383,1.363,3.667,5.407-2.013Z" transform="translate(-141.834 -39.75)" fill="#fff"/>
          <path id="Trazado_107861" data-name="Trazado 107861" d="M242.632,52.281a1.8,1.8,0,0,0-.974-1.232,6.21,6.21,0,0,0-2.385-.429,12.454,12.454,0,0,1-4.44-.8,3.613,3.613,0,0,1-2.116-2.543,3.8,3.8,0,0,1,.709-3.427,6.376,6.376,0,0,1,3.56-2.2,6.309,6.309,0,0,1,4.359.19,4.079,4.079,0,0,1,2.352,2.912l0,.068-2.923.775a2.261,2.261,0,0,0-1.142-1.547,2.875,2.875,0,0,0-2.072-.1,2.634,2.634,0,0,0-1.582.993,1.814,1.814,0,0,0-.243,1.538,1.558,1.558,0,0,0,1,1.079,9.2,9.2,0,0,0,2.56.429,10.153,10.153,0,0,1,4.265.829,3.892,3.892,0,0,1,2.094,2.632,3.717,3.717,0,0,1-.7,3.448,6.777,6.777,0,0,1-3.689,2.173,7.343,7.343,0,0,1-4.486-.1,4.11,4.11,0,0,1-2.645-3.155l0-.066,2.923-.779a2.432,2.432,0,0,0,1.3,1.753,3.408,3.408,0,0,0,2.3.068,3.015,3.015,0,0,0,1.709-1A1.7,1.7,0,0,0,242.632,52.281Z" transform="translate(-134.518 -41.364)" fill="#fff"/>
        </g>
        <g id="Grupo_59656" data-name="Grupo 59656" transform="translate(411.36 79.299)">
          <path id="Trazado_107862" data-name="Trazado 107862" d="M283.6,57.947l.061.026,8.492-8.678,3.683,1.733-6.615,14.08L286.4,63.783l4.512-9.615-.05-.037-8,7.987-1.915-.9,1.046-11.277-.063-.015L277.4,59.558l-2.82-1.328,6.612-14.08,3.7,1.742Z" transform="translate(-274.583 -44.149)" fill="#12263f"/>
          <path id="Trazado_107863" data-name="Trazado 107863" d="M291.593,61.884,287.329,59.2l-2.674,2.28-2.757-1.74,12.735-10.363,2.7,1.7-3.873,15.947-2.757-1.735Zm-2.306-4.348,2.974,1.873,1.466-5.551-.055-.035Z" transform="translate(-265.892 -37.94)" fill="#12263f"/>
          <path id="Trazado_107864" data-name="Trazado 107864" d="M294.659,61.09l.05.039,7.043-3.652,2.722,2.066-10.345,4.809-3.313,4.354-2.483-1.888,3.407-4.483,1.829-11.078,2.722,2.07Z" transform="translate(-258.247 -35.704)" fill="#12263f"/>
          <path id="Trazado_107865" data-name="Trazado 107865" d="M304.136,69.986a6.547,6.547,0,0,1-4.56,2.219,6.835,6.835,0,0,1-6.833-6.429,6.559,6.559,0,0,1,1.934-4.678l1.915-2.039a6.554,6.554,0,0,1,4.545-2.219,6.139,6.139,0,0,1,4.678,1.823,6.256,6.256,0,0,1,2.151,4.593,6.516,6.516,0,0,1-1.91,4.693ZM303.8,65.8a4.726,4.726,0,0,0,1.381-2.792,3,3,0,0,0-1.035-2.569,2.91,2.91,0,0,0-2.593-.84,4.808,4.808,0,0,0-2.68,1.569l-1.93,2.055a4.85,4.85,0,0,0-1.42,2.805,2.943,2.943,0,0,0,1.009,2.545,2.974,2.974,0,0,0,2.619.864,4.794,4.794,0,0,0,2.718-1.578Z" transform="translate(-253.008 -29.083)" fill="#12263f"/>
          <path id="Trazado_107866" data-name="Trazado 107866" d="M303.408,69.554l-4.72,4.05-2.028-2.365,11.8-10.133,3.505,4.087a6.434,6.434,0,0,1,1.79,3.947,4.1,4.1,0,0,1-1.591,3.341,3.406,3.406,0,0,1-1.978.864,4.437,4.437,0,0,1-2.278-.492,3.329,3.329,0,0,1,.265,2.389,4.319,4.319,0,0,1-1.392,1.989l-.869.744A5.707,5.707,0,0,0,305,79a1.84,1.84,0,0,0-.409,1.142l-.173.147-2.09-2.442a1.72,1.72,0,0,1,.5-1.155,9.35,9.35,0,0,1,1.076-1.085l.838-.718a2.477,2.477,0,0,0,.956-1.663,2.414,2.414,0,0,0-.678-1.788Zm1.825-1.565,1.44,1.68a2.919,2.919,0,0,0,1.7,1.12,2.053,2.053,0,0,0,1.663-.584,2.257,2.257,0,0,0,.866-1.6,2.6,2.6,0,0,0-.751-1.853l-1.479-1.715Z" transform="translate(-248.353 -24.002)" fill="#12263f"/>
          <path id="Trazado_107867" data-name="Trazado 107867" d="M302.6,78.206l-1.847-2.512,12.54-9.21L315.14,69Z" transform="translate(-243.49 -17.613)" fill="#12263f"/>
          <path id="Trazado_107868" data-name="Trazado 107868" d="M309.338,81.373a1.8,1.8,0,0,0,.891-1.293,6.326,6.326,0,0,0-.291-2.407,12.385,12.385,0,0,1-.547-4.479,3.616,3.616,0,0,1,1.8-2.772,3.791,3.791,0,0,1,3.488-.326,7.272,7.272,0,0,1,4.251,6.974,4.085,4.085,0,0,1-2.094,3.1l-.063.015-1.6-2.562a2.263,2.263,0,0,0,1.142-1.549,2.841,2.841,0,0,0-.516-2.007,2.594,2.594,0,0,0-1.416-1.217,1.8,1.8,0,0,0-1.538.219,1.54,1.54,0,0,0-.74,1.265,9.191,9.191,0,0,0,.337,2.571,10.052,10.052,0,0,1,.466,4.324,3.87,3.87,0,0,1-1.9,2.775,3.708,3.708,0,0,1-3.5.348,6.771,6.771,0,0,1-3.162-2.884,7.364,7.364,0,0,1-1.225-4.319,4.124,4.124,0,0,1,2.234-3.457l.063-.015,1.6,2.56a2.457,2.457,0,0,0-1.291,1.77,3.426,3.426,0,0,0,.615,2.21,3.042,3.042,0,0,0,1.453,1.339A1.7,1.7,0,0,0,309.338,81.373Z" transform="translate(-240.686 -13.651)" fill="#12263f"/>
          <path id="Trazado_107869" data-name="Trazado 107869" d="M321.413,86.321l-1.978-3.98L307.656,88.2l-1.385-2.8,11.779-5.851L316.1,75.623l2.155-1.07,5.315,10.7Z" transform="translate(-236.934 -8.026)" fill="#12263f"/>
          <path id="Trazado_107870" data-name="Trazado 107870" d="M314.179,90.146l-1.825-4.7-3.51.238-1.179-3.033,16.4-.753,1.158,2.978-12.6,10.507-1.184-3.037Zm.731-4.869,1.278,3.278,4.483-3.591-.026-.059Z" transform="translate(-235.278 0.704)" fill="#12263f"/>
          <path id="Trazado_107871" data-name="Trazado 107871" d="M315.646,97.241a1.835,1.835,0,0,0,1.225-.987,6.326,6.326,0,0,0,.407-2.387,12.467,12.467,0,0,1,.757-4.451,3.62,3.62,0,0,1,2.529-2.14,3.763,3.763,0,0,1,3.427.685,7.266,7.266,0,0,1,2.081,7.9,4.1,4.1,0,0,1-2.893,2.376l-.068,0-.8-2.919a2.274,2.274,0,0,0,1.538-1.153,2.9,2.9,0,0,0,.081-2.072,2.633,2.633,0,0,0-1.013-1.573,1.82,1.82,0,0,0-1.534-.232,1.553,1.553,0,0,0-1.072,1.007,9.133,9.133,0,0,0-.411,2.562,10.037,10.037,0,0,1-.79,4.271,3.9,3.9,0,0,1-2.617,2.118,3.713,3.713,0,0,1-3.453-.672,6.762,6.762,0,0,1-2.2-3.667,7.352,7.352,0,0,1,.061-4.49,4.117,4.117,0,0,1,3.131-2.672l.07,0,.8,2.915a2.44,2.44,0,0,0-1.74,1.319,3.406,3.406,0,0,0-.046,2.3,2.984,2.984,0,0,0,1.011,1.7A1.708,1.708,0,0,0,315.646,97.241Z" transform="translate(-231.89 6.91)" fill="#12263f"/>
        </g>
        <g id="Grupo_59657" data-name="Grupo 59657" transform="translate(227.765 237.454)">
          <path id="Trazado_107872" data-name="Trazado 107872" d="M196.784,128.955l-.063.031a4.875,4.875,0,0,1-4.052-1.026,6.2,6.2,0,0,1-1.93-4.1,5.969,5.969,0,0,1,1.234-4.7,6.445,6.445,0,0,1,4.4-2.278l3.066-.379a6.578,6.578,0,0,1,4.825,1.1,5.71,5.71,0,0,1,2.337,4.144,6.571,6.571,0,0,1-.834,4.582,4.78,4.78,0,0,1-3.689,2.028l-.068-.015-.37-3.011a3.057,3.057,0,0,0,2.12-.989,2.993,2.993,0,0,0,.453-2.3A2.5,2.5,0,0,0,202.832,120a5.011,5.011,0,0,0-2.987-.422l-3.085.381a4.826,4.826,0,0,0-2.8,1.182,2.687,2.687,0,0,0-.842,2.422,2.732,2.732,0,0,0,.982,1.982,3.167,3.167,0,0,0,2.315.409Z" transform="translate(-190.677 -116.428)" fill="#fff"/>
          <path id="Trazado_107873" data-name="Trazado 107873" d="M200.108,136.308a6.513,6.513,0,0,1-5.03-.613,6.825,6.825,0,0,1-2.256-9.1,6.567,6.567,0,0,1,4.166-2.882l2.715-.672a6.548,6.548,0,0,1,5.017.6,6.131,6.131,0,0,1,2.943,4.076,6.277,6.277,0,0,1-.685,5.022,6.534,6.534,0,0,1-4.153,2.9Zm1.991-3.7a4.723,4.723,0,0,0,2.674-1.6,3.006,3.006,0,0,0,.525-2.718,2.911,2.911,0,0,0-1.722-2.112,4.8,4.8,0,0,0-3.107-.138l-2.737.678a4.854,4.854,0,0,0-2.711,1.584,3.241,3.241,0,0,0,1.2,4.834,4.794,4.794,0,0,0,3.138.147Z" transform="translate(-189.223 -108.861)" fill="#fff"/>
          <path id="Trazado_107874" data-name="Trazado 107874" d="M197.892,146.156l-1.122-2.91,7.534-9.625-.031-.055-9.783,3.766-1.118-2.908,14.514-5.593,1.123,2.91-7.525,9.621.031.055,9.77-3.766,1.123,2.912Z" transform="translate(-187.477 -101.692)" fill="#fff"/>
          <path id="Trazado_107875" data-name="Trazado 107875" d="M202.869,147.045a1.812,1.812,0,0,0,.982-1.225,6.349,6.349,0,0,0-.116-2.42,12.5,12.5,0,0,1-.217-4.507,3.623,3.623,0,0,1,2-2.635,3.769,3.769,0,0,1,3.494-.068,7.242,7.242,0,0,1,3.731,7.267,4.076,4.076,0,0,1-2.311,2.941l-.066.011-1.411-2.674a2.274,2.274,0,0,0,1.254-1.457,2.89,2.89,0,0,0-.372-2.044,2.608,2.608,0,0,0-1.322-1.317,1.8,1.8,0,0,0-1.551.107,1.547,1.547,0,0,0-.827,1.21,9,9,0,0,0,.149,2.591,10.113,10.113,0,0,1,.149,4.343,3.878,3.878,0,0,1-2.1,2.626,3.7,3.7,0,0,1-3.514.094,6.771,6.771,0,0,1-2.945-3.109,7.4,7.4,0,0,1-.908-4.4,4.129,4.129,0,0,1,2.483-3.284l.068-.011,1.411,2.672a2.441,2.441,0,0,0-1.416,1.667,3.416,3.416,0,0,0,.449,2.252,3,3,0,0,0,1.354,1.442A1.707,1.707,0,0,0,202.869,147.045Z" transform="translate(-183.253 -93.419)" fill="#fff"/>
          <path id="Trazado_107876" data-name="Trazado 107876" d="M218.321,150.713l-8.378,5.781a5.121,5.121,0,0,1-4.374.9,6.709,6.709,0,0,1-3.792-2.875,6.622,6.622,0,0,1-1.326-4.54,5.12,5.12,0,0,1,2.4-3.757l8.38-5.785,1.779,2.578-8.38,5.785a3.2,3.2,0,0,0-1.488,2.037,3.081,3.081,0,0,0,.6,2.324,3.134,3.134,0,0,0,1.978,1.413,3.183,3.183,0,0,0,2.44-.656l8.38-5.783Z" transform="translate(-179.104 -87.902)" fill="#fff"/>
          <path id="Trazado_107877" data-name="Trazado 107877" d="M212.4,159.625l.044.048,11.135-4.838,2.764,2.991-11.435,10.549-2.116-2.291,7.8-7.2-.035-.059-10.424,4.385-1.433-1.554L213.93,151.6l-.053-.039-7.818,7.219-2.116-2.293,11.433-10.553,2.777,3.009Z" transform="translate(-174.916 -81.37)" fill="#fff"/>
          <path id="Trazado_107878" data-name="Trazado 107878" d="M212.845,165.881l-2.348-2.055,10.256-11.7,2.346,2.055Z" transform="translate(-167.129 -74.014)" fill="#fff"/>
          <path id="Trazado_107879" data-name="Trazado 107879" d="M213,166.477l9.2-12.542,4.376,3.208a6.433,6.433,0,0,1,2.713,4.251,6.278,6.278,0,0,1-1.273,4.86l-1.523,2.079a6.278,6.278,0,0,1-4.256,2.676,6.446,6.446,0,0,1-4.862-1.319Zm10.3-8.759-6.363,8.674,1.86,1.368a3.047,3.047,0,0,0,2.676.538,4.489,4.489,0,0,0,2.5-1.816l1.536-2.094a4.465,4.465,0,0,0,.972-2.917,3.056,3.056,0,0,0-1.322-2.387Z" transform="translate(-164.157 -71.866)" fill="#fff"/>
          <path id="Trazado_107880" data-name="Trazado 107880" d="M232.025,170.828a6.549,6.549,0,0,1-3.893,3.249,6.267,6.267,0,0,1-5.015-.676,6.161,6.161,0,0,1-3.16-3.923,6.534,6.534,0,0,1,.751-5l1.37-2.44a6.563,6.563,0,0,1,3.875-3.247,6.147,6.147,0,0,1,4.982.648,6.26,6.26,0,0,1,3.19,3.941,6.526,6.526,0,0,1-.731,5.013Zm-1.33-3.98a4.724,4.724,0,0,0,.67-3.044,3.016,3.016,0,0,0-1.621-2.245,2.924,2.924,0,0,0-2.718-.193,4.806,4.806,0,0,0-2.225,2.168l-1.383,2.459a4.836,4.836,0,0,0-.7,3.061,3.241,3.241,0,0,0,4.341,2.438,4.788,4.788,0,0,0,2.258-2.188Z" transform="translate(-156.135 -66.418)" fill="#fff"/>
          <path id="Trazado_107881" data-name="Trazado 107881" d="M230.806,170.7l-2.376,5.746-2.884-1.195,5.954-14.371,4.974,2.059a6.487,6.487,0,0,1,3.383,2.715,4.1,4.1,0,0,1,.092,3.7,3.442,3.442,0,0,1-1.379,1.667,4.429,4.429,0,0,1-2.252.589,3.344,3.344,0,0,1,1.313,2.011,4.326,4.326,0,0,1-.341,2.4l-.438,1.057a5.532,5.532,0,0,0-.359,1.326,1.879,1.879,0,0,0,.155,1.206l-.088.2-2.971-1.228a1.746,1.746,0,0,1-.072-1.258,9.472,9.472,0,0,1,.468-1.457l.424-1.017a2.5,2.5,0,0,0,.105-1.915,2.409,2.409,0,0,0-1.418-1.289Zm.921-2.221,2.044.847a2.914,2.914,0,0,0,2.02.236,2.056,2.056,0,0,0,1.221-1.276,2.253,2.253,0,0,0,.053-1.816,2.6,2.6,0,0,0-1.51-1.308l-2.094-.866Z" transform="translate(-149.249 -63.621)" fill="#fff"/>
          <path id="Trazado_107882" data-name="Trazado 107882" d="M242.491,174.043l-5.536-1.628-1.252,4.269,6.582,1.928-.676,2.3-9.573-2.81,4.378-14.925,9.553,2.8-.674,2.311-6.564-1.928-1.1,3.753,5.534,1.624Z" transform="translate(-141.539 -60.888)" fill="#fff"/>
          <path id="Trazado_107883" data-name="Trazado 107883" d="M246.53,177.083a1.822,1.822,0,0,0-.357-1.529,6.266,6.266,0,0,0-1.98-1.4,12.484,12.484,0,0,1-3.676-2.613,3.621,3.621,0,0,1-.838-3.206,3.77,3.77,0,0,1,2.1-2.79,7.253,7.253,0,0,1,8.022,1.549,4.086,4.086,0,0,1,.886,3.634l-.033.059-2.976-.543a2.259,2.259,0,0,0-.372-1.884,2.875,2.875,0,0,0-1.836-.967,2.6,2.6,0,0,0-1.853.225,1.818,1.818,0,0,0-.875,1.287,1.556,1.556,0,0,0,.442,1.4,9.164,9.164,0,0,0,2.133,1.481,10.161,10.161,0,0,1,3.505,2.56,3.885,3.885,0,0,1,.775,3.276,3.7,3.7,0,0,1-2.1,2.823,6.789,6.789,0,0,1-4.267.4,7.377,7.377,0,0,1-4.015-2,4.117,4.117,0,0,1-1.052-3.98l.033-.061,2.974.543a2.448,2.448,0,0,0,.438,2.142,3.436,3.436,0,0,0,2.048,1.035,3.012,3.012,0,0,0,1.971-.175A1.712,1.712,0,0,0,246.53,177.083Z" transform="translate(-134.393 -58.809)" fill="#fff"/>
        </g>
        <g id="Grupo_59658" data-name="Grupo 59658" transform="translate(400.157 249.826)">
          <path id="Trazado_107884" data-name="Trazado 107884" d="M281.447,173.638l.061-.026-.969-12.1,3.724-1.641,6.278,14.234-2.855,1.258-4.284-9.717-.064.018.77,11.277-1.936.856-7.816-8.194-.055.035,4.293,9.737-2.855,1.258L269.463,166.4l3.744-1.654Z" transform="translate(-269.463 -77.189)" fill="#12263f"/>
          <path id="Trazado_107885" data-name="Trazado 107885" d="M287.7,171.967l-2.709,1.549-7.724-13.5,2.709-1.549Z" transform="translate(-260.192 -78.858)" fill="#12263f"/>
          <path id="Trazado_107886" data-name="Trazado 107886" d="M298.866,167.307l-2.556,1.788-11.155-5-.046.042,6.009,8.59-2.553,1.79-8.921-12.746,2.558-1.79,11.146,4.991.048-.046-6-8.577,2.556-1.79Z" transform="translate(-257.367 -83.495)" fill="#12263f"/>
          <path id="Trazado_107887" data-name="Trazado 107887" d="M299.539,155.472a6.536,6.536,0,0,1,1.851,4.722,6.834,6.834,0,0,1-6.949,6.3,6.553,6.553,0,0,1-4.51-2.3l-1.882-2.074a6.583,6.583,0,0,1-1.855-4.7,6.159,6.159,0,0,1,2.19-4.523,6.264,6.264,0,0,1,4.748-1.783,6.531,6.531,0,0,1,4.525,2.276Zm-4.2,0a4.713,4.713,0,0,0-2.678-1.6,3.027,3.027,0,0,0-2.641.829,2.906,2.906,0,0,0-1.039,2.516,4.825,4.825,0,0,0,1.35,2.8l1.9,2.09a4.85,4.85,0,0,0,2.685,1.632,2.95,2.95,0,0,0,2.617-.805A2.983,2.983,0,0,0,298.6,160.4a4.777,4.777,0,0,0-1.363-2.834Z" transform="translate(-249.587 -87.596)" fill="#12263f"/>
          <path id="Trazado_107888" data-name="Trazado 107888" d="M299.194,156.6l4.7,4.068-2.037,2.361-11.763-10.177,3.521-4.072a6.442,6.442,0,0,1,3.639-2.354,4.1,4.1,0,0,1,3.538,1.077,3.4,3.4,0,0,1,1.151,1.834,4.414,4.414,0,0,1-.151,2.319,3.343,3.343,0,0,1,2.322-.61,4.308,4.308,0,0,1,2.175,1.081l.862.748a5.7,5.7,0,0,0,1.147.759,1.874,1.874,0,0,0,1.19.23l.171.149-2.1,2.431a1.715,1.715,0,0,1-1.217-.326,9.637,9.637,0,0,1-1.236-.906l-.831-.72a2.466,2.466,0,0,0-1.785-.7,2.408,2.408,0,0,0-1.665.939Zm-1.816-1.573,1.449-1.672a2.93,2.93,0,0,0,.858-1.842,2.05,2.05,0,0,0-.827-1.56,2.248,2.248,0,0,0-1.709-.621,2.6,2.6,0,0,0-1.718,1.022l-1.481,1.713Z" transform="translate(-244.951 -93.244)" fill="#12263f"/>
          <path id="Trazado_107889" data-name="Trazado 107889" d="M308.573,152.42l-1.838,2.523L294.151,145.8l1.836-2.527Z" transform="translate(-240.131 -96.905)" fill="#12263f"/>
          <path id="Trazado_107890" data-name="Trazado 107890" d="M308.977,145.527a1.834,1.834,0,0,0-1.558-.214,6.325,6.325,0,0,0-2.017,1.346,12.432,12.432,0,0,1-3.755,2.5,3.619,3.619,0,0,1-3.291-.365,3.775,3.775,0,0,1-1.858-2.963,7.261,7.261,0,0,1,4.317-6.936,4.09,4.09,0,0,1,3.713.473l.044.052L303,142a2.257,2.257,0,0,0-1.895-.326,2.888,2.888,0,0,0-1.562,1.365,2.6,2.6,0,0,0-.449,1.812,1.8,1.8,0,0,0,.884,1.276,1.555,1.555,0,0,0,1.466.092,9.125,9.125,0,0,0,2.147-1.462,10.1,10.1,0,0,1,3.65-2.359,3.884,3.884,0,0,1,3.332.451,3.71,3.71,0,0,1,1.884,2.969,6.791,6.791,0,0,1-1.153,4.125A7.358,7.358,0,0,1,308,152.98a4.12,4.12,0,0,1-4.094-.444l-.042-.05,1.569-2.582a2.449,2.449,0,0,0,2.157.357,3.412,3.412,0,0,0,1.7-1.543,2.986,2.986,0,0,0,.54-1.9A1.7,1.7,0,0,0,308.977,145.527Z" transform="translate(-237.38 -102.403)" fill="#12263f"/>
          <path id="Trazado_107891" data-name="Trazado 107891" d="M305.864,133.59l-1.888,4.024,11.908,5.584-1.328,2.825-11.908-5.584L300.79,144.4l-2.177-1.02,5.072-10.816Z" transform="translate(-234.83 -109.625)" fill="#12263f"/>
          <path id="Trazado_107892" data-name="Trazado 107892" d="M314.438,132.58l-1.678,4.755,2.816,2.1-1.085,3.072-12.925-10.127,1.068-3.011,16.406.252-1.085,3.074Zm-3.729,3.214,1.169-3.315-5.739-.2-.02.061Z" transform="translate(-231.322 -113.42)" fill="#12263f"/>
          <path id="Trazado_107893" data-name="Trazado 107893" d="M315.555,126.7a1.821,1.821,0,0,0-1.547.287,6.322,6.322,0,0,0-1.49,1.908,12.585,12.585,0,0,1-2.783,3.553,3.624,3.624,0,0,1-3.238.685A3.783,3.783,0,0,1,303.8,130.9a7.256,7.256,0,0,1,1.923-7.938,4.071,4.071,0,0,1,3.676-.716l.055.035-.676,2.947a2.256,2.256,0,0,0-1.9.282,2.871,2.871,0,0,0-1.055,1.788,2.591,2.591,0,0,0,.142,1.862,1.8,1.8,0,0,0,1.241.934,1.547,1.547,0,0,0,1.418-.376,9.028,9.028,0,0,0,1.58-2.057,10.186,10.186,0,0,1,2.722-3.385,3.9,3.9,0,0,1,3.308-.619,3.7,3.7,0,0,1,2.718,2.227,6.761,6.761,0,0,1,.2,4.278,7.366,7.366,0,0,1-2.186,3.919,4.122,4.122,0,0,1-4.028.867l-.055-.037.676-2.943a2.449,2.449,0,0,0,2.162-.339,3.409,3.409,0,0,0,1.129-2,3.005,3.005,0,0,0-.081-1.976A1.7,1.7,0,0,0,315.555,126.7Z" transform="translate(-229.256 -122.083)" fill="#12263f"/>
        </g>
      </g>
      <path id="Trazado_109141" data-name="Trazado 109141" d="M16.182,18.965H13.955V25H9.842V7.938h6.715A7.5,7.5,0,0,1,21.3,9.284a4.561,4.561,0,0,1,1.711,3.8,5.54,5.54,0,0,1-.721,2.95,5.115,5.115,0,0,1-2.256,1.9L23.6,24.824V25H19.193ZM13.955,15.8h2.6a2.335,2.335,0,0,0,1.764-.617,2.384,2.384,0,0,0,.592-1.721,2.412,2.412,0,0,0-.6-1.733,2.313,2.313,0,0,0-1.758-.629h-2.6Zm17.5,9.434a6.518,6.518,0,0,1-4.723-1.74,6.009,6.009,0,0,1-1.8-4.529v-.328a7.787,7.787,0,0,1,.721-3.434,5.274,5.274,0,0,1,2.1-2.3,6.35,6.35,0,0,1,3.281-.814,5.489,5.489,0,0,1,4.219,1.658,6.516,6.516,0,0,1,1.547,4.623V19.9H28.943a2.846,2.846,0,0,0,.926,1.676,2.755,2.755,0,0,0,1.852.609,3.549,3.549,0,0,0,2.93-1.312l1.8,2.133a5.045,5.045,0,0,1-2.092,1.623A7.069,7.069,0,0,1,31.451,25.234Zm-.445-10.1q-1.734,0-2.062,2.3h3.984v-.3a1.956,1.956,0,0,0-.48-1.471A1.912,1.912,0,0,0,31.006,15.133ZM42.982,9.168V12.32h2.086v2.742H42.982v5.8a1.481,1.481,0,0,0,.258,1,1.383,1.383,0,0,0,1.02.281,5.793,5.793,0,0,0,.984-.07v2.824a7.288,7.288,0,0,1-2.227.34,4.137,4.137,0,0,1-3.012-.961,3.939,3.939,0,0,1-.973-2.918V15.063H37.416V12.32h1.617V9.168ZM53.764,25a4.459,4.459,0,0,1-.375-1.137,3.672,3.672,0,0,1-3.047,1.371,4.5,4.5,0,0,1-3.047-1.084,3.45,3.45,0,0,1-1.254-2.725,3.546,3.546,0,0,1,1.523-3.117,7.761,7.761,0,0,1,4.43-1.055h1.219v-.671q0-1.755-1.512-1.755a1.236,1.236,0,0,0-1.406,1.39H46.346a3.54,3.54,0,0,1,1.564-2.985,6.575,6.575,0,0,1,3.99-1.147,5.764,5.764,0,0,1,3.832,1.184,4.115,4.115,0,0,1,1.441,3.246v5.613a5.748,5.748,0,0,0,.539,2.672V25Zm-2.473-2.578a2.2,2.2,0,0,0,1.225-.316,1.983,1.983,0,0,0,.7-.715V19.363H52.064Q50,19.363,50,21.215a1.131,1.131,0,0,0,.363.873A1.315,1.315,0,0,0,51.291,22.422ZM63.525,25H59.564V12.32h3.961ZM59.33,9.051a1.763,1.763,0,0,1,.609-1.383,2.591,2.591,0,0,1,3.164,0,1.763,1.763,0,0,1,.609,1.383,1.763,1.763,0,0,1-.609,1.383,2.591,2.591,0,0,1-3.164,0A1.763,1.763,0,0,1,59.33,9.051ZM70.123,25H66.162V7h3.961Z" transform="translate(643 3557)" fill="#12263f"/>
    </g>
  </g>
</svg>
