<svg xmlns="http://www.w3.org/2000/svg" width="333" height="99.35" viewBox="0 0 333 99.35">
  <g id="Grupo_61935" data-name="Grupo 61935" transform="translate(8132 8422.5)">
    <path id="Trazado_109126" data-name="Trazado 109126" d="M20.621,11.977H15.848V17h-1.5V5.625h7.047V6.852H15.848v3.9h4.773Zm1.8.719a4.993,4.993,0,0,1,.488-2.234A3.643,3.643,0,0,1,24.266,8.93a3.7,3.7,0,0,1,1.988-.539,3.565,3.565,0,0,1,2.793,1.2,4.6,4.6,0,0,1,1.066,3.18v.1a5.036,5.036,0,0,1-.473,2.215,3.589,3.589,0,0,1-1.352,1.527,3.743,3.743,0,0,1-2.02.547,3.556,3.556,0,0,1-2.785-1.2A4.575,4.575,0,0,1,22.418,12.8Zm1.453.172a3.616,3.616,0,0,0,.652,2.258,2.211,2.211,0,0,0,3.5-.012,3.955,3.955,0,0,0,.648-2.418,3.61,3.61,0,0,0-.66-2.254,2.1,2.1,0,0,0-1.754-.863,2.075,2.075,0,0,0-1.727.852A3.925,3.925,0,0,0,23.871,12.867ZM36.012,9.844a4.331,4.331,0,0,0-.711-.055A1.9,1.9,0,0,0,33.371,11v6H31.926V8.547h1.406l.023.977a2.251,2.251,0,0,1,2.016-1.133,1.477,1.477,0,0,1,.641.109Zm2.688-1.3.039.938a3.122,3.122,0,0,1,2.508-1.094A2.417,2.417,0,0,1,43.66,9.75a3.2,3.2,0,0,1,1.1-.984,3.242,3.242,0,0,1,1.6-.375q2.781,0,2.828,2.945V17H47.738V11.422a1.941,1.941,0,0,0-.414-1.355,1.823,1.823,0,0,0-1.391-.449,1.917,1.917,0,0,0-1.336.48,1.949,1.949,0,0,0-.617,1.293V17H42.527V11.461a1.613,1.613,0,0,0-1.8-1.844,1.934,1.934,0,0,0-1.945,1.211V17H37.332V8.547ZM56.582,17a3.036,3.036,0,0,1-.2-.891,3.225,3.225,0,0,1-2.406,1.047,2.984,2.984,0,0,1-2.051-.707,2.287,2.287,0,0,1-.8-1.793,2.39,2.39,0,0,1,1-2.051,4.733,4.733,0,0,1,2.824-.73h1.406v-.664A1.623,1.623,0,0,0,55.9,10a1.821,1.821,0,0,0-1.336-.449,2.107,2.107,0,0,0-1.3.391,1.151,1.151,0,0,0-.523.945H51.293a2,2,0,0,1,.449-1.223,3.066,3.066,0,0,1,1.219-.934,4.1,4.1,0,0,1,1.691-.344,3.342,3.342,0,0,1,2.289.73,2.635,2.635,0,0,1,.859,2.012v3.891a4.757,4.757,0,0,0,.3,1.852V17Zm-2.4-1.1a2.54,2.54,0,0,0,1.289-.352,2.127,2.127,0,0,0,.883-.914V12.9H55.223q-2.656,0-2.656,1.555a1.316,1.316,0,0,0,.453,1.063A1.742,1.742,0,0,0,54.184,15.9Z" transform="translate(-8138 -8340.307)" fill="#12263f"/>
    <path id="Trazado_109125" data-name="Trazado 109125" d="M12.719,5.625l3.719,9.281,3.719-9.281H22.1V17H20.6V12.57l.141-4.781L17.008,17H15.859L12.133,7.813l.148,4.758V17h-1.5V5.625ZM28.031,17.156a3.693,3.693,0,0,1-2.8-1.129,4.19,4.19,0,0,1-1.078-3.02v-.266a5.073,5.073,0,0,1,.48-2.246A3.748,3.748,0,0,1,25.98,8.949a3.378,3.378,0,0,1,1.871-.559,3.166,3.166,0,0,1,2.563,1.086,4.7,4.7,0,0,1,.914,3.109v.6H25.6a3,3,0,0,0,.73,2.02,2.3,2.3,0,0,0,1.777.77,2.517,2.517,0,0,0,1.3-.312,3.259,3.259,0,0,0,.93-.828l.883.688A3.55,3.55,0,0,1,28.031,17.156Zm-.18-7.578a1.928,1.928,0,0,0-1.469.637A3.1,3.1,0,0,0,25.648,12h4.234v-.109a2.753,2.753,0,0,0-.594-1.707A1.815,1.815,0,0,0,27.852,9.578Zm4.8,3.125a4.952,4.952,0,0,1,.922-3.129,3.137,3.137,0,0,1,4.766-.168V5h1.445V17H38.453l-.07-.906a2.943,2.943,0,0,1-2.414,1.063,2.887,2.887,0,0,1-2.395-1.2,5.008,5.008,0,0,1-.926-3.141Zm1.445.164a3.749,3.749,0,0,0,.594,2.25,1.92,1.92,0,0,0,1.641.813A2.108,2.108,0,0,0,38.336,14.7V10.813a2.125,2.125,0,0,0-1.992-1.2,1.929,1.929,0,0,0-1.656.82A4.128,4.128,0,0,0,34.094,12.867ZM43.594,17H42.148V8.547h1.445ZM42.031,6.3a.863.863,0,0,1,.215-.594.807.807,0,0,1,.637-.242.819.819,0,0,1,.641.242.854.854,0,0,1,.219.594.826.826,0,0,1-.219.586.834.834,0,0,1-.641.234.821.821,0,0,1-.637-.234A.834.834,0,0,1,42.031,6.3Zm3.523,6.4a4.952,4.952,0,0,1,.922-3.129,3.137,3.137,0,0,1,4.766-.168V5h1.445V17H51.359l-.07-.906a2.943,2.943,0,0,1-2.414,1.063,2.887,2.887,0,0,1-2.395-1.2,5.008,5.008,0,0,1-.926-3.141ZM47,12.867a3.749,3.749,0,0,0,.594,2.25,1.92,1.92,0,0,0,1.641.813A2.108,2.108,0,0,0,51.242,14.7V10.813a2.125,2.125,0,0,0-1.992-1.2,1.929,1.929,0,0,0-1.656.82A4.128,4.128,0,0,0,47,12.867ZM60.148,17a3.036,3.036,0,0,1-.2-.891,3.225,3.225,0,0,1-2.406,1.047,2.984,2.984,0,0,1-2.051-.707,2.287,2.287,0,0,1-.8-1.793,2.39,2.39,0,0,1,1-2.051,4.733,4.733,0,0,1,2.824-.73h1.406v-.664A1.623,1.623,0,0,0,59.469,10a1.821,1.821,0,0,0-1.336-.449,2.107,2.107,0,0,0-1.3.391,1.151,1.151,0,0,0-.523.945H54.859a2,2,0,0,1,.449-1.223,3.066,3.066,0,0,1,1.219-.934,4.1,4.1,0,0,1,1.691-.344,3.342,3.342,0,0,1,2.289.73,2.635,2.635,0,0,1,.859,2.012v3.891a4.757,4.757,0,0,0,.3,1.852V17Zm-2.4-1.1a2.54,2.54,0,0,0,1.289-.352,2.127,2.127,0,0,0,.883-.914V12.9H58.789q-2.656,0-2.656,1.555a1.316,1.316,0,0,0,.453,1.063A1.742,1.742,0,0,0,57.75,15.9Z" transform="translate(-8047 -8340.307)" fill="#12263f"/>
    <path id="Trazado_109124" data-name="Trazado 109124" d="M26.707,13.391a4.185,4.185,0,0,1-1.332,2.785,4.365,4.365,0,0,1-2.98.98,4.008,4.008,0,0,1-3.23-1.445,5.815,5.815,0,0,1-1.215-3.867V10.75a6.481,6.481,0,0,1,.566-2.789,4.231,4.231,0,0,1,1.605-1.848,4.47,4.47,0,0,1,2.406-.645A4.11,4.11,0,0,1,25.434,6.48a4.235,4.235,0,0,1,1.273,2.8H25.2a3.268,3.268,0,0,0-.848-1.975A2.565,2.565,0,0,0,22.527,6.7a2.684,2.684,0,0,0-2.254,1.063,4.882,4.882,0,0,0-.816,3.026v1.1a5.018,5.018,0,0,0,.773,2.948,2.5,2.5,0,0,0,2.164,1.095,2.886,2.886,0,0,0,1.918-.566,3.143,3.143,0,0,0,.887-1.973Zm1.438-.7a4.993,4.993,0,0,1,.488-2.234A3.643,3.643,0,0,1,29.992,8.93a3.7,3.7,0,0,1,1.988-.539,3.565,3.565,0,0,1,2.793,1.2,4.6,4.6,0,0,1,1.066,3.18v.1a5.036,5.036,0,0,1-.473,2.215,3.589,3.589,0,0,1-1.352,1.527,3.743,3.743,0,0,1-2.02.547,3.556,3.556,0,0,1-2.785-1.2A4.575,4.575,0,0,1,28.145,12.8Zm1.453.172a3.616,3.616,0,0,0,.652,2.258,2.211,2.211,0,0,0,3.5-.012,3.955,3.955,0,0,0,.648-2.418,3.61,3.61,0,0,0-.66-2.254,2.1,2.1,0,0,0-1.754-.863,2.075,2.075,0,0,0-1.727.852A3.925,3.925,0,0,0,29.6,12.867ZM39.223,17H37.777V5h1.445Zm1.93-4.3a4.993,4.993,0,0,1,.488-2.234A3.643,3.643,0,0,1,43,8.93a3.7,3.7,0,0,1,1.988-.539,3.565,3.565,0,0,1,2.793,1.2,4.6,4.6,0,0,1,1.066,3.18v.1a5.036,5.036,0,0,1-.473,2.215,3.589,3.589,0,0,1-1.352,1.527,3.743,3.743,0,0,1-2.02.547,3.556,3.556,0,0,1-2.785-1.2A4.575,4.575,0,0,1,41.152,12.8Zm1.453.172a3.616,3.616,0,0,0,.652,2.258,2.211,2.211,0,0,0,3.5-.012A3.955,3.955,0,0,0,47.4,12.7a3.61,3.61,0,0,0-.66-2.254,2.1,2.1,0,0,0-1.754-.863,2.075,2.075,0,0,0-1.727.852A3.925,3.925,0,0,0,42.605,12.867ZM54.746,9.844a4.331,4.331,0,0,0-.711-.055A1.9,1.9,0,0,0,52.105,11v6H50.66V8.547h1.406l.023.977a2.251,2.251,0,0,1,2.016-1.133,1.477,1.477,0,0,1,.641.109Z" transform="translate(-7956 -8340.307)" fill="#12263f"/>
    <path id="Trazado_109123" data-name="Trazado 109123" d="M18.277,6.852H14.621V17H13.129V6.852H9.48V5.625h8.8Zm4.969,10.3a3.693,3.693,0,0,1-2.8-1.129,4.19,4.19,0,0,1-1.078-3.02v-.266a5.073,5.073,0,0,1,.48-2.246A3.748,3.748,0,0,1,21.2,8.949a3.378,3.378,0,0,1,1.871-.559,3.166,3.166,0,0,1,2.563,1.086,4.7,4.7,0,0,1,.914,3.109v.6H20.816a3,3,0,0,0,.73,2.02,2.3,2.3,0,0,0,1.777.77,2.517,2.517,0,0,0,1.3-.312,3.259,3.259,0,0,0,.93-.828l.883.688A3.55,3.55,0,0,1,23.246,17.156Zm-.18-7.578a1.928,1.928,0,0,0-1.469.637A3.1,3.1,0,0,0,20.863,12H25.1v-.109a2.753,2.753,0,0,0-.594-1.707A1.815,1.815,0,0,0,23.066,9.578Zm7.984,2.055,1.875-3.086h1.688l-2.766,4.18L34.7,17H33.027l-1.953-3.164L29.121,17h-1.68l2.852-4.273-2.766-4.18H29.2ZM38.105,6.5V8.547h1.578V9.664H38.105v5.249a1.173,1.173,0,0,0,.211.763.888.888,0,0,0,.719.254,3.5,3.5,0,0,0,.688-.094V17a4.215,4.215,0,0,1-1.109.155,1.8,1.8,0,0,1-1.461-.586,2.517,2.517,0,0,1-.492-1.664V9.664H35.121V8.547H36.66V6.5Zm8.484,9.664a3.07,3.07,0,0,1-2.477.992,2.628,2.628,0,0,1-2.059-.785,3.4,3.4,0,0,1-.715-2.324v-5.5h1.445v5.461q0,1.922,1.563,1.922a2.163,2.163,0,0,0,2.2-1.234V8.547H48V17H46.621Zm7.688-6.32a4.331,4.331,0,0,0-.711-.055A1.9,1.9,0,0,0,51.637,11v6H50.191V8.547H51.6l.023.977a2.251,2.251,0,0,1,2.016-1.133,1.477,1.477,0,0,1,.641.109ZM60.512,17a3.036,3.036,0,0,1-.2-.891A3.225,3.225,0,0,1,57.9,17.156a2.984,2.984,0,0,1-2.051-.707,2.287,2.287,0,0,1-.8-1.793,2.39,2.39,0,0,1,1-2.051,4.733,4.733,0,0,1,2.824-.73h1.406v-.664A1.623,1.623,0,0,0,59.832,10,1.821,1.821,0,0,0,58.5,9.555a2.107,2.107,0,0,0-1.3.391,1.151,1.151,0,0,0-.523.945H55.223a2,2,0,0,1,.449-1.223,3.066,3.066,0,0,1,1.219-.934,4.1,4.1,0,0,1,1.691-.344,3.342,3.342,0,0,1,2.289.73,2.635,2.635,0,0,1,.859,2.012v3.891a4.757,4.757,0,0,0,.3,1.852V17Zm-2.4-1.1a2.54,2.54,0,0,0,1.289-.352,2.127,2.127,0,0,0,.883-.914V12.9H59.152q-2.656,0-2.656,1.555a1.316,1.316,0,0,0,.453,1.063A1.742,1.742,0,0,0,58.113,15.9Z" transform="translate(-7865 -8340.307)" fill="#12263f"/>
    <g id="Grupo_61883" data-name="Grupo 61883">
      <rect id="Rectángulo_5843" data-name="Rectángulo 5843" width="60" height="60" transform="translate(-8132 -8422)" fill="none"/>
      <path id="Trazado_109064" data-name="Trazado 109064" d="M1497,146.4c.278-.861.553-1.723.835-2.582q2.7-8.242,5.405-16.481a.656.656,0,0,0-.274-.891q-7.94-5.713-15.856-11.458c-.15-.108-.293-.227-.585-.454.928,0,1.69,0,2.453,0q8.96.015,17.92.042c.414,0,.541-.17.654-.523q2.98-9.287,5.984-18.564c.063-.195.132-.387.241-.706.1.263.17.4.217.55q3.017,9.334,6.019,18.673a.689.689,0,0,0,.8.569q9.728-.037,19.457-.042h.742c-.238.205-.357.325-.491.422q-7.9,5.718-15.811,11.424a.751.751,0,0,0-.342,1.017q3.086,9.341,6.125,18.7c.034.1.061.21.12.422a4.932,4.932,0,0,1-.435-.246q-7.929-5.777-15.844-11.573a.768.768,0,0,0-1.11.025q-7.887,5.787-15.8,11.542c-.1.076-.215.142-.324.213Z" transform="translate(-9615.521 -8512.779)" fill="#bb83ff"/>
    </g>
    <g id="Grupo_61884" data-name="Grupo 61884" transform="translate(182)">
      <rect id="Rectángulo_5843-2" data-name="Rectángulo 5843" width="60" height="60" transform="translate(-8132 -8422)" fill="none"/>
      <path id="Trazado_109064-2" data-name="Trazado 109064" d="M1497,146.4c.278-.861.553-1.723.835-2.582q2.7-8.242,5.405-16.481a.656.656,0,0,0-.274-.891q-7.94-5.713-15.856-11.458c-.15-.108-.293-.227-.585-.454.928,0,1.69,0,2.453,0q8.96.015,17.92.042c.414,0,.541-.17.654-.523q2.98-9.287,5.984-18.564c.063-.195.132-.387.241-.706.1.263.17.4.217.55q3.017,9.334,6.019,18.673a.689.689,0,0,0,.8.569q9.728-.037,19.457-.042h.742c-.238.205-.357.325-.491.422q-7.9,5.718-15.811,11.424a.751.751,0,0,0-.342,1.017q3.086,9.341,6.125,18.7c.034.1.061.21.12.422a4.932,4.932,0,0,1-.435-.246q-7.929-5.777-15.844-11.573a.768.768,0,0,0-1.11.025q-7.887,5.787-15.8,11.542c-.1.076-.215.142-.324.213Z" transform="translate(-9615.521 -8512.779)" fill="#31d9e7"/>
    </g>
    <g id="Grupo_61917" data-name="Grupo 61917">
      <g id="Grupo_61885" data-name="Grupo 61885" transform="translate(273)">
        <rect id="Rectángulo_5843-3" data-name="Rectángulo 5843" width="60" height="60" transform="translate(-8132 -8422)" fill="none"/>
        <path id="Trazado_109064-3" data-name="Trazado 109064" d="M1497,146.4c.278-.861.553-1.723.835-2.582q2.7-8.242,5.405-16.481a.656.656,0,0,0-.274-.891q-7.94-5.713-15.856-11.458c-.15-.108-.293-.227-.585-.454.928,0,1.69,0,2.453,0q8.96.015,17.92.042c.414,0,.541-.17.654-.523q2.98-9.287,5.984-18.564c.063-.195.132-.387.241-.706.1.263.17.4.217.55q3.017,9.334,6.019,18.673a.689.689,0,0,0,.8.569q9.728-.037,19.457-.042h.742c-.238.205-.357.325-.491.422q-7.9,5.718-15.811,11.424a.751.751,0,0,0-.342,1.017q3.086,9.341,6.125,18.7c.034.1.061.21.12.422a4.932,4.932,0,0,1-.435-.246q-7.929-5.777-15.844-11.573a.768.768,0,0,0-1.11.025q-7.887,5.787-15.8,11.542c-.1.076-.215.142-.324.213Z" transform="translate(-9615.521 -8512.779)" fill="#a271dc"/>
      </g>
      <g id="Grupo_61916" data-name="Grupo 61916" transform="translate(-9370.643 -8546.289)">
        <g id="Grupo_61886" data-name="Grupo 61886" transform="translate(1528.146 169.958)">
          <path id="Trazado_109066" data-name="Trazado 109066" d="M1530.717,182.641l1.555,2.306c.131.2.451.011.318-.187l-1.555-2.306c-.132-.2-.452-.012-.319.186Z" transform="translate(-1530.686 -182.371)" fill="#dcbfff"/>
        </g>
        <g id="Grupo_61887" data-name="Grupo 61887" transform="translate(1532.086 157.836)">
          <path id="Trazado_109067" data-name="Trazado 109067" d="M1536.279,168.25l1.935-1.793c.175-.161-.087-.422-.261-.261l-1.936,1.793c-.174.161.087.422.261.261Z" transform="translate(-1535.96 -166.145)" fill="#dcbfff"/>
        </g>
        <g id="Grupo_61888" data-name="Grupo 61888" transform="translate(1530.931 164.319)">
          <path id="Trazado_109068" data-name="Trazado 109068" d="M1534.732,176.928l1.935-1.793c.175-.161-.087-.422-.261-.261l-1.936,1.793c-.174.161.087.422.261.261Z" transform="translate(-1534.413 -174.823)" fill="#dcbfff"/>
        </g>
        <g id="Grupo_61889" data-name="Grupo 61889" transform="translate(1532.295 169.072)">
          <path id="Trazado_109069" data-name="Trazado 109069" d="M1536.292,181.5l1.528,1.94a.185.185,0,0,0,.261,0,.189.189,0,0,0,0-.261l-1.528-1.94a.185.185,0,0,0-.261,0,.188.188,0,0,0,0,.261Z" transform="translate(-1536.24 -181.185)" fill="#dcbfff"/>
        </g>
        <g id="Grupo_61890" data-name="Grupo 61890" transform="translate(1542.347 157.7)">
          <path id="Trazado_109070" data-name="Trazado 109070" d="M1550,168.33a22.165,22.165,0,0,1,2.057-2.057c.179-.157-.083-.418-.261-.262a22.35,22.35,0,0,0-2.057,2.057c-.156.178.1.44.261.261Z" transform="translate(-1549.695 -165.964)" fill="#dcbfff"/>
        </g>
        <g id="Grupo_61891" data-name="Grupo 61891" transform="translate(1535.971 160.698)">
          <path id="Trazado_109071" data-name="Trazado 109071" d="M1541.469,172.342a22.35,22.35,0,0,1,2.057-2.057c.179-.157-.083-.417-.261-.261a22.274,22.274,0,0,0-2.057,2.057c-.156.178.1.439.261.261Z" transform="translate(-1541.16 -169.977)" fill="#dcbfff"/>
        </g>
        <g id="Grupo_61892" data-name="Grupo 61892" transform="translate(1542.627 164.215)">
          <path id="Trazado_109072" data-name="Trazado 109072" d="M1550.2,175.05l2.432.805c.226.075.323-.282.1-.356l-2.432-.805c-.226-.075-.323.281-.1.356Z" transform="translate(-1550.069 -174.684)" fill="#dcbfff"/>
        </g>
        <g id="Grupo_61893" data-name="Grupo 61893" transform="translate(1536.452 167.2)">
          <path id="Trazado_109073" data-name="Trazado 109073" d="M1541.931,179.045l2.432.805c.226.075.323-.282.1-.356l-2.432-.805c-.226-.075-.323.282-.1.356Z" transform="translate(-1541.803 -178.679)" fill="#dcbfff"/>
        </g>
        <g id="Grupo_61894" data-name="Grupo 61894" transform="translate(1551.345 172.026)">
          <path id="Trazado_109074" data-name="Trazado 109074" d="M1561.866,185.506l2.432.805c.226.075.323-.282.1-.356l-2.432-.805c-.226-.075-.323.282-.1.356Z" transform="translate(-1561.738 -185.139)" fill="#dcbfff"/>
        </g>
        <g id="Grupo_61895" data-name="Grupo 61895" transform="translate(1547.934 167.791)">
          <path id="Trazado_109075" data-name="Trazado 109075" d="M1557.182,179.7l.883,2.193a.19.19,0,0,0,.226.129.186.186,0,0,0,.129-.227l-.883-2.193a.19.19,0,0,0-.227-.129.185.185,0,0,0-.129.227Z" transform="translate(-1557.172 -179.47)" fill="#dcbfff"/>
        </g>
        <g id="Grupo_61896" data-name="Grupo 61896" transform="translate(1549.485 164.34)">
          <path id="Trazado_109076" data-name="Trazado 109076" d="M1559.3,175.164l2.1,1.748a.188.188,0,0,0,.26,0,.185.185,0,0,0,0-.261l-2.1-1.748a.189.189,0,0,0-.261,0,.186.186,0,0,0,0,.261Z" transform="translate(-1559.249 -174.851)" fill="#dcbfff"/>
        </g>
        <g id="Grupo_61897" data-name="Grupo 61897" transform="translate(1548.849 155.284)">
          <path id="Trazado_109077" data-name="Trazado 109077" d="M1558.744,165.475q.747-1.236,1.5-2.471a.185.185,0,0,0-.319-.186l-1.5,2.471a.185.185,0,0,0,.319.186Z" transform="translate(-1558.397 -162.729)" fill="#dcbfff"/>
        </g>
        <g id="Grupo_61898" data-name="Grupo 61898" transform="translate(1546.127 160.874)">
          <path id="Trazado_109078" data-name="Trazado 109078" d="M1554.844,170.553a9.583,9.583,0,0,0,2.261.693.19.19,0,0,0,.227-.129.186.186,0,0,0-.129-.226,9.154,9.154,0,0,1-2.172-.656.191.191,0,0,0-.253.066.186.186,0,0,0,.066.253Z" transform="translate(-1554.754 -170.212)" fill="#dcbfff"/>
        </g>
        <g id="Grupo_61899" data-name="Grupo 61899" transform="translate(1551.911 149.456)">
          <path id="Trazado_109079" data-name="Trazado 109079" d="M1562.866,156.4q.061-.643.12-1.287a.185.185,0,0,0-.184-.185.188.188,0,0,0-.185.185q-.06.643-.12,1.287a.186.186,0,0,0,.185.185.188.188,0,0,0,.184-.185Z" transform="translate(-1562.496 -154.929)" fill="#dcbfff"/>
        </g>
        <g id="Grupo_61900" data-name="Grupo 61900" transform="translate(1546.275 151.311)">
          <path id="Trazado_109080" data-name="Trazado 109080" d="M1555.036,157.761l1.933,1.279c.2.131.383-.188.186-.318l-1.933-1.279c-.2-.132-.384.188-.187.318Z" transform="translate(-1554.951 -157.411)" fill="#dcbfff"/>
        </g>
        <g id="Grupo_61901" data-name="Grupo 61901" transform="translate(1544.411 146.818)">
          <path id="Trazado_109081" data-name="Trazado 109081" d="M1552.82,152.921q.177-.647.353-1.294a.185.185,0,0,0-.356-.1q-.177.648-.353,1.295a.185.185,0,0,0,.356.1Z" transform="translate(-1552.457 -151.398)" fill="#dcbfff"/>
        </g>
        <g id="Grupo_61902" data-name="Grupo 61902" transform="translate(1520.643 149.464)">
          <path id="Trazado_109082" data-name="Trazado 109082" d="M1520.7,155.254l1.529,1.939a.185.185,0,0,0,.261,0,.188.188,0,0,0,0-.261l-1.529-1.94a.185.185,0,0,0-.261,0,.189.189,0,0,0,0,.261Z" transform="translate(-1520.643 -154.939)" fill="#dcbfff"/>
        </g>
        <g id="Grupo_61903" data-name="Grupo 61903" transform="translate(1525.667 151.349)">
          <path id="Trazado_109083" data-name="Trazado 109083" d="M1527.495,157.828l2.432.805c.225.075.323-.282.1-.356l-2.432-.8c-.226-.075-.323.281-.1.356Z" transform="translate(-1527.367 -157.462)" fill="#dcbfff"/>
        </g>
        <g id="Grupo_61904" data-name="Grupo 61904" transform="translate(1527.722 174.337)">
          <path id="Trazado_109084" data-name="Trazado 109084" d="M1530.246,188.6l2.432.805c.226.075.323-.282.1-.356l-2.432-.805c-.226-.075-.323.282-.1.356Z" transform="translate(-1530.118 -188.232)" fill="#dcbfff"/>
        </g>
        <g id="Grupo_61905" data-name="Grupo 61905" transform="translate(1527.982 155.825)">
          <path id="Trazado_109085" data-name="Trazado 109085" d="M1530.779,165.689a16.657,16.657,0,0,0,1.582-1.957.186.186,0,0,0-.067-.253.189.189,0,0,0-.253.066,15.935,15.935,0,0,1-1.524,1.883c-.163.173.1.434.261.261Z" transform="translate(-1530.467 -163.454)" fill="#dcbfff"/>
        </g>
        <g id="Grupo_61906" data-name="Grupo 61906" transform="translate(1533.242 151.6)">
          <path id="Trazado_109086" data-name="Trazado 109086" d="M1537.561,158.111l2.1,1.749a.19.19,0,0,0,.261,0,.186.186,0,0,0,0-.261l-2.1-1.748a.19.19,0,0,0-.261,0,.186.186,0,0,0,0,.261Z" transform="translate(-1537.507 -157.799)" fill="#dcbfff"/>
        </g>
        <g id="Grupo_61907" data-name="Grupo 61907" transform="translate(1537.184 143.821)">
          <path id="Trazado_109087" data-name="Trazado 109087" d="M1543.119,150.49a17.711,17.711,0,0,1,1.535-2.833c.131-.2-.188-.383-.319-.186a17.747,17.747,0,0,0-1.535,2.833c-.093.215.225.4.318.186Z" transform="translate(-1542.783 -147.386)" fill="#dcbfff"/>
        </g>
        <g id="Grupo_61908" data-name="Grupo 61908" transform="translate(1541.015 150.013)">
          <path id="Trazado_109088" data-name="Trazado 109088" d="M1547.935,155.953l1.455,2.747c.111.209.43.023.318-.187l-1.455-2.746c-.111-.21-.43-.023-.318.186Z" transform="translate(-1547.912 -155.675)" fill="#dcbfff"/>
        </g>
        <g id="Grupo_61909" data-name="Grupo 61909" transform="translate(1537.844 154.22)">
          <path id="Trazado_109089" data-name="Trazado 109089" d="M1544.01,163.4a9.009,9.009,0,0,0,.755-1.862.185.185,0,0,0-.356-.1,8.537,8.537,0,0,1-.718,1.774c-.114.208.206.4.319.186Z" transform="translate(-1543.667 -161.306)" fill="#dcbfff"/>
        </g>
        <g id="Grupo_61910" data-name="Grupo 61910" transform="translate(1541.498 142.189)">
          <path id="Trazado_109090" data-name="Trazado 109090" d="M1548.9,147.159q.377-.84.752-1.68a.19.19,0,0,0-.067-.253.185.185,0,0,0-.252.066l-.752,1.679a.19.19,0,0,0,.066.253.186.186,0,0,0,.252-.066Z" transform="translate(-1548.558 -145.202)" fill="#dcbfff"/>
        </g>
        <g id="Grupo_61911" data-name="Grupo 61911" transform="translate(1554.13 153.602)">
          <path id="Trazado_109091" data-name="Trazado 109091" d="M1565.492,160.755l1.258,1.819a.189.189,0,0,0,.252.066.187.187,0,0,0,.066-.253l-1.257-1.819a.189.189,0,0,0-.253-.066.186.186,0,0,0-.066.253Z" transform="translate(-1565.466 -160.478)" fill="#dcbfff"/>
        </g>
        <g id="Grupo_61912" data-name="Grupo 61912" transform="translate(1557.808 151.443)">
          <path id="Trazado_109092" data-name="Trazado 109092" d="M1571.617,159.486l-.887-1.806a.186.186,0,0,0-.253-.066.189.189,0,0,0-.066.253q.443.9.887,1.806a.187.187,0,0,0,.252.066.189.189,0,0,0,.067-.253Z" transform="translate(-1570.389 -157.589)" fill="#dcbfff"/>
        </g>
        <g id="Grupo_61913" data-name="Grupo 61913" transform="translate(1562.331 149.541)">
          <path id="Trazado_109093" data-name="Trazado 109093" d="M1576.762,157.147l1.935-1.793c.175-.161-.087-.422-.261-.261l-1.935,1.793c-.175.161.087.422.261.261Z" transform="translate(-1576.444 -155.042)" fill="#dcbfff"/>
        </g>
        <g id="Grupo_61914" data-name="Grupo 61914" transform="translate(1539.536 136.993)">
          <path id="Trazado_109094" data-name="Trazado 109094" d="M1545.984,138.561l1.529,1.939a.186.186,0,0,0,.262,0,.19.19,0,0,0,0-.261l-1.529-1.94a.187.187,0,0,0-.262,0,.191.191,0,0,0,0,.261Z" transform="translate(-1545.932 -138.246)" fill="#dcbfff"/>
        </g>
        <g id="Grupo_61915" data-name="Grupo 61915" transform="translate(1541.244 133.289)">
          <path id="Trazado_109095" data-name="Trazado 109095" d="M1548.239,133.474a5.381,5.381,0,0,0,.125,1.721c.055.232.411.134.356-.1a5.049,5.049,0,0,1-.113-1.623.186.186,0,0,0-.185-.185.189.189,0,0,0-.185.185Z" transform="translate(-1548.218 -133.289)" fill="#dcbfff"/>
        </g>
      </g>
    </g>
    <g id="Grupo_61918" data-name="Grupo 61918">
      <rect id="Rectángulo_5844" data-name="Rectángulo 5844" width="60" height="60" transform="translate(-8041 -8422)" fill="none"/>
      <path id="Trazado_109065" data-name="Trazado 109065" d="M1496.086,141.9c.254-.786.505-1.573.762-2.358q2.462-7.524,4.935-15.046a.6.6,0,0,0-.25-.813q-7.249-5.216-14.476-10.46c-.137-.1-.267-.207-.534-.415.847,0,1.543,0,2.239,0q8.18.014,16.36.038c.378,0,.494-.156.6-.478q2.721-8.478,5.463-16.948c.057-.178.121-.353.22-.645.095.24.155.368.2.5q2.754,8.522,5.5,17.047a.629.629,0,0,0,.728.519q8.881-.033,17.763-.038h.678c-.218.187-.326.3-.449.385q-7.212,5.221-14.434,10.43a.685.685,0,0,0-.312.928q2.817,8.528,5.591,17.07c.031.095.055.192.11.385a4.5,4.5,0,0,1-.4-.224q-7.239-5.274-14.465-10.565a.7.7,0,0,0-1.013.023q-7.2,5.283-14.422,10.537c-.095.069-.2.13-.3.195Z" transform="translate(-9522.393 -8510.395)" fill="none" stroke="#a271dc" stroke-width="2"/>
      <path id="Trazado_109097" data-name="Trazado 109097" d="M-8038-8422h45" transform="translate(-16403 -380) rotate(90)" fill="none" stroke="#bb83ff" stroke-width="1"/>
      <path id="Trazado_109098" data-name="Trazado 109098" d="M-8038-8422h45" transform="translate(-16026.257 -16844) rotate(180)" fill="none" stroke="#bb83ff" stroke-width="1"/>
    </g>
  </g>
</svg>
