<svg xmlns="http://www.w3.org/2000/svg" width="431.262" height="252.497" viewBox="0 0 431.262 252.497">
  <g id="Grupo_62134" data-name="Grupo 62134" transform="translate(10603.597 8126.304)">
    <path id="Trazado_109530" data-name="Trazado 109530" d="M11.792,9.677a5.717,5.717,0,0,1-.457,2.371,3.462,3.462,0,0,1-1.295,1.546,3.563,3.563,0,0,1-1.955.533,3.448,3.448,0,0,1-3.247-2.066,5.486,5.486,0,0,1-.479-2.3V9.093a5.649,5.649,0,0,1,.463-2.355,3.427,3.427,0,0,1,3.25-2.107,3.583,3.583,0,0,1,1.958.536,3.455,3.455,0,0,1,1.3,1.555,5.745,5.745,0,0,1,.457,2.371Zm-1.212-.6a4.144,4.144,0,0,0-.66-2.523,2.177,2.177,0,0,0-1.847-.879,2.154,2.154,0,0,0-1.819.879A4.059,4.059,0,0,0,5.572,9v.679a4.15,4.15,0,0,0,.67,2.5,2.163,2.163,0,0,0,1.844.911,2.154,2.154,0,0,0,1.828-.86,4.126,4.126,0,0,0,.667-2.466ZM8.669,2.27h1.422L8.39,4.136l-.946,0ZM15.7,12.407l1.7-5.275h1.2L16.141,14h-.9L12.757,7.132h1.2ZM23.878,14a2.467,2.467,0,0,1-.165-.724,2.62,2.62,0,0,1-1.955.851,2.424,2.424,0,0,1-1.666-.574,1.859,1.859,0,0,1-.651-1.457,1.942,1.942,0,0,1,.816-1.666,3.846,3.846,0,0,1,2.295-.594h1.143V9.3a1.319,1.319,0,0,0-.368-.981,1.48,1.48,0,0,0-1.085-.365,1.712,1.712,0,0,0-1.054.317.935.935,0,0,0-.425.768H19.581a1.621,1.621,0,0,1,.365-.993,2.491,2.491,0,0,1,.99-.759A3.331,3.331,0,0,1,22.311,7a2.715,2.715,0,0,1,1.86.594,2.141,2.141,0,0,1,.7,1.635v3.161a3.865,3.865,0,0,0,.241,1.5V14Zm-1.949-.9a2.064,2.064,0,0,0,1.047-.286,1.728,1.728,0,0,0,.717-.743V10.667h-.92q-2.158,0-2.158,1.263a1.069,1.069,0,0,0,.368.863A1.415,1.415,0,0,0,21.93,13.1Zm6.056.9H26.811V4.25h1.174Zm1.568-3.5a4.057,4.057,0,0,1,.4-1.815,2.96,2.96,0,0,1,1.1-1.244A3.007,3.007,0,0,1,32.67,7a2.9,2.9,0,0,1,2.269.971,3.736,3.736,0,0,1,.866,2.583v.083a4.092,4.092,0,0,1-.384,1.8,2.916,2.916,0,0,1-1.1,1.241,3.041,3.041,0,0,1-1.641.444,2.889,2.889,0,0,1-2.263-.971,3.718,3.718,0,0,1-.866-2.571Zm1.181.14a2.938,2.938,0,0,0,.53,1.834,1.8,1.8,0,0,0,2.841-.01,3.213,3.213,0,0,0,.527-1.965,2.933,2.933,0,0,0-.536-1.831,1.705,1.705,0,0,0-1.425-.7,1.686,1.686,0,0,0-1.4.692A3.189,3.189,0,0,0,30.734,10.642Z" transform="translate(-10220.335 -7904.934)" fill="#12263f"/>
    <path id="Trazado_109529" data-name="Trazado 109529" d="M15.492,10.261H13.322V14H12.1V4.758h3.06a3.621,3.621,0,0,1,2.4.711A2.558,2.558,0,0,1,18.4,7.538a2.488,2.488,0,0,1-.467,1.5,2.785,2.785,0,0,1-1.3.958l2.171,3.923V14H17.5Zm-2.171-1h1.873a2.112,2.112,0,0,0,1.444-.471,1.591,1.591,0,0,0,.536-1.259,1.676,1.676,0,0,0-.511-1.316,2.164,2.164,0,0,0-1.476-.464H13.322Zm9.452,4.862A3,3,0,0,1,20.5,13.21a3.4,3.4,0,0,1-.876-2.453v-.216a4.121,4.121,0,0,1,.39-1.825,3.045,3.045,0,0,1,1.092-1.257A2.745,2.745,0,0,1,22.627,7a2.572,2.572,0,0,1,2.082.882,3.82,3.82,0,0,1,.743,2.526V10.9H20.8a2.441,2.441,0,0,0,.594,1.641,1.866,1.866,0,0,0,1.444.625,2.045,2.045,0,0,0,1.054-.254,2.648,2.648,0,0,0,.755-.673l.717.559A2.884,2.884,0,0,1,22.773,14.127ZM22.627,7.97a1.566,1.566,0,0,0-1.193.517,2.515,2.515,0,0,0-.6,1.45h3.44V9.849A2.237,2.237,0,0,0,23.8,8.462,1.475,1.475,0,0,0,22.627,7.97Zm6.938,5.2a1.692,1.692,0,0,0,1.1-.381,1.34,1.34,0,0,0,.521-.952h1.111a2.13,2.13,0,0,1-.406,1.124,2.676,2.676,0,0,1-1,.851,2.885,2.885,0,0,1-1.323.317,2.829,2.829,0,0,1-2.231-.936,3.729,3.729,0,0,1-.828-2.561v-.2a4.135,4.135,0,0,1,.368-1.784,2.8,2.8,0,0,1,1.057-1.212A3,3,0,0,1,29.559,7a2.755,2.755,0,0,1,1.92.692,2.473,2.473,0,0,1,.816,1.8H31.184a1.618,1.618,0,0,0-.5-1.095,1.57,1.57,0,0,0-1.12-.428,1.644,1.644,0,0,0-1.387.644,3.026,3.026,0,0,0-.492,1.863V10.7a2.966,2.966,0,0,0,.489,1.828A1.651,1.651,0,0,0,29.565,13.168Zm5.643-7.7V7.132H36.49V8.04H35.208V12.3a.953.953,0,0,0,.171.62.721.721,0,0,0,.584.207,2.843,2.843,0,0,0,.559-.076V14a3.424,3.424,0,0,1-.9.126,1.462,1.462,0,0,1-1.187-.476,2.045,2.045,0,0,1-.4-1.352V8.04h-1.25V7.132h1.25V5.469ZM42.1,14a2.467,2.467,0,0,1-.165-.724,2.62,2.62,0,0,1-1.955.851,2.424,2.424,0,0,1-1.666-.574,1.859,1.859,0,0,1-.651-1.457,1.942,1.942,0,0,1,.816-1.666,3.846,3.846,0,0,1,2.295-.594h1.143V9.3a1.319,1.319,0,0,0-.368-.981,1.48,1.48,0,0,0-1.085-.365,1.712,1.712,0,0,0-1.054.317.935.935,0,0,0-.425.768H37.8a1.621,1.621,0,0,1,.365-.993,2.491,2.491,0,0,1,.99-.759A3.331,3.331,0,0,1,40.534,7a2.715,2.715,0,0,1,1.86.594,2.141,2.141,0,0,1,.7,1.635v3.161a3.865,3.865,0,0,0,.241,1.5V14Zm-1.949-.9a2.064,2.064,0,0,0,1.047-.286,1.728,1.728,0,0,0,.717-.743V10.667H41q-2.158,0-2.158,1.263a1.069,1.069,0,0,0,.368.863A1.415,1.415,0,0,0,40.153,13.1Zm5.891-5.973L46.082,8A2.5,2.5,0,0,1,48.138,7q2.177,0,2.2,2.457V14H49.16V9.455a1.581,1.581,0,0,0-.34-1.1A1.361,1.361,0,0,0,47.783,8a1.7,1.7,0,0,0-1,.3,2.069,2.069,0,0,0-.673.8V14H44.933V7.132Zm5.783,3.377a4.037,4.037,0,0,1,.743-2.555,2.56,2.56,0,0,1,3.929-.06l.057-.762h1.073v6.7a2.794,2.794,0,0,1-.79,2.1,2.916,2.916,0,0,1-2.123.768,3.532,3.532,0,0,1-1.454-.317,2.5,2.5,0,0,1-1.085-.87l.609-.7a2.3,2.3,0,0,0,1.847.933,1.8,1.8,0,0,0,1.336-.482,1.844,1.844,0,0,0,.479-1.358v-.59a2.414,2.414,0,0,1-1.923.813,2.346,2.346,0,0,1-1.952-.971A4.244,4.244,0,0,1,51.826,10.509Zm1.181.133a3.08,3.08,0,0,0,.476,1.825,1.547,1.547,0,0,0,1.333.663,1.72,1.72,0,0,0,1.631-1.009V8.985A1.74,1.74,0,0,0,54.829,8a1.561,1.561,0,0,0-1.339.667A3.354,3.354,0,0,0,53.007,10.642Zm10.632,2.679a2.494,2.494,0,0,1-2.012.806,2.135,2.135,0,0,1-1.673-.638,2.761,2.761,0,0,1-.581-1.888V7.132h1.174v4.437q0,1.562,1.27,1.562a1.758,1.758,0,0,0,1.79-1v-5h1.174V14H63.665Zm4.2.679H66.667V4.25h1.174Zm6.119,0a2.467,2.467,0,0,1-.165-.724,2.62,2.62,0,0,1-1.955.851,2.424,2.424,0,0,1-1.666-.574,1.859,1.859,0,0,1-.651-1.457,1.942,1.942,0,0,1,.816-1.666,3.846,3.846,0,0,1,2.295-.594h1.143V9.3a1.319,1.319,0,0,0-.368-.981,1.48,1.48,0,0,0-1.085-.365,1.712,1.712,0,0,0-1.054.317.935.935,0,0,0-.425.768H69.663a1.621,1.621,0,0,1,.365-.993,2.491,2.491,0,0,1,.99-.759A3.331,3.331,0,0,1,72.393,7a2.715,2.715,0,0,1,1.86.594,2.141,2.141,0,0,1,.7,1.635v3.161a3.865,3.865,0,0,0,.241,1.5V14Zm-1.949-.9a2.064,2.064,0,0,0,1.047-.286,1.728,1.728,0,0,0,.717-.743V10.667h-.92q-2.158,0-2.158,1.263a1.069,1.069,0,0,0,.368.863A1.415,1.415,0,0,0,72.012,13.1Zm8.1-4.919a3.519,3.519,0,0,0-.578-.044,1.547,1.547,0,0,0-1.568.984V14H76.792V7.132h1.143l.019.793A1.829,1.829,0,0,1,79.591,7a1.2,1.2,0,0,1,.521.089Z" transform="translate(-10335.667 -7904.934)" fill="#12263f"/>
    <path id="Trazado_109528" data-name="Trazado 109528" d="M10.4,5.754H7.434V14H6.222V5.754H3.257v-1H10.4Zm4.031,2.431a3.519,3.519,0,0,0-.578-.044,1.547,1.547,0,0,0-1.568.984V14H11.116V7.132h1.143l.019.793A1.829,1.829,0,0,1,13.915,7a1.2,1.2,0,0,1,.521.089ZM16.791,14H15.616V7.132h1.174Zm-1.27-8.69a.7.7,0,0,1,.175-.482.655.655,0,0,1,.517-.2.666.666,0,0,1,.521.2.694.694,0,0,1,.178.482.671.671,0,0,1-.178.476.678.678,0,0,1-.521.19.667.667,0,0,1-.517-.19A.678.678,0,0,1,15.521,5.31ZM22.91,14a2.467,2.467,0,0,1-.165-.724,2.62,2.62,0,0,1-1.955.851,2.424,2.424,0,0,1-1.666-.574,1.859,1.859,0,0,1-.651-1.457,1.942,1.942,0,0,1,.816-1.666,3.846,3.846,0,0,1,2.295-.594h1.143V9.3a1.319,1.319,0,0,0-.368-.981,1.48,1.48,0,0,0-1.085-.365,1.712,1.712,0,0,0-1.054.317.935.935,0,0,0-.425.768H18.612a1.621,1.621,0,0,1,.365-.993,2.491,2.491,0,0,1,.99-.759A3.331,3.331,0,0,1,21.342,7,2.715,2.715,0,0,1,23.2,7.6a2.141,2.141,0,0,1,.7,1.635v3.161a3.865,3.865,0,0,0,.241,1.5V14Zm-1.949-.9a2.064,2.064,0,0,0,1.047-.286,1.728,1.728,0,0,0,.717-.743V10.667h-.92q-2.158,0-2.158,1.263a1.069,1.069,0,0,0,.368.863A1.415,1.415,0,0,0,20.961,13.1Zm5.891-5.973L26.89,8A2.5,2.5,0,0,1,28.946,7q2.177,0,2.2,2.457V14H29.968V9.455a1.581,1.581,0,0,0-.34-1.1A1.361,1.361,0,0,0,28.591,8a1.7,1.7,0,0,0-1,.3,2.069,2.069,0,0,0-.673.8V14H25.741V7.132Zm5.783,3.377a4.037,4.037,0,0,1,.743-2.555,2.56,2.56,0,0,1,3.929-.06l.057-.762h1.073v6.7a2.794,2.794,0,0,1-.79,2.1,2.916,2.916,0,0,1-2.123.768,3.532,3.532,0,0,1-1.454-.317,2.5,2.5,0,0,1-1.085-.87l.609-.7a2.3,2.3,0,0,0,1.847.933,1.8,1.8,0,0,0,1.336-.482,1.844,1.844,0,0,0,.479-1.358v-.59a2.414,2.414,0,0,1-1.923.813,2.346,2.346,0,0,1-1.952-.971A4.244,4.244,0,0,1,32.634,10.509Zm1.181.133a3.08,3.08,0,0,0,.476,1.825,1.547,1.547,0,0,0,1.333.663,1.72,1.72,0,0,0,1.631-1.009V8.985A1.74,1.74,0,0,0,35.637,8a1.561,1.561,0,0,0-1.339.667A3.354,3.354,0,0,0,33.815,10.642Zm10.632,2.679a2.494,2.494,0,0,1-2.012.806,2.135,2.135,0,0,1-1.673-.638,2.761,2.761,0,0,1-.581-1.888V7.132h1.174v4.437q0,1.562,1.27,1.562a1.758,1.758,0,0,0,1.79-1v-5H45.59V14H44.473Zm4.2.679H47.475V4.25h1.174Zm1.568-3.5a4.057,4.057,0,0,1,.4-1.815,2.96,2.96,0,0,1,1.1-1.244A3.007,3.007,0,0,1,53.334,7a2.9,2.9,0,0,1,2.269.971,3.736,3.736,0,0,1,.866,2.583v.083a4.092,4.092,0,0,1-.384,1.8,2.916,2.916,0,0,1-1.1,1.241,3.041,3.041,0,0,1-1.641.444,2.889,2.889,0,0,1-2.263-.971,3.718,3.718,0,0,1-.866-2.571Zm1.181.14a2.938,2.938,0,0,0,.53,1.834,1.8,1.8,0,0,0,2.841-.01A3.213,3.213,0,0,0,55.3,10.5a2.933,2.933,0,0,0-.536-1.831,1.705,1.705,0,0,0-1.425-.7,1.686,1.686,0,0,0-1.4.692A3.189,3.189,0,0,0,51.4,10.642ZM6.977,31H5.8V24.132H6.977Zm-1.27-8.69a.7.7,0,0,1,.175-.482.655.655,0,0,1,.517-.2.666.666,0,0,1,.521.2.694.694,0,0,1,.178.482.671.671,0,0,1-.178.476.678.678,0,0,1-.521.19.667.667,0,0,1-.517-.19A.678.678,0,0,1,5.708,22.31Zm4.259,1.822L10,25A2.5,2.5,0,0,1,12.062,24q2.177,0,2.2,2.457V31H13.083V26.455a1.581,1.581,0,0,0-.34-1.1A1.361,1.361,0,0,0,11.706,25a1.7,1.7,0,0,0-1,.3,2.069,2.069,0,0,0-.673.8V31H8.856V24.132Zm8.328,5.275L20,24.132h1.2L18.733,31h-.9L15.35,24.132h1.2Zm6.881,1.72A3,3,0,0,1,22.9,30.21a3.4,3.4,0,0,1-.876-2.453v-.216a4.121,4.121,0,0,1,.39-1.825,3.045,3.045,0,0,1,1.092-1.257A2.745,2.745,0,0,1,25.03,24a2.572,2.572,0,0,1,2.082.882,3.82,3.82,0,0,1,.743,2.526V27.9H23.2a2.441,2.441,0,0,0,.594,1.641,1.866,1.866,0,0,0,1.444.625,2.045,2.045,0,0,0,1.054-.254,2.648,2.648,0,0,0,.755-.673l.717.559A2.884,2.884,0,0,1,25.176,31.127ZM25.03,24.97a1.566,1.566,0,0,0-1.193.517,2.515,2.515,0,0,0-.6,1.45h3.44v-.089a2.237,2.237,0,0,0-.482-1.387A1.475,1.475,0,0,0,25.03,24.97Zm7.5.216a3.519,3.519,0,0,0-.578-.044,1.547,1.547,0,0,0-1.568.984V31H29.213V24.132h1.143l.019.793A1.829,1.829,0,0,1,32.012,24a1.2,1.2,0,0,1,.521.089Zm2.99-2.717v1.663H36.8v.908H35.522V29.3a.953.953,0,0,0,.171.62.721.721,0,0,0,.584.207,2.843,2.843,0,0,0,.559-.076V31a3.424,3.424,0,0,1-.9.126,1.462,1.462,0,0,1-1.187-.476,2.045,2.045,0,0,1-.4-1.352V25.04H33.1v-.908h1.25V22.469ZM39.452,31H38.277V24.132h1.174Zm-1.27-8.69a.7.7,0,0,1,.175-.482.655.655,0,0,1,.517-.2.666.666,0,0,1,.521.2.694.694,0,0,1,.178.482.671.671,0,0,1-.178.476.678.678,0,0,1-.521.19.667.667,0,0,1-.517-.19A.678.678,0,0,1,38.182,22.31Zm2.863,5.2a4.023,4.023,0,0,1,.749-2.542,2.548,2.548,0,0,1,3.872-.136V21.25H46.84V31H45.761l-.057-.736a2.391,2.391,0,0,1-1.961.863,2.346,2.346,0,0,1-1.946-.978,4.069,4.069,0,0,1-.752-2.552Zm1.174.133A3.046,3.046,0,0,0,42.7,29.47a1.56,1.56,0,0,0,1.333.66,1.713,1.713,0,0,0,1.631-1V25.973A1.726,1.726,0,0,0,44.047,25a1.567,1.567,0,0,0-1.346.667A3.354,3.354,0,0,0,42.219,27.642Zm6.132-.14a4.057,4.057,0,0,1,.4-1.815,2.96,2.96,0,0,1,1.1-1.244A3.007,3.007,0,0,1,51.468,24a2.9,2.9,0,0,1,2.269.971A3.736,3.736,0,0,1,54.6,27.56v.083a4.092,4.092,0,0,1-.384,1.8,2.916,2.916,0,0,1-1.1,1.241,3.041,3.041,0,0,1-1.641.444,2.889,2.889,0,0,1-2.263-.971,3.718,3.718,0,0,1-.866-2.571Zm1.181.14a2.938,2.938,0,0,0,.53,1.834,1.8,1.8,0,0,0,2.841-.01,3.213,3.213,0,0,0,.527-1.965,2.933,2.933,0,0,0-.536-1.831,1.705,1.705,0,0,0-1.425-.7,1.686,1.686,0,0,0-1.4.692A3.189,3.189,0,0,0,49.532,27.642Z" transform="translate(-10409.999 -7904.934)" fill="#12263f"/>
    <path id="Trazado_109527" data-name="Trazado 109527" d="M11.4,5.754H8.434V14H7.222V5.754H4.257v-1H11.4Zm4.031,2.431a3.519,3.519,0,0,0-.578-.044,1.547,1.547,0,0,0-1.568.984V14H12.116V7.132h1.143l.019.793A1.829,1.829,0,0,1,14.915,7a1.2,1.2,0,0,1,.521.089ZM17.791,14H16.616V7.132h1.174Zm-1.27-8.69a.7.7,0,0,1,.175-.482.655.655,0,0,1,.517-.2.666.666,0,0,1,.521.2.694.694,0,0,1,.178.482.671.671,0,0,1-.178.476.678.678,0,0,1-.521.19.667.667,0,0,1-.517-.19A.678.678,0,0,1,16.521,5.31ZM23.91,14a2.467,2.467,0,0,1-.165-.724,2.62,2.62,0,0,1-1.955.851,2.424,2.424,0,0,1-1.666-.574,1.859,1.859,0,0,1-.651-1.457,1.942,1.942,0,0,1,.816-1.666,3.846,3.846,0,0,1,2.295-.594h1.143V9.3a1.319,1.319,0,0,0-.368-.981,1.48,1.48,0,0,0-1.085-.365,1.712,1.712,0,0,0-1.054.317.935.935,0,0,0-.425.768H19.612a1.621,1.621,0,0,1,.365-.993,2.491,2.491,0,0,1,.99-.759A3.331,3.331,0,0,1,22.342,7,2.715,2.715,0,0,1,24.2,7.6a2.141,2.141,0,0,1,.7,1.635v3.161a3.865,3.865,0,0,0,.241,1.5V14Zm-1.949-.9a2.064,2.064,0,0,0,1.047-.286,1.728,1.728,0,0,0,.717-.743V10.667h-.92q-2.158,0-2.158,1.263a1.069,1.069,0,0,0,.368.863A1.415,1.415,0,0,0,21.961,13.1Zm5.891-5.973L27.89,8A2.5,2.5,0,0,1,29.946,7q2.177,0,2.2,2.457V14H30.968V9.455a1.581,1.581,0,0,0-.34-1.1A1.361,1.361,0,0,0,29.591,8a1.7,1.7,0,0,0-1,.3,2.069,2.069,0,0,0-.673.8V14H26.741V7.132Zm5.783,3.377a4.037,4.037,0,0,1,.743-2.555,2.56,2.56,0,0,1,3.929-.06l.057-.762h1.073v6.7a2.794,2.794,0,0,1-.79,2.1,2.916,2.916,0,0,1-2.123.768,3.532,3.532,0,0,1-1.454-.317,2.5,2.5,0,0,1-1.085-.87l.609-.7a2.3,2.3,0,0,0,1.847.933,1.8,1.8,0,0,0,1.336-.482,1.844,1.844,0,0,0,.479-1.358v-.59a2.414,2.414,0,0,1-1.923.813,2.346,2.346,0,0,1-1.952-.971A4.244,4.244,0,0,1,33.634,10.509Zm1.181.133a3.08,3.08,0,0,0,.476,1.825,1.547,1.547,0,0,0,1.333.663,1.72,1.72,0,0,0,1.631-1.009V8.985A1.74,1.74,0,0,0,36.637,8a1.561,1.561,0,0,0-1.339.667A3.354,3.354,0,0,0,34.815,10.642Zm10.632,2.679a2.494,2.494,0,0,1-2.012.806,2.135,2.135,0,0,1-1.673-.638,2.761,2.761,0,0,1-.581-1.888V7.132h1.174v4.437q0,1.562,1.27,1.562a1.758,1.758,0,0,0,1.79-1v-5H46.59V14H45.473Zm4.2.679H48.475V4.25h1.174Zm1.568-3.5a4.057,4.057,0,0,1,.4-1.815,2.96,2.96,0,0,1,1.1-1.244A3.007,3.007,0,0,1,54.334,7a2.9,2.9,0,0,1,2.269.971,3.736,3.736,0,0,1,.866,2.583v.083a4.092,4.092,0,0,1-.384,1.8,2.916,2.916,0,0,1-1.1,1.241,3.041,3.041,0,0,1-1.641.444,2.889,2.889,0,0,1-2.263-.971,3.718,3.718,0,0,1-.866-2.571Zm1.181.14a2.938,2.938,0,0,0,.53,1.834,1.8,1.8,0,0,0,2.841-.01A3.213,3.213,0,0,0,56.3,10.5a2.933,2.933,0,0,0-.536-1.831,1.705,1.705,0,0,0-1.425-.7,1.686,1.686,0,0,0-1.4.692A3.189,3.189,0,0,0,52.4,10.642Z" transform="translate(-10502.667 -7904.934)" fill="#12263f"/>
    <path id="Trazado_109526" data-name="Trazado 109526" d="M4.462,10.261H2.292V14H1.066V4.758h3.06a3.621,3.621,0,0,1,2.4.711A2.558,2.558,0,0,1,7.37,7.538a2.488,2.488,0,0,1-.467,1.5A2.785,2.785,0,0,1,5.6,10l2.171,3.923V14H6.468Zm-2.171-1H4.164a2.112,2.112,0,0,0,1.444-.471,1.591,1.591,0,0,0,.536-1.259,1.676,1.676,0,0,0-.511-1.316,2.164,2.164,0,0,0-1.476-.464H2.292Zm9.452,4.862a3,3,0,0,1-2.272-.917,3.4,3.4,0,0,1-.876-2.453v-.216a4.121,4.121,0,0,1,.39-1.825,3.045,3.045,0,0,1,1.092-1.257A2.745,2.745,0,0,1,11.6,7a2.572,2.572,0,0,1,2.082.882,3.82,3.82,0,0,1,.743,2.526V10.9H9.769a2.441,2.441,0,0,0,.594,1.641,1.866,1.866,0,0,0,1.444.625,2.045,2.045,0,0,0,1.054-.254,2.648,2.648,0,0,0,.755-.673l.717.559A2.884,2.884,0,0,1,11.743,14.127ZM11.6,7.97a1.566,1.566,0,0,0-1.193.517,2.515,2.515,0,0,0-.6,1.45h3.44V9.849a2.237,2.237,0,0,0-.482-1.387A1.475,1.475,0,0,0,11.6,7.97ZM17.056,14H15.882V4.25h1.174Zm1.568-3.5a4.057,4.057,0,0,1,.4-1.815,2.96,2.96,0,0,1,1.1-1.244A3.007,3.007,0,0,1,21.741,7a2.9,2.9,0,0,1,2.269.971,3.736,3.736,0,0,1,.866,2.583v.083a4.092,4.092,0,0,1-.384,1.8,2.916,2.916,0,0,1-1.1,1.241,3.041,3.041,0,0,1-1.641.444,2.889,2.889,0,0,1-2.263-.971,3.718,3.718,0,0,1-.866-2.571Zm1.181.14a2.938,2.938,0,0,0,.53,1.834,1.8,1.8,0,0,0,2.841-.01A3.213,3.213,0,0,0,23.7,10.5a2.933,2.933,0,0,0-.536-1.831,1.705,1.705,0,0,0-1.425-.7,1.686,1.686,0,0,0-1.4.692A3.189,3.189,0,0,0,19.8,10.642Zm7.757-3.51v7.662q0,1.98-1.8,1.98a2.191,2.191,0,0,1-.717-.114v-.934a2.27,2.27,0,0,0,.533.051.8.8,0,0,0,.6-.213,1.052,1.052,0,0,0,.206-.74V7.132ZM26.267,5.31a.7.7,0,0,1,.175-.479.642.642,0,0,1,.511-.2.666.666,0,0,1,.521.2.694.694,0,0,1,.178.482.671.671,0,0,1-.178.476.678.678,0,0,1-.521.19.657.657,0,0,1-.514-.19A.685.685,0,0,1,26.267,5.31Zm6.119,5.2a4.023,4.023,0,0,1,.749-2.542,2.548,2.548,0,0,1,3.872-.136V4.25h1.174V14H37.1l-.057-.736a2.391,2.391,0,0,1-1.961.863,2.346,2.346,0,0,1-1.946-.978,4.069,4.069,0,0,1-.752-2.552Zm1.174.133a3.046,3.046,0,0,0,.482,1.828,1.56,1.56,0,0,0,1.333.66,1.713,1.713,0,0,0,1.631-1V8.973A1.726,1.726,0,0,0,35.388,8a1.567,1.567,0,0,0-1.346.667A3.354,3.354,0,0,0,33.56,10.642Zm9.293,3.485a3,3,0,0,1-2.272-.917,3.4,3.4,0,0,1-.876-2.453v-.216a4.121,4.121,0,0,1,.39-1.825,3.045,3.045,0,0,1,1.092-1.257A2.745,2.745,0,0,1,42.707,7a2.572,2.572,0,0,1,2.082.882,3.82,3.82,0,0,1,.743,2.526V10.9H40.879a2.441,2.441,0,0,0,.594,1.641,1.866,1.866,0,0,0,1.444.625,2.045,2.045,0,0,0,1.054-.254,2.648,2.648,0,0,0,.755-.673l.717.559A2.884,2.884,0,0,1,42.853,14.127ZM42.707,7.97a1.566,1.566,0,0,0-1.193.517,2.515,2.515,0,0,0-.6,1.45h3.44V9.849a2.237,2.237,0,0,0-.482-1.387A1.475,1.475,0,0,0,42.707,7.97ZM54.349,14a2.467,2.467,0,0,1-.165-.724,2.62,2.62,0,0,1-1.955.851,2.424,2.424,0,0,1-1.666-.574,1.859,1.859,0,0,1-.651-1.457,1.942,1.942,0,0,1,.816-1.666,3.846,3.846,0,0,1,2.295-.594h1.143V9.3a1.319,1.319,0,0,0-.368-.981,1.48,1.48,0,0,0-1.085-.365,1.712,1.712,0,0,0-1.054.317.935.935,0,0,0-.425.768H50.051a1.621,1.621,0,0,1,.365-.993,2.491,2.491,0,0,1,.99-.759A3.331,3.331,0,0,1,52.781,7a2.715,2.715,0,0,1,1.86.594,2.141,2.141,0,0,1,.7,1.635v3.161a3.865,3.865,0,0,0,.241,1.5V14ZM52.4,13.1a2.064,2.064,0,0,0,1.047-.286,1.728,1.728,0,0,0,.717-.743V10.667h-.92q-2.158,0-2.158,1.263a1.069,1.069,0,0,0,.368.863A1.415,1.415,0,0,0,52.4,13.1Zm8.1-4.919a3.519,3.519,0,0,0-.578-.044,1.547,1.547,0,0,0-1.568.984V14H57.18V7.132h1.143l.019.793A1.829,1.829,0,0,1,59.979,7a1.2,1.2,0,0,1,.521.089Zm3.929,5.941a3,3,0,0,1-2.272-.917,3.4,3.4,0,0,1-.876-2.453v-.216a4.121,4.121,0,0,1,.39-1.825,3.045,3.045,0,0,1,1.092-1.257A2.745,2.745,0,0,1,64.283,7a2.572,2.572,0,0,1,2.082.882,3.82,3.82,0,0,1,.743,2.526V10.9H62.455a2.441,2.441,0,0,0,.594,1.641,1.866,1.866,0,0,0,1.444.625,2.045,2.045,0,0,0,1.054-.254,2.648,2.648,0,0,0,.755-.673l.717.559A2.884,2.884,0,0,1,64.429,14.127ZM64.283,7.97a1.566,1.566,0,0,0-1.193.517,2.515,2.515,0,0,0-.6,1.45h3.44V9.849a2.237,2.237,0,0,0-.482-1.387A1.475,1.475,0,0,0,64.283,7.97Zm5.294-.838L69.615,8A2.5,2.5,0,0,1,71.671,7q2.177,0,2.2,2.457V14H72.693V9.455a1.581,1.581,0,0,0-.34-1.1A1.361,1.361,0,0,0,71.316,8a1.7,1.7,0,0,0-1,.3,2.069,2.069,0,0,0-.673.8V14H68.466V7.132ZM79.879,14a2.467,2.467,0,0,1-.165-.724,2.62,2.62,0,0,1-1.955.851,2.424,2.424,0,0,1-1.666-.574,1.859,1.859,0,0,1-.651-1.457,1.942,1.942,0,0,1,.816-1.666,3.846,3.846,0,0,1,2.295-.594h1.143V9.3a1.319,1.319,0,0,0-.368-.981,1.48,1.48,0,0,0-1.085-.365,1.712,1.712,0,0,0-1.054.317.935.935,0,0,0-.425.768H75.582a1.621,1.621,0,0,1,.365-.993,2.491,2.491,0,0,1,.99-.759A3.331,3.331,0,0,1,78.311,7a2.715,2.715,0,0,1,1.86.594,2.141,2.141,0,0,1,.7,1.635v3.161a3.865,3.865,0,0,0,.241,1.5V14Zm-1.949-.9a2.064,2.064,0,0,0,1.047-.286,1.728,1.728,0,0,0,.717-.743V10.667h-.92q-2.158,0-2.158,1.263a1.069,1.069,0,0,0,.368.863A1.415,1.415,0,0,0,77.93,13.1Z" transform="translate(-10604.663 -7904.934)" fill="#12263f"/>
    <g id="Grupo_62132" data-name="Grupo 62132" transform="translate(-10593.999 -8126.304)">
      <ellipse id="Elipse_4157" data-name="Elipse 4157" cx="29.198" cy="78.566" rx="29.198" ry="78.566" transform="translate(184.664 38.467)" fill="#f3f9ff"/>
      <g id="Grupo_62060" data-name="Grupo 62060" transform="translate(181.324 36.54)">
        <g id="Grupo_62053" data-name="Grupo 62053" transform="translate(13.299 0)">
          <path id="Trazado_109275" data-name="Trazado 109275" d="M221.535,62.977s-3.467,6.3.542,10.554,6.465,6.21,2.364,11.773-3.01,9.487.335,10.767,4.546,12.644-5.8,17.733-22.2-5.2-26.147-8.866-6.551-6.669-3.773-11.243,5.864-3.715,5.233-8.631-7.031-5.538-2.608-10.665,5.777-4.221,5.071-8.9S203.831,54.768,207,53.915,220.436,57.087,221.535,62.977Z" transform="translate(-187.896 -51.873)" fill="#ffc94a"/>
          <rect id="Rectángulo_5879" data-name="Rectángulo 5879" width="6.442" height="9.985" transform="translate(18.54 21.985)" fill="#ed744d"/>
          <path id="Trazado_109276" data-name="Trazado 109276" d="M202.22,69.946a4.986,4.986,0,0,0,3.35,4.76,2.428,2.428,0,0,0,.616.133,1.591,1.591,0,0,0,.629-.109,2.891,2.891,0,0,0,1.85-2.738V69.064h-6.442Z" transform="translate(-183.92 -47.637)" fill="#bb5a38"/>
          <ellipse id="Elipse_4158" data-name="Elipse 4158" cx="9.731" cy="9.731" rx="9.731" ry="9.731" transform="translate(9.385 17.98) rotate(-67.5)" fill="#ffc94a"/>
          <path id="Trazado_109277" data-name="Trazado 109277" d="M213.568,65.317a3.052,3.052,0,0,1-3.088,2.839l-.238-5.345C212.013,62.719,213.57,62.666,213.568,65.317Z" transform="translate(-181.694 -49.381)" fill="#ed744d"/>
          <path id="Trazado_109278" data-name="Trazado 109278" d="M211.528,64.157a.2.2,0,0,1,.356-.137,1.171,1.171,0,0,1,.183,1.138c-.24.69-.761,1.376-1.032,1.108s0-.215.368-1.108A2.105,2.105,0,0,0,211.528,64.157Z" transform="translate(-181.504 -49.059)" fill="#bb5a38"/>
          <path id="Trazado_109279" data-name="Trazado 109279" d="M209.827,68.409a.3.3,0,1,1,.305.305A.305.305,0,0,1,209.827,68.409Z" transform="translate(-181.809 -47.903)" fill="#ff7454"/>
          <ellipse id="Elipse_4159" data-name="Elipse 4159" cx="0.178" cy="0.178" rx="0.178" ry="0.178" transform="translate(28.77 19.174)" fill="#ff7454"/>
          <path id="Trazado_109280" data-name="Trazado 109280" d="M207.6,76.351h0c-3.434-.166-8.349-4.96-8.184-8.394,0,0-.326-5.28.721-6.858,1.817-2.738,8.7-2.677,11.411-2.061,4.153.944,3.011,8.661,3.011,8.661C214.559,74.117,209.1,76.423,207.6,76.351Z" transform="translate(-184.712 -50.516)" fill="#ed744d"/>
          <path id="Trazado_109281" data-name="Trazado 109281" d="M197.621,65.317a3.051,3.051,0,0,0,3.087,2.839l.239-5.345C199.176,62.719,197.618,62.666,197.621,65.317Z" transform="translate(-185.197 -49.381)" fill="#ed744d"/>
          <path id="Trazado_109282" data-name="Trazado 109282" d="M199.2,64.157a.2.2,0,0,0-.355-.137,1.171,1.171,0,0,0-.184,1.138c.24.69.763,1.376,1.034,1.108s-.005-.215-.368-1.108A2.091,2.091,0,0,1,199.2,64.157Z" transform="translate(-184.928 -49.059)" fill="#bb5a38"/>
          <path id="Trazado_109283" data-name="Trazado 109283" d="M204.394,65.837c0,.431-.253.779-.566.779s-.566-.349-.566-.779.253-.779.566-.779S204.394,65.407,204.394,65.837Z" transform="translate(-183.631 -48.748)" fill="#28121e"/>
          <path id="Trazado_109284" data-name="Trazado 109284" d="M209.3,65.837c0,.431-.253.779-.566.779s-.566-.349-.566-.779.253-.779.566-.779S209.3,65.407,209.3,65.837Z" transform="translate(-182.27 -48.748)" fill="#28121e"/>
          <path id="Trazado_109285" data-name="Trazado 109285" d="M202.142,64.093a4.1,4.1,0,0,1,3.821,0" transform="translate(-183.942 -49.153)" fill="none" stroke="#bb5a38" stroke-miterlimit="10" stroke-width="0.707"/>
          <path id="Trazado_109286" data-name="Trazado 109286" d="M204.838,69.694a1.963,1.963,0,0,0,2.429-.153" transform="translate(-183.194 -47.504)" fill="none" stroke="#bb5a38" stroke-miterlimit="10" stroke-width="0.707"/>
          <g id="Grupo_62051" data-name="Grupo 62051" transform="translate(16.752 18.595)">
            <path id="Trazado_109287" data-name="Trazado 109287" d="M202.416,67.1a.25.25,0,1,1-.25-.25A.251.251,0,0,1,202.416,67.1Z" transform="translate(-200.758 -66.847)" fill="#bb5a38"/>
            <path id="Trazado_109288" data-name="Trazado 109288" d="M203.218,67.6a.108.108,0,1,1-.107-.109A.108.108,0,0,1,203.218,67.6Z" transform="translate(-200.456 -66.667)" fill="#bb5a38"/>
            <path id="Trazado_109289" data-name="Trazado 109289" d="M202.206,68.153a.22.22,0,1,1-.22-.22A.22.22,0,0,1,202.206,68.153Z" transform="translate(-200.799 -66.546)" fill="#bb5a38"/>
            <path id="Trazado_109290" data-name="Trazado 109290" d="M201.253,67.326a.122.122,0,1,1-.244,0,.122.122,0,0,1,.244,0Z" transform="translate(-201.009 -66.748)" fill="#bb5a38"/>
            <ellipse id="Elipse_4160" data-name="Elipse 4160" cx="0.184" cy="0.184" rx="0.184" ry="0.184" transform="translate(2.335 2.032)" fill="#bb5a38"/>
            <path id="Trazado_109291" data-name="Trazado 109291" d="M204.26,67.208a.164.164,0,1,1-.165-.165A.163.163,0,0,1,204.26,67.208Z" transform="translate(-200.198 -66.793)" fill="#bb5a38"/>
            <path id="Trazado_109292" data-name="Trazado 109292" d="M203.932,68.115a.286.286,0,1,1,.285.286A.285.285,0,0,1,203.932,68.115Z" transform="translate(-200.198 -66.574)" fill="#bb5a38"/>
          </g>
          <g id="Grupo_62052" data-name="Grupo 62052" transform="translate(25.234 18.65)">
            <path id="Trazado_109293" data-name="Trazado 109293" d="M209.055,67.14a.25.25,0,1,1-.25-.25A.251.251,0,0,1,209.055,67.14Z" transform="translate(-207.397 -66.89)" fill="#bb5a38"/>
            <path id="Trazado_109294" data-name="Trazado 109294" d="M209.857,67.646a.108.108,0,1,1-.107-.109A.108.108,0,0,1,209.857,67.646Z" transform="translate(-207.095 -66.71)" fill="#bb5a38"/>
            <path id="Trazado_109295" data-name="Trazado 109295" d="M208.845,68.2a.22.22,0,1,1-.22-.22A.22.22,0,0,1,208.845,68.2Z" transform="translate(-207.438 -66.589)" fill="#bb5a38"/>
            <path id="Trazado_109296" data-name="Trazado 109296" d="M207.892,67.371a.122.122,0,1,1-.123-.123A.122.122,0,0,1,207.892,67.371Z" transform="translate(-207.648 -66.791)" fill="#bb5a38"/>
            <path id="Trazado_109297" data-name="Trazado 109297" d="M209.844,68.665a.184.184,0,1,1-.184-.184A.183.183,0,0,1,209.844,68.665Z" transform="translate(-207.141 -66.448)" fill="#bb5a38"/>
            <path id="Trazado_109298" data-name="Trazado 109298" d="M210.9,67.251a.164.164,0,1,1-.165-.165A.164.164,0,0,1,210.9,67.251Z" transform="translate(-206.837 -66.836)" fill="#bb5a38"/>
          </g>
          <path id="Trazado_109299" data-name="Trazado 109299" d="M209.771,67.208a.219.219,0,1,1-.22-.22A.219.219,0,0,1,209.771,67.208Z" transform="translate(-181.946 -48.213)" fill="#bb5a38"/>
          <path id="Trazado_109300" data-name="Trazado 109300" d="M199.065,63.414l1.38,2.812s.751-7.041,3.623-7.567C204.068,58.659,199.017,58.686,199.065,63.414Z" transform="translate(-184.796 -50.525)" fill="#ffc94a"/>
          <path id="Trazado_109301" data-name="Trazado 109301" d="M212.86,63.289l-.691,3.386s-1.129-7.671-4-8.2C208.167,58.478,212.908,58.561,212.86,63.289Z" transform="translate(-182.27 -50.575)" fill="#ffc94a"/>
          <path id="Trazado_109302" data-name="Trazado 109302" d="M206.707,65.449l.569,2.036s.841,1.29-1.256,1.29Z" transform="translate(-182.866 -48.64)" fill="#ed744d"/>
          <path id="Trazado_109303" data-name="Trazado 109303" d="M211.084,64.093A3.46,3.46,0,0,0,209.3,63.6a2.557,2.557,0,0,0-2.569,3.419c.54,1.514,1.054,1.979-.05,2.114" transform="translate(-182.709 -49.153)" fill="none" stroke="#bb5a38" stroke-miterlimit="10" stroke-width="0.707"/>
          <path id="Trazado_109304" data-name="Trazado 109304" d="M211.383,58.6s.212,3.6-2.265,4.477-7.438.189-8.231,4.266a24.474,24.474,0,0,1,0-6.342C201.4,58.7,207.42,57.18,211.383,58.6Z" transform="translate(-184.354 -50.694)" fill="#ffc94a"/>
        </g>
        <g id="Grupo_62054" data-name="Grupo 62054" transform="translate(20.092 138.531)">
          <path id="Trazado_109305" data-name="Trazado 109305" d="M203.161,164.4s-1.831,10.25-1.831,13.636,1.464,5.124.915,5.948-1.372.732-1.555,2.563-2.013,3.294-4.942,3.294-2.563-2.746-2.471-3.2,2.928-3.66,3.751-6.406-.548-16.747-.548-16.747S202.52,156.708,203.161,164.4Z" transform="translate(-193.213 -160.725)" fill="#ed744d"/>
        </g>
        <path id="Trazado_109306" data-name="Trazado 109306" d="M209.743,102.766H199.249s-6.6,5.537-6.6,21.376c0,7.312,2.387,23.955,3.607,33.508-.9,9.619,1.091,31.436,1.091,31.436l4.67.075c1.669-10.354,2.922-20.26,3.023-28.928L209.74,131.9l0,.014Z" transform="translate(-173.279 -38.282)" fill="#ed744d"/>
        <g id="Grupo_62055" data-name="Grupo 62055" transform="translate(41.501 138.531)">
          <path id="Trazado_109307" data-name="Trazado 109307" d="M209.971,164.4s1.83,10.25,1.83,13.636-1.464,5.124-.915,5.948,1.372.732,1.556,2.563,2.013,3.294,4.942,3.294,2.562-2.746,2.471-3.2-2.928-3.66-3.752-6.406.549-16.747.549-16.747S210.611,156.708,209.971,164.4Z" transform="translate(-209.971 -160.725)" fill="#ed744d"/>
        </g>
        <path id="Trazado_109308" data-name="Trazado 109308" d="M204.942,102.9l10.635-.62a45.6,45.6,0,0,1,6.87,27.04c-.524,7.294-1.138,19.2-2.36,28.757.9,9.619-2.744,31.144-2.744,31.144l-4.67.075c-1.667-10.354-1.588-20.954-1.689-29.622l-6.039-27.638,0,.014Z" transform="translate(-169.866 -38.416)" fill="#ed744d"/>
        <path id="Trazado_109309" data-name="Trazado 109309" d="M208.994,125.534l.307-22.768H198.807s-2.628,2.208-4.569,7.812C203.925,116.173,208.924,125.6,208.994,125.534Z" transform="translate(-172.837 -38.282)" fill="#7986cb"/>
        <path id="Trazado_109310" data-name="Trazado 109310" d="M219.761,110.838a40.475,40.475,0,0,0-4.184-8.557l-10.635.62v17.208c.395.314.691,5.241,1.081,5.56C208.6,120.13,215.248,114.306,219.761,110.838Z" transform="translate(-169.866 -38.416)" fill="#7986cb"/>
        <path id="Trazado_109311" data-name="Trazado 109311" d="M226.972,109.844c-.7-4.819-1.631-30.569-8.882-33.018,0,0-5.331,12.15-2.721,20.646a59.508,59.508,0,0,0,6.35,14.125C226.526,110.72,226.972,109.844,226.972,109.844Z" transform="translate(-167.171 -45.482)" fill="#ed744d"/>
        <path id="Trazado_109312" data-name="Trazado 109312" d="M224.363,77.575s-10.682-3.6-15.892-3.443c-6.319.2-16.417,4.344-16.417,4.344A56.1,56.1,0,0,0,193.535,91.1s5.13,18.719,6.071,20.745c4.067,8.759,14.286,9.379,18.771.773C219.93,109.639,224.363,77.575,224.363,77.575Z" transform="translate(-173.443 -46.231)" fill="#ed744d"/>
        <path id="Trazado_109313" data-name="Trazado 109313" d="M220.947,76.31c-.687-.2-2.167-.626-2.964-.839-.414,5.131-1.06,11.262-4.7,14.628-2.514,2.326-6.991,2.151-8.956-.466-2.969-3.957-4.074-7.8-6-13.941-.726.221-1.425.445-2.079.663.388,2.611,1.711,17.425-2.121,18.745.464,1.709,1.289,4.732,1.829,6.65a1.824,1.824,0,0,1,.179.091c4.084,2.61,9.077,1.964,13.675,1.646a45.834,45.834,0,0,0,10.444-1.511c.475-2.65.936-5.56,1.362-8.426C218.821,88.768,220.291,81.333,220.947,76.31Z" transform="translate(-172.868 -45.858)" fill="#7986cb"/>
        <path id="Trazado_109314" data-name="Trazado 109314" d="M206.262,78.477s-.844-1.776-1.514-1.531-3.715.82-3.715.82,3.12.022,3.668.419S206.483,78.834,206.262,78.477Z" transform="translate(-170.951 -45.455)" fill="#bb5a38"/>
        <path id="Trazado_109315" data-name="Trazado 109315" d="M206.414,78.376s.6-1.681,1.3-1.546a30.1,30.1,0,0,0,3.156.132s-2.479.4-2.958.882S206.253,78.764,206.414,78.376Z" transform="translate(-169.461 -45.483)" fill="#bb5a38"/>
        <path id="Trazado_109316" data-name="Trazado 109316" d="M194.538,77.531s3.607,3.485,2.4,15.267c0,0-3.769,16.129-7.637,20.933-1.906,2.367-3.323,2.82-5.233,1.837C181.017,114,185.394,81.463,194.538,77.531Z" transform="translate(-175.927 -45.286)" fill="#ed744d"/>
        <g id="Grupo_62056" data-name="Grupo 62056" transform="translate(21.536 49.722)">
          <path id="Trazado_109317" data-name="Trazado 109317" d="M201.56,96.793c-5.823,0-7.179-4.708-7.194-4.763a.648.648,0,0,1,1.251-.342c.063.224,1.552,5.161,8.777,3.448a.648.648,0,0,1,.3,1.261A13.638,13.638,0,0,1,201.56,96.793Z" transform="translate(-194.343 -91.211)" fill="#6473b2"/>
        </g>
        <g id="Grupo_62057" data-name="Grupo 62057" transform="translate(37.904 49.723)">
          <path id="Trazado_109318" data-name="Trazado 109318" d="M210.787,96.792a13.638,13.638,0,0,1-3.134-.4.648.648,0,0,1,.3-1.261c7.277,1.722,8.719-3.234,8.777-3.446a.648.648,0,0,1,1.251.34C217.966,92.085,216.61,96.792,210.787,96.792Z" transform="translate(-207.155 -91.212)" fill="#6473b2"/>
        </g>
        <path id="Trazado_109319" data-name="Trazado 109319" d="M210.2,94.639" transform="translate(-168.405 -40.537)" fill="none" stroke="#dfc5b6" stroke-linecap="round" stroke-miterlimit="10" stroke-width="1.078"/>
        <g id="Grupo_62058" data-name="Grupo 62058" transform="translate(0 85.627)">
          <path id="Trazado_109320" data-name="Trazado 109320" d="M178.444,126.127l.477-.847,3.158-5.965,3.55,1.536-.27,2.751s.33,5.23.158,5.42l-1.143,1.879a.378.378,0,0,1-.654-.207,1.354,1.354,0,0,1,.152-1.147l.241-.406L184,127.845l-.993,2.977-.641,1.27a1.626,1.626,0,0,1-.773.714.587.587,0,0,1-.285,0,.3.3,0,0,1-.152-.216,1.68,1.68,0,0,1,.178-1.057l.574-1.132.686-1.993c.1-.537-.144-.217-.19-.095l-.885,2.3-.912,1.688a1.63,1.63,0,0,1-.772.714l-.022.01a.3.3,0,0,1-.415-.227l0-.024a1.634,1.634,0,0,1,.181-1.031l.844-1.55.832-2.8c.077-.514-.179-.3-.25-.082l-.579,1.8-.816,1.735a1.634,1.634,0,0,1-.732.756l-.022.012a.3.3,0,0,1-.427-.2l-.005-.024a1.63,1.63,0,0,1,.124-1.04l.758-1.594.616-2.268a.078.078,0,0,0-.133-.073l-.178.2-.82,1.722-.234,1.354a.823.823,0,0,1-.792.654.251.251,0,0,1-.266-.313l.213-1.855Z" transform="translate(-177.487 -119.315)" fill="#ed744d"/>
        </g>
        <path id="Trazado_109321" data-name="Trazado 109321" d="M184.051,128.429s6.332-17.756,6.939-21.274c1.23-7.126-2.863-8.086-6.083-3.205-2.19,3.318-4.4,21.1-4.4,21.1-.225.887-.418,2.619-.418,2.619S181.088,128.763,184.051,128.429Z" transform="translate(-176.764 -38.796)" fill="#ed744d"/>
        <g id="Grupo_62059" data-name="Grupo 62059" transform="translate(57.516 85.051)">
          <path id="Trazado_109322" data-name="Trazado 109322" d="M229.806,125.942l-.408-.882-2.678-6.2-3.662,1.252.052,2.762s-.741,5.19-.584,5.391l.991,1.962a.378.378,0,0,0,.669-.155,1.36,1.36,0,0,0-.063-1.155l-.208-.424.215-1.281.756,3.047.539,1.316a1.624,1.624,0,0,0,.713.773.591.591,0,0,0,.285.022.3.3,0,0,0,.169-.2,1.689,1.689,0,0,0-.093-1.067l-.484-1.174-.526-2.04c-.056-.544.161-.206.2-.079l.7,2.365.777,1.753a1.624,1.624,0,0,0,.713.773l.022.011a.294.294,0,0,0,.263.01.3.3,0,0,0,.169-.2l.005-.024a1.634,1.634,0,0,0-.1-1.042l-.719-1.611-.609-2.858c-.036-.519.2-.29.257-.063l.436,1.842.677,1.794a1.63,1.63,0,0,0,.669.811l.02.013a.3.3,0,0,0,.441-.169l.008-.024a1.64,1.64,0,0,0-.041-1.046l-.63-1.648-.436-2.31a.078.078,0,0,1,.138-.063l.161.21.683,1.781.125,1.37a.824.824,0,0,0,.738.714.252.252,0,0,0,.29-.291l-.068-1.867Z" transform="translate(-222.506 -118.864)" fill="#ed744d"/>
        </g>
        <path id="Trazado_109323" data-name="Trazado 109323" d="M224.569,127.877s-4.724-18.3-5.053-21.853c-.664-7.2,3.3-7.736,6.126-2.618,1.921,3.481,2.726,21.378,2.726,21.378.155.9.211,2.645.211,2.645S227.5,128.443,224.569,127.877Z" transform="translate(-165.841 -39.044)" fill="#ed744d"/>
      </g>
      <path id="Trazado_109324" data-name="Trazado 109324" d="M208.312,24.868h-8.157a1.111,1.111,0,0,0-1.074,1.393l3.938,15a1.11,1.11,0,0,0,2.142.018l4.22-15A1.11,1.11,0,0,0,208.312,24.868Z" transform="translate(9.821 -23.365)" fill="#f17781"/>
      <ellipse id="Elipse_4161" data-name="Elipse 4161" cx="29.198" cy="78.566" rx="29.198" ry="78.566" transform="translate(0 36.907)" fill="#f3f9ff"/>
      <g id="Grupo_62072" data-name="Grupo 62072" transform="translate(4.284 36.995)">
        <g id="Grupo_62064" data-name="Grupo 62064" transform="translate(38.328 57)">
          <g id="Grupo_62063" data-name="Grupo 62063" transform="translate(0 19.975)">
            <path id="Trazado_109325" data-name="Trazado 109325" d="M72.174,130.86l-2,.8h0a1.859,1.859,0,0,1,1.164-2.142l1.771-.662.6-.592.221,2.1Z" transform="translate(-68.574 -108.633)" fill="#962e09"/>
            <g id="Grupo_62061" data-name="Grupo 62061" transform="translate(0 14.497)">
              <path id="Trazado_109326" data-name="Trazado 109326" d="M75.772,127.43l-3.662,1.361-3.2-1.013s.528-1.15,1.271-.944a13.747,13.747,0,0,0,2.314.249l2.482-1.447Z" transform="translate(-68.913 -123.862)" fill="#792304"/>
              <path id="Trazado_109327" data-name="Trazado 109327" d="M75.3,125.4l-3.145,1.166-2.542-1.161s.552-.9,1.146-.653a11.37,11.37,0,0,0,1.89.441l2.2-.948Z" transform="translate(-68.72 -124.247)" fill="#ff7e46"/>
              <path id="Trazado_109328" data-name="Trazado 109328" d="M75.8,126.182l-3.773,1.4-3.052-1.394s.662-1.077,1.376-.783a13.648,13.648,0,0,0,2.266.528l2.639-1.136Z" transform="translate(-68.897 -124.095)" fill="#792304"/>
            </g>
            <g id="Grupo_62062" data-name="Grupo 62062" transform="translate(1.972)">
              <path id="Trazado_109329" data-name="Trazado 109329" d="M70.946,126.311a15.527,15.527,0,0,1,.088,3.278c-.437,1.547-.968,3.711-.153,3.971,1.114.354,1.881-3.407,1.939-3.559a.834.834,0,0,1,1.045-.488h0a.489.489,0,0,1,.331.477l-.24,1.688-.337.859.221,2.1a8.5,8.5,0,0,0,1.795-1.661c.571-1.421,1.81-3.354,1.522-4.537-.133-.542-1.845-5.33-1.845-5.33l.184-7.869a2.283,2.283,0,0,0-3.029-2.211h0l-.7,7.589a4.762,4.762,0,0,1-.229,2.4A9.852,9.852,0,0,0,70.946,126.311Z" transform="translate(-70.456 -112.899)" fill="#962e09"/>
              <path id="Trazado_109330" data-name="Trazado 109330" d="M72.308,126.716a.834.834,0,0,1,1.045-.488.489.489,0,0,1,.331.477l-.24,1.688s1.531-4.056-.049-3.627C72.777,124.934,72.249,126.868,72.308,126.716Z" transform="translate(-69.944 -109.615)" fill="#792304"/>
            </g>
          </g>
          <path id="Trazado_109331" data-name="Trazado 109331" d="M71.536,126.339l-.165-25.125,6.392-3.95s2.821,7.568,1.706,12.58c-1.326,5.971-4.41,17.6-4.41,17.6Z" transform="translate(-68.231 -97.264)" fill="#962e09"/>
        </g>
        <g id="Grupo_62065" data-name="Grupo 62065" transform="translate(7.984 139.972)">
          <path id="Trazado_109332" data-name="Trazado 109332" d="M55.109,165.88s-1.831,10.25-1.831,13.636,1.465,5.124.916,5.948-1.373.732-1.556,2.563-2.013,3.294-4.942,3.294-2.563-2.746-2.471-3.2,2.928-3.66,3.752-6.406-.549-16.747-.549-16.747S54.469,158.192,55.109,165.88Z" transform="translate(-45.161 -162.209)" fill="#962e09"/>
        </g>
        <path id="Trazado_109333" data-name="Trazado 109333" d="M62.618,104.25H52.806S40.051,106.9,41.349,130.571c.4,7.3,4.9,19.3,6.123,28.857-.9,9.619,2.744,31.144,2.744,31.144l4.67.075c1.669-10.354,2.922-20.26,3.023-28.928l4.707-28.332,0,.014Z" transform="translate(-38.262 -38.324)" fill="#962e09"/>
        <g id="Grupo_62066" data-name="Grupo 62066" transform="translate(29.393 139.972)">
          <path id="Trazado_109334" data-name="Trazado 109334" d="M61.919,165.88s1.831,10.25,1.831,13.636-1.465,5.124-.916,5.948,1.373.732,1.556,2.563,2.013,3.294,4.942,3.294,2.563-2.746,2.471-3.2-2.928-3.66-3.752-6.406.549-16.747.549-16.747S62.559,158.192,61.919,165.88Z" transform="translate(-61.919 -162.209)" fill="#962e09"/>
        </g>
        <path id="Trazado_109335" data-name="Trazado 109335" d="M56.89,104.25H66.7s12.749,1.976,11.146,27.127c-.465,7.3-4.592,18.5-5.812,28.051.9,9.619-2.746,31.144-2.746,31.144l-4.668.075c-1.669-10.354-2.922-20.26-3.023-28.928l-4.707-28.332,0,.014Z" transform="translate(-33.922 -38.324)" fill="#962e09"/>
        <path id="Trazado_109336" data-name="Trazado 109336" d="M76.719,109.213c-3.152-4.395-6.811-4.963-6.811-4.963H51.674a12.4,12.4,0,0,0-6.337,4.431A110.4,110.4,0,0,0,76.719,109.213Z" transform="translate(-37.129 -38.324)" fill="#832307"/>
        <path id="Trazado_109337" data-name="Trazado 109337" d="M73.214,105.342A18.058,18.058,0,0,1,63.177,108c-4.672-.135-9.8-.414-13.919-2.838a15.145,15.145,0,0,0-4.7,4.607c7.507,3.7,12.941,9.817,17.137,16.856,1.652-6.149,12.469-15.248,16.421-15.756A14.817,14.817,0,0,0,73.214,105.342Z" transform="translate(-37.344 -38.072)" fill="#ffd54f"/>
        <ellipse id="Elipse_4162" data-name="Elipse 4162" cx="2.384" cy="2.384" rx="2.384" ry="2.384" transform="translate(16.123 19.324)" fill="#431202"/>
        <path id="Trazado_109338" data-name="Trazado 109338" d="M54.075,68.588A2.385,2.385,0,1,1,51.69,66.2,2.384,2.384,0,0,1,54.075,68.588Z" transform="translate(-36.027 -48.885)" fill="#431202"/>
        <ellipse id="Elipse_4163" data-name="Elipse 4163" cx="2.857" cy="2.857" rx="2.857" ry="2.857" transform="translate(28.545 6.419)" fill="#431202"/>
        <path id="Trazado_109339" data-name="Trazado 109339" d="M67.912,63.6a2.51,2.51,0,1,1-2.51-2.51A2.511,2.511,0,0,1,67.912,63.6Z" transform="translate(-32.256 -50.304)" fill="#431202"/>
        <path id="Trazado_109340" data-name="Trazado 109340" d="M66.842,66.22a2.51,2.51,0,1,1-2.509-2.509A2.509,2.509,0,0,1,66.842,66.22Z" transform="translate(-32.553 -49.577)" fill="#431202"/>
        <path id="Trazado_109341" data-name="Trazado 109341" d="M49.2,66.016c.428,5.43,4.838,9.512,9.849,9.116S67.88,70,67.345,64.583c-.581-5.878-4.305-8.41-9.271-7.639C52.622,57.791,48.77,60.587,49.2,66.016Z" transform="translate(-36.066 -51.493)" fill="#431202"/>
        <path id="Trazado_109342" data-name="Trazado 109342" d="M81.015,108.786C80.895,103.6,71.54,80.1,67.834,78.763c0,0-4.962,11.916-1.693,20.179s7.7,11.623,7.7,11.623C78.561,109.314,81.015,108.786,81.015,108.786Z" transform="translate(-31.664 -45.399)" fill="#962e09"/>
        <path id="Trazado_109343" data-name="Trazado 109343" d="M72.032,110.843a61.175,61.175,0,0,0,2.783-8.562s4.125-2.127,2.945-5.877a30.639,30.639,0,0,0-1.66-3.975,24.583,24.583,0,0,1-2.476-12.062c.026-.466.046-.73.046-.73s-8.041-4.183-13.25-4.022C54.1,75.811,44,79.96,44,79.96a56.1,56.1,0,0,0,1.481,12.621s4.342,12.56,6.565,18.262Z" transform="translate(-37.5 -46.274)" fill="#962e09"/>
        <path id="Trazado_109344" data-name="Trazado 109344" d="M77.759,95.861a30.639,30.639,0,0,0-1.66-3.975,24.583,24.583,0,0,1-2.476-12.062c.026-.466.046-.729.046-.729s-1.358-.707-3.319-1.528c-.82,4.769-3.338,9.929-8.307,10.262-8.156.546-13.9-9.945-13.9-9.945C45.7,78.721,44,79.417,44,79.417a56.1,56.1,0,0,0,1.481,12.621s3.282,9.491,5.6,15.719a210.887,210.887,0,0,0,22-.164c1.039-2.977,1.732-5.856,1.732-5.856S78.94,99.61,77.759,95.861Z" transform="translate(-37.5 -45.731)" fill="#ffd54f"/>
        <path id="Trazado_109345" data-name="Trazado 109345" d="M58.211,79.916s-.856-1.566-1.524-1.322a35.04,35.04,0,0,1-3.706.612s3.121.022,3.669.419S58.431,80.274,58.211,79.916Z" transform="translate(-35.007 -45.453)" fill="#792304"/>
        <path id="Trazado_109346" data-name="Trazado 109346" d="M58.362,79.86s.6-1.681,1.3-1.546a30.1,30.1,0,0,0,3.156.132s-2.479.4-2.956.882S58.2,80.248,58.362,79.86Z" transform="translate(-33.518 -45.526)" fill="#792304"/>
        <g id="Grupo_62068" data-name="Grupo 62068" transform="translate(19.187 21.708)">
          <g id="Grupo_62067" data-name="Grupo 62067">
            <path id="Trazado_109347" data-name="Trazado 109347" d="M53.93,69.7l.3,10.921,7.158-.565-.749-10.42Z" transform="translate(-53.93 -69.639)" fill="#962e09"/>
          </g>
        </g>
        <path id="Trazado_109348" data-name="Trazado 109348" d="M60.527,69.639l-6.209.06a18.722,18.722,0,0,0,.319,2.456c2.035,4.518,4.2,5.441,6.475,5.628Z" transform="translate(-34.636 -47.932)" fill="#792304"/>
        <path id="Trazado_109349" data-name="Trazado 109349" d="M61.993,78.56h0c-3.483.107-9.147-4.012-9.254-7.494,0,0-.751-5.31.18-6.987,1.617-2.91,8.578-3.4,11.367-2.992,4.27.621,3.732,8.51,3.732,8.51C68.53,76.081,63.516,78.513,61.993,78.56Z" transform="translate(-35.154 -50.34)" fill="#962e09"/>
        <path id="Trazado_109350" data-name="Trazado 109350" d="M50.784,68.431a3.094,3.094,0,0,0,3.346,2.623l-.187-5.421C52.147,65.682,50.57,65.752,50.784,68.431Z" transform="translate(-35.623 -49.044)" fill="#962e09"/>
        <path id="Trazado_109351" data-name="Trazado 109351" d="M52.315,67.089a.2.2,0,0,0-.371-.11,1.19,1.19,0,0,0-.095,1.165c.3.677.88,1.329,1.132,1.036s-.022-.216-.46-1.09A2.126,2.126,0,0,1,52.315,67.089Z" transform="translate(-35.352 -48.696)" fill="#792304"/>
        <path id="Trazado_109352" data-name="Trazado 109352" d="M53.565,60.7c2.544-1.02,12.12-1.469,12.12-1.469A14.084,14.084,0,0,1,60.2,64.977a17.093,17.093,0,0,1-3.752,1.55,3.6,3.6,0,0,0-2.559,2.908h0l-.079-.339A2,2,0,0,0,51.6,67.573h0a15.468,15.468,0,0,1,.213-4.2A3.482,3.482,0,0,1,53.565,60.7Z" transform="translate(-35.406 -50.822)" fill="#431202"/>
        <path id="Trazado_109353" data-name="Trazado 109353" d="M63.651,67.743c.035.436-.194.809-.51.833s-.6-.307-.634-.742" transform="translate(-32.363 -48.458)" fill="none" stroke="#28121e" stroke-miterlimit="10" stroke-width="0.595"/>
        <path id="Trazado_109354" data-name="Trazado 109354" d="M59.254,67.913c.034.436-.193.809-.508.833s-.6-.307-.635-.742" transform="translate(-33.583 -48.411)" fill="none" stroke="#28121e" stroke-miterlimit="10" stroke-width="0.595"/>
        <path id="Trazado_109355" data-name="Trazado 109355" d="M56.786,66.7a4.153,4.153,0,0,1,3.861-.305" transform="translate(-33.951 -48.933)" fill="none" stroke="#792304" stroke-miterlimit="10" stroke-width="0.679"/>
        <path id="Trazado_109356" data-name="Trazado 109356" d="M65.286,66.039a3.507,3.507,0,0,0-1.84-.354,2.657,2.657,0,0,0-2.457,3.288,2.712,2.712,0,0,0,.134.372c.667,1.485,1.223,1.915.119,2.14" transform="translate(-32.81 -49.032)" fill="none" stroke="#792304" stroke-miterlimit="10" stroke-width="0.679"/>
        <path id="Trazado_109357" data-name="Trazado 109357" d="M45.5,78.876s4.767,10.545,3.562,22.327c-.644,6.3-1.8,15.293-6.159,10.465C37.968,106.21,36.352,82.808,45.5,78.876Z" transform="translate(-38.912 -45.368)" fill="#962e09"/>
        <g id="Grupo_62069" data-name="Grupo 62069" transform="translate(12.451 51.367)">
          <path id="Trazado_109358" data-name="Trazado 109358" d="M55.875,98.436c-5.823,0-7.179-4.707-7.194-4.762a.648.648,0,0,1,1.251-.342c.063.222,1.552,5.161,8.778,3.447a.649.649,0,0,1,.3,1.262A13.624,13.624,0,0,1,55.875,98.436Z" transform="translate(-48.658 -92.855)" fill="#e8bc42"/>
        </g>
        <g id="Grupo_62070" data-name="Grupo 62070" transform="translate(29.043 54.896)">
          <path id="Trazado_109359" data-name="Trazado 109359" d="M66.535,98.138a8.569,8.569,0,0,1-4.616-1.344.648.648,0,0,1,.746-1.06,7.3,7.3,0,0,0,6.981.4.648.648,0,1,1,.542,1.178A8.655,8.655,0,0,1,66.535,98.138Z" transform="translate(-61.646 -95.617)" fill="#e8bc42"/>
        </g>
        <path id="Trazado_109360" data-name="Trazado 109360" d="M58.73,57.535a1.989,1.989,0,1,1-1.989-1.988A1.988,1.988,0,0,1,58.73,57.535Z" transform="translate(-34.515 -51.843)" fill="#431202"/>
        <path id="Trazado_109361" data-name="Trazado 109361" d="M56.882,58.194a2.4,2.4,0,1,1-2.4-2.4A2.4,2.4,0,0,1,56.882,58.194Z" transform="translate(-35.257 -51.775)" fill="#431202"/>
        <ellipse id="Elipse_4164" data-name="Elipse 4164" cx="3.208" cy="3.208" rx="3.208" ry="3.208" transform="translate(11.431 2.142)" fill="#431202"/>
        <ellipse id="Elipse_4165" data-name="Elipse 4165" cx="3.341" cy="3.341" rx="3.341" ry="3.341" transform="translate(9.254 6.221)" fill="#431202"/>
        <path id="Trazado_109362" data-name="Trazado 109362" d="M52.5,63.955a3.368,3.368,0,1,1-3.368-3.369A3.367,3.367,0,0,1,52.5,63.955Z" transform="translate(-37.012 -50.445)" fill="#431202"/>
        <path id="Trazado_109363" data-name="Trazado 109363" d="M53.006,66.347a2.853,2.853,0,1,1-2.853-2.854A2.853,2.853,0,0,1,53.006,66.347Z" transform="translate(-36.584 -49.638)" fill="#431202"/>
        <path id="Trazado_109364" data-name="Trazado 109364" d="M57.111,55.862a2.927,2.927,0,1,1-2.927-2.927A2.927,2.927,0,0,1,57.111,55.862Z" transform="translate(-35.486 -52.568)" fill="#431202"/>
        <ellipse id="Elipse_4166" data-name="Elipse 4166" cx="3.466" cy="3.466" rx="3.466" ry="3.466" transform="translate(19.502)" fill="#431202"/>
        <ellipse id="Elipse_4167" data-name="Elipse 4167" cx="3.986" cy="3.986" rx="3.986" ry="3.986" transform="translate(23.639 1.876)" fill="#431202"/>
        <path id="Trazado_109365" data-name="Trazado 109365" d="M63.34,61.228a1.622,1.622,0,1,1-1.623-1.621A1.622,1.622,0,0,1,63.34,61.228Z" transform="translate(-33.032 -50.716)" fill="#431202"/>
        <path id="Trazado_109366" data-name="Trazado 109366" d="M61.869,62.627a2.218,2.218,0,1,1-2.218-2.218A2.217,2.217,0,0,1,61.869,62.627Z" transform="translate(-33.772 -50.494)" fill="#431202"/>
        <path id="Trazado_109367" data-name="Trazado 109367" d="M59.547,63.443a2.218,2.218,0,1,1-2.218-2.218A2.218,2.218,0,0,1,59.547,63.443Z" transform="translate(-34.416 -50.267)" fill="#431202"/>
        <path id="Trazado_109368" data-name="Trazado 109368" d="M58.713,71.482a1.768,1.768,0,1,0,3.535,0Z" transform="translate(-33.416 -47.42)" fill="#fff"/>
        <g id="Grupo_62071" data-name="Grupo 62071" transform="translate(27.624 60.095)">
          <path id="Trazado_109369" data-name="Trazado 109369" d="M67.992,107.238l-.933-.273-6.525-1.73.7-3.806,2.739-.358s5.022-1.5,5.244-1.377l2.089.69a.379.379,0,0,1-.054.685,1.358,1.358,0,0,1-1.152.11l-.45-.144-1.235.4,3.125.3,1.381.339a1.624,1.624,0,0,1,.87.592.588.588,0,0,1,.064.279.293.293,0,0,1-.176.2,1.677,1.677,0,0,1-1.068.066l-1.233-.3-2.1-.218c-.546.026-.179.189-.049.207l2.443.342,1.849.507a1.635,1.635,0,0,1,.87.592l.015.019a.3.3,0,0,1-.128.456l-.023.009a1.637,1.637,0,0,1-1.045.056l-1.7-.474-2.917-.178c-.519.041-.257.243-.024.262l1.886.158,1.874.4a1.629,1.629,0,0,1,.9.542l.017.019a.3.3,0,0,1-.1.461l-.022.01a1.642,1.642,0,0,1-1.041.115l-1.723-.378-2.349-.089a.078.078,0,0,0-.041.146L68.2,106l1.863.411,1.372-.078a.82.82,0,0,1,.815.623.252.252,0,0,1-.244.331l-1.855.21Z" transform="translate(-60.535 -99.686)" fill="#962e09"/>
        </g>
        <path id="Trazado_109370" data-name="Trazado 109370" d="M69.162,101.879s-18.225-3.014-21.788-2.811c-7.221.41-7.9,6.84-2.424,8.875,3.727,1.385,5.985.551,5.985.551l15.73-2.4c.915.019,2.646-.184,2.646-.184S70.155,104.691,69.162,101.879Z" transform="translate(-38.242 -39.766)" fill="#962e09"/>
      </g>
      <path id="Trazado_109371" data-name="Trazado 109371" d="M63.147,24.167H55.76a1.092,1.092,0,0,0-.959,1.614l4.008,7.369a1.089,1.089,0,0,1,0,1.044L54.8,41.563a1.091,1.091,0,0,0,.959,1.614h7.387a1.091,1.091,0,0,0,.959-1.614L60.1,34.193a1.089,1.089,0,0,1,0-1.044l4.008-7.369A1.092,1.092,0,0,0,63.147,24.167Z" transform="translate(-30.255 -23.559)" fill="#f17781"/>
      <ellipse id="Elipse_4168" data-name="Elipse 4168" cx="29.198" cy="78.566" rx="29.198" ry="78.566" transform="translate(95.438 36.907)" fill="#f3f9ff"/>
      <path id="Trazado_109372" data-name="Trazado 109372" d="M135.406,42.245h-8.4a1.017,1.017,0,0,1-.984-1.275l4.055-15.445a1.017,1.017,0,0,1,1.962-.018l4.346,15.446A1.017,1.017,0,0,1,135.406,42.245Z" transform="translate(-10.458 -23.393)" fill="#f17781"/>
      <g id="Grupo_62093" data-name="Grupo 62093" transform="translate(89.984 39.84)">
        <g id="Grupo_62076" data-name="Grupo 62076" transform="translate(48.121 57.317)">
          <g id="Grupo_62075" data-name="Grupo 62075" transform="translate(3.374 16.81)">
            <path id="Trazado_109373" data-name="Trazado 109373" d="M149.831,128.462l-1.554,1.053h0a1.62,1.62,0,0,1,.6-2.039l1.387-.89.4-.613.574,1.749Z" transform="translate(-145.791 -109.268)" fill="#ffa181"/>
            <g id="Grupo_62073" data-name="Grupo 62073" transform="translate(0 12.143)">
              <path id="Trazado_109374" data-name="Trazado 109374" d="M152.294,124.978l-2.872,1.831-2.91-.276s.238-1.076.908-1.037a11.934,11.934,0,0,0,2.019-.212l1.85-1.69Z" transform="translate(-146.24 -122.071)" fill="#ff7e46"/>
              <path id="Trazado_109375" data-name="Trazado 109375" d="M151.555,123.3l-2.466,1.57-2.38-.523s.305-.866.856-.767a9.929,9.929,0,0,0,1.692.028l1.7-1.211Z" transform="translate(-146.185 -122.402)" fill="#ff7e46"/>
              <path id="Trazado_109376" data-name="Trazado 109376" d="M152.115,123.918l-2.959,1.884-2.857-.626s.367-1.04,1.028-.921a11.875,11.875,0,0,0,2.029.035l2.04-1.454Z" transform="translate(-146.299 -122.282)" fill="#ff7e46"/>
            </g>
            <g id="Grupo_62074" data-name="Grupo 62074" transform="translate(0.309)">
              <path id="Trazado_109377" data-name="Trazado 109377" d="M147.683,124.787a13.517,13.517,0,0,1,.677,2.779c-.089,1.4-.144,3.34.6,3.411,1.014.1.977-3.249,1-3.389a.727.727,0,0,1,.8-.607h0a.423.423,0,0,1,.369.345l.106,1.482-.13.793.574,1.749A7.411,7.411,0,0,0,152.9,129.6c.226-1.315.928-3.189.464-4.144-.212-.437-2.55-4.2-2.55-4.2l-1.287-6.741a1.992,1.992,0,0,0-2.988-1.329h0l.8,6.6a4.147,4.147,0,0,1,.247,2.089A8.6,8.6,0,0,0,147.683,124.787Z" transform="translate(-146.541 -112.897)" fill="#ffa181"/>
              <path id="Trazado_109378" data-name="Trazado 109378" d="M149.216,124.817a.727.727,0,0,1,.8-.607.423.423,0,0,1,.369.345l.106,1.482s.56-3.738-.707-3.082C149.288,123.213,149.194,124.958,149.216,124.817Z" transform="translate(-145.799 -110.126)" fill="#ff7e46"/>
            </g>
          </g>
          <path id="Trazado_109379" data-name="Trazado 109379" d="M148.411,124.611l-4.753-21.383,3.63-3.489,1.884,1.869a11.047,11.047,0,0,1,2.972,7.489c.258,5.326-.528,15.811-.528,15.811Z" transform="translate(-143.658 -99.739)" fill="#ffa181"/>
        </g>
        <g id="Grupo_62077" data-name="Grupo 62077" transform="translate(17.876 136.527)">
          <path id="Trazado_109380" data-name="Trazado 109380" d="M130.038,165.409s-1.831,10.25-1.831,13.636,1.464,5.126.915,5.948-1.372.732-1.555,2.563-2.013,3.295-4.942,3.295-2.808-2.31-2.472-3.2c.165-.437,2.93-3.662,3.752-6.406s-.548-16.748-.548-16.748S129.4,157.724,130.038,165.409Z" transform="translate(-119.984 -161.739)" fill="#ffa181"/>
        </g>
        <g id="Grupo_62078" data-name="Grupo 62078" transform="translate(41.161 136.502)">
          <path id="Trazado_109381" data-name="Trazado 109381" d="M144.784,165.24s-1.749,12.435-.882,14.651c1.556,3.976,7.234,5.8,7.234,5.8s2.812.447,3.041.884-.07,1.482-2.048,1.778c-1,.149-2.07.259-2.892.333a4.509,4.509,0,0,1-2.4-.466,13.991,13.991,0,0,0-6.558-1.5s-2.053-.248-1.087-3.389-.98-14.828-.98-14.828S143.157,155.731,144.784,165.24Z" transform="translate(-138.21 -161.72)" fill="#ffa181"/>
        </g>
        <path id="Trazado_109382" data-name="Trazado 109382" d="M106.458,100.456s14.624,15.954,17.283,15.068,1.46-4.1-.111-5.983c-.857-1.027-5.306-8.078-8.961-13.507S104.214,97.761,106.458,100.456Z" transform="translate(-105.987 -44.001)" fill="#ff947a"/>
        <path id="Trazado_109383" data-name="Trazado 109383" d="M118.115,110.125l.059-.06a.77.77,0,0,0-.059-1.117h0l.309-.966h0a.779.779,0,0,0,.056-1.016l-.151-.2,2.172-1.741,1.506.312s.52,4.641-1.481,5.634S118.115,110.125,118.115,110.125Z" transform="translate(-102.627 -40.953)" fill="#ffa181"/>
        <path id="Trazado_109384" data-name="Trazado 109384" d="M124.561,66.454c.419,5.3,4.727,9.292,9.623,8.906s8.629-5.011,8.106-10.306c-.569-5.744-4.206-8.217-9.058-7.464C127.906,58.418,124.142,61.148,124.561,66.454Z" transform="translate(-100.847 -54.159)" fill="#ff5953"/>
        <path id="Trazado_109385" data-name="Trazado 109385" d="M145.49,73.713a7.205,7.205,0,0,1-1.348-6.123,12.361,12.361,0,0,0,.327-3.665c-.469-8.142-4.2-9.334-8.451-9a6.678,6.678,0,0,0-4.254,2.067,4.159,4.159,0,0,1-2.079,1.142,7.02,7.02,0,0,0-5.389,7.729,4.877,4.877,0,0,1-1.256,4,10.165,10.165,0,0,0-2.808,6.444,5.086,5.086,0,0,1-2.254,3.874,10.189,10.189,0,1,0,14.672,13.3,6.407,6.407,0,0,1,5.255-3.4c.088-.005.176-.01.264-.018C146.7,89.39,150.058,79.641,145.49,73.713Z" transform="translate(-103.904 -54.875)" fill="#ff5953"/>
        <path id="Trazado_109386" data-name="Trazado 109386" d="M151.1,109.983c-2.462-23.124-7.644-30.946-10.03-32.833a162.118,162.118,0,0,0-.487,20.285c.327,5.138,3.419,13.659,5.754,13.039C150.947,109.252,151.1,109.983,151.1,109.983Z" transform="translate(-96.437 -48.692)" fill="#ffa181"/>
        <path id="Trazado_109387" data-name="Trazado 109387" d="M143.588,122.693s4.906-20.634,4.782-28.53c-.047-3.021-1.514-16.283-1.514-16.283s-6.689-3.516-11.779-3.359c-6.173.19-14.541,3.662-14.541,3.662a23.407,23.407,0,0,0-.843,8.891c.91,6.848,4.047,14.969,4.645,17.136C130.791,127.546,137.177,126.442,143.588,122.693Z" transform="translate(-102.228 -49.423)" fill="#ffa181"/>
        <path id="Trazado_109388" data-name="Trazado 109388" d="M147.5,89.515a20.29,20.29,0,0,1-2.585-12.633c-.65-.3-1.5-.659-2.464-1.022a39.452,39.452,0,0,1-1.016,7.4c-.52,2.057-1.26,4.822-3.586,5.467-2.6.722-5.587-1.455-6.932-3.342-2.114-2.965-4.85-9.648-4.85-9.648-1.326.385-2.54.786-3.529,1.133,1.131,2.088,2.8,8.859,2.351,13.523a10.122,10.122,0,0,1-3.28,6.818c.954,3.084,1.863,5.589,2.157,6.655.106.383.212.759.318,1.129,2.109-.525,17.611-2.723,22.745-1.585a21.776,21.776,0,0,1,.538-2.445,6.69,6.69,0,0,0,1.377-1.773c.678-2.178.017-2.674,0-3.842C148.73,94.527,147.666,91.4,147.5,89.515Z" transform="translate(-101.657 -49.083)" fill="#7b1fa2"/>
        <path id="Trazado_109389" data-name="Trazado 109389" d="M146.417,103.78h-19.09s-10.909-.212-9.683,28.662c.31,7.305,3.128,16.961,4.349,26.516-.9,9.618,2.744,31.144,2.744,31.144l4.67.074c1.669-10.352,2.922-20.26,3.023-28.928l4.705-28.332,5.713,29.363c-.778,6.827.12,16.6,1.873,27.878h4.827L153.63,160.3C157.187,128.179,153.349,107.459,146.417,103.78Z" transform="translate(-102.785 -41.3)" fill="#ffa181"/>
        <path id="Trazado_109390" data-name="Trazado 109390" d="M137.015,126.283c5.661-6.774,16.333-7.713,16.333-7.713-1.474-8.031-3.963-13.137-7.079-14.791-4.694,2.922-10.822,3.332-19.09,0,0,0-6.873-.132-9.1,14.258C124.348,117.17,135.478,122.664,137.015,126.283Z" transform="translate(-102.636 -41.3)" fill="#7b1fa2"/>
        <path id="Trazado_109391" data-name="Trazado 109391" d="M133.031,78.723s-.836-1.531-1.488-1.292a34.1,34.1,0,0,1-3.621.6s3.048.02,3.584.41S133.246,79.073,133.031,78.723Z" transform="translate(-99.905 -48.621)" fill="#ff7454"/>
        <path id="Trazado_109392" data-name="Trazado 109392" d="M133.179,78.668s.585-1.643,1.267-1.51a29.3,29.3,0,0,0,3.084.129,9.494,9.494,0,0,0-2.89.861C134.173,78.615,133.022,79.047,133.179,78.668Z" transform="translate(-98.45 -48.692)" fill="#ff7454"/>
        <g id="Grupo_62080" data-name="Grupo 62080" transform="translate(29.201 17.64)">
          <g id="Grupo_62079" data-name="Grupo 62079">
            <path id="Trazado_109393" data-name="Trazado 109393" d="M128.849,68.746l.289,10.67,6.993-.552-.732-10.18Z" transform="translate(-128.849 -68.683)" fill="#ffa181"/>
          </g>
        </g>
        <path id="Trazado_109394" data-name="Trazado 109394" d="M136.726,77.4h0c-3.4.1-8.937-3.918-9.041-7.322,0,0-.733-5.187.178-6.826,1.579-2.844,8.38-3.32,11.1-2.924,4.173.608,3.647,8.316,3.647,8.316C143.113,74.976,138.214,77.354,136.726,77.4Z" transform="translate(-100.049 -53.396)" fill="#ff8f68"/>
        <path id="Trazado_109395" data-name="Trazado 109395" d="M135.386,68.683l-6.491.063a2.91,2.91,0,0,0,1.041,2.033c.171,3.271,3.539,5.633,6.006,5.633Z" transform="translate(-99.635 -51.043)" fill="#ff7454"/>
        <path id="Trazado_109396" data-name="Trazado 109396" d="M136.726,77.4h0c-3.4.1-8.937-3.918-9.041-7.322,0,0-.733-5.187.178-6.826,1.579-2.844,8.38-3.32,11.1-2.924,4.173.608,3.647,8.316,3.647,8.316C143.113,74.976,138.214,77.354,136.726,77.4Z" transform="translate(-100.049 -53.396)" fill="#ffa181"/>
        <path id="Trazado_109397" data-name="Trazado 109397" d="M125.775,67.5a3.022,3.022,0,0,0,3.269,2.563l-.181-5.3C127.108,64.816,125.566,64.885,125.775,67.5Z" transform="translate(-100.506 -52.129)" fill="#ffa181"/>
        <path id="Trazado_109398" data-name="Trazado 109398" d="M127.271,66.191a.2.2,0,0,0-.363-.107,1.162,1.162,0,0,0-.092,1.138c.291.662.86,1.3,1.106,1.013s-.022-.212-.45-1.066A2.057,2.057,0,0,1,127.271,66.191Z" transform="translate(-100.242 -51.79)" fill="#ff7454"/>
        <path id="Trazado_109399" data-name="Trazado 109399" d="M128.492,59.946c2.485-1,11.842-1.435,11.842-1.435a13.764,13.764,0,0,1-5.362,5.618,16.665,16.665,0,0,1-3.665,1.514,3.515,3.515,0,0,0-2.5,2.841h0l-.078-.332a1.953,1.953,0,0,0-2.155-1.487h0S126.007,60.941,128.492,59.946Z" transform="translate(-100.295 -53.866)" fill="#ff5953"/>
        <g id="Grupo_62081" data-name="Grupo 62081" transform="translate(33.315 14.633)">
          <path id="Trazado_109400" data-name="Trazado 109400" d="M132.074,67.579a1.334,1.334,0,0,1,.179-.8.9.9,0,0,1,.689-.448.873.873,0,0,1,.632.216,1.284,1.284,0,0,1,.42.879l-.8.064a.5.5,0,0,0-.141-.331l-.112.04a.548.548,0,0,0-.063.316Z" transform="translate(-132.069 -66.329)" fill="#28121e"/>
        </g>
        <g id="Grupo_62082" data-name="Grupo 62082" transform="translate(39.904 14.547)">
          <path id="Trazado_109401" data-name="Trazado 109401" d="M138.348,66.989c.033.424-.189.788-.5.813s-.585-.3-.62-.724.189-.79.5-.814S138.313,66.564,138.348,66.989Z" transform="translate(-137.226 -66.262)" fill="#28121e"/>
        </g>
        <g id="Grupo_62083" data-name="Grupo 62083" transform="translate(32.545 12.737)">
          <path id="Trazado_109402" data-name="Trazado 109402" d="M131.907,66.231l-.441-.664a4.425,4.425,0,0,1,4.171-.322l-.356.713A3.657,3.657,0,0,0,131.907,66.231Z" transform="translate(-131.466 -64.845)" fill="#ff7454"/>
        </g>
        <g id="Grupo_62084" data-name="Grupo 62084" transform="translate(37.499 12.293)">
          <path id="Trazado_109403" data-name="Trazado 109403" d="M136.158,70.963,136,70.182a.836.836,0,0,0,.325-.1c-.028-.032-.185-.339-.325-.609-.118-.231-.257-.5-.4-.823a3.127,3.127,0,0,1-.152-.419,2.841,2.841,0,0,1,.425-2.407,3.109,3.109,0,0,1,2.33-1.311,3.81,3.81,0,0,1,2,.387l-.356.713a3.023,3.023,0,0,0-1.591-.3,2.317,2.317,0,0,0-1.736.974,2.024,2.024,0,0,0-.309,1.735,2.273,2.273,0,0,0,.111.307c.137.305.27.565.383.784.3.584.5.968.313,1.348A1.125,1.125,0,0,1,136.158,70.963Z" transform="translate(-135.344 -64.498)" fill="#ff7454"/>
        </g>
        <g id="Grupo_62085" data-name="Grupo 62085" transform="translate(36.504 20.206)">
          <path id="Trazado_109404" data-name="Trazado 109404" d="M135.734,72a2.355,2.355,0,0,1-1.169-.3l.406-.685a1.522,1.522,0,0,0,1.89-.318l.575.552A2.305,2.305,0,0,1,135.734,72Z" transform="translate(-134.565 -70.691)" fill="#ff7454"/>
        </g>
        <path id="Trazado_109405" data-name="Trazado 109405" d="M131.66,68.763a.248.248,0,1,1-.267-.227A.249.249,0,0,1,131.66,68.763Z" transform="translate(-99.005 -51.084)" fill="#ff7454"/>
        <path id="Trazado_109406" data-name="Trazado 109406" d="M132.492,69.2a.106.106,0,1,1-.115-.1A.107.107,0,0,1,132.492,69.2Z" transform="translate(-98.696 -50.927)" fill="#ff7454"/>
        <path id="Trazado_109407" data-name="Trazado 109407" d="M131.535,69.82a.217.217,0,1,1-.234-.2A.218.218,0,0,1,131.535,69.82Z" transform="translate(-99.023 -50.782)" fill="#ff7454"/>
        <path id="Trazado_109408" data-name="Trazado 109408" d="M130.53,69.078a.12.12,0,0,1-.11.13.121.121,0,1,1,.11-.13Z" transform="translate(-99.248 -50.964)" fill="#ff7454"/>
        <path id="Trazado_109409" data-name="Trazado 109409" d="M132.558,70.206a.182.182,0,1,1-.2-.167A.181.181,0,0,1,132.558,70.206Z" transform="translate(-98.719 -50.667)" fill="#ff7454"/>
        <path id="Trazado_109410" data-name="Trazado 109410" d="M133.491,68.727a.163.163,0,1,1-.176-.149A.164.164,0,0,1,133.491,68.727Z" transform="translate(-98.45 -51.072)" fill="#ff7454"/>
        <path id="Trazado_109411" data-name="Trazado 109411" d="M133.234,69.65a.283.283,0,0,1,.565-.045.283.283,0,1,1-.565.045Z" transform="translate(-98.431 -50.859)" fill="#ff7454"/>
        <path id="Trazado_109412" data-name="Trazado 109412" d="M137.951,68.374a.217.217,0,1,1-.233-.2A.216.216,0,0,1,137.951,68.374Z" transform="translate(-97.241 -51.184)" fill="#ff7454"/>
        <path id="Trazado_109413" data-name="Trazado 109413" d="M138.1,69.559a.3.3,0,1,1,.325.277A.3.3,0,0,1,138.1,69.559Z" transform="translate(-97.08 -50.89)" fill="#ff7454"/>
        <path id="Trazado_109414" data-name="Trazado 109414" d="M138.96,68.563a.176.176,0,1,1-.189-.161A.175.175,0,0,1,138.96,68.563Z" transform="translate(-96.939 -51.121)" fill="#ff7454"/>
        <path id="Trazado_109415" data-name="Trazado 109415" d="M129.226,68.306a27.924,27.924,0,0,1,13.94-1.943s1.274-5.975-2.6-8.429C138.061,56.346,126.982,57.389,129.226,68.306Z" transform="translate(-99.626 -54.19)" fill="#ff5953"/>
        <path id="Trazado_109416" data-name="Trazado 109416" d="M124.261,77.48s-2.707.926-8.594,11.055c-6.811,11.715-10.12,12.649-9.627,15.486s6.411,2.714,10.387-1.105c2.581-2.479,9.811-8.551,10.921-12.662S125.868,77.562,124.261,77.48Z" transform="translate(-105.992 -48.601)" fill="#ffa181"/>
        <g id="Grupo_62091" data-name="Grupo 62091" transform="translate(20.19 39.958)">
          <g id="Grupo_62086" data-name="Grupo 62086" transform="translate(1.042 6.21)">
            <path id="Trazado_109417" data-name="Trazado 109417" d="M125.24,100.393a.479.479,0,0,1-.464-.362l-2.15-8.422a.479.479,0,0,1,.929-.238l2.15,8.423a.479.479,0,0,1-.346.583A.474.474,0,0,1,125.24,100.393Z" transform="translate(-122.611 -91.012)" fill="#621989"/>
          </g>
          <g id="Grupo_62087" data-name="Grupo 62087" transform="translate(24.838)">
            <path id="Trazado_109418" data-name="Trazado 109418" d="M141.717,98.778a.48.48,0,0,1-.267-.879,4.314,4.314,0,0,0,1.482-4.981,52.21,52.21,0,0,1-1.389-6.2.479.479,0,1,1,.944-.166,51.03,51.03,0,0,0,1.359,6.083A5.34,5.34,0,0,1,141.98,98.7.477.477,0,0,1,141.717,98.778Z" transform="translate(-141.238 -86.152)" fill="#621989"/>
          </g>
          <g id="Grupo_62088" data-name="Grupo 62088" transform="translate(5.057 10.087)">
            <path id="Trazado_109419" data-name="Trazado 109419" d="M131.375,96.575a10.457,10.457,0,0,1-5.417-1.658.479.479,0,1,1,.552-.783c.2.135,4.814,3.309,9.146.01a.479.479,0,1,1,.58.763A7.856,7.856,0,0,1,131.375,96.575Z" transform="translate(-125.755 -94.047)" fill="#621989"/>
          </g>
          <g id="Grupo_62089" data-name="Grupo 62089" transform="translate(13.71 27.27)">
            <path id="Trazado_109420" data-name="Trazado 109420" d="M133.007,125.731a.443.443,0,0,1-.115-.014.478.478,0,0,1-.351-.579A68.033,68.033,0,0,0,133.977,108a.479.479,0,0,1,.457-.5.492.492,0,0,1,.5.457,69.005,69.005,0,0,1-1.462,17.411A.48.48,0,0,1,133.007,125.731Z" transform="translate(-132.527 -107.497)" fill="#621989"/>
          </g>
          <g id="Grupo_62090" data-name="Grupo 62090" transform="translate(0 23.917)">
            <path id="Trazado_109421" data-name="Trazado 109421" d="M136.928,109.211c-3.793,0-8.684-.857-14.835-3.416a.479.479,0,1,1,.367-.885c17.59,7.318,24.57.189,24.638.116a.48.48,0,0,1,.7.653C147.6,105.889,144.393,109.211,136.928,109.211Z" transform="translate(-121.796 -104.872)" fill="#621989"/>
          </g>
        </g>
        <g id="Grupo_62092" data-name="Grupo 62092" transform="translate(15.399 63.33)">
          <path id="Trazado_109422" data-name="Trazado 109422" d="M123.2,104.446l-3.67.27a.744.744,0,0,0-.706.732c.014.4.24.9.646.871l3.372-.2,1.812.584a1.416,1.416,0,0,0,1.887-.671h0Z" transform="translate(-117.831 -104.446)" fill="#ffa181"/>
          <path id="Trazado_109423" data-name="Trazado 109423" d="M123.464,106.432l-4.317-1.036c-.4-.142-.786.368-.864.81-.061.348.144,1.046.478,1.163l3.435.443,2.484,1.417a1.852,1.852,0,0,0,2.006-.478Z" transform="translate(-117.982 -104.189)" fill="#ffa181"/>
          <path id="Trazado_109424" data-name="Trazado 109424" d="M122.486,107.6l-3.453-.553c-.419-.035-1.028.638-.984,1.085a.744.744,0,0,0,.706.638l3.23.217,1.7,1.233a1.416,1.416,0,0,0,1.978-.317h0Z" transform="translate(-118.045 -103.725)" fill="#ffa181"/>
          <path id="Trazado_109425" data-name="Trazado 109425" d="M121.148,109.007l-2.311-.276a.71.71,0,0,0-.791.737.737.737,0,0,0,.664.675l2.013.239,1.228.639a1.416,1.416,0,0,0,1.91-.6h0Z" transform="translate(-118.045 -103.258)" fill="#ffa181"/>
        </g>
      </g>
      <ellipse id="Elipse_4169" data-name="Elipse 4169" cx="5.988" cy="10.113" rx="5.988" ry="10.113" transform="translate(386.479 0)" fill="#f17781"/>
      <g id="Grupo_62106" data-name="Grupo 62106" transform="translate(363.269 39.507)">
        <ellipse id="Elipse_4170" data-name="Elipse 4170" cx="29.198" cy="78.566" rx="29.198" ry="78.566" fill="#f3f9ff"/>
        <g id="Grupo_62105" data-name="Grupo 62105" transform="translate(6.12 2.885)">
          <path id="Trazado_109426" data-name="Trazado 109426" d="M354.468,79.028h-19.88v-14.3l19.88-4.139Z" transform="translate(-321.944 -55.841)" fill="#aa4f20"/>
          <path id="Trazado_109427" data-name="Trazado 109427" d="M339.507,103.047c3.932-2.785-4.942-14.157-4.942-14.157" transform="translate(-321.95 -47.985)" fill="#007e75"/>
          <g id="Grupo_62094" data-name="Grupo 62094" transform="translate(8.183 133.704)">
            <path id="Trazado_109428" data-name="Trazado 109428" d="M341.053,165.2s-1.832,10.259-1.832,13.648,1.467,5.129.916,5.954-1.373.733-1.556,2.565-2.016,3.3-4.947,3.3-2.565-2.748-2.473-3.205,2.931-3.664,3.756-6.412-.551-16.763-.551-16.763S340.413,157.507,341.053,165.2Z" transform="translate(-331.096 -161.527)" fill="#ff926d"/>
          </g>
          <g id="Grupo_62095" data-name="Grupo 62095" transform="translate(32.979 133.68)">
            <path id="Trazado_109429" data-name="Trazado 109429" d="M357.086,165.03s-1.757,12.45-.883,14.665,7.241,5.8,7.241,5.8,2.813.447,3.043.884-.072,1.483-2.049,1.78-4.271.442-4.271.442a14.186,14.186,0,0,0-7.594-2.075s-2.054-.249-1.089-3.393-.98-14.842-.98-14.842S355.457,155.514,357.086,165.03Z" transform="translate(-350.505 -161.508)" fill="#ff926d"/>
          </g>
          <path id="Trazado_109430" data-name="Trazado 109430" d="M334.625,66.891c.47,5.947,5.009,10.438,10.138,10.033s9.016-5.563,8.437-11.5c-.627-6.438-4.455-9.229-9.537-8.413C338.085,57.908,334.156,60.945,334.625,66.891Z" transform="translate(-321.944 -56.873)" fill="#aa4f20"/>
          <path id="Trazado_109431" data-name="Trazado 109431" d="M362.924,106.474c-.112-4.846-7.023-26.589-10.486-27.833,0,0-4.638,11.134-1.582,18.856s4.957,11.453,7.19,10.861C362.461,107.189,362.924,106.474,362.924,106.474Z" transform="translate(-317.717 -50.83)" fill="#ffa181"/>
          <path id="Trazado_109432" data-name="Trazado 109432" d="M353.651,121.772s4.691-19.735,4.572-27.287c-.045-2.89-.332-15.027-.332-15.027S350.377,75.55,345.51,75.7c-5.9.181-15.34,4.059-15.34,4.059s4.128,20.933,5.069,24.334C341.41,126.412,347.518,125.357,353.651,121.772Z" transform="translate(-323.17 -51.647)" fill="#ff926d"/>
          <path id="Trazado_109433" data-name="Trazado 109433" d="M357.891,78.943s-1.23-.64-3.018-1.391a33.569,33.569,0,0,1-2.337,7.565c-1.181,2.444-3.739,3.158-6.393,3.145-5.982-.032-11.6-10.624-11.6-10.624-2.55.856-4.378,1.607-4.378,1.607l1.606,36.8c6.171,22.318,15.742,8.792,21.875,5.207,0,0,4.691-19.735,4.572-27.287C358.178,91.08,357.891,78.943,357.891,78.943Z" transform="translate(-323.17 -51.132)" fill="#ba68c8"/>
          <path id="Trazado_109434" data-name="Trazado 109434" d="M343.446,79.719s-.8-1.464-1.423-1.235a32.551,32.551,0,0,1-3.463.571s2.917.02,3.428.392S343.651,80.053,343.446,79.719Z" transform="translate(-320.842 -50.881)" fill="#ff7454"/>
          <path id="Trazado_109435" data-name="Trazado 109435" d="M343.588,79.665s.558-1.571,1.212-1.444a28.1,28.1,0,0,0,2.949.123,9.083,9.083,0,0,0-2.763.824C344.539,79.615,343.437,80.028,343.588,79.665Z" transform="translate(-319.45 -50.949)" fill="#ff7454"/>
          <path id="Trazado_109436" data-name="Trazado 109436" d="M329.55,147.243l6.313,41.7,4.949.079,8.375-62.806,4.636,30.965c.095,12.177,1.933,21.968,3.723,31.826h4.984s4.8-28.76,5.381-38.39c.471-7.8-.1-35.3-4.99-44.455l.293-4.244c-4.041,5.671-16.787,4.244-26.492-1.137l-.086,3.958s-9.629,5.969-8.656,27.29C328.267,138.3,329.33,143.156,329.55,147.243Z" transform="translate(-323.797 -44.685)" fill="#ff926d"/>
          <path id="Trazado_109437" data-name="Trazado 109437" d="M349.876,130.093c3.688-1.731,8.1-2.5,12.095-3.19,1.752-.3,3.512-.549,5.276-.747-.735-8.38-1.418-18.08-2.491-21.167l-31.626-.975s-4.113,4.548-5.127,20.546a55.273,55.273,0,0,1,20.523,5.528l.635-4.769Z" transform="translate(-323.772 -43.787)" fill="#ba68c8"/>
          <g id="Grupo_62097" data-name="Grupo 62097" transform="translate(18.851 16.92)">
            <g id="Grupo_62096" data-name="Grupo 62096">
              <path id="Trazado_109438" data-name="Trazado 109438" d="M339.446,70.176l.276,10.2,6.688-.528-.7-9.736Z" transform="translate(-339.446 -70.116)" fill="#ff926d"/>
            </g>
          </g>
          <path id="Trazado_109439" data-name="Trazado 109439" d="M347.414,78.78h0c-3.566.11-9.363-4.106-9.473-7.672,0,0-.768-5.436.185-7.152,1.656-2.981,8.781-3.48,11.635-3.064,4.372.636,3.821,8.712,3.821,8.712C354.106,76.242,348.972,78.732,347.414,78.78Z" transform="translate(-321.094 -55.792)" fill="#ff8f68"/>
          <path id="Trazado_109440" data-name="Trazado 109440" d="M345.611,70.116l-5.8.056a17.382,17.382,0,0,0,.3,2.293c1.9,4.221,3.925,5.086,6.051,5.26Z" transform="translate(-320.495 -53.197)" fill="#ff7454"/>
          <path id="Trazado_109441" data-name="Trazado 109441" d="M347.414,78.78h0c-3.566.11-9.363-4.106-9.473-7.672,0,0-.768-5.436.185-7.152,1.656-2.981,8.781-3.48,11.635-3.064,4.372.636,3.821,8.712,3.821,8.712C354.106,76.242,348.972,78.732,347.414,78.78Z" transform="translate(-321.094 -55.792)" fill="#ff8f68"/>
          <path id="Trazado_109442" data-name="Trazado 109442" d="M335.939,68.41a3.167,3.167,0,0,0,3.425,2.684l-.189-5.547C337.336,65.6,335.721,65.668,335.939,68.41Z" transform="translate(-321.574 -54.465)" fill="#ff926d"/>
          <path id="Trazado_109443" data-name="Trazado 109443" d="M337.507,67.038a.2.2,0,0,0-.379-.112,1.211,1.211,0,0,0-.1,1.192c.3.694.9,1.361,1.157,1.062s-.022-.222-.47-1.115A2.187,2.187,0,0,1,337.507,67.038Z" transform="translate(-321.297 -54.109)" fill="#ff7454"/>
          <path id="Trazado_109444" data-name="Trazado 109444" d="M338.786,60.494c2.6-1.043,12.408-1.5,12.408-1.5a14.423,14.423,0,0,1-5.618,5.886,17.549,17.549,0,0,1-3.842,1.585,3.683,3.683,0,0,0-2.618,2.977h0l-.082-.347a2.045,2.045,0,0,0-2.259-1.557h0S336.183,61.536,338.786,60.494Z" transform="translate(-321.353 -56.285)" fill="#aa4f20"/>
          <path id="Trazado_109445" data-name="Trazado 109445" d="M349.112,67.872c.036.445-.2.827-.521.852s-.613-.314-.649-.76.2-.827.521-.852S349.078,67.427,349.112,67.872Z" transform="translate(-318.238 -54.031)" fill="#28121e"/>
          <path id="Trazado_109446" data-name="Trazado 109446" d="M344.612,68.046c.034.445-.2.827-.523.852s-.613-.314-.648-.76.2-.827.521-.852S344.576,67.6,344.612,68.046Z" transform="translate(-319.487 -53.982)" fill="#28121e"/>
          <path id="Trazado_109447" data-name="Trazado 109447" d="M342.083,66.64a4.253,4.253,0,0,1,3.953-.312" transform="translate(-319.863 -54.351)" fill="none" stroke="#ff7454" stroke-miterlimit="10" stroke-width="0.695"/>
          <path id="Trazado_109448" data-name="Trazado 109448" d="M350.784,65.962A3.581,3.581,0,0,0,348.9,65.6a2.658,2.658,0,0,0-2.378,3.746c.684,1.52,1.252,1.961.123,2.191" transform="translate(-318.695 -54.453)" fill="none" stroke="#ff7454" stroke-miterlimit="10" stroke-width="0.695"/>
          <path id="Trazado_109449" data-name="Trazado 109449" d="M345.317,72.38a2.036,2.036,0,0,0,2.493-.4" transform="translate(-318.966 -52.68)" fill="none" stroke="#ff7454" stroke-miterlimit="10" stroke-width="0.695"/>
          <path id="Trazado_109450" data-name="Trazado 109450" d="M342.1,69.731a.26.26,0,1,1-.279-.238A.259.259,0,0,1,342.1,69.731Z" transform="translate(-320.001 -53.37)" fill="#ff7454"/>
          <path id="Trazado_109451" data-name="Trazado 109451" d="M342.977,70.185a.111.111,0,1,1-.12-.1A.11.11,0,0,1,342.977,70.185Z" transform="translate(-319.677 -53.206)" fill="#ff7454"/>
          <path id="Trazado_109452" data-name="Trazado 109452" d="M341.975,70.84a.227.227,0,1,1-.245-.21A.228.228,0,0,1,341.975,70.84Z" transform="translate(-320.02 -53.054)" fill="#ff7454"/>
          <path id="Trazado_109453" data-name="Trazado 109453" d="M340.923,70.061a.127.127,0,1,1-.137-.116A.127.127,0,0,1,340.923,70.061Z" transform="translate(-320.256 -53.244)" fill="#ff7454"/>
          <path id="Trazado_109454" data-name="Trazado 109454" d="M343.047,71.242a.191.191,0,1,1-.381.031.191.191,0,0,1,.381-.031Z" transform="translate(-319.702 -52.933)" fill="#ff7454"/>
          <path id="Trazado_109455" data-name="Trazado 109455" d="M344.023,69.693a.17.17,0,1,1-.183-.157A.17.17,0,0,1,344.023,69.693Z" transform="translate(-319.419 -53.358)" fill="#ff7454"/>
          <path id="Trazado_109456" data-name="Trazado 109456" d="M343.755,70.662a.3.3,0,1,1,.319.272A.3.3,0,0,1,343.755,70.662Z" transform="translate(-319.4 -53.134)" fill="#ff7454"/>
          <path id="Trazado_109457" data-name="Trazado 109457" d="M348.7,69.324a.227.227,0,1,1-.244-.208A.228.228,0,0,1,348.7,69.324Z" transform="translate(-318.153 -53.474)" fill="#ff7454"/>
          <path id="Trazado_109458" data-name="Trazado 109458" d="M348.853,70.565a.316.316,0,1,1,.34.29A.316.316,0,0,1,348.853,70.565Z" transform="translate(-317.984 -53.166)" fill="#ff7454"/>
          <path id="Trazado_109459" data-name="Trazado 109459" d="M349.755,69.523a.185.185,0,1,1-.2-.17A.185.185,0,0,1,349.755,69.523Z" transform="translate(-317.836 -53.408)" fill="#ff7454"/>
          <path id="Trazado_109460" data-name="Trazado 109460" d="M338.744,72.433s5.555-10.107,13.311-9.013c0,0,3.66-2.523-.4-5.095C349.032,56.662,336.392,60.995,338.744,72.433Z" transform="translate(-320.871 -56.565)" fill="#aa4f20"/>
          <path id="Trazado_109461" data-name="Trazado 109461" d="M331.765,78.747C323.222,82.421,324.807,112,324.807,112a6.414,6.414,0,0,0,6.884,2.346,95.017,95.017,0,0,0,4.141-15.121C337.306,91.105,331.765,78.747,331.765,78.747Z" transform="translate(-324.691 -50.801)" fill="#ff926d"/>
          <path id="Trazado_109462" data-name="Trazado 109462" d="M351.326,93.664s-5.954-2.191-11.88,4.466" transform="translate(-320.595 -46.756)" fill="none" stroke="#dfc5b6" stroke-linecap="round" stroke-miterlimit="10" stroke-width="0.762"/>
          <g id="Grupo_62098" data-name="Grupo 62098" transform="translate(15.497 77.715)">
            <path id="Trazado_109463" data-name="Trazado 109463" d="M340.609,122.286a.458.458,0,0,1-.026-.916l3.354-.189-6.821-2.592a.459.459,0,1,1,.326-.857l10.85,4.125-7.658.428Z" transform="translate(-336.821 -117.702)" fill="#9c57aa"/>
          </g>
          <g id="Grupo_62099" data-name="Grupo 62099" transform="translate(25.522 80.334)">
            <path id="Trazado_109464" data-name="Trazado 109464" d="M345.125,121.409a.459.459,0,0,1-.046-.915l7.157-.741a.466.466,0,0,1,.5.41.46.46,0,0,1-.409.5l-7.157.74Z" transform="translate(-344.668 -119.752)" fill="#9c57aa"/>
          </g>
          <g id="Grupo_62100" data-name="Grupo 62100" transform="translate(38.955 53.996)">
            <path id="Trazado_109465" data-name="Trazado 109465" d="M358.676,135.162s-.814-3.148-1.152-4.336a8,8,0,0,1,1.686-5.91s-2.767-15.427-3.86-18.3,3.41-10.921,6.084-5.833c2.108,4.009.522,21.18,1.348,24.5s1.221,5.371.9,7.037l-.442.5-.064,1-.479.6-.014.488a.847.847,0,0,1-.356.666l-.4.281-1.745,3.708s-.732-1.249-.376-1.749l-.776.051s.032-.824.5-.985c0,0-.358-.842.853-1.485l-.314-2.792s-.132-2.86-.8-2.673C357.993,130.286,360.454,134.569,358.676,135.162Z" transform="translate(-355.183 -99.137)" fill="#ffa181"/>
            <path id="Trazado_109466" data-name="Trazado 109466" d="M360.922,124.03l-.652,1.255.242,3.662.147-.1-.071-2.67Z" transform="translate(-353.77 -92.227)" fill="#ff745e"/>
            <path id="Trazado_109467" data-name="Trazado 109467" d="M358.69,129s-.358-.842.853-1.485l-.575,2.418-.776.051S358.225,129.164,358.69,129Z" transform="translate(-354.347 -91.259)" fill="#ff745e"/>
            <path id="Trazado_109468" data-name="Trazado 109468" d="M361.61,124.512a.815.815,0,0,0,.548-.252,6.7,6.7,0,0,1-.063.8.965.965,0,0,1-.236.5l-.253.287-.042.662a1.072,1.072,0,0,1-.234.6l-.267.331.018-2.577C361.279,124.908,361.61,124.512,361.61,124.512Z" transform="translate(-353.55 -92.163)" fill="#ff745e"/>
          </g>
          <path id="Trazado_109469" data-name="Trazado 109469" d="M363.052,111.185c-.47-4.083-1.357-10.184-3.619-14.071a5.342,5.342,0,0,0,1.578-5.68c-1.1-3.5-4.915-7.686-4.915-7.686s-14.863,5.062-20.247,18.206c-4.81,11.747,1.509,28.981,12.18,27.465C360.93,127.586,364.242,121.52,363.052,111.185Z" transform="translate(-322.048 -49.413)" fill="#ba68c8"/>
          <path id="Trazado_109470" data-name="Trazado 109470" d="M347.953,95.645a12.776,12.776,0,0,1-1.932.9c-4.592,1.357-14.531,3.777-17.572,5.547-6.159,3.587-3.886,9.541,1.838,8.88,3.893-.45,5.5-2.191,5.5-2.191L347.9,99.737a13.876,13.876,0,0,0,2.137-1.538S350.082,97.67,347.953,95.645Z" transform="translate(-324.666 -46.11)" fill="#ffa181"/>
          <g id="Grupo_62101" data-name="Grupo 62101" transform="translate(13.676 44.783)">
            <path id="Trazado_109471" data-name="Trazado 109471" d="M341.325,96.409a5.858,5.858,0,0,1-5.914-3.907.458.458,0,0,1,.884-.241c.051.18,1.294,4.377,7.407,2.928a.459.459,0,0,1,.212.893A11.239,11.239,0,0,1,341.325,96.409Z" transform="translate(-335.395 -91.926)" fill="#9c57aa"/>
          </g>
          <g id="Grupo_62102" data-name="Grupo 62102" transform="translate(24.932 77.715)">
            <path id="Trazado_109472" data-name="Trazado 109472" d="M344.663,121.978a.459.459,0,0,1-.365-.735,13.661,13.661,0,0,0,1.764-3.25.459.459,0,0,1,.855.335,14.556,14.556,0,0,1-1.887,3.466A.457.457,0,0,1,344.663,121.978Z" transform="translate(-344.206 -117.702)" fill="#9c57aa"/>
          </g>
          <g id="Grupo_62103" data-name="Grupo 62103" transform="translate(31.638 47.244)">
            <path id="Trazado_109473" data-name="Trazado 109473" d="M351.931,95.372a9.487,9.487,0,0,1-2.12-.239.459.459,0,1,1,.206-.894,8.648,8.648,0,0,0,5-.347.458.458,0,1,1,.373.837A9.147,9.147,0,0,1,351.931,95.372Z" transform="translate(-349.455 -93.852)" fill="#9c57aa"/>
          </g>
          <g id="Grupo_62104" data-name="Grupo 62104" transform="translate(20.312 46.686)">
            <path id="Trazado_109474" data-name="Trazado 109474" d="M349.4,101.7l-1.059-.01-7.36.114-.395-4.2,2.77-1.186s4.827-3.061,5.1-3l2.4.107a.412.412,0,0,1,.147.733,1.48,1.48,0,0,1-1.177.457l-.515-.018-1.178.787,3.368-.613,1.55-.054a1.78,1.78,0,0,1,1.088.363s.15.172.15.275a.322.322,0,0,1-.128.257,1.827,1.827,0,0,1-1.1.386l-1.384.045-2.265.391c-.566.188-.133.252.009.233l2.666-.363,2.09-.014a1.78,1.78,0,0,1,1.089.363l.022.017a.323.323,0,0,1,0,.515l-.02.017a1.788,1.788,0,0,1-1.082.368l-1.924.006-3.115.676c-.531.2-.2.331.054.282l2.026-.392,2.086-.13a1.778,1.778,0,0,1,1.106.3l.023.015a.325.325,0,0,1,.142.249.321.321,0,0,1-.112.264l-.02.018a1.78,1.78,0,0,1-1.059.428l-1.92.114-2.493.6a.085.085,0,0,0,0,.166l.28.066,2.077-.12,1.417-.488a.9.9,0,0,1,1.04.414.274.274,0,0,1-.158.419l-1.886.769Z" transform="translate(-340.59 -93.415)" fill="#ffa181"/>
          </g>
        </g>
      </g>
      <rect id="Rectángulo_5880" data-name="Rectángulo 5880" width="9.341" height="18.414" rx="3.656" transform="translate(299.679 0.906)" fill="#f17781"/>
      <g id="Grupo_62131" data-name="Grupo 62131" transform="translate(273.81 38.987)">
        <ellipse id="Elipse_4171" data-name="Elipse 4171" cx="29.198" cy="78.566" rx="29.198" ry="78.566" transform="translate(0.153)" fill="#f3f9ff"/>
        <g id="Grupo_62130" data-name="Grupo 62130" transform="translate(0 3.259)">
          <path id="Trazado_109475" data-name="Trazado 109475" d="M250.552,99.815s14.539,13.642,17.08,12.795.829-2.316-.673-4.115c-.819-.982-5.821-7.285-9.314-12.47S248.409,97.238,250.552,99.815Z" transform="translate(-249.821 -46.406)" fill="#ff926d"/>
          <path id="Trazado_109476" data-name="Trazado 109476" d="M265.764,79.576a32.783,32.783,0,0,0-7.322,7.479c-7.432,10.6-9.414,13.578-8.257,16.072,1.086,2.342,4.75,1.165,8.548-2.484,2.464-2.367,10.113-8.353,11.174-12.28S265.764,79.576,265.764,79.576Z" transform="translate(-249.879 -50.424)" fill="#ff926d"/>
          <path id="Trazado_109477" data-name="Trazado 109477" d="M274.975,134.208l1.6-27.187c-3.6.327-11.015,0-11.015,0-5.978,7.032-7.1,22.58-4.684,41.7l5.455,36.661,5.874-4.767,1.488-26.032,1.4-19.934A1.074,1.074,0,0,1,274.975,134.208Z" transform="translate(-247.157 -42.806)" fill="#ff926d"/>
          <g id="Grupo_62107" data-name="Grupo 62107" transform="translate(16.205 133.621)">
            <path id="Trazado_109478" data-name="Trazado 109478" d="M271.483,164.918s-.984,10.276-.832,13.661,1.308,5.114.8,5.962-1.34.795-1.441,2.633-1.865,3.384-4.793,3.516-2.685-2.631-2.614-3.092,2.763-3.792,3.464-6.574-1.3-16.721-1.3-16.721S270.5,157.26,271.483,164.918Z" transform="translate(-262.563 -161.347)" fill="#ff926d"/>
          </g>
          <g id="Grupo_62108" data-name="Grupo 62108" transform="translate(30.502 134.784)">
            <path id="Trazado_109479" data-name="Trazado 109479" d="M282.278,162.258s-.974,12.953-.821,16.339,1.694,5.059,1.182,5.908-1.339.793-1.44,2.632-1.865,3.384-4.793,3.516-2.685-2.629-2.615-3.092,2.765-3.792,3.465-6.574-1.3-16.721-1.3-16.721Z" transform="translate(-273.754 -162.258)" fill="#ffa181"/>
          </g>
          <path id="Trazado_109480" data-name="Trazado 109480" d="M270.381,106.348s12.391-3.992,15.491,3.77c4.221,10.577,1,28.394,1.089,28.475l-1.718,12.736-2.217,30.346L278.214,189s-3.237-19.788-6.051-37.088c-1.128-6.937-1.587-12.838-2.053-18.157Z" transform="translate(-244.263 -43.278)" fill="#ffa181"/>
          <path id="Trazado_109481" data-name="Trazado 109481" d="M276.315,107.021c-3.6.327-11.015,0-11.015,0-2.2,2.588-3.741,6.336-4.691,10.986a49.007,49.007,0,0,1,12.072,6.866C273.79,124.309,276.315,107.021,276.315,107.021Z" transform="translate(-246.901 -42.806)" fill="#ffd54f"/>
          <path id="Trazado_109482" data-name="Trazado 109482" d="M287.757,118.371a31.608,31.608,0,0,0-1.87-8.253c-3.1-7.763-15.491-3.77-15.491-3.77l-.339,19C272.955,120.879,283.6,117.382,287.757,118.371Z" transform="translate(-244.278 -43.278)" fill="#ffd54f"/>
          <rect id="Rectángulo_5881" data-name="Rectángulo 5881" width="19.707" height="32.067" transform="translate(18.938 10.317)" fill="#bb5a38"/>
          <path id="Trazado_109483" data-name="Trazado 109483" d="M301.293,101.687s-14.539,13.643-17.08,12.8-.829-2.316.673-4.116c.819-.982,5.821-7.283,9.314-12.47S303.437,99.111,301.293,101.687Z" transform="translate(-240.709 -45.886)" fill="#ff926d"/>
          <path id="Trazado_109484" data-name="Trazado 109484" d="M286.264,110.656l-.055-.059a.736.736,0,0,1,.055-1.067h0l-.3-.922h0a.744.744,0,0,1-.054-.971l.143-.187-2.073-1.663-3.64.529s1.7,4.2,3.614,5.151S286.264,110.656,286.264,110.656Z" transform="translate(-241.422 -43.149)" fill="#ff926d"/>
          <path id="Trazado_109485" data-name="Trazado 109485" d="M284.133,67.676c-.437,5.537-4.934,9.7-10.042,9.294s-9.006-5.228-8.46-10.755c.593-5.994,3.816-10.149,8.88-9.362C280.069,57.716,284.57,62.14,284.133,67.676Z" transform="translate(-245.521 -56.758)" fill="#bb5a38"/>
          <path id="Trazado_109486" data-name="Trazado 109486" d="M281.889,66.484c-.346,4.4-4.77,7.637-9.879,7.234s-9.077-4.305-8.621-8.694c.494-4.76,4.245-6.753,9.315-6.046C278.269,59.755,282.237,62.087,281.889,66.484Z" transform="translate(-246.139 -56.18)" fill="#bb5a38"/>
          <path id="Trazado_109487" data-name="Trazado 109487" d="M285.672,114.725l3.291-21.779-1.092-13.1s-7.218-3.028-13.116-3.209c-4.862-.151-12.37,3.754-12.37,3.754s-.286,12.126-.332,15.012c-.078,4.967,1.467,13.633,2.845,20.052C268.93,122.533,280.288,119.019,285.672,114.725Z" transform="translate(-246.5 -51.241)" fill="#ff926d"/>
          <path id="Trazado_109488" data-name="Trazado 109488" d="M285.3,90.727a50.938,50.938,0,0,1-1.335-12.55c-.362-.115-.741-.231-1.136-.346l-14.508-.215c-.552.188-1.09.385-1.6.581a40.944,40.944,0,0,1-3.78,13.108c0,.017-.885,3.811-.885,3.826a56.322,56.322,0,0,0,.821,8.487,98.7,98.7,0,0,1,14.269,1.354,26.182,26.182,0,0,0,9.927.018c.591-3.793,1.178-7.622,1.537-9.982A7.294,7.294,0,0,1,285.3,90.727Z" transform="translate(-246.5 -50.968)" fill="#ffd54f"/>
          <path id="Trazado_109489" data-name="Trazado 109489" d="M281.472,78.084s-1.982,10.208-9.857,9.693c-5.315-.348-4.652-9.908-4.652-9.908S274.44,75.114,281.472,78.084Z" transform="translate(-245.144 -51.221)" fill="#ff926d"/>
          <path id="Trazado_109490" data-name="Trazado 109490" d="M271.792,80.654s.8-1.463,1.423-1.235a32.459,32.459,0,0,0,3.46.571s-2.914.02-3.425.392S271.588,80.987,271.792,80.654Z" transform="translate(-243.803 -50.475)" fill="#ff7454"/>
          <path id="Trazado_109491" data-name="Trazado 109491" d="M271.491,80.6s-.558-1.57-1.211-1.442a28.415,28.415,0,0,1-2.946.123,9.062,9.062,0,0,1,2.761.823C270.542,80.549,271.642,80.962,271.491,80.6Z" transform="translate(-245.034 -50.543)" fill="#ff7454"/>
          <g id="Grupo_62110" data-name="Grupo 62110" transform="translate(24.782 16.75)">
            <g id="Grupo_62109" data-name="Grupo 62109">
              <path id="Trazado_109492" data-name="Trazado 109492" d="M276.234,69.928l-.276,10.194-6.682-.528.7-9.727Z" transform="translate(-269.277 -69.869)" fill="#ff926d"/>
            </g>
          </g>
          <path id="Trazado_109493" data-name="Trazado 109493" d="M270.36,78.2h0c3.251.1,8.539-3.745,8.639-7,0,0,.7-4.956-.17-6.522-1.509-2.717-8.007-3.172-10.609-2.793-3.986.58-3.484,7.944-3.484,7.944C264.259,75.881,268.938,78.153,270.36,78.2Z" transform="translate(-245.764 -55.367)" fill="#ff8f68"/>
          <path id="Trazado_109494" data-name="Trazado 109494" d="M269.939,69.869l6.2.059a2.78,2.78,0,0,1-1,1.942c-.164,3.126-3.38,5.381-5.738,5.381Z" transform="translate(-244.458 -53.119)" fill="#ff7454"/>
          <path id="Trazado_109495" data-name="Trazado 109495" d="M270.36,78.2h0c3.251.1,8.539-3.745,8.639-7,0,0,.7-4.956-.17-6.522-1.509-2.717-8.007-3.172-10.609-2.793-3.986.58-3.484,7.944-3.484,7.944C264.259,75.881,268.938,78.153,270.36,78.2Z" transform="translate(-245.764 -55.367)" fill="#ff8f68"/>
          <path id="Trazado_109496" data-name="Trazado 109496" d="M278.341,68.74a2.887,2.887,0,0,1-3.122,2.448l.172-5.059C277.069,66.174,278.542,66.24,278.341,68.74Z" transform="translate(-242.845 -54.157)" fill="#ff926d"/>
          <path id="Trazado_109497" data-name="Trazado 109497" d="M276.5,67.489a.187.187,0,0,1,.346-.1,1.111,1.111,0,0,1,.088,1.089c-.279.631-.822,1.239-1.057.967s.019-.2.429-1.017A1.984,1.984,0,0,0,276.5,67.489Z" transform="translate(-242.687 -53.833)" fill="#ff7454"/>
          <path id="Trazado_109498" data-name="Trazado 109498" d="M277.931,61.521c-2.374-.951-11.313-1.371-11.313-1.371a13.147,13.147,0,0,0,5.122,5.367,15.991,15.991,0,0,0,3.5,1.446,3.358,3.358,0,0,1,2.388,2.714h0l.074-.317a1.864,1.864,0,0,1,2.059-1.419h0S280.306,62.471,277.931,61.521Z" transform="translate(-245.232 -55.817)" fill="#bb5a38"/>
          <g id="Grupo_62126" data-name="Grupo 62126" transform="translate(19.165 11.641)">
            <g id="Grupo_62111" data-name="Grupo 62111" transform="translate(1.274 2.153)">
              <path id="Trazado_109499" data-name="Trazado 109499" d="M265.881,68.25c-.032.4.181.754.477.777s.56-.287.592-.692-.181-.755-.477-.778S265.913,67.844,265.881,68.25Z" transform="translate(-265.878 -67.555)" fill="#28121e"/>
            </g>
            <g id="Grupo_62112" data-name="Grupo 62112" transform="translate(6.686 2.239)">
              <path id="Trazado_109500" data-name="Trazado 109500" d="M270.117,68.317c-.032.4.18.754.475.777s.56-.287.592-.692-.18-.755-.475-.778S270.149,67.911,270.117,68.317Z" transform="translate(-270.113 -67.622)" fill="#28121e"/>
            </g>
            <g id="Grupo_62113" data-name="Grupo 62113" transform="translate(5.395 0.423)">
              <path id="Trazado_109501" data-name="Trazado 109501" d="M272.667,67.527a3.524,3.524,0,0,0-3.225-.262l-.34-.681a4.221,4.221,0,0,1,3.985.308Z" transform="translate(-269.103 -66.201)" fill="#ff7454"/>
            </g>
            <g id="Grupo_62114" data-name="Grupo 62114">
              <path id="Trazado_109502" data-name="Trazado 109502" d="M268.748,72.047a1.077,1.077,0,0,1-.825-.488c-.174-.363.014-.731.3-1.288.107-.211.235-.459.365-.751a2.067,2.067,0,0,0,.106-.293,1.934,1.934,0,0,0-.294-1.657,2.215,2.215,0,0,0-1.661-.93,2.861,2.861,0,0,0-1.52.29l-.339-.681a3.634,3.634,0,0,1,1.914-.369,2.97,2.97,0,0,1,2.228,1.252,2.725,2.725,0,0,1,.261,2.7c-.137.307-.27.566-.382.786a3.473,3.473,0,0,0-.279.618c.029-.013.1.028.279.064Z" transform="translate(-264.88 -65.87)" fill="#ff7454"/>
            </g>
            <g id="Grupo_62115" data-name="Grupo 62115" transform="translate(2.854 7.56)">
              <path id="Trazado_109503" data-name="Trazado 109503" d="M268.74,73.036a2.207,2.207,0,0,1-1.626-.722l.549-.528a1.45,1.45,0,0,0,1.805.3l.39.655A2.266,2.266,0,0,1,268.74,73.036Z" transform="translate(-267.114 -71.787)" fill="#ff7454"/>
            </g>
            <g id="Grupo_62116" data-name="Grupo 62116" transform="translate(9.274 4.927)">
              <path id="Trazado_109504" data-name="Trazado 109504" d="M272.14,69.944a.237.237,0,1,0,.255-.217A.237.237,0,0,0,272.14,69.944Z" transform="translate(-272.139 -69.726)" fill="#ff7454"/>
            </g>
            <g id="Grupo_62117" data-name="Grupo 62117" transform="translate(8.184 5.615)">
              <path id="Trazado_109505" data-name="Trazado 109505" d="M271.286,70.358a.1.1,0,1,0,.2.017.1.1,0,0,0-.095-.11A.1.1,0,0,0,271.286,70.358Z" transform="translate(-271.286 -70.265)" fill="#ff7454"/>
            </g>
            <g id="Grupo_62118" data-name="Grupo 62118" transform="translate(9.41 6.253)">
              <path id="Trazado_109506" data-name="Trazado 109506" d="M272.246,70.956a.208.208,0,1,0,.224-.19A.208.208,0,0,0,272.246,70.956Z" transform="translate(-272.246 -70.764)" fill="#ff7454"/>
            </g>
            <g id="Grupo_62119" data-name="Grupo 62119" transform="translate(10.586 5.455)">
              <path id="Trazado_109507" data-name="Trazado 109507" d="M273.166,70.246a.115.115,0,0,0,.1.124.115.115,0,1,0,.019-.23A.115.115,0,0,0,273.166,70.246Z" transform="translate(-273.166 -70.14)" fill="#ff7454"/>
            </g>
            <g id="Grupo_62120" data-name="Grupo 62120" transform="translate(8.143 6.762)">
              <path id="Trazado_109508" data-name="Trazado 109508" d="M271.254,71.323a.174.174,0,1,0,.188-.16A.174.174,0,0,0,271.254,71.323Z" transform="translate(-271.254 -71.163)" fill="#ff7454"/>
            </g>
            <g id="Grupo_62121" data-name="Grupo 62121" transform="translate(6.994 4.979)">
              <path id="Trazado_109509" data-name="Trazado 109509" d="M270.355,69.91a.156.156,0,1,0,.169-.143A.158.158,0,0,0,270.355,69.91Z" transform="translate(-270.355 -69.767)" fill="#ff7454"/>
            </g>
            <g id="Grupo_62122" data-name="Grupo 62122" transform="translate(6.682 5.917)">
              <path id="Trazado_109510" data-name="Trazado 109510" d="M270.65,70.793a.27.27,0,1,0-.291.248A.271.271,0,0,0,270.65,70.793Z" transform="translate(-270.11 -70.501)" fill="#ff7454"/>
            </g>
            <g id="Grupo_62123" data-name="Grupo 62123" transform="translate(1.578 4.489)">
              <path id="Trazado_109511" data-name="Trazado 109511" d="M266.116,69.575a.205.205,0,0,0,.189.222.207.207,0,1,0-.189-.222Z" transform="translate(-266.115 -69.383)" fill="#ff7454"/>
            </g>
            <g id="Grupo_62124" data-name="Grupo 62124" transform="translate(0.707 5.781)">
              <path id="Trazado_109512" data-name="Trazado 109512" d="M266.009,70.706a.288.288,0,1,0-.31.264A.288.288,0,0,0,266.009,70.706Z" transform="translate(-265.433 -70.394)" fill="#ff7454"/>
            </g>
            <g id="Grupo_62125" data-name="Grupo 62125" transform="translate(0.325 4.765)">
              <path id="Trazado_109513" data-name="Trazado 109513" d="M265.135,69.755a.168.168,0,1,0,.18-.155A.167.167,0,0,0,265.135,69.755Z" transform="translate(-265.135 -69.6)" fill="#ff7454"/>
            </g>
          </g>
          <g id="Grupo_62127" data-name="Grupo 62127" transform="translate(25.321 49.231)">
            <path id="Trazado_109514" data-name="Trazado 109514" d="M274.525,97.709a7.512,7.512,0,0,1-4.645-1.593.458.458,0,1,1,.554-.729c4.153,3.162,8.691.022,8.737-.009a.458.458,0,1,1,.529.747A9.986,9.986,0,0,1,274.525,97.709Z" transform="translate(-269.698 -95.293)" fill="#e8bc42"/>
          </g>
          <path id="Trazado_109515" data-name="Trazado 109515" d="M282.377,79.15s7.554,4.35,11.381,10.416c6.907,10.95,8.728,13.362,8.257,16.072s-4.75,1.164-8.548-2.484C291,100.786,283.353,94.8,282.293,90.873S282.377,79.15,282.377,79.15Z" transform="translate(-241.006 -50.543)" fill="#ff926d"/>
          <path id="Trazado_109516" data-name="Trazado 109516" d="M263.661,99.2a7.259,7.259,0,0,1-2.83-5.61c-.008-1.053,2.447-5.255,2.447-5.255Z" transform="translate(-246.839 -47.994)" fill="#ffd54f"/>
          <g id="Grupo_62128" data-name="Grupo 62128" transform="translate(15.84 49.231)">
            <path id="Trazado_109517" data-name="Trazado 109517" d="M265.328,97.667a10.321,10.321,0,0,1-2.724-.374.458.458,0,0,1-.307-.571.463.463,0,0,1,.571-.307c.04.013,4.056,1.184,6.067-.976a.458.458,0,0,1,.671.625A5.693,5.693,0,0,1,265.328,97.667Z" transform="translate(-262.278 -95.292)" fill="#e8bc42"/>
          </g>
          <g id="Grupo_62129" data-name="Grupo 62129" transform="translate(36.612 61.925)">
            <path id="Trazado_109518" data-name="Trazado 109518" d="M281.726,105.229l3.507.258a.709.709,0,0,1,.675.7c-.013.387-.229.859-.617.833l-3.222-.189-1.73.557a1.352,1.352,0,0,1-1.8-.641h0Z" transform="translate(-278.536 -105.229)" fill="#ffa181"/>
            <path id="Trazado_109519" data-name="Trazado 109519" d="M281.614,107.126l4.124-.989c.386-.135.751.351.827.774.059.332-.138,1-.457,1.11l-3.282.423-2.374,1.354a1.767,1.767,0,0,1-1.915-.456Z" transform="translate(-278.536 -104.983)" fill="#ffa181"/>
            <path id="Trazado_109520" data-name="Trazado 109520" d="M282.384,108.24l3.3-.528c.4-.033.982.608.94,1.035a.711.711,0,0,1-.675.609l-3.087.208-1.626,1.177a1.352,1.352,0,0,1-1.89-.3h0Z" transform="translate(-278.311 -104.54)" fill="#ffa181"/>
            <path id="Trazado_109521" data-name="Trazado 109521" d="M283.287,109.586l2.208-.263a.679.679,0,0,1,.756.7.705.705,0,0,1-.635.645l-1.924.229-1.172.609a1.354,1.354,0,0,1-1.826-.576h0Z" transform="translate(-277.937 -104.094)" fill="#ffa181"/>
          </g>
        </g>
      </g>
    </g>
  </g>
</svg>
