<svg xmlns="http://www.w3.org/2000/svg" width="421.665" height="268.46" viewBox="0 0 421.665 268.46">
  <g id="Grupo_62133" data-name="Grupo 62133" transform="translate(10594 7830.934)">
    <path id="Trazado_109531" data-name="Trazado 109531" d="M11.792,9.677a5.717,5.717,0,0,1-.457,2.371,3.462,3.462,0,0,1-1.295,1.546,3.563,3.563,0,0,1-1.955.533,3.448,3.448,0,0,1-3.247-2.066,5.486,5.486,0,0,1-.479-2.3V9.093a5.649,5.649,0,0,1,.463-2.355,3.427,3.427,0,0,1,3.25-2.107,3.583,3.583,0,0,1,1.958.536,3.455,3.455,0,0,1,1.3,1.555,5.745,5.745,0,0,1,.457,2.371Zm-1.212-.6a4.144,4.144,0,0,0-.66-2.523,2.177,2.177,0,0,0-1.847-.879,2.154,2.154,0,0,0-1.819.879A4.059,4.059,0,0,0,5.572,9v.679a4.15,4.15,0,0,0,.67,2.5,2.163,2.163,0,0,0,1.844.911,2.154,2.154,0,0,0,1.828-.86,4.126,4.126,0,0,0,.667-2.466ZM8.669,2.27h1.422L8.39,4.136l-.946,0ZM15.7,12.407l1.7-5.275h1.2L16.141,14h-.9L12.757,7.132h1.2ZM23.878,14a2.467,2.467,0,0,1-.165-.724,2.62,2.62,0,0,1-1.955.851,2.424,2.424,0,0,1-1.666-.574,1.859,1.859,0,0,1-.651-1.457,1.942,1.942,0,0,1,.816-1.666,3.846,3.846,0,0,1,2.295-.594h1.143V9.3a1.319,1.319,0,0,0-.368-.981,1.48,1.48,0,0,0-1.085-.365,1.712,1.712,0,0,0-1.054.317.935.935,0,0,0-.425.768H19.581a1.621,1.621,0,0,1,.365-.993,2.491,2.491,0,0,1,.99-.759A3.331,3.331,0,0,1,22.311,7a2.715,2.715,0,0,1,1.86.594,2.141,2.141,0,0,1,.7,1.635v3.161a3.865,3.865,0,0,0,.241,1.5V14Zm-1.949-.9a2.064,2.064,0,0,0,1.047-.286,1.728,1.728,0,0,0,.717-.743V10.667h-.92q-2.158,0-2.158,1.263a1.069,1.069,0,0,0,.368.863A1.415,1.415,0,0,0,21.93,13.1Zm6.056.9H26.811V4.25h1.174Zm1.568-3.5a4.057,4.057,0,0,1,.4-1.815,2.96,2.96,0,0,1,1.1-1.244A3.007,3.007,0,0,1,32.67,7a2.9,2.9,0,0,1,2.269.971,3.736,3.736,0,0,1,.866,2.583v.083a4.092,4.092,0,0,1-.384,1.8,2.916,2.916,0,0,1-1.1,1.241,3.041,3.041,0,0,1-1.641.444,2.889,2.889,0,0,1-2.263-.971,3.718,3.718,0,0,1-.866-2.571Zm1.181.14a2.938,2.938,0,0,0,.53,1.834,1.8,1.8,0,0,0,2.841-.01,3.213,3.213,0,0,0,.527-1.965,2.933,2.933,0,0,0-.536-1.831,1.705,1.705,0,0,0-1.425-.7,1.686,1.686,0,0,0-1.4.692A3.189,3.189,0,0,0,30.734,10.642Z" transform="translate(-10221.533 -7593.6)" fill="#12263f"/>
    <path id="Trazado_109532" data-name="Trazado 109532" d="M15.492,10.261H13.322V14H12.1V4.758h3.06a3.621,3.621,0,0,1,2.4.711A2.558,2.558,0,0,1,18.4,7.538a2.488,2.488,0,0,1-.467,1.5,2.785,2.785,0,0,1-1.3.958l2.171,3.923V14H17.5Zm-2.171-1h1.873a2.112,2.112,0,0,0,1.444-.471,1.591,1.591,0,0,0,.536-1.259,1.676,1.676,0,0,0-.511-1.316,2.164,2.164,0,0,0-1.476-.464H13.322Zm9.452,4.862A3,3,0,0,1,20.5,13.21a3.4,3.4,0,0,1-.876-2.453v-.216a4.121,4.121,0,0,1,.39-1.825,3.045,3.045,0,0,1,1.092-1.257A2.745,2.745,0,0,1,22.627,7a2.572,2.572,0,0,1,2.082.882,3.82,3.82,0,0,1,.743,2.526V10.9H20.8a2.441,2.441,0,0,0,.594,1.641,1.866,1.866,0,0,0,1.444.625,2.045,2.045,0,0,0,1.054-.254,2.648,2.648,0,0,0,.755-.673l.717.559A2.884,2.884,0,0,1,22.773,14.127ZM22.627,7.97a1.566,1.566,0,0,0-1.193.517,2.515,2.515,0,0,0-.6,1.45h3.44V9.849A2.237,2.237,0,0,0,23.8,8.462,1.475,1.475,0,0,0,22.627,7.97Zm6.938,5.2a1.692,1.692,0,0,0,1.1-.381,1.34,1.34,0,0,0,.521-.952h1.111a2.13,2.13,0,0,1-.406,1.124,2.676,2.676,0,0,1-1,.851,2.885,2.885,0,0,1-1.323.317,2.829,2.829,0,0,1-2.231-.936,3.729,3.729,0,0,1-.828-2.561v-.2a4.135,4.135,0,0,1,.368-1.784,2.8,2.8,0,0,1,1.057-1.212A3,3,0,0,1,29.559,7a2.755,2.755,0,0,1,1.92.692,2.473,2.473,0,0,1,.816,1.8H31.184a1.618,1.618,0,0,0-.5-1.095,1.57,1.57,0,0,0-1.12-.428,1.644,1.644,0,0,0-1.387.644,3.026,3.026,0,0,0-.492,1.863V10.7a2.966,2.966,0,0,0,.489,1.828A1.651,1.651,0,0,0,29.565,13.168Zm5.643-7.7V7.132H36.49V8.04H35.208V12.3a.953.953,0,0,0,.171.62.721.721,0,0,0,.584.207,2.843,2.843,0,0,0,.559-.076V14a3.424,3.424,0,0,1-.9.126,1.462,1.462,0,0,1-1.187-.476,2.045,2.045,0,0,1-.4-1.352V8.04h-1.25V7.132h1.25V5.469ZM42.1,14a2.467,2.467,0,0,1-.165-.724,2.62,2.62,0,0,1-1.955.851,2.424,2.424,0,0,1-1.666-.574,1.859,1.859,0,0,1-.651-1.457,1.942,1.942,0,0,1,.816-1.666,3.846,3.846,0,0,1,2.295-.594h1.143V9.3a1.319,1.319,0,0,0-.368-.981,1.48,1.48,0,0,0-1.085-.365,1.712,1.712,0,0,0-1.054.317.935.935,0,0,0-.425.768H37.8a1.621,1.621,0,0,1,.365-.993,2.491,2.491,0,0,1,.99-.759A3.331,3.331,0,0,1,40.534,7a2.715,2.715,0,0,1,1.86.594,2.141,2.141,0,0,1,.7,1.635v3.161a3.865,3.865,0,0,0,.241,1.5V14Zm-1.949-.9a2.064,2.064,0,0,0,1.047-.286,1.728,1.728,0,0,0,.717-.743V10.667H41q-2.158,0-2.158,1.263a1.069,1.069,0,0,0,.368.863A1.415,1.415,0,0,0,40.153,13.1Zm5.891-5.973L46.082,8A2.5,2.5,0,0,1,48.138,7q2.177,0,2.2,2.457V14H49.16V9.455a1.581,1.581,0,0,0-.34-1.1A1.361,1.361,0,0,0,47.783,8a1.7,1.7,0,0,0-1,.3,2.069,2.069,0,0,0-.673.8V14H44.933V7.132Zm5.783,3.377a4.037,4.037,0,0,1,.743-2.555,2.56,2.56,0,0,1,3.929-.06l.057-.762h1.073v6.7a2.794,2.794,0,0,1-.79,2.1,2.916,2.916,0,0,1-2.123.768,3.532,3.532,0,0,1-1.454-.317,2.5,2.5,0,0,1-1.085-.87l.609-.7a2.3,2.3,0,0,0,1.847.933,1.8,1.8,0,0,0,1.336-.482,1.844,1.844,0,0,0,.479-1.358v-.59a2.414,2.414,0,0,1-1.923.813,2.346,2.346,0,0,1-1.952-.971A4.244,4.244,0,0,1,51.826,10.509Zm1.181.133a3.08,3.08,0,0,0,.476,1.825,1.547,1.547,0,0,0,1.333.663,1.72,1.72,0,0,0,1.631-1.009V8.985A1.74,1.74,0,0,0,54.829,8a1.561,1.561,0,0,0-1.339.667A3.354,3.354,0,0,0,53.007,10.642Zm10.632,2.679a2.494,2.494,0,0,1-2.012.806,2.135,2.135,0,0,1-1.673-.638,2.761,2.761,0,0,1-.581-1.888V7.132h1.174v4.437q0,1.562,1.27,1.562a1.758,1.758,0,0,0,1.79-1v-5h1.174V14H63.665Zm4.2.679H66.667V4.25h1.174Zm6.119,0a2.467,2.467,0,0,1-.165-.724,2.62,2.62,0,0,1-1.955.851,2.424,2.424,0,0,1-1.666-.574,1.859,1.859,0,0,1-.651-1.457,1.942,1.942,0,0,1,.816-1.666,3.846,3.846,0,0,1,2.295-.594h1.143V9.3a1.319,1.319,0,0,0-.368-.981,1.48,1.48,0,0,0-1.085-.365,1.712,1.712,0,0,0-1.054.317.935.935,0,0,0-.425.768H69.663a1.621,1.621,0,0,1,.365-.993,2.491,2.491,0,0,1,.99-.759A3.331,3.331,0,0,1,72.393,7a2.715,2.715,0,0,1,1.86.594,2.141,2.141,0,0,1,.7,1.635v3.161a3.865,3.865,0,0,0,.241,1.5V14Zm-1.949-.9a2.064,2.064,0,0,0,1.047-.286,1.728,1.728,0,0,0,.717-.743V10.667h-.92q-2.158,0-2.158,1.263a1.069,1.069,0,0,0,.368.863A1.415,1.415,0,0,0,72.012,13.1Zm8.1-4.919a3.519,3.519,0,0,0-.578-.044,1.547,1.547,0,0,0-1.568.984V14H76.792V7.132h1.143l.019.793A1.829,1.829,0,0,1,79.591,7a1.2,1.2,0,0,1,.521.089Z" transform="translate(-10335.667 -7593.6)" fill="#12263f"/>
    <path id="Trazado_109533" data-name="Trazado 109533" d="M10.4,5.754H7.434V14H6.222V5.754H3.257v-1H10.4Zm4.031,2.431a3.519,3.519,0,0,0-.578-.044,1.547,1.547,0,0,0-1.568.984V14H11.116V7.132h1.143l.019.793A1.829,1.829,0,0,1,13.915,7a1.2,1.2,0,0,1,.521.089ZM16.791,14H15.616V7.132h1.174Zm-1.27-8.69a.7.7,0,0,1,.175-.482.655.655,0,0,1,.517-.2.666.666,0,0,1,.521.2.694.694,0,0,1,.178.482.671.671,0,0,1-.178.476.678.678,0,0,1-.521.19.667.667,0,0,1-.517-.19A.678.678,0,0,1,15.521,5.31ZM22.91,14a2.467,2.467,0,0,1-.165-.724,2.62,2.62,0,0,1-1.955.851,2.424,2.424,0,0,1-1.666-.574,1.859,1.859,0,0,1-.651-1.457,1.942,1.942,0,0,1,.816-1.666,3.846,3.846,0,0,1,2.295-.594h1.143V9.3a1.319,1.319,0,0,0-.368-.981,1.48,1.48,0,0,0-1.085-.365,1.712,1.712,0,0,0-1.054.317.935.935,0,0,0-.425.768H18.612a1.621,1.621,0,0,1,.365-.993,2.491,2.491,0,0,1,.99-.759A3.331,3.331,0,0,1,21.342,7,2.715,2.715,0,0,1,23.2,7.6a2.141,2.141,0,0,1,.7,1.635v3.161a3.865,3.865,0,0,0,.241,1.5V14Zm-1.949-.9a2.064,2.064,0,0,0,1.047-.286,1.728,1.728,0,0,0,.717-.743V10.667h-.92q-2.158,0-2.158,1.263a1.069,1.069,0,0,0,.368.863A1.415,1.415,0,0,0,20.961,13.1Zm5.891-5.973L26.89,8A2.5,2.5,0,0,1,28.946,7q2.177,0,2.2,2.457V14H29.968V9.455a1.581,1.581,0,0,0-.34-1.1A1.361,1.361,0,0,0,28.591,8a1.7,1.7,0,0,0-1,.3,2.069,2.069,0,0,0-.673.8V14H25.741V7.132Zm5.783,3.377a4.037,4.037,0,0,1,.743-2.555,2.56,2.56,0,0,1,3.929-.06l.057-.762h1.073v6.7a2.794,2.794,0,0,1-.79,2.1,2.916,2.916,0,0,1-2.123.768,3.532,3.532,0,0,1-1.454-.317,2.5,2.5,0,0,1-1.085-.87l.609-.7a2.3,2.3,0,0,0,1.847.933,1.8,1.8,0,0,0,1.336-.482,1.844,1.844,0,0,0,.479-1.358v-.59a2.414,2.414,0,0,1-1.923.813,2.346,2.346,0,0,1-1.952-.971A4.244,4.244,0,0,1,32.634,10.509Zm1.181.133a3.08,3.08,0,0,0,.476,1.825,1.547,1.547,0,0,0,1.333.663,1.72,1.72,0,0,0,1.631-1.009V8.985A1.74,1.74,0,0,0,35.637,8a1.561,1.561,0,0,0-1.339.667A3.354,3.354,0,0,0,33.815,10.642Zm10.632,2.679a2.494,2.494,0,0,1-2.012.806,2.135,2.135,0,0,1-1.673-.638,2.761,2.761,0,0,1-.581-1.888V7.132h1.174v4.437q0,1.562,1.27,1.562a1.758,1.758,0,0,0,1.79-1v-5H45.59V14H44.473Zm4.2.679H47.475V4.25h1.174Zm1.568-3.5a4.057,4.057,0,0,1,.4-1.815,2.96,2.96,0,0,1,1.1-1.244A3.007,3.007,0,0,1,53.334,7a2.9,2.9,0,0,1,2.269.971,3.736,3.736,0,0,1,.866,2.583v.083a4.092,4.092,0,0,1-.384,1.8,2.916,2.916,0,0,1-1.1,1.241,3.041,3.041,0,0,1-1.641.444,2.889,2.889,0,0,1-2.263-.971,3.718,3.718,0,0,1-.866-2.571Zm1.181.14a2.938,2.938,0,0,0,.53,1.834,1.8,1.8,0,0,0,2.841-.01A3.213,3.213,0,0,0,55.3,10.5a2.933,2.933,0,0,0-.536-1.831,1.705,1.705,0,0,0-1.425-.7,1.686,1.686,0,0,0-1.4.692A3.189,3.189,0,0,0,51.4,10.642ZM6.977,31H5.8V24.132H6.977Zm-1.27-8.69a.7.7,0,0,1,.175-.482.655.655,0,0,1,.517-.2.666.666,0,0,1,.521.2.694.694,0,0,1,.178.482.671.671,0,0,1-.178.476.678.678,0,0,1-.521.19.667.667,0,0,1-.517-.19A.678.678,0,0,1,5.708,22.31Zm4.259,1.822L10,25A2.5,2.5,0,0,1,12.062,24q2.177,0,2.2,2.457V31H13.083V26.455a1.581,1.581,0,0,0-.34-1.1A1.361,1.361,0,0,0,11.706,25a1.7,1.7,0,0,0-1,.3,2.069,2.069,0,0,0-.673.8V31H8.856V24.132Zm8.328,5.275L20,24.132h1.2L18.733,31h-.9L15.35,24.132h1.2Zm6.881,1.72A3,3,0,0,1,22.9,30.21a3.4,3.4,0,0,1-.876-2.453v-.216a4.121,4.121,0,0,1,.39-1.825,3.045,3.045,0,0,1,1.092-1.257A2.745,2.745,0,0,1,25.03,24a2.572,2.572,0,0,1,2.082.882,3.82,3.82,0,0,1,.743,2.526V27.9H23.2a2.441,2.441,0,0,0,.594,1.641,1.866,1.866,0,0,0,1.444.625,2.045,2.045,0,0,0,1.054-.254,2.648,2.648,0,0,0,.755-.673l.717.559A2.884,2.884,0,0,1,25.176,31.127ZM25.03,24.97a1.566,1.566,0,0,0-1.193.517,2.515,2.515,0,0,0-.6,1.45h3.44v-.089a2.237,2.237,0,0,0-.482-1.387A1.475,1.475,0,0,0,25.03,24.97Zm7.5.216a3.519,3.519,0,0,0-.578-.044,1.547,1.547,0,0,0-1.568.984V31H29.213V24.132h1.143l.019.793A1.829,1.829,0,0,1,32.012,24a1.2,1.2,0,0,1,.521.089Zm2.99-2.717v1.663H36.8v.908H35.522V29.3a.953.953,0,0,0,.171.62.721.721,0,0,0,.584.207,2.843,2.843,0,0,0,.559-.076V31a3.424,3.424,0,0,1-.9.126,1.462,1.462,0,0,1-1.187-.476,2.045,2.045,0,0,1-.4-1.352V25.04H33.1v-.908h1.25V22.469ZM39.452,31H38.277V24.132h1.174Zm-1.27-8.69a.7.7,0,0,1,.175-.482.655.655,0,0,1,.517-.2.666.666,0,0,1,.521.2.694.694,0,0,1,.178.482.671.671,0,0,1-.178.476.678.678,0,0,1-.521.19.667.667,0,0,1-.517-.19A.678.678,0,0,1,38.182,22.31Zm2.863,5.2a4.023,4.023,0,0,1,.749-2.542,2.548,2.548,0,0,1,3.872-.136V21.25H46.84V31H45.761l-.057-.736a2.391,2.391,0,0,1-1.961.863,2.346,2.346,0,0,1-1.946-.978,4.069,4.069,0,0,1-.752-2.552Zm1.174.133A3.046,3.046,0,0,0,42.7,29.47a1.56,1.56,0,0,0,1.333.66,1.713,1.713,0,0,0,1.631-1V25.973A1.726,1.726,0,0,0,44.047,25a1.567,1.567,0,0,0-1.346.667A3.354,3.354,0,0,0,42.219,27.642Zm6.132-.14a4.057,4.057,0,0,1,.4-1.815,2.96,2.96,0,0,1,1.1-1.244A3.007,3.007,0,0,1,51.468,24a2.9,2.9,0,0,1,2.269.971A3.736,3.736,0,0,1,54.6,27.56v.083a4.092,4.092,0,0,1-.384,1.8,2.916,2.916,0,0,1-1.1,1.241,3.041,3.041,0,0,1-1.641.444,2.889,2.889,0,0,1-2.263-.971,3.718,3.718,0,0,1-.866-2.571Zm1.181.14a2.938,2.938,0,0,0,.53,1.834,1.8,1.8,0,0,0,2.841-.01,3.213,3.213,0,0,0,.527-1.965,2.933,2.933,0,0,0-.536-1.831,1.705,1.705,0,0,0-1.425-.7,1.686,1.686,0,0,0-1.4.692A3.189,3.189,0,0,0,49.532,27.642Z" transform="translate(-10404.757 -7593.6)" fill="#12263f"/>
    <path id="Trazado_109534" data-name="Trazado 109534" d="M11.4,5.754H8.434V14H7.222V5.754H4.257v-1H11.4Zm4.031,2.431a3.519,3.519,0,0,0-.578-.044,1.547,1.547,0,0,0-1.568.984V14H12.116V7.132h1.143l.019.793A1.829,1.829,0,0,1,14.915,7a1.2,1.2,0,0,1,.521.089ZM17.791,14H16.616V7.132h1.174Zm-1.27-8.69a.7.7,0,0,1,.175-.482.655.655,0,0,1,.517-.2.666.666,0,0,1,.521.2.694.694,0,0,1,.178.482.671.671,0,0,1-.178.476.678.678,0,0,1-.521.19.667.667,0,0,1-.517-.19A.678.678,0,0,1,16.521,5.31ZM23.91,14a2.467,2.467,0,0,1-.165-.724,2.62,2.62,0,0,1-1.955.851,2.424,2.424,0,0,1-1.666-.574,1.859,1.859,0,0,1-.651-1.457,1.942,1.942,0,0,1,.816-1.666,3.846,3.846,0,0,1,2.295-.594h1.143V9.3a1.319,1.319,0,0,0-.368-.981,1.48,1.48,0,0,0-1.085-.365,1.712,1.712,0,0,0-1.054.317.935.935,0,0,0-.425.768H19.612a1.621,1.621,0,0,1,.365-.993,2.491,2.491,0,0,1,.99-.759A3.331,3.331,0,0,1,22.342,7,2.715,2.715,0,0,1,24.2,7.6a2.141,2.141,0,0,1,.7,1.635v3.161a3.865,3.865,0,0,0,.241,1.5V14Zm-1.949-.9a2.064,2.064,0,0,0,1.047-.286,1.728,1.728,0,0,0,.717-.743V10.667h-.92q-2.158,0-2.158,1.263a1.069,1.069,0,0,0,.368.863A1.415,1.415,0,0,0,21.961,13.1Zm5.891-5.973L27.89,8A2.5,2.5,0,0,1,29.946,7q2.177,0,2.2,2.457V14H30.968V9.455a1.581,1.581,0,0,0-.34-1.1A1.361,1.361,0,0,0,29.591,8a1.7,1.7,0,0,0-1,.3,2.069,2.069,0,0,0-.673.8V14H26.741V7.132Zm5.783,3.377a4.037,4.037,0,0,1,.743-2.555,2.56,2.56,0,0,1,3.929-.06l.057-.762h1.073v6.7a2.794,2.794,0,0,1-.79,2.1,2.916,2.916,0,0,1-2.123.768,3.532,3.532,0,0,1-1.454-.317,2.5,2.5,0,0,1-1.085-.87l.609-.7a2.3,2.3,0,0,0,1.847.933,1.8,1.8,0,0,0,1.336-.482,1.844,1.844,0,0,0,.479-1.358v-.59a2.414,2.414,0,0,1-1.923.813,2.346,2.346,0,0,1-1.952-.971A4.244,4.244,0,0,1,33.634,10.509Zm1.181.133a3.08,3.08,0,0,0,.476,1.825,1.547,1.547,0,0,0,1.333.663,1.72,1.72,0,0,0,1.631-1.009V8.985A1.74,1.74,0,0,0,36.637,8a1.561,1.561,0,0,0-1.339.667A3.354,3.354,0,0,0,34.815,10.642Zm10.632,2.679a2.494,2.494,0,0,1-2.012.806,2.135,2.135,0,0,1-1.673-.638,2.761,2.761,0,0,1-.581-1.888V7.132h1.174v4.437q0,1.562,1.27,1.562a1.758,1.758,0,0,0,1.79-1v-5H46.59V14H45.473Zm4.2.679H48.475V4.25h1.174Zm1.568-3.5a4.057,4.057,0,0,1,.4-1.815,2.96,2.96,0,0,1,1.1-1.244A3.007,3.007,0,0,1,54.334,7a2.9,2.9,0,0,1,2.269.971,3.736,3.736,0,0,1,.866,2.583v.083a4.092,4.092,0,0,1-.384,1.8,2.916,2.916,0,0,1-1.1,1.241,3.041,3.041,0,0,1-1.641.444,2.889,2.889,0,0,1-2.263-.971,3.718,3.718,0,0,1-.866-2.571Zm1.181.14a2.938,2.938,0,0,0,.53,1.834,1.8,1.8,0,0,0,2.841-.01A3.213,3.213,0,0,0,56.3,10.5a2.933,2.933,0,0,0-.536-1.831,1.705,1.705,0,0,0-1.425-.7,1.686,1.686,0,0,0-1.4.692A3.189,3.189,0,0,0,52.4,10.642Z" transform="translate(-10502.667 -7593.6)" fill="#12263f"/>
    <path id="Trazado_109535" data-name="Trazado 109535" d="M8.933,5.754H5.962V14H4.75V5.754H1.785v-1H8.933Zm4.031,2.431a3.519,3.519,0,0,0-.578-.044,1.547,1.547,0,0,0-1.568.984V14H9.644V7.132h1.143l.019.793A1.829,1.829,0,0,1,12.443,7a1.2,1.2,0,0,1,.521.089ZM18.029,14a2.467,2.467,0,0,1-.165-.724,2.62,2.62,0,0,1-1.955.851,2.424,2.424,0,0,1-1.666-.574,1.859,1.859,0,0,1-.651-1.457,1.942,1.942,0,0,1,.816-1.666A3.846,3.846,0,0,1,16.7,9.836h1.143V9.3a1.319,1.319,0,0,0-.368-.981,1.48,1.48,0,0,0-1.085-.365,1.712,1.712,0,0,0-1.054.317.935.935,0,0,0-.425.768H13.732a1.621,1.621,0,0,1,.365-.993,2.491,2.491,0,0,1,.99-.759A3.331,3.331,0,0,1,16.461,7a2.715,2.715,0,0,1,1.86.594,2.141,2.141,0,0,1,.7,1.635v3.161a3.865,3.865,0,0,0,.241,1.5V14Zm-1.949-.9a2.064,2.064,0,0,0,1.047-.286,1.728,1.728,0,0,0,.717-.743V10.667h-.92q-2.158,0-2.158,1.263a1.069,1.069,0,0,0,.368.863A1.415,1.415,0,0,0,16.08,13.1Zm10.582-2.463a4.113,4.113,0,0,1-.717,2.526A2.3,2.3,0,0,1,24,14.127a2.519,2.519,0,0,1-1.968-.793v3.307H20.86V7.132h1.073l.057.762A2.419,2.419,0,0,1,23.983,7a2.342,2.342,0,0,1,1.958.933,4.157,4.157,0,0,1,.72,2.6Zm-1.174-.133a3.035,3.035,0,0,0-.5-1.834A1.6,1.6,0,0,0,23.634,8a1.726,1.726,0,0,0-1.6.946v3.282a1.73,1.73,0,0,0,1.612.939,1.587,1.587,0,0,0,1.343-.67A3.312,3.312,0,0,0,25.488,10.509ZM31,14.127a3,3,0,0,1-2.272-.917,3.4,3.4,0,0,1-.876-2.453v-.216a4.121,4.121,0,0,1,.39-1.825,3.045,3.045,0,0,1,1.092-1.257A2.745,2.745,0,0,1,30.858,7a2.572,2.572,0,0,1,2.082.882,3.82,3.82,0,0,1,.743,2.526V10.9H29.03a2.441,2.441,0,0,0,.594,1.641,1.866,1.866,0,0,0,1.444.625,2.045,2.045,0,0,0,1.054-.254,2.648,2.648,0,0,0,.755-.673l.717.559A2.884,2.884,0,0,1,31,14.127ZM30.858,7.97a1.566,1.566,0,0,0-1.193.517,2.515,2.515,0,0,0-.6,1.45h3.44V9.849a2.237,2.237,0,0,0-.482-1.387A1.475,1.475,0,0,0,30.858,7.97Zm6.938,5.2a1.692,1.692,0,0,0,1.1-.381,1.34,1.34,0,0,0,.521-.952h1.111a2.13,2.13,0,0,1-.406,1.124,2.676,2.676,0,0,1-1,.851,2.885,2.885,0,0,1-1.323.317,2.829,2.829,0,0,1-2.231-.936,3.729,3.729,0,0,1-.828-2.561v-.2A4.135,4.135,0,0,1,35.1,8.649a2.8,2.8,0,0,1,1.057-1.212A3,3,0,0,1,37.789,7a2.755,2.755,0,0,1,1.92.692,2.473,2.473,0,0,1,.816,1.8H39.414a1.618,1.618,0,0,0-.5-1.095,1.57,1.57,0,0,0-1.12-.428,1.644,1.644,0,0,0-1.387.644,3.026,3.026,0,0,0-.492,1.863V10.7a2.965,2.965,0,0,0,.489,1.828A1.651,1.651,0,0,0,37.8,13.168ZM43.121,14H41.947V7.132h1.174Zm-1.27-8.69a.7.7,0,0,1,.175-.482.655.655,0,0,1,.517-.2.666.666,0,0,1,.521.2.694.694,0,0,1,.178.482.671.671,0,0,1-.178.476.678.678,0,0,1-.521.19.667.667,0,0,1-.517-.19A.678.678,0,0,1,41.852,5.31ZM44.689,10.5a4.057,4.057,0,0,1,.4-1.815,2.96,2.96,0,0,1,1.1-1.244A3.007,3.007,0,0,1,47.806,7a2.9,2.9,0,0,1,2.269.971,3.736,3.736,0,0,1,.866,2.583v.083a4.092,4.092,0,0,1-.384,1.8,2.916,2.916,0,0,1-1.1,1.241,3.041,3.041,0,0,1-1.641.444,2.889,2.889,0,0,1-2.263-.971,3.718,3.718,0,0,1-.866-2.571Zm1.181.14a2.938,2.938,0,0,0,.53,1.834,1.8,1.8,0,0,0,2.841-.01,3.213,3.213,0,0,0,.527-1.965,2.933,2.933,0,0,0-.536-1.831,1.705,1.705,0,0,0-1.425-.7,1.686,1.686,0,0,0-1.4.692A3.189,3.189,0,0,0,45.87,10.642Z" transform="translate(-10586.335 -7593.6)" fill="#12263f"/>
    <g id="Grupo_62050" data-name="Grupo 62050" transform="translate(-10594 -7792.516)">
      <ellipse id="Elipse_4152" data-name="Elipse 4152" cx="28.46" cy="76.582" rx="28.46" ry="76.582" transform="translate(272.746 13.655)" fill="#f3f9ff"/>
      <g id="Grupo_61956" data-name="Grupo 61956" transform="translate(277.635 4.444)">
        <path id="Trazado_109115" data-name="Trazado 109115" d="M291.364,316.9a3.266,3.266,0,0,1-.545,1.116.812.812,0,0,1-.227.116.351.351,0,0,1-.193.014.087.087,0,0,1-.035,0,.492.492,0,0,1-.245.149c-.054.015-.107.025-.154.035a1.413,1.413,0,0,1-.169.014.319.319,0,0,1-.034.059.258.258,0,0,1-.42.044c-.3-.252-.324-1.327-.45-2.974a35.814,35.814,0,0,0-.6-4.447c-.149-.473-.222-.5-.222-.5s-1.173,3.07-1.626,2.848-.247-.651-.151-1.227.753-4.518.778-4.842-2.5-11.639-2.9-12.86-2.574-9.641-3.125-11.09c0,0-3.669-17.727-4.268-23.718a37.232,37.232,0,0,0-2.732-10.655s9.656,4.393,11.185,6.392,2,10.586,2.265,15.782.2,13.585.468,14.647,2.794,21.777,2.794,21.777,1.2,1,1.4,4.06A11.339,11.339,0,0,1,291.364,316.9Z" transform="translate(-250.146 -218.352)" fill="#ffa181"/>
        <path id="Trazado_109116" data-name="Trazado 109116" d="M269.383,245.634V250.9s-3.862,7.391-5.26,9.655-.732,8.39-.732,8.39.133,11.453.466,15.449a56.714,56.714,0,0,1-.4,9.655s11.053.466,14.184.266a24.828,24.828,0,0,0,6.058-1.265s.867-15.915.533-22.64-.332-10.788-.332-10.788-5.727-7.058-6.06-8.256a25.222,25.222,0,0,1-.267-4.528S269.982,245.1,269.383,245.634Z" transform="translate(-252.8 -219.199)" fill="#ffa181"/>
        <path id="Trazado_109117" data-name="Trazado 109117" d="M268.974,249.023a9.586,9.586,0,0,0,5.393,1.692,7.65,7.65,0,0,0,2.1-.315c-.149-1.464-.108-3.567-.108-3.567s-7.591-1.731-8.19-1.2v2.787C268.43,248.634,268.7,248.837,268.974,249.023Z" transform="translate(-251.588 -219.199)" fill="#ff7454"/>
        <path id="Trazado_109118" data-name="Trazado 109118" d="M266.193,231.518s.133,12.185.532,15.581.666,4.128,1.132,4.329,5.461,2.6,6.925,2.8,6.06-2.664,6.992-3.863-.133-20.575-.2-20.909-4.461-4.327-8.123-3.662S266.193,231.052,266.193,231.518Z" transform="translate(-252.074 -224.06)" fill="#ffa181"/>
        <path id="Trazado_109119" data-name="Trazado 109119" d="M267.615,238.315s-2.6-2.863-3.663-1.8-.666,4.794,1.4,5.061,2.53-2.132,2.53-2.132Z" transform="translate(-252.764 -221.468)" fill="#ffa181"/>
        <path id="Trazado_109120" data-name="Trazado 109120" d="M271.839,255.121c-.8,3.264-4.461,8.661-4.929,10.321s-5.726,17.65-5.86,19.046-1.13,25.036-1.13,25.036.265.8.728,1.931,1.106,3.712.4,4c-.45.183-1.463-2.332-1.463-2.332a4.8,4.8,0,0,0,.463,2.265,13.173,13.173,0,0,1,.966,3.9c-.044.357-.421.28-.663.188-.116-.044-.2-.087-.2-.087a3.839,3.839,0,0,1,.1.532.852.852,0,0,1-.13.685.652.652,0,0,1-.773-.034h0c-.072-.049-.121-.087-.121-.087a.964.964,0,0,1-.039.169c-.062.183-.207.425-.545.265a3.114,3.114,0,0,1-.965-.834l0,0c-.111-.141-.178-.242-.178-.242a.732.732,0,0,1-.1.139c-.144.151-.43.3-.782-.309a11.18,11.18,0,0,1-1.019-4.875,29.115,29.115,0,0,1,.733-4.929c0-.4-1.467-20.175-1.467-22.773s3.862-27.233,4.929-29.3S271.9,249.2,271.9,249.2A12.916,12.916,0,0,1,271.839,255.121Z" transform="translate(-254.855 -218.3)" fill="#ffa181"/>
        <path id="Trazado_109121" data-name="Trazado 109121" d="M263.158,299.471c0,.666,1.2,26.5,1.331,27.169s-1.731,7.723-1.465,17.312,1.731,25.7,1.731,25.7-5.992,6.792-5.727,8.258,5.327,2.264,7.058,2.264,1.865-.267,2.4-1.466a40.76,40.76,0,0,0,1.732-8.923,62.966,62.966,0,0,1-.266-7.192c.133-5.061,1.731-30.1,2.664-35.159s.931-27.834.931-29.032S263.158,299.471,263.158,299.471Z" transform="translate(-253.833 -206.314)" fill="#ffa181"/>
        <path id="Trazado_109122" data-name="Trazado 109122" d="M273.264,303.017s3.329,29.032,3.329,29.832a56.294,56.294,0,0,0,.4,13.984c1.2,7.858,3.863,23.173,3.863,23.173s-1.2,7.725-.266,8.656,19,.8,19.811.568.914-2.356-.91-3.244-3.965-.724-4.478-1.148-7.763-4.832-8.03-6.563-1.6-35.026-1.6-35.959,0-22.773-1.866-30.763a52.3,52.3,0,0,0-4.395-12.519S272.465,295.692,273.264,303.017Z" transform="translate(-250.355 -208.527)" fill="#ffa181"/>
        <path id="Trazado_109123" data-name="Trazado 109123" d="M284.441,292.3c0-2.543-.376-15.852-.151-21.06a101.346,101.346,0,0,0-1.248-19.626l-1.7-.849c0,4.462-.305,9.336-5.543,9.989-5.763.716-8.69-5.194-9.839-9.74l-2.4,1.549A22.165,22.165,0,0,1,264.829,257a41.045,41.045,0,0,1,.5,5.467c.158,3.077-.993,6.068-2.131,8.55.044,6.854.34,14.605.334,21.5,5.869,3.874,19.784,1.629,20.842-.288" transform="translate(-252.808 -217.916)" fill="#fadee1"/>
        <path id="Trazado_109124" data-name="Trazado 109124" d="M263.616,283.291s3.258,1.741,11.087,1.532c7.491-.2,10.188-1.7,10.188-1.7s1.032,10.821,1.564,14.684.666,7.723.666,7.723-1.532.067-5.461.666a25.138,25.138,0,0,0-5.326,1.132s-1.11-5.341-1.232-6.076a3.749,3.749,0,0,0-1.1-2.2l-.849,8.341a25.932,25.932,0,0,1-5.843.349c-3.8-.1-4.994-.6-4.994-.6a65.26,65.26,0,0,1-.35-13.385A61.057,61.057,0,0,1,263.616,283.291Z" transform="translate(-253.159 -209.977)" fill="#ffd54f"/>
        <path id="Trazado_109125" data-name="Trazado 109125" d="M267.716,235.227a16.259,16.259,0,0,0-.2-5.753c-.233-.489-1.365-1.01-1.932,1.071a19.437,19.437,0,0,0,.133,7.467,17.849,17.849,0,0,0,.966,3.213S267.384,237.766,267.716,235.227Z" transform="translate(-252.299 -223.246)" fill="#aa4f20"/>
        <path id="Trazado_109126" data-name="Trazado 109126" d="M277.962,224.4c-4.695.245-10.255,4.314-11.055,5.712-.851,1.488.012,1.7.012,1.7a16.165,16.165,0,0,1,7.879-1.9c4.095.245,7.077,2.816,7.791,2.5,1.631-.726-1.066-2.776-1.066-2.776s2.3,1.745,2.93.545c.583-1.1-1.365-2.167-1.365-2.167s1.4.918,1.564-.031S282.656,224.156,277.962,224.4Z" transform="translate(-251.99 -224.386)" fill="#aa4f20"/>
        <g id="Grupo_61937" data-name="Grupo 61937" transform="translate(1.492 97.17)" style="mix-blend-mode: multiply;isolation: isolate">
          <path id="Trazado_109127" data-name="Trazado 109127" d="M257.192,306.776a.732.732,0,0,1-.1.139c-.049-.106-.091-.212-.134-.323a10.788,10.788,0,0,1-.382-1.208,12.508,12.508,0,0,1-.526-2.853c0-.144.173-.163.174-.019A16.343,16.343,0,0,0,257.192,306.776Z" transform="translate(-256.053 -302.414)" fill="#c1b1b3"/>
        </g>
        <g id="Grupo_61938" data-name="Grupo 61938" transform="translate(2.504 97.105)" style="mix-blend-mode: multiply;isolation: isolate">
          <path id="Trazado_109128" data-name="Trazado 109128" d="M258.725,307.435a.964.964,0,0,1-.039.169,4.173,4.173,0,0,1-.332-.526,8.635,8.635,0,0,1-.656-1.242,11.523,11.523,0,0,1-.445-1.487,16.611,16.611,0,0,1-.386-1.863c-.02-.126.169-.179.188-.054a21.561,21.561,0,0,0,.9,3.4C258.213,306.484,258.725,307.435,258.725,307.435Z" transform="translate(-256.866 -302.362)" fill="#c1b1b3"/>
        </g>
        <g id="Grupo_61939" data-name="Grupo 61939" transform="translate(3.711 96.842)" style="mix-blend-mode: multiply;isolation: isolate">
          <path id="Trazado_109129" data-name="Trazado 109129" d="M259.42,306.391a3.839,3.839,0,0,1,.1.532c-.164-.285-.3-.584-.435-.859-.222-.455-.4-.923-.584-1.4a10.737,10.737,0,0,1-.661-2.418c-.019-.144.168-.126.2.024A29.489,29.489,0,0,0,259.42,306.391Z" transform="translate(-257.835 -302.151)" fill="#c1b1b3"/>
        </g>
        <g id="Grupo_61940" data-name="Grupo 61940" transform="translate(39.616 93.854)" style="mix-blend-mode: multiply;isolation: isolate">
          <path id="Trazado_109130" data-name="Trazado 109130" d="M287.231,302.5a15.931,15.931,0,0,1-.361,3.375,1.413,1.413,0,0,1-.169.014.321.321,0,0,1-.034.059,15.611,15.611,0,0,0,.347-3.413c-.005-.517-.034-1.034-.077-1.549a6.788,6.788,0,0,1-.087-1.164c.01-.057.072-.1.116-.047.242.235.232.786.247,1.1C287.236,301.41,287.236,301.955,287.231,302.5Z" transform="translate(-286.667 -299.751)" fill="#c1b1b3"/>
        </g>
        <g id="Grupo_61941" data-name="Grupo 61941" transform="translate(40.254 93.406)" style="mix-blend-mode: multiply;isolation: isolate">
          <path id="Trazado_109131" data-name="Trazado 109131" d="M288.178,301.416a15.769,15.769,0,0,1-.178,1.593,19.939,19.939,0,0,1-.628,2.762.351.351,0,0,1-.193.014,23.293,23.293,0,0,0,.536-2.712,15.984,15.984,0,0,0,.173-1.743,12.227,12.227,0,0,1-.009-1.873c.019-.1.139-.072.168,0A4.775,4.775,0,0,1,288.178,301.416Z" transform="translate(-287.179 -299.392)" fill="#c1b1b3"/>
        </g>
        <g id="Grupo_61942" data-name="Grupo 61942" transform="translate(31.979 121.543)" style="mix-blend-mode: multiply;isolation: isolate">
          <path id="Trazado_109132" data-name="Trazado 109132" d="M280.687,323.192a4.8,4.8,0,0,0,.681.054,2.137,2.137,0,0,0,.661-.126,1.471,1.471,0,0,0,1-.946.149.149,0,0,0-.215-.166c-.179.108-.323.263-.492.375a2.146,2.146,0,0,1-.468.25,3.977,3.977,0,0,1-.559.148,4.548,4.548,0,0,1-.6.095.158.158,0,0,0,0,.316Z" transform="translate(-280.534 -321.986)" fill="#c1b1b3"/>
        </g>
        <g id="Grupo_61943" data-name="Grupo 61943" transform="translate(14.664 121.698)" style="mix-blend-mode: multiply;isolation: isolate">
          <path id="Trazado_109133" data-name="Trazado 109133" d="M266.721,322.47a5.67,5.67,0,0,0,1.321.7c.436.143,1.173.215,1.412-.285a.164.164,0,0,0-.139-.244,2.345,2.345,0,0,0-.323.054,1.78,1.78,0,0,1-.274.046,1.934,1.934,0,0,1-.615-.071,5.463,5.463,0,0,1-1.188-.532.193.193,0,0,0-.194.333Z" transform="translate(-266.631 -322.11)" fill="#c1b1b3"/>
        </g>
        <g id="Grupo_61944" data-name="Grupo 61944" transform="translate(15.982 123.783)" style="mix-blend-mode: multiply;isolation: isolate">
          <path id="Trazado_109134" data-name="Trazado 109134" d="M267.811,324.154a2.312,2.312,0,0,0,.579.015,1.1,1.1,0,0,0,.284-.054,1.215,1.215,0,0,0,.143-.062.405.405,0,0,0,.107-.093.1.1,0,0,0-.068-.167.423.423,0,0,0-.132,0c-.044.006-.049.007-.093.011s-.1.012-.146.021c0,0-.068.011-.041.007l-.062.006a2.065,2.065,0,0,1-.248.01l-.126-.006-.062-.006-.036,0H267.9a.176.176,0,0,0-.209.118.171.171,0,0,0,.118.209Z" transform="translate(-267.689 -323.785)" fill="#c1b1b3"/>
        </g>
        <g id="Grupo_61945" data-name="Grupo 61945" transform="translate(11.043 170.774)" style="mix-blend-mode: multiply;isolation: isolate">
          <path id="Trazado_109135" data-name="Trazado 109135" d="M264.4,363.8a1.6,1.6,0,0,1,.08-1.07c.062-.159.161-.324.242-.493a1.044,1.044,0,0,0,.169-.605.167.167,0,0,0-.2-.113c-.22.036-.411.28-.529.457a2.8,2.8,0,0,0-.318.638,2.155,2.155,0,0,0-.121.665,1.49,1.49,0,0,0,.174.734.276.276,0,0,0,.5-.212Z" transform="translate(-263.723 -361.519)" fill="#c1b1b3"/>
        </g>
        <g id="Grupo_61946" data-name="Grupo 61946" transform="translate(8.943 171.588)" style="mix-blend-mode: multiply;isolation: isolate">
          <path id="Trazado_109136" data-name="Trazado 109136" d="M262.462,363.374c.039-.176.085-.35.139-.522.027-.083.046-.171.07-.257a1.11,1.11,0,0,0,.039-.144.624.624,0,0,0-.02-.172.144.144,0,0,0-.21-.086.639.639,0,0,0-.13.107.708.708,0,0,0-.07.141,2.861,2.861,0,0,0-.111.281,5.3,5.3,0,0,0-.128.535.218.218,0,1,0,.421.116Z" transform="translate(-262.036 -362.172)" fill="#c1b1b3"/>
        </g>
        <g id="Grupo_61947" data-name="Grupo 61947" transform="translate(7.491 171.624)" style="mix-blend-mode: multiply;isolation: isolate">
          <path id="Trazado_109137" data-name="Trazado 109137" d="M261.2,362.954a1.5,1.5,0,0,1,.04-.168c.009-.027.019-.055.029-.082l.016-.042c0,.006-.012.03,0,.01l.01-.022c.026-.055.061-.1.083-.159l.019-.047.007-.02s-.012.027,0,.009.021-.045.034-.066a.111.111,0,0,0-.016-.132.113.113,0,0,0-.133-.017.829.829,0,0,0-.147.1.568.568,0,0,0-.117.172,1.546,1.546,0,0,0-.144.376.17.17,0,0,0,.328.09Z" transform="translate(-260.87 -362.202)" fill="#c1b1b3"/>
        </g>
        <g id="Grupo_61948" data-name="Grupo 61948" transform="translate(33.33 160.186)" style="mix-blend-mode: multiply;isolation: isolate">
          <path id="Trazado_109138" data-name="Trazado 109138" d="M281.653,353.177a4.654,4.654,0,0,0,0,1.125,1.088,1.088,0,0,0,.225.5.6.6,0,0,0,.215.169.438.438,0,0,0,.357.032.138.138,0,0,0,.06-.228.591.591,0,0,0-.117-.1l-.1-.054c-.019-.014-.02-.014,0,0l-.049-.037c-.009,0-.056-.044-.021-.014-.025-.022-.047-.046-.072-.07s.012.021-.01-.012c-.01-.017-.022-.034-.032-.05s-.02-.035-.029-.054-.025-.054-.009-.016a1.139,1.139,0,0,1-.067-.228,2.488,2.488,0,0,1-.036-.478c0-.164.007-.328.011-.491,0-.215-.32-.212-.332,0Z" transform="translate(-281.619 -353.016)" fill="#c1b1b3"/>
        </g>
        <g id="Grupo_61949" data-name="Grupo 61949" transform="translate(15.486 52.558)" style="mix-blend-mode: multiply;isolation: isolate">
          <path id="Trazado_109139" data-name="Trazado 109139" d="M267.466,267.273a17.557,17.557,0,0,1,2.5-.242,8.637,8.637,0,0,0,2.388-.284c.08-.029.078-.156-.016-.157-.42,0-.844.052-1.264.073s-.824.05-1.238.072a17.286,17.286,0,0,0-2.443.258c-.182.036-.113.313.068.279Z" transform="translate(-267.29 -266.591)" fill="#d7cdce"/>
        </g>
        <g id="Grupo_61950" data-name="Grupo 61950" transform="translate(21.564 52.097)" style="mix-blend-mode: multiply;isolation: isolate">
          <path id="Trazado_109140" data-name="Trazado 109140" d="M272.242,266.768c1.269.039,2.54-.04,3.808-.087.625-.022,1.248-.064,1.872-.088a12.321,12.321,0,0,0,1.844-.111.084.084,0,0,0,0-.161A6.122,6.122,0,0,0,278,266.25c-.615.03-1.228.074-1.841.139a31.68,31.68,0,0,1-3.918.228.075.075,0,0,0,0,.151Z" transform="translate(-272.171 -266.221)" fill="#d7cdce"/>
        </g>
        <g id="Grupo_61951" data-name="Grupo 61951" transform="translate(17.696 15.635)">
          <path id="Trazado_109141" data-name="Trazado 109141" d="M269.071,238.544a1.715,1.715,0,0,1,.228-1.025,1.15,1.15,0,0,1,.884-.574,1.12,1.12,0,0,1,.812.276,1.644,1.644,0,0,1,.538,1.128l-1.029.082a.638.638,0,0,0-.181-.425l-.143.051a.7.7,0,0,0-.081.4Z" transform="translate(-269.065 -236.941)" fill="#28121e"/>
        </g>
        <g id="Grupo_61952" data-name="Grupo 61952" transform="translate(26.151 15.525)">
          <path id="Trazado_109142" data-name="Trazado 109142" d="M277.292,237.785c.042.545-.243,1.014-.639,1.045s-.752-.386-.794-.931.243-1.012.639-1.044S277.249,237.239,277.292,237.785Z" transform="translate(-275.854 -236.853)" fill="#28121e"/>
        </g>
        <g id="Grupo_61953" data-name="Grupo 61953" transform="translate(16.706 13.201)">
          <path id="Trazado_109143" data-name="Trazado 109143" d="M268.837,236.765l-.567-.852a5.679,5.679,0,0,1,5.352-.413l-.457.915A4.694,4.694,0,0,0,268.837,236.765Z" transform="translate(-268.27 -234.987)" fill="#ff7454"/>
        </g>
        <g id="Grupo_61954" data-name="Grupo 61954" transform="translate(23.064 12.632)">
          <path id="Trazado_109144" data-name="Trazado 109144" d="M274.421,242.826l-.2-1a1.079,1.079,0,0,0,.416-.134c-.036-.041-.238-.435-.416-.783-.151-.3-.329-.644-.513-1.055a3.858,3.858,0,0,1-.2-.538,3.647,3.647,0,0,1,.545-3.088,3.989,3.989,0,0,1,2.991-1.682,4.875,4.875,0,0,1,2.572.5l-.456.915a3.888,3.888,0,0,0-2.041-.392,2.975,2.975,0,0,0-2.229,1.25,2.6,2.6,0,0,0-.4,2.227,2.771,2.771,0,0,0,.142.394c.176.392.346.725.491,1.006.384.75.636,1.244.4,1.731A1.439,1.439,0,0,1,274.421,242.826Z" transform="translate(-273.375 -234.53)" fill="#ff7454"/>
        </g>
        <g id="Grupo_61955" data-name="Grupo 61955" transform="translate(21.787 22.787)">
          <path id="Trazado_109145" data-name="Trazado 109145" d="M273.851,244.361a3.037,3.037,0,0,1-1.5-.39l.522-.88a1.95,1.95,0,0,0,2.423-.407l.738.709A2.961,2.961,0,0,1,273.851,244.361Z" transform="translate(-272.35 -242.684)" fill="#ff7454"/>
        </g>
      </g>
      <g id="Grupo_61978" data-name="Grupo 61978" transform="translate(182.149 6.423)">
        <ellipse id="Elipse_4153" data-name="Elipse 4153" cx="28.46" cy="76.582" rx="28.46" ry="76.582" transform="translate(0 8.663)" fill="#f3f9ff"/>
        <g id="Grupo_61977" data-name="Grupo 61977" transform="translate(3.415)">
          <path id="Trazado_109146" data-name="Trazado 109146" d="M202.339,241.871s-.067,9.39-.6,9.722-9.255,4.794-10.588,6.593,2.264,19.71,4.263,26.635,2.6,9.322,2.6,9.322a45.5,45.5,0,0,0,14.117,2.4c7.058-.133,8.123-.8,8.123-.8s3-22.774,3.063-24.7-4.727-15.649-5.061-16.315-5.593-2.53-5.726-3.529-.2-5.793-.2-5.793l-10.188-3.462" transform="translate(-178.482 -222.076)" fill="#962e09"/>
          <path id="Trazado_109147" data-name="Trazado 109147" d="M203.912,257.413c-2.8,3.665-6.662,7.594-8.723,13.451s-5.392,18.113-5.392,18.113.062,4.128.332,8.921,1.062,9.989,1.062,9.989,3.331,3.529,3.4,4.929a9.736,9.736,0,0,1-.468,3.462c-.2.4-.53.666-.864-.6a13.121,13.121,0,0,0-1.4-2.93,38.375,38.375,0,0,0,1.332,5.127c.8,2.2,1.328,2.732.931,3.365a.683.683,0,0,1-.631.391.529.529,0,0,1-.2-.044,1.357,1.357,0,0,1-.092.352.913.913,0,0,1-.141.265,1.715,1.715,0,0,1-.829.377h0l-.1.024a.6.6,0,0,1-.086.372.881.881,0,0,1-.309.294c-.339.193-1.029-.213-1.381-.45l-.005,0c-.131-.087-.213-.151-.213-.151s.03.164-.245.193a1.759,1.759,0,0,1-.555-.057c-.864-.2-2.462-2.2-3.331-5.194a25.2,25.2,0,0,1-.6-7.126s-4.793-17.843-4.461-21.3,3-25.375,4-29.033,2.061-3.665,6.058-6.127,13.85-4.664,13.85-4.664S206.708,253.754,203.912,257.413Z" transform="translate(-180.921 -220.24)" fill="#962e09"/>
          <path id="Trazado_109148" data-name="Trazado 109148" d="M231.545,315.738a5.317,5.317,0,0,1-.777,1.618,3.7,3.7,0,0,1-.43.535.654.654,0,0,1-.194.144c-.188.064-.5.164-.695.232-.121.044-.2.069-.2.069a1.822,1.822,0,0,1-.149.129c-.289.237-.922.628-1.148-.129-.3-1-.8-4.3-1.5-6.392a25.107,25.107,0,0,0-.9-2.5s-1.1,4.692-1.7,4.392-1.1-1.9-.994-3.794a16.963,16.963,0,0,1,1.1-4.392s-8.29-19.079-9.091-21.976-7.188-34.561-7.188-34.561,15.781,6.6,16.279,8.391,1.6,4.793,1.5,13.985-.5,10.684-.5,10.684,4,23.077,4.3,23.376a10.3,10.3,0,0,1,2.3,4.692A10.624,10.624,0,0,1,231.545,315.738Z" transform="translate(-174.358 -220.299)" fill="#962e09"/>
          <path id="Trazado_109149" data-name="Trazado 109149" d="M197.06,301.21s.9,28.067.7,28.566-3.63,10.255-3.73,13.351,1.931,24.4,2.131,25.2-5.093,9.189-5.093,10.488,3.695,1.9,5.893,1.9,3.1-.1,3.3-.6.7-11.586.7-12.486,3.2-21.874,4.1-26.768a25.8,25.8,0,0,0-.2-9.489s3.9-23.272,4.395-30.365-7.091-6.792-9.189-5.093S197.06,301.21,197.06,301.21Z" transform="translate(-178.431 -209.066)" fill="#962e09"/>
          <path id="Trazado_109150" data-name="Trazado 109150" d="M206.307,297.4s4.095,33.361,3.995,33.86-1.9,11.586-1.8,13.385,5.393,22.74,5.193,23.639-1.6,7.625-.6,8.823,19.078,1.7,19.976,1-.4-3.1-2.8-3.6-2.2-.2-2.2-.2-8.19-5.726-8.491-7.124-1.731-34.626-1.731-34.626a234.389,234.389,0,0,0,1.2-24.239c-.2-10.987-1.466-15.415-1.466-15.415Z" transform="translate(-174.693 -209.556)" fill="#962e09"/>
          <g id="Grupo_61957" data-name="Grupo 61957" transform="translate(23.656 19.795)">
            <path id="Trazado_109151" data-name="Trazado 109151" d="M210.3,251.167c-.133-1-.2-5.793-.2-5.793l-9.989-3.395c-.006.665-.041,3.746-.168,6.242a7.419,7.419,0,0,0,4.23,2.946,20.034,20.034,0,0,0,6.3.313A.62.62,0,0,1,210.3,251.167Z" transform="translate(-199.911 -241.845)" fill="#c1b1b3" style="mix-blend-mode: multiply;isolation: isolate"/>
            <path id="Trazado_109152" data-name="Trazado 109152" d="M199.917,241.938l.2.067v-.135Z" transform="translate(-199.917 -241.871)" fill="#c1b1b3" style="mix-blend-mode: multiply;isolation: isolate"/>
          </g>
          <path id="Trazado_109153" data-name="Trazado 109153" d="M197.345,232.024c-.8.933-.666,9.123.4,11.188s4.794,8.855,6.859,9.588,7.657.734,8.39-.332,2.731-10.52,3.063-13.984-.267-8.457-2.264-9.255S198.143,231.092,197.345,232.024Z" transform="translate(-177.018 -225.214)" fill="#962e09"/>
          <path id="Trazado_109154" data-name="Trazado 109154" d="M198.342,243.407a4.213,4.213,0,0,0,2.264-3.03,14.991,14.991,0,0,0-.267-5.793,28.286,28.286,0,0,0,10.055,1.2c4.6-.533,5.377-1.565,5.377-1.565s.25,1.349.5,3.247a39.683,39.683,0,0,1,.1,5.244s1.05-5.344,1.249-6.792a7.357,7.357,0,0,0,.05-2.2,4.241,4.241,0,0,0,1.1-2.4c.244-2.387-.549-4.645-3.645-5.144s-9.939,2-9.939,2,.986-2.267-.6-2.2c-2.3.1-6.742,5.543-6.742,5.543s-2.347-1.648-3.646-.7-.3,3.279.7,4.695c.949,1.349,1.4,1.948,1.4,1.948a1.458,1.458,0,0,0-1.748,1.4c-.2,1.7,1.1,3.745,1.649,4.445S198.342,243.407,198.342,243.407Z" transform="translate(-177.815 -225.976)" fill="#431202"/>
          <path id="Trazado_109155" data-name="Trazado 109155" d="M199.213,239.666s-2.33-2.463-3.661-2.064-.356,6.009.865,6.059a3.454,3.454,0,0,0,3-2.131A2.316,2.316,0,0,0,199.213,239.666Z" transform="translate(-177.488 -223.134)" fill="#962e09"/>
          <path id="Trazado_109156" data-name="Trazado 109156" d="M220.034,252.093l-1.8-.743c-.853,3.684-3.243,9.1-9.915,8.968-8.1-.161-11.758-6.959-12.883-9.626l-4.23,1.468c2.9,2.847,3.9,7.71,4,11.6.062,2.643-.426,6.554-2.6,8.281l0,.03c.4,1.931,4.184,17.591,5.327,20.244a27.428,27.428,0,0,0,9.278,2.137c5.7.526,12.3.037,12.829-.939l.266.2c0-1.636,2.539-22.424,2.837-25.715C221.989,262.27,221.5,258.419,220.034,252.093Z" transform="translate(-178.399 -219.913)" fill="#fadee1"/>
          <g id="Grupo_61958" data-name="Grupo 61958" transform="translate(30.366 50.46)">
            <path id="Trazado_109157" data-name="Trazado 109157" d="M205.494,268.074a37.49,37.49,0,0,1,5.6-.781c1.207-.125,2.415-.238,3.624-.331a28.3,28.3,0,0,0,2.943-.247c.11-.02.068-.167-.024-.178a16.032,16.032,0,0,0-3.07.121q-1.857.149-3.711.35a36.917,36.917,0,0,0-5.446.771.153.153,0,0,0,.081.3Z" transform="translate(-205.305 -266.495)" fill="#d7cdce"/>
          </g>
          <g id="Grupo_61959" data-name="Grupo 61959" transform="translate(22.075 52.676)">
            <path id="Trazado_109158" data-name="Trazado 109158" d="M198.8,268.644c.28,0,.559.027.839.025a2.454,2.454,0,0,0,.417-.029,1,1,0,0,0,.4-.153c.086-.057.062-.219-.057-.212-.063.005-.127,0-.191.009s-.13.02-.2.026c-.133.012-.267.025-.4.029-.27.006-.54-.009-.811-.005a.155.155,0,0,0,0,.31Z" transform="translate(-198.647 -268.275)" fill="#d7cdce"/>
          </g>
          <g id="Grupo_61960" data-name="Grupo 61960" transform="translate(21.411 123.539)" style="mix-blend-mode: multiply;isolation: isolate">
            <path id="Trazado_109159" data-name="Trazado 109159" d="M198.3,325.761a4.968,4.968,0,0,0,1.275-.014,2.721,2.721,0,0,0,1.182-.33c.078-.051.082-.2-.029-.22a3.529,3.529,0,0,0-1.188.128,4.713,4.713,0,0,1-1.24.073.183.183,0,0,0-.182.181.186.186,0,0,0,.182.182Z" transform="translate(-198.114 -325.178)" fill="#c1b1b3"/>
          </g>
          <g id="Grupo_61961" data-name="Grupo 61961" transform="translate(23.405 124.421)" style="mix-blend-mode: multiply;isolation: isolate">
            <path id="Trazado_109160" data-name="Trazado 109160" d="M199.9,326.256c.113,0,.225,0,.339-.009l.171-.019a.406.406,0,0,0,.1-.021l.083-.03a.111.111,0,0,0,0-.212l-.083-.03a.4.4,0,0,0-.1-.021l-.171-.017a3.085,3.085,0,0,0-.339-.01.184.184,0,1,0,0,.369Z" transform="translate(-199.715 -325.887)" fill="#c1b1b3"/>
          </g>
          <g id="Grupo_61962" data-name="Grupo 61962" transform="translate(40.844 122.475)" style="mix-blend-mode: multiply;isolation: isolate">
            <path id="Trazado_109161" data-name="Trazado 109161" d="M213.911,324.782a7.689,7.689,0,0,0,.794.012,1.783,1.783,0,0,0,.406-.056,1.246,1.246,0,0,0,.188-.066.952.952,0,0,0,.167-.125.13.13,0,0,0-.09-.219c-.057,0-.115-.008-.171,0s-.116.017-.173.024c-.133.012-.235.032-.366.041-.252.019-.5.012-.756.007a.192.192,0,0,0,0,.385Z" transform="translate(-213.719 -324.324)" fill="#c1b1b3"/>
          </g>
          <g id="Grupo_61963" data-name="Grupo 61963" transform="translate(18.517 168.124)" style="mix-blend-mode: multiply;isolation: isolate">
            <path id="Trazado_109162" data-name="Trazado 109162" d="M196.187,364.007c.04-.481.065-.969.133-1.447s.22-.94.309-1.413a.134.134,0,0,0-.222-.128,2.254,2.254,0,0,0-.569,1.427,8.081,8.081,0,0,0-.021,1.562.185.185,0,0,0,.37,0Z" transform="translate(-195.79 -360.981)" fill="#c1b1b3"/>
          </g>
          <g id="Grupo_61964" data-name="Grupo 61964" transform="translate(16.088 168.758)" style="mix-blend-mode: multiply;isolation: isolate">
            <path id="Trazado_109163" data-name="Trazado 109163" d="M194.127,363.683a4.051,4.051,0,0,1,.142-1.078c.045-.172.1-.342.162-.511q.047-.123.1-.247a.631.631,0,0,0,.054-.262.1.1,0,0,0-.168-.07,1.114,1.114,0,0,0-.259.482,5.576,5.576,0,0,0-.171.548,4.274,4.274,0,0,0-.143,1.137.143.143,0,0,0,.286,0Z" transform="translate(-193.84 -361.49)" fill="#c1b1b3"/>
          </g>
          <g id="Grupo_61965" data-name="Grupo 61965" transform="translate(14.301 168.513)" style="mix-blend-mode: multiply;isolation: isolate">
            <path id="Trazado_109164" data-name="Trazado 109164" d="M192.86,362.694c.039-.107.077-.214.118-.321.02-.052.04-.1.061-.157l.015-.037c.024-.059-.011.025,0-.009l.036-.082c.046-.1.1-.194.147-.293.024-.051.052-.1.077-.148a1.239,1.239,0,0,0,.057-.174.143.143,0,0,0-.051-.151.15.15,0,0,0-.159-.011.567.567,0,0,0-.163.092,1.129,1.129,0,0,0-.107.124,1.623,1.623,0,0,0-.2.34c-.107.23-.193.468-.283.7a.232.232,0,0,0,.161.283.237.237,0,0,0,.284-.161Z" transform="translate(-192.404 -361.293)" fill="#c1b1b3"/>
          </g>
          <g id="Grupo_61966" data-name="Grupo 61966" transform="translate(41.33 156.512)" style="mix-blend-mode: multiply;isolation: isolate">
            <path id="Trazado_109165" data-name="Trazado 109165" d="M214.125,351.913a6.808,6.808,0,0,0,.025,1.244,2.651,2.651,0,0,0,.151.635c.09.225.209.478.479.5a.179.179,0,0,0,.157-.09.772.772,0,0,0-.057-.608c-.059-.181-.11-.367-.152-.553a4.692,4.692,0,0,1-.09-1.128.257.257,0,0,0-.513,0Z" transform="translate(-214.109 -351.656)" fill="#c1b1b3"/>
          </g>
          <g id="Grupo_61967" data-name="Grupo 61967" transform="translate(54.297 90.689)" style="mix-blend-mode: multiply;isolation: isolate">
            <path id="Trazado_109166" data-name="Trazado 109166" d="M225.388,304.7a13.378,13.378,0,0,1-.072,1.375c-.121.044-.2.069-.2.069a1.822,1.822,0,0,1-.149.129c.015-.222.044-.443.064-.661.029-.376.044-.748.057-1.125a14.633,14.633,0,0,0,.015-1.6,37.846,37.846,0,0,0-.575-3.954c-.024-.136.174-.193.208-.059a21.862,21.862,0,0,1,.686,4.012A14.994,14.994,0,0,1,225.388,304.7Z" transform="translate(-224.521 -298.799)" fill="#c1b1b3"/>
          </g>
          <g id="Grupo_61968" data-name="Grupo 61968" transform="translate(55.873 90.223)" style="mix-blend-mode: multiply;isolation: isolate">
            <path id="Trazado_109167" data-name="Trazado 109167" d="M226.555,303.153a18.717,18.717,0,0,1-.208,1.941c-.01.054-.015.106-.024.164a3.7,3.7,0,0,1-.43.536c.067-.255.12-.517.163-.777a18.022,18.022,0,0,0,.213-1.912,13.039,13.039,0,0,0-.478-4.568c-.034-.116.141-.159.179-.047A11.347,11.347,0,0,1,226.555,303.153Z" transform="translate(-225.788 -298.426)" fill="#c1b1b3"/>
          </g>
          <g id="Grupo_61969" data-name="Grupo 61969" transform="translate(6.077 95.224)" style="mix-blend-mode: multiply;isolation: isolate">
            <path id="Trazado_109168" data-name="Trazado 109168" d="M188.932,309.646s.03.164-.245.193c-.141-.178-.275-.356-.406-.545a13.641,13.641,0,0,1-1.183-2.239,21.643,21.643,0,0,1-1.294-4.432c-.034-.183.237-.26.275-.077a26.986,26.986,0,0,0,1.366,4.393C187.784,307.716,188.932,309.646,188.932,309.646Z" transform="translate(-185.801 -302.441)" fill="#c1b1b3"/>
          </g>
          <g id="Grupo_61970" data-name="Grupo 61970" transform="translate(7.675 94.655)" style="mix-blend-mode: multiply;isolation: isolate">
            <path id="Trazado_109169" data-name="Trazado 109169" d="M190.611,309.7a.6.6,0,0,1-.086.372c-.068-.082-.126-.164-.184-.237a10.553,10.553,0,0,1-.651-.946,18.274,18.274,0,0,1-1.193-2.313,17.978,17.978,0,0,1-1.41-4.374c-.034-.213.28-.31.329-.092a22.643,22.643,0,0,0,1.391,4.286C189.154,307.167,190.611,309.7,190.611,309.7Z" transform="translate(-187.084 -301.984)" fill="#c1b1b3"/>
          </g>
          <g id="Grupo_61971" data-name="Grupo 61971" transform="translate(9.335 94.136)" style="mix-blend-mode: multiply;isolation: isolate">
            <path id="Trazado_109170" data-name="Trazado 109170" d="M191.453,308.78a1.357,1.357,0,0,1-.092.352c-.082-.121-.159-.252-.232-.367-.193-.3-.372-.608-.54-.922-.3-.56-.56-1.139-.836-1.709a18.2,18.2,0,0,1-1.333-4.37c-.044-.2.255-.284.3-.082a21.344,21.344,0,0,0,1.386,4.306C190.391,306.559,191.453,308.78,191.453,308.78Z" transform="translate(-188.417 -301.567)" fill="#c1b1b3"/>
          </g>
          <path id="Trazado_109171" data-name="Trazado 109171" d="M196.874,283.739a47.664,47.664,0,0,0,12.985,1.864,48.571,48.571,0,0,0,9.788-.8s1.066,7.124,1.532,11.786.732,9.189.732,9.189a24.387,24.387,0,0,1-6.193,1.4,22.794,22.794,0,0,1-5.793.133l-.732-7.325-.732,6.859a29.8,29.8,0,0,1-6.593.4,31.165,31.165,0,0,1-6.058-.865s-1.466-7.858-1.4-11.321C194.481,291.332,196.874,283.739,196.874,283.739Z" transform="translate(-177.612 -211.805)" fill="#7986cb"/>
          <g id="Grupo_61972" data-name="Grupo 61972" transform="translate(34.806 16.432)">
            <path id="Trazado_109172" data-name="Trazado 109172" d="M209.951,240.55a1.2,1.2,0,0,1-1.081-1.213l.807-.064c.024.3.181.462.281.467a.152.152,0,0,0,.09-.059.627.627,0,0,0,.113-.447l.807-.064a1.422,1.422,0,0,1-.306,1.036.934.934,0,0,1-.64.34Z" transform="translate(-208.87 -239.171)" fill="#28121e"/>
          </g>
          <g id="Grupo_61973" data-name="Grupo 61973" transform="translate(28.461 16.678)">
            <path id="Trazado_109173" data-name="Trazado 109173" d="M204.856,240.747a1.2,1.2,0,0,1-1.081-1.213l.807-.064c.022.3.186.453.281.467a.15.15,0,0,0,.088-.059.621.621,0,0,0,.115-.447l.807-.064a1.433,1.433,0,0,1-.305,1.036.942.942,0,0,1-.643.34Z" transform="translate(-203.775 -239.368)" fill="#28121e"/>
          </g>
          <g id="Grupo_61974" data-name="Grupo 61974" transform="translate(26.695 13.531)">
            <path id="Trazado_109174" data-name="Trazado 109174" d="M202.868,238.444l-.511-.767a5.127,5.127,0,0,1,4.823-.372l-.411.824A4.226,4.226,0,0,0,202.868,238.444Z" transform="translate(-202.357 -236.842)" fill="#792304"/>
          </g>
          <g id="Grupo_61975" data-name="Grupo 61975" transform="translate(32.425 13.018)">
            <path id="Trazado_109175" data-name="Trazado 109175" d="M207.9,243.9l-.183-.9a.974.974,0,0,0,.375-.122c-.034-.036-.215-.392-.375-.7-.137-.266-.3-.58-.463-.951a3.367,3.367,0,0,1-.176-.483,3.289,3.289,0,0,1,.491-2.783,3.6,3.6,0,0,1,2.7-1.517,4.436,4.436,0,0,1,2.316.447l-.411.826a3.407,3.407,0,0,0-1.839-.351,2.674,2.674,0,0,0-2.009,1.126,2.339,2.339,0,0,0-.356,2,2.411,2.411,0,0,0,.128.352c.159.356.313.656.443.91.345.674.572,1.12.361,1.558A1.3,1.3,0,0,1,207.9,243.9Z" transform="translate(-206.958 -236.429)" fill="#792304"/>
          </g>
          <g id="Grupo_61976" data-name="Grupo 61976" transform="translate(29.732 21.859)">
            <path id="Trazado_109176" data-name="Trazado 109176" d="M204.8,243.529a2,2,0,1,0,3.994,0Z" transform="translate(-204.796 -243.529)" fill="#fff"/>
          </g>
        </g>
      </g>
      <g id="Grupo_61996" data-name="Grupo 61996" transform="translate(352.532 0)">
        <ellipse id="Elipse_4154" data-name="Elipse 4154" cx="28.46" cy="76.582" rx="28.46" ry="76.582" transform="translate(2.073 11.901)" fill="#f3f9ff"/>
        <g id="Grupo_61989" data-name="Grupo 61989">
          <path id="Trazado_109177" data-name="Trazado 109177" d="M323.705,297.147s-.133,17.979,1.066,25.037,2,8.123,2,8.123.4,11.986,1.6,22.773,1.732,16.514,1.732,16.514-8.524,6.26-9.855,6.925-5.061,0-5.194,1.066-.4,3.462,4.928,3.2,12.652-.532,15.581-.8,4.794-.4,5.327-2.664-.933-5.461-1.731-6.259,5.593-23.439,5.593-29.167-3.995-12.518-3.995-12.518,4.928-19.844,6.259-27.036-13.317-15.981-17.312-13.317S323.972,296.48,323.705,297.147Z" transform="translate(-314.998 -204.205)" fill="#ff926d"/>
          <path id="Trazado_109178" data-name="Trazado 109178" d="M322.868,284.488s-.9,7.291-.9,10.887-.3,10.888-.3,10.888a55.3,55.3,0,0,0,10.588,2.1,101.081,101.081,0,0,0,13.284,1.1s2.3-19.677-2.1-21.875S322.868,284.488,322.868,284.488Z" transform="translate(-313.361 -205.198)" fill="#ba68c8"/>
          <path id="Trazado_109179" data-name="Trazado 109179" d="M337.069,295.5s2.131,18.179,5.594,27.1,4.794,11.985,4.794,11.985,9.589,16.848,12.651,22.307a90.158,90.158,0,0,1,4.528,9.056s-3.862,9.989-4.395,10.388-5.326.133-5.326,1.331.8,3.2,4.261,2.93a20.9,20.9,0,0,0,4.928-.8s5.593-3.995,7.324-5.593c1.532-1.413,6.26-3.862,5.194-7.192a8.315,8.315,0,0,0-3.6-4.661s-3.063-23.706-5.994-28.634-5.859-6.792-5.859-6.792,2.4-26.368,1.065-31.7S338.135,291.907,337.069,295.5Z" transform="translate(-309.583 -203.362)" fill="#ff926d"/>
          <path id="Trazado_109180" data-name="Trazado 109180" d="M335.465,293.52s1.8,12.185,2.3,13.685,1,2.6,1,2.6a70.762,70.762,0,0,0,14.284-1.3,47.838,47.838,0,0,0,11.286-3.5s.2-10.288-1.1-15.782a42.412,42.412,0,0,0-3.4-9.388S342.856,294.319,335.465,293.52Z" transform="translate(-309.977 -206.339)" fill="#ba68c8"/>
          <path id="Trazado_109181" data-name="Trazado 109181" d="M341.252,243.983c-.3,0-9.689,4.1-14.383,9.189s-5.793,12.286-5.992,17.879a63.114,63.114,0,0,0,.4,9.889s15.083-5.694,20.377-15.682S341.252,243.983,341.252,243.983Z" transform="translate(-313.566 -215.135)" fill="#ff926d"/>
          <path id="Trazado_109182" data-name="Trazado 109182" d="M341.014,240.151s-.2,5.095-.6,5.494-11.087,8.69-12.884,14.083-.7,7.99-.7,7.99-6.392,9.39-6.991,17.98,2.6,17.279,16.18,20.076,22.673-3.9,26.769-8.789S367.782,283.7,367.682,281s8-22.474,3-27.269c-4.844-4.644-17.179-7.59-17.179-7.59l-.3-6.493S344.709,243.048,341.014,240.151Z" transform="translate(-313.827 -216.197)" fill="#ff926d"/>
          <path id="Trazado_109183" data-name="Trazado 109183" d="M338.943,243.739a16.02,16.02,0,0,0,7.371.578,11.115,11.115,0,0,0,2.878-1.031l.022-.012-.167-3.621s-8.491,3.4-12.185.5c0,0-.056,1.432-.169,2.837C337.435,243.263,338.182,243.522,338.943,243.739Z" transform="translate(-309.675 -216.197)" fill="#c1b1b3" style="mix-blend-mode: multiply;isolation: isolate"/>
          <path id="Trazado_109184" data-name="Trazado 109184" d="M336.242,225.076s-5.767,10.786-5.126,15.164,8.116,7.689,15.484,7.369,10.039-9.29,10.251-11.533-.948-9.3-5.326-11.438S338.164,222.513,336.242,225.076Z" transform="translate(-311.056 -220.26)" fill="#ff926d"/>
          <path id="Trazado_109185" data-name="Trazado 109185" d="M351.061,234.805a3.678,3.678,0,0,1,3.631.107c1.709,1.174,0,4.379-1.923,4.271a4.011,4.011,0,0,1-2.883-1.389Z" transform="translate(-306.439 -217.495)" fill="#ff926d"/>
          <path id="Trazado_109186" data-name="Trazado 109186" d="M369.5,272.471c-3.248.293-6.542-1.787-9.611-7.26-3.959-7.056-1.173-16.254-.325-18.67-.9-.309-1.748-.583-2.513-.816-.5,1.677-.691,4.537-3.755,6.867-2.823,2.148-9.555,5.628-14.949,1.732s-.8-8.924-.8-8.924l-1.7.843c-2.4,2.776-6.982,8.061-8.32,12.076-1.8,5.393-.7,7.99-.7,7.99s-6.392,9.39-6.991,17.98,2.6,17.279,16.18,20.076,22.673-3.9,26.769-8.789,5.527-11.52,5.427-14.217C368.182,280.467,369.013,277.5,369.5,272.471Z" transform="translate(-313.827 -214.787)" fill="#fadee1"/>
          <path id="Trazado_109187" data-name="Trazado 109187" d="M373.368,301.95c-1.694,6.184-2.524,7.628-2.524,7.628a21.949,21.949,0,0,1-.126,5.5c-.463,2.824-.864,3.21-1.631,3.944a3.568,3.568,0,0,1-1.01.743.8.8,0,0,1-.163.057,2.731,2.731,0,0,1-.309.585l-.01.014a.779.779,0,0,1-.455.324c-.366.057-.55-.039-.646-.154a.482.482,0,0,1-.1-.29s-.035.049-.1.131l0,0c-.232.3-.826.994-1.3.859a.888.888,0,0,1-.526-.743,2.36,2.36,0,0,1-.049-.445v-.057a1.227,1.227,0,0,1-.623.4.867.867,0,0,1-.97-1.178c.24-1.087.927-3.442,1.24-5.162a12.171,12.171,0,0,0,.285-2.413,1.4,1.4,0,0,0-.936,1.347c-.044,1.1-.44,3.219-1,1.95s-1.559-3.225-.941-4.954a17.339,17.339,0,0,1,2.212-3.808l-.285-21.99s-9.091-17.95-10.712-24.472,4.359-15.015,11.746-7.179,10.427,28.884,10.5,30.284S375.063,295.766,373.368,301.95Z" transform="translate(-305.819 -213.794)" fill="#ff926d"/>
          <g id="Grupo_61979" data-name="Grupo 61979" transform="translate(14.288 51.645)" style="mix-blend-mode: multiply;isolation: isolate">
            <path id="Trazado_109188" data-name="Trazado 109188" d="M326.582,262.6a45.608,45.608,0,0,0,5.229,1.093q1.309.194,2.626.321a6.692,6.692,0,0,0,2.695.047.138.138,0,0,0,.01-.263,7.533,7.533,0,0,0-2.481-.273q-1.319-.1-2.631-.26a48.72,48.72,0,0,1-5.35-.976c-.2-.047-.3.254-.1.31Z" transform="translate(-326.471 -262.289)" fill="#d7cdce"/>
          </g>
          <g id="Grupo_61980" data-name="Grupo 61980" transform="translate(27.489 53.178)" style="mix-blend-mode: multiply;isolation: isolate">
            <path id="Trazado_109189" data-name="Trazado 109189" d="M337.286,263.966l.814.024c.133,0,.266,0,.4,0l.192-.006a.729.729,0,0,0,.229-.052.129.129,0,0,0,.01-.247.771.771,0,0,0-.208-.069c-.069-.009-.138-.015-.207-.022-.133-.015-.265-.025-.4-.031l-.814-.042a.223.223,0,0,0-.017.446Z" transform="translate(-337.072 -263.52)" fill="#d7cdce"/>
          </g>
          <g id="Grupo_61981" data-name="Grupo 61981" transform="translate(33.654 53.841)" style="mix-blend-mode: multiply;isolation: isolate">
            <path id="Trazado_109190" data-name="Trazado 109190" d="M342.179,264.425c1.872.159,3.721.5,5.6.611a18.46,18.46,0,0,0,2.777-.019c.669-.062,1.733-.081,2.191-.641a.2.2,0,0,0-.106-.293,2.242,2.242,0,0,0-1.037.108,10.479,10.479,0,0,1-1.349.2,19.49,19.49,0,0,1-2.71.005c-1.788-.1-3.559-.306-5.352-.31a.17.17,0,0,0-.014.339Z" transform="translate(-342.022 -264.053)" fill="#d7cdce"/>
          </g>
          <path id="Trazado_109191" data-name="Trazado 109191" d="M355.568,226.992a1.726,1.726,0,0,0-1.638.148,8.892,8.892,0,0,0-5.854-5.777,11.139,11.139,0,0,0-2.694-.516,10.777,10.777,0,0,0-5.92,1.073,14.239,14.239,0,0,0-5.07,4.877,17.518,17.518,0,0,0-2.493,6.628,33.117,33.117,0,0,1,8.112-4.811,33.707,33.707,0,0,1,6.319-1.56,18.3,18.3,0,0,1,3.854-.154c-2.524,1.325-3.39,2.091-4.3,4.235.929-.3,1.777-.877,2.733-1.161a14.956,14.956,0,0,1,2.519-.624c.6-.067,1.214-.025,1.821-.037a17.578,17.578,0,0,0-.234,2.523,15.287,15.287,0,0,0,2.5,8.54s1.948-2.147,2.3-7.291C357.7,230.334,357.066,227.442,355.568,226.992Z" transform="translate(-310.851 -220.818)" fill="#bb5a38"/>
          <g id="Grupo_61982" data-name="Grupo 61982" transform="translate(58.599 99.702)" style="mix-blend-mode: multiply;isolation: isolate">
            <path id="Trazado_109192" data-name="Trazado 109192" d="M364.255,301.847c-.107.4-.223.792-.344,1.188-.279.888-.593,1.767-.917,2.641-.285.757-.579,1.516-.893,2.264a2.36,2.36,0,0,1-.049-.445c.26-.656.517-1.313.758-1.974.318-.855.618-1.719.888-2.593.111-.367.222-.733.314-1.106a4.221,4.221,0,0,1,.255-.913.067.067,0,0,1,.121.015A2.413,2.413,0,0,1,364.255,301.847Z" transform="translate(-362.053 -300.879)" fill="#c1b1b3"/>
          </g>
          <g id="Grupo_61983" data-name="Grupo 61983" transform="translate(60.477 99.879)" style="mix-blend-mode: multiply;isolation: isolate">
            <path id="Trazado_109193" data-name="Trazado 109193" d="M365.883,301.107a6.686,6.686,0,0,1-.411,1.826c-.139.5-.285.994-.44,1.492-.237.767-.482,1.531-.767,2.288-.154.411-.319.826-.507,1.232a.482.482,0,0,1-.1-.29s-.035.049-.1.131c.169-.4.319-.811.463-1.217.26-.734.493-1.477.715-2.225.149-.517.294-1.039.44-1.554a7.426,7.426,0,0,1,.54-1.724A.088.088,0,0,1,365.883,301.107Z" transform="translate(-363.561 -301.021)" fill="#c1b1b3"/>
          </g>
          <g id="Grupo_61984" data-name="Grupo 61984" transform="translate(61.786 100.019)" style="mix-blend-mode: multiply;isolation: isolate">
            <path id="Trazado_109194" data-name="Trazado 109194" d="M366.475,303.3c-.174.6-.362,1.207-.574,1.8-.247.676-.517,1.342-.817,2a.8.8,0,0,1-.163.057,2.732,2.732,0,0,1-.309.585c.381-.889.738-1.8,1.066-2.7.208-.57.382-1.154.537-1.743a11.109,11.109,0,0,0,.24-1.111,6.983,6.983,0,0,1,.169-.989.073.073,0,0,1,.141,0A4.145,4.145,0,0,1,366.475,303.3Z" transform="translate(-364.612 -301.134)" fill="#c1b1b3"/>
          </g>
          <g id="Grupo_61985" data-name="Grupo 61985" transform="translate(13.471 126.07)" style="mix-blend-mode: multiply;isolation: isolate">
            <path id="Trazado_109195" data-name="Trazado 109195" d="M325.93,322.616a4.626,4.626,0,0,0,2.487.638,3.909,3.909,0,0,0,2.339-.922.162.162,0,0,0-.157-.27,8.144,8.144,0,0,1-2.182.639,4.273,4.273,0,0,1-2.254-.482c-.263-.132-.493.253-.233.4Z" transform="translate(-325.815 -322.053)" fill="#c1b1b3"/>
          </g>
          <g id="Grupo_61986" data-name="Grupo 61986" transform="translate(38.846 125.804)" style="mix-blend-mode: multiply;isolation: isolate">
            <path id="Trazado_109196" data-name="Trazado 109196" d="M346.258,322.23a5.761,5.761,0,0,0,3.11,1.493,2.962,2.962,0,0,0,2.97-1.179.147.147,0,0,0-.2-.2,5.493,5.493,0,0,1-1.37.692,3.427,3.427,0,0,1-1.44.085,6.97,6.97,0,0,1-2.8-1.245c-.212-.144-.463.183-.274.355Z" transform="translate(-346.191 -321.839)" fill="#c1b1b3"/>
          </g>
          <g id="Grupo_61987" data-name="Grupo 61987" transform="translate(18.648 164.993)" style="mix-blend-mode: multiply;isolation: isolate">
            <path id="Trazado_109197" data-name="Trazado 109197" d="M330.287,355.742a1.888,1.888,0,0,0,1.132-.854,2.743,2.743,0,0,0,.308-.663c.031-.107.062-.215.083-.325a1.56,1.56,0,0,0,0-.4.2.2,0,0,0-.366-.1c-.05.1-.111.188-.156.286s-.078.217-.121.324c-.021.05,0-.01-.009.019l-.034.077c-.016.037-.032.075-.047.112-.026.066.015-.03-.012.03a3.054,3.054,0,0,1-.143.285,2.677,2.677,0,0,1-.163.249c0,.007-.051.068-.032.045s-.022.027-.027.032a1.577,1.577,0,0,1-.107.116,1.326,1.326,0,0,1-.107.1c-.014.011-.012.011,0,0l-.031.024-.055.037a1.091,1.091,0,0,1-.254.126.256.256,0,0,0-.173.306.253.253,0,0,0,.306.174Z" transform="translate(-329.972 -353.308)" fill="#c1b1b3"/>
          </g>
          <g id="Grupo_61988" data-name="Grupo 61988" transform="translate(59.784 159.659)" style="mix-blend-mode: multiply;isolation: isolate">
            <path id="Trazado_109198" data-name="Trazado 109198" d="M363.456,352.345a2.453,2.453,0,0,0,.547-1.553,6.483,6.483,0,0,0-.044-.808,4.764,4.764,0,0,0-.156-.859.141.141,0,0,0-.269,0,3.6,3.6,0,0,0-.1.785c-.015.254-.012.508-.03.762a2.874,2.874,0,0,1-.359,1.354c-.156.249.22.554.415.32Z" transform="translate(-363.004 -349.025)" fill="#c1b1b3"/>
          </g>
        </g>
        <g id="Grupo_61995" data-name="Grupo 61995" transform="translate(25.375 8.352)">
          <g id="Grupo_61990" data-name="Grupo 61990" transform="translate(0.374 3.18)">
            <path id="Trazado_109199" data-name="Trazado 109199" d="M335.8,230.75a.917.917,0,0,0,.252,1.238c.372.169.866-.11,1.1-.623a.917.917,0,0,0-.25-1.238C336.522,229.958,336.03,230.236,335.8,230.75Z" transform="translate(-335.674 -230.078)" fill="#28121e"/>
          </g>
          <g id="Grupo_61991" data-name="Grupo 61991" transform="translate(7.381 5.855)">
            <path id="Trazado_109200" data-name="Trazado 109200" d="M341.423,232.9a.914.914,0,0,0,.252,1.237c.372.171.864-.108,1.1-.621a.916.916,0,0,0-.252-1.238C342.149,232.105,341.657,232.384,341.423,232.9Z" transform="translate(-341.301 -232.226)" fill="#28121e"/>
          </g>
          <g id="Grupo_61992" data-name="Grupo 61992" transform="translate(6.826 3.11)">
            <path id="Trazado_109201" data-name="Trazado 109201" d="M345.05,232.972a4.883,4.883,0,0,0-4.076-1.869l-.12-1.047a5.85,5.85,0,0,1,5.044,2.289Z" transform="translate(-340.855 -230.022)" fill="#ff7454"/>
          </g>
          <g id="Grupo_61993" data-name="Grupo 61993">
            <path id="Trazado_109202" data-name="Trazado 109202" d="M337.667,236.941a1.494,1.494,0,0,1-.843-1.027c-.055-.554.364-.945,1-1.535.239-.224.522-.486.831-.8a3.081,3.081,0,0,0,.278-.331,2.68,2.68,0,0,0,.4-2.3,3.069,3.069,0,0,0-1.721-2,3.975,3.975,0,0,0-2.117-.341l-.12-1.047a5.024,5.024,0,0,1,2.669.426,4.117,4.117,0,0,1,2.308,2.686,3.763,3.763,0,0,1-.56,3.187,3.967,3.967,0,0,1-.377.452c-.325.335-.62.609-.872.843a5.051,5.051,0,0,0-.655.672c.045,0,.121.086.332.215Z" transform="translate(-335.374 -227.524)" fill="#ff7454"/>
          </g>
          <g id="Grupo_61994" data-name="Grupo 61994" transform="translate(0.067 10.997)">
            <path id="Trazado_109203" data-name="Trazado 109203" d="M337.2,238.491a3.053,3.053,0,0,1-1.776-1.71l.966-.426A2.009,2.009,0,0,0,338.6,237.6l.2,1.039A3.143,3.143,0,0,1,337.2,238.491Z" transform="translate(-335.428 -236.355)" fill="#ff7454"/>
          </g>
        </g>
      </g>
      <g id="Grupo_62020" data-name="Grupo 62020" transform="translate(93.718 4.441)">
        <ellipse id="Elipse_4155" data-name="Elipse 4155" cx="28.46" cy="76.582" rx="28.46" ry="76.582" transform="translate(0 10.645)" fill="#f3f9ff"/>
        <g id="Grupo_62003" data-name="Grupo 62003" transform="translate(2.098)">
          <path id="Trazado_109204" data-name="Trazado 109204" d="M127.923,247.807c-.2.133-8.356,7.391-8.823,8.789s-.366,17.513-.3,19.443-1.532,15.249-1.6,16.914,6.925,3.263,10.255.266,7.058-21.309,6.525-26.3S127.923,247.807,127.923,247.807Z" transform="translate(-106.805 -218.638)" fill="#ffa181"/>
          <path id="Trazado_109205" data-name="Trazado 109205" d="M127.575,243.756s-.133,6.527-.4,6.726a18.223,18.223,0,0,0-2.6,6.126c-.2,2.065.133,14.716-.267,17.779s-1.731,4.2-3.6,6.526-2.8,4.062-3.063,6.393a18.965,18.965,0,0,0,0,4.261s3.662,3.062,14.916,2.929,13.783-3.062,14.249-4.727a10.549,10.549,0,0,0-.066-4.994,11.329,11.329,0,0,0-1.265-3.2s-1.265-8.256-1.731-12.519-.533-8.456-.533-8.456l1-10.255a39.467,39.467,0,0,0-5.194-1.6c-3.263-.8-3.6-.866-3.6-.866l-.2-3.863S128.973,241.625,127.575,243.756Z" transform="translate(-106.723 -219.848)" fill="#ffa181"/>
          <path id="Trazado_109206" data-name="Trazado 109206" d="M116.586,298.1s-.665,14.117.266,21.042,2.4,13.052,2.4,13.052,1.732,35.957,1.6,36.357-5.594,4.528-7.591,5.992-4.128.533-4.395,1.865,4.928,1.465,11.053.932,9.589-.4,10.388-1.2.665-3.2-.4-5.061-1.332-2.264-1.332-2.264,3.063-11.986,2.53-20.642a135.263,135.263,0,0,0-2.53-17.779s2.8-29.233,3.33-32.828S118.984,292.637,116.586,298.1Z" transform="translate(-108.853 -207.2)" fill="#ffa181"/>
          <path id="Trazado_109207" data-name="Trazado 109207" d="M129.073,299.019s.133,16.381,1.731,24.637,2.2,8.791,2.2,8.791,6.725,34.36,6.458,34.759-4.406,6.776-5.563,7.061-4.022-.019-4.605,1.351,1.07,2.22,4.594,2.333,8.638-2.355,10.768-2.488,4.062-.066,5.127-1.532.334-3.4-.732-5.394c-.715-1.34-1.464-3.063-1.464-3.063a55.1,55.1,0,0,0,.266-18.112,105.391,105.391,0,0,0-5.327-18.112s3.463-29.165,2.8-32.229S129.206,294.225,129.073,299.019Z" transform="translate(-103.893 -207.057)" fill="#ffa181"/>
          <path id="Trazado_109208" data-name="Trazado 109208" d="M146.753,283.569a11.329,11.329,0,0,0-1.265-3.2s-1.265-8.256-1.731-12.519c-.075-.675-.137-1.347-.192-2a8.346,8.346,0,0,1-1.09-1.76c-2.254-4.964-1.342-10.665-.017-15.779-.645-.209-1.524-.27-2.467-.521-.006.073-.014.147-.02.219-.086.9-.212,1.806-.371,2.7a21.738,21.738,0,0,1-1.2,4.425,8.346,8.346,0,0,1-4.208,4.8,5.764,5.764,0,0,1-5.919-.727,8.553,8.553,0,0,1-2.3-5.029,20.363,20.363,0,0,1-.235-2.284,12.631,12.631,0,0,0-1.157,3.509c-.2,2.065.133,14.716-.267,17.779s-1.731,4.2-3.6,6.526-2.8,4.062-3.063,6.393a18.965,18.965,0,0,0,0,4.261s3.662,3.062,14.916,2.929,13.783-3.062,14.249-4.727A10.549,10.549,0,0,0,146.753,283.569Z" transform="translate(-106.723 -218.642)" fill="#fadee1"/>
          <path id="Trazado_109209" data-name="Trazado 109209" d="M124.421,249.2a31.309,31.309,0,0,0,.133,3.929,31.4,31.4,0,0,0,.9,3.562l-2.2,1.132-.466-7.058Z" transform="translate(-105.434 -218.297)" fill="#fadee1"/>
          <path id="Trazado_109210" data-name="Trazado 109210" d="M133.269,244.022s-6.259-2.4-7.657-.267c0,0-.024,1.2-.073,2.583a8.248,8.248,0,0,0,4,1.247,10.08,10.08,0,0,0,3.864-.948Z" transform="translate(-104.76 -219.848)" fill="#c1b1b3" style="mix-blend-mode: multiply;isolation: isolate"/>
          <path id="Trazado_109211" data-name="Trazado 109211" d="M135.477,237.705s4.329-2.2,4.994-.4-1.964,3.146-3.862,3.6c-2.207.523-1.864,0-1.864,0Z" transform="translate(-102.506 -221.387)" fill="#ffa181"/>
          <path id="Trazado_109212" data-name="Trazado 109212" d="M129.289,225.994a15.891,15.891,0,0,0-4.261,4.928c-1.665,3.062-2.863,11.187-3.063,13.584s1.864,3.995,4.261,4.794,5.027,2.2,8.124.2c3.811-2.458,5.66-8.057,6.193-9.987s2.463-9.523.932-11.121S132.086,223.663,129.289,225.994Z" transform="translate(-105.64 -224.193)" fill="#ffa181"/>
          <path id="Trazado_109213" data-name="Trazado 109213" d="M123.979,233.812c0-.266-1-3.129-1.731-2.4s-.933,5.127-.067,6.126,1.4,1.066,1.4,1.066Z" transform="translate(-105.724 -222.688)" fill="#ffa181"/>
          <path id="Trazado_109214" data-name="Trazado 109214" d="M117.991,282a34.449,34.449,0,0,0,15.183,2.264c9.122-.533,14.515-3.463,14.515-3.463a26.311,26.311,0,0,1,2.53,10.255,75.119,75.119,0,0,1-.665,13.518s-2.8,1.2-9.589,1.4a45.433,45.433,0,0,1-7.591-.133l-1.132-8.057-.865,8.19a50.4,50.4,0,0,1-10.188-.666c-5.26-.933-5.66-1.466-5.66-1.466a106.054,106.054,0,0,1,1.465-14.116A71.474,71.474,0,0,1,117.991,282Z" transform="translate(-107.461 -210.544)" fill="#7b1fa2"/>
          <g id="Grupo_61997" data-name="Grupo 61997" transform="translate(18.985 47.785)" style="mix-blend-mode: multiply;isolation: isolate">
            <path id="Trazado_109215" data-name="Trazado 109215" d="M124.271,263.785a20.422,20.422,0,0,1,7.6-.31,28.019,28.019,0,0,1,3.814.752,17.755,17.755,0,0,0,3.336.938.118.118,0,0,0,.082-.2,7.9,7.9,0,0,0-3.254-1.335,26.168,26.168,0,0,0-3.879-.732,19.084,19.084,0,0,0-7.77.618.14.14,0,0,0,.075.269Z" transform="translate(-124.099 -262.756)" fill="#d7cdce"/>
          </g>
          <path id="Trazado_109216" data-name="Trazado 109216" d="M156.4,271.035c-2.218-4.731-7.379-12.127-10.524-16.591a38.858,38.858,0,0,0-2.56-3.685c-1.4-1.748-4.862-2.225-4.862-2.225-.822,1.1-1.481,9.766-.633,10.615.666.665,3.141,4.459,4.181,6.07,0,.05-.009.1-.011.148.376.564.753,1.153,1.125,1.773,3.3,5.493,6.992,12.086,6.992,12.086s-4.863,11.174-5.817,13.547c-.229-.054-3.524-.791-4.971.237-1.5,1.066-3.162,4.1-3.029,5.128s2.63-2.465,2.63-2.465-1.9,3.629-1.233,4.062,2.631-3.362,2.631-3.362-1.6,4.162-.766,4.162,2.1-3.364,2.1-3.364-1.166,3.929-.366,3.863.932-2.93,2.1-2.9,2.5,1.765,3.9.4a6.608,6.608,0,0,0,1.6-3.722c3.8-4.867,10.166-13.5,10.39-15.222C159.466,278.06,159.4,277.427,156.4,271.035Z" transform="translate(-102.123 -218.459)" fill="#ffa181"/>
          <g id="Grupo_61998" data-name="Grupo 61998" transform="translate(12.052 119.762)" style="mix-blend-mode: multiply;isolation: isolate">
            <path id="Trazado_109217" data-name="Trazado 109217" d="M118.708,325.268a2.693,2.693,0,0,0,2.2-1.76,10.931,10.931,0,0,0,.572-1.484,7.742,7.742,0,0,0,.362-1.336c.015-.13-.157-.171-.238-.1a2.863,2.863,0,0,0-.614,1.149c-.168.45-.305.912-.487,1.356-.329.808-.847,1.694-1.8,1.8-.23.026-.242.384,0,.37Z" transform="translate(-118.531 -320.554)" fill="#c1b1b3"/>
          </g>
          <g id="Grupo_61999" data-name="Grupo 61999" transform="translate(32.588 119.496)" style="mix-blend-mode: multiply;isolation: isolate">
            <path id="Trazado_109218" data-name="Trazado 109218" d="M135.347,325.52a4.713,4.713,0,0,0,2.127-2.132,13.494,13.494,0,0,0,.959-2.922.1.1,0,0,0-.187-.078,24.692,24.692,0,0,0-1.224,2.62,4.538,4.538,0,0,1-1.893,2.141c-.244.134-.029.493.218.371Z" transform="translate(-135.022 -320.34)" fill="#c1b1b3"/>
          </g>
          <g id="Grupo_62000" data-name="Grupo 62000" transform="translate(16.697 160.917)" style="mix-blend-mode: multiply;isolation: isolate">
            <path id="Trazado_109219" data-name="Trazado 109219" d="M122.927,356.595a5.167,5.167,0,0,0,.093-.786,6.6,6.6,0,0,0,.017-.831,2.354,2.354,0,0,0-.161-.8.8.8,0,0,0-.22-.362c.045.036.024.025,0-.014a.63.63,0,0,0-.062-.08.877.877,0,0,0-.138-.1c-.1-.069-.209.044-.188.144s.042.184.06.276v-.112a.843.843,0,0,0,.022.339c.012.091.012.184.019.276.015.229.031.458.032.687a6.207,6.207,0,0,0,.05,1.361.251.251,0,0,0,.481,0Z" transform="translate(-122.261 -353.601)" fill="#c1b1b3"/>
          </g>
          <g id="Grupo_62001" data-name="Grupo 62001" transform="translate(40.466 159.919)" style="mix-blend-mode: multiply;isolation: isolate">
            <path id="Trazado_109220" data-name="Trazado 109220" d="M141.377,352.86a.03.03,0,1,0,0-.06.03.03,0,0,0,0,.06Z" transform="translate(-141.348 -352.8)" fill="#c1b1b3"/>
          </g>
          <g id="Grupo_62002" data-name="Grupo 62002" transform="translate(40.395 158.024)" style="mix-blend-mode: multiply;isolation: isolate">
            <path id="Trazado_109221" data-name="Trazado 109221" d="M141.31,353.451c.012.022-.017.072-.019.1a.131.131,0,0,0,.047.111c.12.1.232.04.333-.049a1.843,1.843,0,0,0,.446-.634,4.475,4.475,0,0,0,.276-.791c.032-.131.062-.263.093-.394.015-.067.031-.136.042-.2a.765.765,0,0,0-.015-.219.128.128,0,0,0-.214-.056.751.751,0,0,0-.148.263c-.029.1-.052.2-.077.294-.052.2-.1.41-.163.613a3.017,3.017,0,0,1-.207.553c-.044.087-.092.174-.144.258s-.123.152-.179.234l.075-.059c-.072.025.017.118.042.08a.169.169,0,0,0,.012-.066.2.2,0,0,0-.037-.129.1.1,0,0,0-.163.1Z" transform="translate(-141.291 -351.278)" fill="#c1b1b3"/>
          </g>
          <path id="Trazado_109222" data-name="Trazado 109222" d="M123.084,236.406a52.618,52.618,0,0,1,2.964-6.659,12.874,12.874,0,0,1,1.431-1.931,4.677,4.677,0,0,0,4,2.763c3.1.3,7.19-.866,8.09-1.032a8.1,8.1,0,0,1,1.2-.166,14.929,14.929,0,0,0-2.831,6.758,13.753,13.753,0,0,0,.3,5.493,13.187,13.187,0,0,0,3.529-4.128c1.931-3.129,2.63-5.36,2.064-6.859a3.107,3.107,0,0,0-2.1-1.831s-4.029-4.562-8.557-4.428-5.56,2.264-5.56,2.264-.965-.665-2.53,1.965S123.084,236.406,123.084,236.406Z" transform="translate(-105.362 -224.384)" fill="#ffc94a"/>
        </g>
        <g id="Grupo_62019" data-name="Grupo 62019" transform="translate(19.864 8.665)">
          <g id="Grupo_62004" data-name="Grupo 62004" transform="translate(1.852 2.872)">
            <path id="Trazado_109223" data-name="Trazado 109223" d="M124.693,234.3a.838.838,0,0,0,.288,1.118c.347.137.783-.139.974-.62a.838.838,0,0,0-.288-1.118C125.32,233.546,124.882,233.824,124.693,234.3Z" transform="translate(-124.606 -233.648)" fill="#28121e"/>
          </g>
          <g id="Grupo_62005" data-name="Grupo 62005" transform="translate(8.374 4.988)">
            <path id="Trazado_109224" data-name="Trazado 109224" d="M129.93,236a.836.836,0,0,0,.288,1.117c.347.138.785-.139.974-.619a.839.839,0,0,0-.286-1.118C130.557,235.245,130.121,235.521,129.93,236Z" transform="translate(-129.843 -235.347)" fill="#28121e"/>
          </g>
          <g id="Grupo_62006" data-name="Grupo 62006" transform="translate(7.685 2.521)">
            <path id="Trazado_109225" data-name="Trazado 109225" d="M133.255,235.9a4.46,4.46,0,0,0-3.807-1.517l-.158-.951A5.354,5.354,0,0,1,134,235.285Z" transform="translate(-129.29 -233.366)" fill="#ff7454"/>
          </g>
          <g id="Grupo_62007" data-name="Grupo 62007" transform="translate(1.309)">
            <path id="Trazado_109226" data-name="Trazado 109226" d="M126.7,239.865a1.367,1.367,0,0,1-.817-.9c-.077-.5.288-.879.841-1.448.208-.215.455-.468.721-.773a2.75,2.75,0,0,0,.238-.315,2.444,2.444,0,0,0,.259-2.116,2.806,2.806,0,0,0-1.665-1.745,3.625,3.625,0,0,0-1.948-.213l-.158-.951a4.6,4.6,0,0,1,2.456.264,3.765,3.765,0,0,1,2.232,2.346,3.437,3.437,0,0,1-.364,2.935,3.57,3.57,0,0,1-.324.431c-.28.32-.537.584-.756.809a4.556,4.556,0,0,0-.567.645c.041-.005.115.072.314.181Z" transform="translate(-124.17 -231.342)" fill="#ff7454"/>
          </g>
          <g id="Grupo_62008" data-name="Grupo 62008" transform="translate(1.901 10.024)">
            <path id="Trazado_109227" data-name="Trazado 109227" d="M126.345,241.3a2.789,2.789,0,0,1-1.7-1.478l.862-.435a1.838,1.838,0,0,0,2.073,1.039l.228.938A2.862,2.862,0,0,1,126.345,241.3Z" transform="translate(-124.645 -239.391)" fill="#ff7454"/>
          </g>
          <g id="Grupo_62009" data-name="Grupo 62009" transform="translate(10.75 9.094)">
            <path id="Trazado_109228" data-name="Trazado 109228" d="M131.772,238.833a.3.3,0,1,0,.39-.168A.3.3,0,0,0,131.772,238.833Z" transform="translate(-131.751 -238.644)" fill="#ff7454"/>
          </g>
          <g id="Grupo_62010" data-name="Grupo 62010" transform="translate(9.23 9.478)">
            <path id="Trazado_109229" data-name="Trazado 109229" d="M130.54,239.034a.129.129,0,1,0,.167-.072A.13.13,0,0,0,130.54,239.034Z" transform="translate(-130.531 -238.953)" fill="#ff7454"/>
          </g>
          <g id="Grupo_62011" data-name="Grupo 62011" transform="translate(10.434 10.74)">
            <path id="Trazado_109230" data-name="Trazado 109230" d="M131.516,240.133a.263.263,0,1,0,.341-.148A.263.263,0,0,0,131.516,240.133Z" transform="translate(-131.497 -239.966)" fill="#ff7454"/>
          </g>
          <g id="Grupo_62012" data-name="Grupo 62012" transform="translate(12.193 10.182)">
            <path id="Trazado_109231" data-name="Trazado 109231" d="M132.92,239.61a.146.146,0,1,0,.189-.082A.146.146,0,0,0,132.92,239.61Z" transform="translate(-132.91 -239.518)" fill="#ff7454"/>
          </g>
          <g id="Grupo_62013" data-name="Grupo 62013" transform="translate(8.723 10.875)">
            <path id="Trazado_109232" data-name="Trazado 109232" d="M130.139,240.213a.221.221,0,1,0,.286-.123A.221.221,0,0,0,130.139,240.213Z" transform="translate(-130.124 -240.074)" fill="#ff7454"/>
          </g>
          <g id="Grupo_62014" data-name="Grupo 62014" transform="translate(8.004 8.282)">
            <path id="Trazado_109233" data-name="Trazado 109233" d="M129.561,238.117a.2.2,0,1,0,.255-.111A.2.2,0,0,0,129.561,238.117Z" transform="translate(-129.546 -237.992)" fill="#ff7454"/>
          </g>
          <g id="Grupo_62015" data-name="Grupo 62015" transform="translate(7.227 9.339)">
            <path id="Trazado_109234" data-name="Trazado 109234" d="M129.583,239.309a.342.342,0,1,0-.445.193A.343.343,0,0,0,129.583,239.309Z" transform="translate(-128.923 -238.841)" fill="#ff7454"/>
          </g>
          <g id="Grupo_62016" data-name="Grupo 62016" transform="translate(1.604 5.692)">
            <path id="Trazado_109235" data-name="Trazado 109235" d="M124.425,236.078a.262.262,0,1,0,.488.193.262.262,0,0,0-.488-.193Z" transform="translate(-124.407 -235.912)" fill="#ff7454"/>
          </g>
          <g id="Grupo_62017" data-name="Grupo 62017" transform="translate(0.034 6.958)">
            <path id="Trazado_109236" data-name="Trazado 109236" d="M123.851,237.428a.365.365,0,1,0-.473.205A.366.366,0,0,0,123.851,237.428Z" transform="translate(-123.146 -236.929)" fill="#ff7454"/>
          </g>
          <g id="Grupo_62018" data-name="Grupo 62018" transform="translate(0 5.548)">
            <path id="Trazado_109237" data-name="Trazado 109237" d="M123.134,235.932a.213.213,0,1,0,.276-.12A.213.213,0,0,0,123.134,235.932Z" transform="translate(-123.119 -235.797)" fill="#ff7454"/>
          </g>
        </g>
      </g>
      <ellipse id="Elipse_4156" data-name="Elipse 4156" cx="28.46" cy="76.582" rx="28.46" ry="76.582" transform="translate(3.395 15.194)" fill="#f3f9ff"/>
      <g id="Grupo_62049" data-name="Grupo 62049" transform="translate(0 1.369)">
        <g id="Grupo_62032" data-name="Grupo 62032">
          <g id="Grupo_62030" data-name="Grupo 62030">
            <g id="Grupo_62021" data-name="Grupo 62021" transform="translate(0 23.144)">
              <path id="Trazado_109238" data-name="Trazado 109238" d="M49.912,242.267a1.274,1.274,0,0,1,.207-.244l-.006-.156Z" transform="translate(-27.496 -240.167)" fill="#ed744d"/>
              <path id="Trazado_109239" data-name="Trazado 109239" d="M92.283,294.541a2.316,2.316,0,0,1-3.395-.5,4.362,4.362,0,0,1-1.7.2c-1.3,0-4.393-.4-4.393-.4l-.5,5a81.184,81.184,0,0,1-11.887,2.294c-8.487,1.2-23.37-1.2-23.37-1.2l.7-3.394s-5.3,2.5-9.193-.8-4.392-19.377-4.392-19.377a20.625,20.625,0,0,1-2.2-7.889c-.3-4.494.8-9.491,7.888-13.382a80.46,80.46,0,0,1,14.985-6.1l-.163-3.732-.131-2.9c2.148-2.037,14.275-1.853,14.275-1.853l.5,4.605.4,3.684s16.381,3.095,19.075,5.093,5.194,10.388,6.594,20.377S94.483,293.142,92.283,294.541Z" transform="translate(-31.912 -240.502)" fill="#ed744d"/>
            </g>
            <path id="Trazado_109240" data-name="Trazado 109240" d="M43.361,301.422a71.232,71.232,0,0,0,0,15.182c.8,6.127,2.264,15.716,2.264,15.716s-2.93,8.39-2.53,11.985,4.128,23.173,4.128,23.173-1.6,5.727-1.065,7.325,5.334,3.814,10.987,4.862c5.393,1,7.124,1.519,9.215.848,1.435-.46,3.215-2.874,1.5-3.846a19.677,19.677,0,0,0-3.826-1.558l-8.026-7.5s2-20.376,2.264-26.635-.133-7.591-.133-7.591.532-.533,1.6-4.261,2.53-24.106,2.664-26.5S45.892,296.894,43.361,301.422Z" transform="translate(-29.202 -202.964)" fill="#ed744d"/>
            <path id="Trazado_109241" data-name="Trazado 109241" d="M60.393,301.23s3.063,14.517,4.528,21.175,2.4,8.523,2.4,8.523-2.8,7.591-3.063,13.85,4.261,24.239,4.128,25.038-1.864,6.525-.532,8.256,21.042,1.2,22.507.4-.133-2.8-2-3.2a5.665,5.665,0,0,0-2.93,0s-7.325-5.593-7.991-7.058,2.664-35.026,3.2-38.088.833-21.109-1.432-28.966S60.926,295.771,60.393,301.23Z" transform="translate(-24.925 -203.704)" fill="#ed744d"/>
            <path id="Trazado_109242" data-name="Trazado 109242" d="M81.694,276.073c-.4-7.249-1.134-14.664-3.159-21.659a51.967,51.967,0,0,0-2.067-5.832c-.193-.455-.468-.408-.92-.489l-1.219-.219a.292.292,0,0,0-.355.355,6.969,6.969,0,0,1-1.177,6.6,12.491,12.491,0,0,1-6.651,3.824,19.835,19.835,0,0,1-16.087-3.111,50.37,50.37,0,0,1-6.32-5.445.365.365,0,0,0-.43-.055l-3.132,1.593a.363.363,0,0,0,0,.621,10.783,10.783,0,0,1,2.736,2.305,29.951,29.951,0,0,1,2.286,2.72,20.777,20.777,0,0,1,3.553,8.274c1.436,6.819.336,13.752-1.255,20.442-.92,3.87-2,7.726-2.528,11.675a.342.342,0,0,0,.1.293.256.256,0,0,0,.153.29,22.452,22.452,0,0,0,5.222,1.274c2.486.377,4.995.615,7.5.755a79.951,79.951,0,0,0,16.325-.593,31.436,31.436,0,0,0,3.649-.747,5.79,5.79,0,0,0,2.661-1.245.271.271,0,0,0-.049-.431c1.011-3.031,1.066-6.319,1.222-9.479A112.462,112.462,0,0,0,81.694,276.073Z" transform="translate(-29.927 -215.55)" fill="#fadee1"/>
            <path id="Trazado_109243" data-name="Trazado 109243" d="M64.855,245.111a18.1,18.1,0,0,1-3.7,1.535,18.463,18.463,0,0,1-7.488-.151,26.1,26.1,0,0,1-3.461-1.235l-.131-2.9c2.148-2.037,14.275-1.853,14.275-1.853Z" transform="translate(-27.455 -217.358)" fill="#c1b1b3" style="mix-blend-mode: multiply;isolation: isolate"/>
            <path id="Trazado_109244" data-name="Trazado 109244" d="M56.914,221.99c-3.6.4-7.192.6-9.989,3.995-2.38,2.89-1.5,7.892-.6,12.286s2,9.689,3.9,10.288,8.091,2.1,12.486,1,5.893-3.6,7.491-7.092c1.319-2.885-1.2-12.784-2.5-15.981S61.094,221.526,56.914,221.99Z" transform="translate(-28.604 -221.917)" fill="#ed744d"/>
            <path id="Trazado_109245" data-name="Trazado 109245" d="M48.528,236.55s-2.248-2-3.646-1.049-.649,4.594,1.249,4.844a3.485,3.485,0,0,0,2.946-.9Z" transform="translate(-28.907 -218.647)" fill="#ed744d"/>
            <path id="Trazado_109246" data-name="Trazado 109246" d="M44.908,273.981a117.641,117.641,0,0,1,20.109-3.3,127.73,127.73,0,0,1,15.848.332s-2.163,2.8-8.855,7.391-11.32,7.058-18.312,8.956a72.971,72.971,0,0,1-11.885,2.3S42.411,275.979,44.908,273.981Z" transform="translate(-29.483 -209.982)" fill="#ed744d"/>
            <path id="Trazado_109247" data-name="Trazado 109247" d="M79.175,286.6a64.7,64.7,0,0,1-10.588-1.066,30.572,30.572,0,0,1-7.41-2.183c-.184-.077-.357-.154-.517-.232a15.552,15.552,0,0,1-2.332-1.313L57.4,271.617s6.127-.666,12.055-1a38.032,38.032,0,0,1,7.638.347l.213.029v0a23.914,23.914,0,0,1,2.471.488s3.061,1.332,3.462,5.855S79.175,286.6,79.175,286.6Z" transform="translate(-25.66 -209.984)" fill="#ed744d"/>
            <path id="Trazado_109248" data-name="Trazado 109248" d="M44.426,286.821a111.891,111.891,0,0,0,20.276,1.3,79.776,79.776,0,0,0,15.882-1.9,13.007,13.007,0,0,0-.1,2.7c.1,1.5,3.1,12.686,3.6,14.584a29.305,29.305,0,0,1,.7,3.6A99.743,99.743,0,0,0,74.291,309a43.267,43.267,0,0,0-8.19,2.6s-.9-3.3-1.2-4.994-.5-2.5-.5-2.5L63,311.392a57.372,57.372,0,0,1-10.987-.4,47.068,47.068,0,0,1-9.388-1.9,100.509,100.509,0,0,1,.3-12.585C43.528,291.315,44.426,286.821,44.426,286.821Z" transform="translate(-29.301 -206.142)" fill="#ffd54f"/>
            <g id="Grupo_62022" data-name="Grupo 62022" transform="translate(21.393 125.688)" style="mix-blend-mode: multiply;isolation: isolate">
              <path id="Trazado_109249" data-name="Trazado 109249" d="M49.113,323.2c.531,1.206.392,2.743,1.362,3.746a3.063,3.063,0,0,0,1.72.77,8,8,0,0,0,1.006.1,1.779,1.779,0,0,0,.88-.117c.125-.059.066-.22-.035-.262a2.614,2.614,0,0,0-.846-.122,7.017,7.017,0,0,1-.9-.121,2.574,2.574,0,0,1-1.521-.762,4.656,4.656,0,0,1-.685-1.7,9.656,9.656,0,0,0-.583-1.77c-.136-.274-.523-.034-.4.237Z" transform="translate(-49.091 -322.845)" fill="#c1b1b3"/>
            </g>
            <g id="Grupo_62023" data-name="Grupo 62023" transform="translate(51.667 124.004)" style="mix-blend-mode: multiply;isolation: isolate">
              <path id="Trazado_109250" data-name="Trazado 109250" d="M73.423,321.829c.229.5.384,1.039.593,1.55a4.035,4.035,0,0,0,.395.76,1.127,1.127,0,0,0,.658.542.176.176,0,0,0,.213-.213,2.37,2.37,0,0,0-.372-.667,7.971,7.971,0,0,1-.392-.725c-.242-.487-.442-1-.709-1.471-.143-.254-.5-.031-.385.224Z" transform="translate(-73.401 -321.493)" fill="#c1b1b3"/>
            </g>
            <g id="Grupo_62024" data-name="Grupo 62024" transform="translate(35.592 174.063)" style="mix-blend-mode: multiply;isolation: isolate">
              <path id="Trazado_109251" data-name="Trazado 109251" d="M60.645,362.1a6.441,6.441,0,0,1,2.558,1.5c.159.118.514.4.7.2.208-.215-.21-.46-.349-.563-.4-.3-.8-.605-1.207-.883a3.97,3.97,0,0,0-1.594-.665c-.264-.041-.381.357-.112.407Z" transform="translate(-60.492 -361.691)" fill="#c1b1b3"/>
            </g>
            <g id="Grupo_62025" data-name="Grupo 62025" transform="translate(35.743 175.61)" style="mix-blend-mode: multiply;isolation: isolate">
              <path id="Trazado_109252" data-name="Trazado 109252" d="M60.74,363.416c.237.139.463.3.686.456.107.077.213.158.32.234a1.188,1.188,0,0,0,.176.093.607.607,0,0,0,.248.052.163.163,0,0,0,.157-.205.681.681,0,0,0-.112-.209,1.316,1.316,0,0,0-.138-.138c-.118-.1-.249-.184-.375-.274-.227-.161-.457-.318-.7-.458a.26.26,0,0,0-.263.45Z" transform="translate(-60.614 -362.933)" fill="#c1b1b3"/>
            </g>
            <g id="Grupo_62026" data-name="Grupo 62026" transform="translate(34.759 176.921)" style="mix-blend-mode: multiply;isolation: isolate">
              <path id="Trazado_109253" data-name="Trazado 109253" d="M60,364.468c.2.062.413.107.613.179.012,0,.066.017.07.026s-.05-.021-.015-.006l.036.017c.045.021.09.044.133.067l.06.036.031.021c.025.017,0,0-.01-.008a.35.35,0,0,0,.141.067.518.518,0,0,1,.062.019.164.164,0,0,0,.205-.157.5.5,0,0,0-.047-.208.54.54,0,0,0-.138-.138,1.357,1.357,0,0,0-.359-.2c-.212-.082-.435-.128-.651-.194a.247.247,0,0,0-.3.172.251.251,0,0,0,.171.3Z" transform="translate(-59.823 -363.986)" fill="#c1b1b3"/>
            </g>
            <g id="Grupo_62027" data-name="Grupo 62027" transform="translate(20.518 163.687)" style="mix-blend-mode: multiply;isolation: isolate">
              <path id="Trazado_109254" data-name="Trazado 109254" d="M48.4,353.734c.11.467.139.949.275,1.411a2.193,2.193,0,0,0,.32.69c.171.227.517.472.8.293a.209.209,0,0,0,.093-.23.432.432,0,0,0-.095-.189c-.034-.036-.072-.069-.106-.106-.019-.02-.107-.13-.055-.056-.026-.037-.054-.073-.081-.108s-.037-.051-.007-.006a2.373,2.373,0,0,1-.166-.289c-.039-.078.024.065-.009-.019-.01-.025-.02-.051-.029-.076-.021-.057-.04-.115-.057-.172-.131-.427-.182-.873-.3-1.3a.3.3,0,0,0-.582.161Z" transform="translate(-48.388 -353.359)" fill="#c1b1b3"/>
            </g>
            <g id="Grupo_62028" data-name="Grupo 62028" transform="translate(46.68 164.374)" style="mix-blend-mode: multiply;isolation: isolate">
              <path id="Trazado_109255" data-name="Trazado 109255" d="M69.4,354.118a2.346,2.346,0,0,0,.379,1.158,1.721,1.721,0,0,0,.445.431,1.162,1.162,0,0,0,.291.146.483.483,0,0,0,.356-.026.129.129,0,0,0,.046-.176.663.663,0,0,0-.23-.205c-.075-.042-.154-.076-.228-.121-.037-.024-.073-.047-.107-.073.037.029-.012-.012-.016-.015l-.044-.039c-.031-.029-.06-.059-.088-.09l-.044-.051c-.03-.036.016.024-.014-.017a1.794,1.794,0,0,1-.128-.208c-.02-.039-.039-.077-.056-.117.016.039-.009-.022-.009-.025l-.021-.057a2.439,2.439,0,0,1-.117-.514.214.214,0,0,0-.208-.208.209.209,0,0,0-.207.208Z" transform="translate(-69.396 -353.91)" fill="#c1b1b3"/>
            </g>
            <g id="Grupo_62029" data-name="Grupo 62029" transform="translate(35.001 60.953)" style="mix-blend-mode: multiply;isolation: isolate">
              <path id="Trazado_109256" data-name="Trazado 109256" d="M76.688,271.133a7.28,7.28,0,0,1-1.844,1.69c-.656.54-1.323,1.081-1.994,1.611-1.294,1.024-2.606,2.034-3.949,3-2.757,2-5.431,4.118-8.366,5.841-.184-.077-.357-.154-.517-.232,2.858-1.8,5.827-3.988,8.53-5.991,1.415-1.047,2.814-2.11,4.186-3.21q1-.8,1.984-1.621a7.07,7.07,0,0,1,1.729-1.332.142.142,0,0,1,.039-.02.153.153,0,0,1,.174.049v0A.2.2,0,0,1,76.688,271.133Z" transform="translate(-60.018 -270.863)" fill="#c1b1b3"/>
            </g>
            <path id="Trazado_109257" data-name="Trazado 109257" d="M56.659,271.951c-2.331.7-4.355,4.37-5.486,4.1a.655.655,0,0,1-.574-.67,2.092,2.092,0,0,1,.285-.936c-.1.163-.329.535-.623.94-.584.807-1.425,1.762-2.019,1.565-.613-.208-.636-1.015-.564-1.608v-.01a4.677,4.677,0,0,1,.13-.648s-.173.329-.453.743l0,0c-.483.72-1.279,1.7-2.037,1.748s-.676-.821-.507-1.445v-.009c.087-.3.183-.55.2-.6a1.24,1.24,0,0,1-.309.255,1.308,1.308,0,0,1-1.453-.134c-.849-.55,4.011-6.552,6.058-6.194A19.492,19.492,0,0,1,56.659,271.951Z" transform="translate(-29.155 -210.356)" fill="#ed744d"/>
            <path id="Trazado_109258" data-name="Trazado 109258" d="M56.656,271.944l-.066-.045-.015-.009-.011-.007-.042-.029a12.108,12.108,0,0,0-3.072,2.482,7.567,7.567,0,0,1-1.542,1.3c-.335.187-.869.432-1.021-.08a1.872,1.872,0,0,1,.364-1.406,13.269,13.269,0,0,1,.96-1.357c.169-.213.347-.425.537-.623.154-.169.458-.362.5-.6.009-.049-.02-.116-.082-.111-.252.029-.435.309-.594.483-.2.222-.4.448-.579.685a39.828,39.828,0,0,1-2.72,3.682c-.432.432-1.31.975-1.445,0a5.051,5.051,0,0,1,.215-1.643c.176-.331.356-.66.555-.983a12.808,12.808,0,0,1,1.086-1.511c.183-.227.376-.445.574-.656.174-.193.453-.4.517-.658a.094.094,0,0,0-.116-.116c-.252.064-.43.319-.6.507-.217.242-.425.488-.628.743a19.739,19.739,0,0,0-1.646,2.589,7.594,7.594,0,0,1-1.721,2.269,1.245,1.245,0,0,1-.767.372c-.457-.045-.518-.575-.488-.9a4.591,4.591,0,0,1,.377-1.356.159.159,0,0,0,.012-.066,11.8,11.8,0,0,1,1.578-2.44c.362-.42.72-.849,1.106-1.25.178-.188.371-.376.564-.55.126-.116.391-.255.425-.43a.051.051,0,0,0-.052-.067c-.174-.019-.357.2-.473.3-.213.189-.415.391-.618.594-.416.416-.821.831-1.2,1.28a11.949,11.949,0,0,0-.96,1.337,7.988,7.988,0,0,1-.732,1.225c-.268.3-.721.692-1.149.5-.564-.255-.186-1.019.024-1.4a12.894,12.894,0,0,1,1.587-2.291,16.074,16.074,0,0,1,1.349-1.288,7.193,7.193,0,0,1,1.954-1.259l.006-.139a8.455,8.455,0,0,0-1.239.57,8.9,8.9,0,0,0-1.254,1.047,13.323,13.323,0,0,0-2.248,2.591c-.374.562-1.139,1.608-.57,2.276.39.458.959.249,1.4-.077-.257.875-.411,2.147.663,2.086.616-.035,1.121-.635,1.484-1.07a10.823,10.823,0,0,0,.785-1.088c-.143.9-.158,2.086.939,1.795.851-.225,1.474-1.152,1.991-1.96a.937.937,0,0,0,.23.824c.416.369,1.02-.036,1.371-.293,1.589-1.161,2.726-2.882,4.545-3.733A.406.406,0,0,0,56.656,271.944Z" transform="translate(-29.168 -210.362)" fill="#c2b3b5" style="mix-blend-mode: multiply;isolation: isolate"/>
          </g>
          <g id="Grupo_62031" data-name="Grupo 62031" transform="translate(30.634 58.358)" style="mix-blend-mode: multiply;isolation: isolate">
            <path id="Trazado_109259" data-name="Trazado 109259" d="M56.733,270.7a24.948,24.948,0,0,1,7.73-1.247c1.3-.05,2.608-.057,3.913-.046a17.69,17.69,0,0,0,3.73-.143.147.147,0,0,0,0-.283,18.567,18.567,0,0,0-3.73-.2c-1.371-.006-2.745,0-4.115.075a23.546,23.546,0,0,0-7.626,1.489c-.214.088-.127.441.1.357Z" transform="translate(-56.511 -268.779)" fill="#d7cdce"/>
          </g>
        </g>
        <g id="Grupo_62048" data-name="Grupo 62048" transform="translate(24.528 8.835)">
          <g id="Grupo_62033" data-name="Grupo 62033" transform="translate(11.376 3.016)">
            <path id="Trazado_109260" data-name="Trazado 109260" d="M62.226,232.328c.092.558-.162,1.064-.567,1.13s-.806-.331-.9-.889.163-1.062.567-1.128S62.135,231.772,62.226,232.328Z" transform="translate(-60.743 -231.433)" fill="#28121e"/>
          </g>
          <g id="Grupo_62034" data-name="Grupo 62034" transform="translate(3.912 3.761)">
            <path id="Trazado_109261" data-name="Trazado 109261" d="M56.232,232.928c.092.557-.162,1.062-.567,1.128s-.806-.331-.9-.888.163-1.062.567-1.13S56.141,232.371,56.232,232.928Z" transform="translate(-54.749 -232.031)" fill="#28121e"/>
          </g>
          <g id="Grupo_62035" data-name="Grupo 62035" transform="translate(1.467 1.211)">
            <path id="Trazado_109262" data-name="Trazado 109262" d="M53.441,232.058a4.885,4.885,0,0,1,4.423-.736l.39-.98a5.856,5.856,0,0,0-5.468.888Z" transform="translate(-52.786 -229.983)" fill="#bb5a38"/>
          </g>
          <g id="Grupo_62036" data-name="Grupo 62036" transform="translate(8.193)">
            <path id="Trazado_109263" data-name="Trazado 109263" d="M59.661,237.823a1.492,1.492,0,0,0,1.082-.771c.2-.521-.1-1.007-.562-1.743-.173-.279-.377-.606-.592-.995a2.908,2.908,0,0,1-.181-.392,2.676,2.676,0,0,1,.215-2.322,3.07,3.07,0,0,1,2.184-1.478,3.986,3.986,0,0,1,2.133.225l.39-.98a5.039,5.039,0,0,0-2.687-.288,4.12,4.12,0,0,0-2.931,1.988,3.772,3.772,0,0,0-.294,3.224,4.026,4.026,0,0,0,.247.535c.225.407.438.75.62,1.041a4.961,4.961,0,0,1,.456.822c-.044-.015-.139.05-.377.12Z" transform="translate(-58.187 -229.011)" fill="#bb5a38"/>
          </g>
          <g id="Grupo_62037" data-name="Grupo 62037" transform="translate(7.549 10.667)">
            <path id="Trazado_109264" data-name="Trazado 109264" d="M59.248,239.426a3.056,3.056,0,0,0,2.162-1.184l-.821-.665a2.011,2.011,0,0,1-2.458.628l-.461.95A3.128,3.128,0,0,0,59.248,239.426Z" transform="translate(-57.67 -237.577)" fill="#bb5a38"/>
          </g>
          <g id="Grupo_62038" data-name="Grupo 62038" transform="translate(1.426 7.737)">
            <path id="Trazado_109265" data-name="Trazado 109265" d="M53.407,235.5a.329.329,0,1,1-.377-.271A.328.328,0,0,1,53.407,235.5Z" transform="translate(-52.754 -235.224)" fill="#bb5a38"/>
          </g>
          <g id="Grupo_62039" data-name="Grupo 62039" transform="translate(3.372 8.546)">
            <path id="Trazado_109266" data-name="Trazado 109266" d="M54.6,235.992a.141.141,0,1,1-.162-.117A.141.141,0,0,1,54.6,235.992Z" transform="translate(-54.316 -235.874)" fill="#bb5a38"/>
          </g>
          <g id="Grupo_62040" data-name="Grupo 62040" transform="translate(1.47 9.581)">
            <path id="Trazado_109267" data-name="Trazado 109267" d="M53.362,236.947a.288.288,0,1,1-.331-.238A.288.288,0,0,1,53.362,236.947Z" transform="translate(-52.789 -236.705)" fill="#bb5a38"/>
          </g>
          <g id="Grupo_62041" data-name="Grupo 62041" transform="translate(0 8.605)">
            <path id="Trazado_109268" data-name="Trazado 109268" d="M51.926,236.055a.16.16,0,1,1-.183-.132A.159.159,0,0,1,51.926,236.055Z" transform="translate(-51.608 -235.921)" fill="#bb5a38"/>
          </g>
          <g id="Grupo_62042" data-name="Grupo 62042" transform="translate(3.369 10.133)">
            <path id="Trazado_109269" data-name="Trazado 109269" d="M54.794,237.351a.242.242,0,1,1-.278-.2A.242.242,0,0,1,54.794,237.351Z" transform="translate(-54.313 -237.148)" fill="#bb5a38"/>
          </g>
          <g id="Grupo_62043" data-name="Grupo 62043" transform="translate(4.797 7.535)">
            <path id="Trazado_109270" data-name="Trazado 109270" d="M55.888,235.243a.215.215,0,0,1-.178.248.216.216,0,0,1-.07-.426A.214.214,0,0,1,55.888,235.243Z" transform="translate(-55.46 -235.062)" fill="#bb5a38"/>
          </g>
          <g id="Grupo_62044" data-name="Grupo 62044" transform="translate(5.033 8.808)">
            <path id="Trazado_109271" data-name="Trazado 109271" d="M55.655,236.52a.375.375,0,1,1,.431.309A.375.375,0,0,1,55.655,236.52Z" transform="translate(-55.65 -236.084)" fill="#bb5a38"/>
          </g>
          <g id="Grupo_62045" data-name="Grupo 62045" transform="translate(12.086 6.236)">
            <path id="Trazado_109272" data-name="Trazado 109272" d="M61.883,234.259a.287.287,0,1,1-.33-.237A.286.286,0,0,1,61.883,234.259Z" transform="translate(-61.313 -234.019)" fill="#bb5a38"/>
          </g>
          <g id="Grupo_62046" data-name="Grupo 62046" transform="translate(13.223 7.928)">
            <path id="Trazado_109273" data-name="Trazado 109273" d="M62.232,235.843a.4.4,0,1,1,.458.329A.4.4,0,0,1,62.232,235.843Z" transform="translate(-62.227 -235.378)" fill="#bb5a38"/>
          </g>
          <g id="Grupo_62047" data-name="Grupo 62047" transform="translate(13.952 6.468)">
            <path id="Trazado_109274" data-name="Trazado 109274" d="M63.275,234.4a.233.233,0,1,1-.268-.192A.234.234,0,0,1,63.275,234.4Z" transform="translate(-62.812 -234.205)" fill="#bb5a38"/>
          </g>
        </g>
      </g>
    </g>
    <path id="Trazado_109522" data-name="Trazado 109522" d="M208.312,24.868h-8.157a1.111,1.111,0,0,0-1.074,1.393l3.938,15a1.11,1.11,0,0,0,2.142.018l4.22-15A1.11,1.11,0,0,0,208.312,24.868Z" transform="translate(-10584.179 -7854.298)" fill="#bb83ff"/>
    <path id="Trazado_109524" data-name="Trazado 109524" d="M135.406,42.245h-8.4a1.017,1.017,0,0,1-.984-1.275l4.055-15.445a1.017,1.017,0,0,1,1.962-.018l4.346,15.446A1.017,1.017,0,0,1,135.406,42.245Z" transform="translate(-10604.457 -7854.327)" fill="#bb83ff"/>
    <ellipse id="Elipse_4172" data-name="Elipse 4172" cx="5.988" cy="10.113" rx="5.988" ry="10.113" transform="translate(-10207.521 -7830.934)" fill="#bb83ff"/>
    <rect id="Rectngulo_5882" data-name="Rectngulo 5882" width="9.341" height="18.414" rx="3.656" transform="translate(-10294.32 -7830.028)" fill="#bb83ff"/>
    <path id="Trazado_109525" data-name="Trazado 109525" d="M169.311,33.068h-4.857a.862.862,0,0,1-.855-.755L161.633,16.69a.862.862,0,0,1,.855-.97h8.79a.862.862,0,0,1,.855.97l-1.967,15.624A.862.862,0,0,1,169.311,33.068Z" transform="translate(-10733.507 -7845.15)" fill="#bb83ff"/>
  </g>
</svg>
