<svg xmlns="http://www.w3.org/2000/svg" width="333.402" height="98.85" viewBox="0 0 333.402 98.85">
  <g id="Grupo_61934" data-name="Grupo 61934" transform="translate(8132 8602)">
    <path id="Trazado_109122" data-name="Trazado 109122" d="M17.852,12.547V17h-1.5V5.625h4.2a4.215,4.215,0,0,1,2.926.953A3.231,3.231,0,0,1,24.531,9.1,3.189,3.189,0,0,1,23.5,11.652a4.4,4.4,0,0,1-2.965.895Zm0-1.227h2.7a2.7,2.7,0,0,0,1.844-.567,2.075,2.075,0,0,0,.641-1.64,2.143,2.143,0,0,0-.641-1.628,2.525,2.525,0,0,0-1.758-.634H17.852Zm13.586,4.844a3.07,3.07,0,0,1-2.477.992,2.628,2.628,0,0,1-2.059-.785,3.4,3.4,0,0,1-.715-2.324v-5.5h1.445v5.461q0,1.922,1.563,1.922A2.163,2.163,0,0,0,31.4,14.7V8.547h1.445V17H31.469Zm4.969-7.617.047,1.063a3.08,3.08,0,0,1,2.531-1.219q2.68,0,2.7,3.023V17H40.242V11.406a1.946,1.946,0,0,0-.418-1.352,1.675,1.675,0,0,0-1.277-.437,2.086,2.086,0,0,0-1.234.375,2.546,2.546,0,0,0-.828.984V17H35.039V8.547ZM45.828,6.5V8.547h1.578V9.664H45.828v5.249a1.173,1.173,0,0,0,.211.763.888.888,0,0,0,.719.254,3.5,3.5,0,0,0,.688-.094V17a4.215,4.215,0,0,1-1.109.155,1.8,1.8,0,0,1-1.461-.586,2.517,2.517,0,0,1-.492-1.664V9.664H42.844V8.547h1.539V6.5Zm2.727,6.2a4.993,4.993,0,0,1,.488-2.234A3.643,3.643,0,0,1,50.4,8.93a3.7,3.7,0,0,1,1.988-.539,3.565,3.565,0,0,1,2.793,1.2,4.6,4.6,0,0,1,1.066,3.18v.1a5.036,5.036,0,0,1-.473,2.215,3.589,3.589,0,0,1-1.352,1.527,3.743,3.743,0,0,1-2.02.547,3.556,3.556,0,0,1-2.785-1.2A4.575,4.575,0,0,1,48.555,12.8Zm1.453.172a3.616,3.616,0,0,0,.652,2.258,2.211,2.211,0,0,0,3.5-.012A3.955,3.955,0,0,0,54.8,12.7a3.61,3.61,0,0,0-.66-2.254,2.1,2.1,0,0,0-1.754-.863,2.075,2.075,0,0,0-1.727.852A3.925,3.925,0,0,0,50.008,12.867Z" transform="translate(-8138 -8520.307)" fill="#12263f"/>
    <path id="Trazado_109121" data-name="Trazado 109121" d="M19.543,15.773h5.391V17h-6.9V5.625h1.508ZM27.988,17H26.535V8.547h1.453ZM28,5.008h1.75L27.66,7.3,26.5,7.3Zm3.734,3.539.047,1.063a3.08,3.08,0,0,1,2.531-1.219q2.68,0,2.7,3.023V17H35.574V11.406a1.946,1.946,0,0,0-.418-1.352,1.675,1.675,0,0,0-1.277-.437,2.086,2.086,0,0,0-1.234.375,2.546,2.546,0,0,0-.828.984V17H30.371V8.547Zm10.969,8.609a3.693,3.693,0,0,1-2.8-1.129,4.19,4.19,0,0,1-1.078-3.02v-.266a5.073,5.073,0,0,1,.48-2.246,3.748,3.748,0,0,1,1.344-1.547,3.378,3.378,0,0,1,1.871-.559A3.166,3.166,0,0,1,45.09,9.477,4.7,4.7,0,0,1,46,12.586v.6H40.277a3,3,0,0,0,.73,2.02,2.3,2.3,0,0,0,1.777.77,2.517,2.517,0,0,0,1.3-.312,3.259,3.259,0,0,0,.93-.828l.883.688A3.55,3.55,0,0,1,42.707,17.156Zm-.18-7.578a1.928,1.928,0,0,0-1.469.637A3.1,3.1,0,0,0,40.324,12h4.234v-.109a2.753,2.753,0,0,0-.594-1.707A1.815,1.815,0,0,0,42.527,9.578ZM52.895,17a3.036,3.036,0,0,1-.2-.891,3.225,3.225,0,0,1-2.406,1.047,2.984,2.984,0,0,1-2.051-.707,2.287,2.287,0,0,1-.8-1.793,2.39,2.39,0,0,1,1-2.051,4.733,4.733,0,0,1,2.824-.73h1.406v-.664A1.623,1.623,0,0,0,52.215,10a1.821,1.821,0,0,0-1.336-.449,2.107,2.107,0,0,0-1.3.391,1.151,1.151,0,0,0-.523.945H47.605a2,2,0,0,1,.449-1.223,3.066,3.066,0,0,1,1.219-.934,4.1,4.1,0,0,1,1.691-.344,3.342,3.342,0,0,1,2.289.73,2.635,2.635,0,0,1,.859,2.012v3.891a4.757,4.757,0,0,0,.3,1.852V17Zm-2.4-1.1a2.54,2.54,0,0,0,1.289-.352,2.127,2.127,0,0,0,.883-.914V12.9H51.535q-2.656,0-2.656,1.555a1.316,1.316,0,0,0,.453,1.063A1.742,1.742,0,0,0,50.5,15.9Z" transform="translate(-8047 -8520.307)" fill="#12263f"/>
    <path id="Trazado_109120" data-name="Trazado 109120" d="M18.5,12.547V17H17V5.625h4.2a4.215,4.215,0,0,1,2.926.953A3.231,3.231,0,0,1,25.184,9.1a3.189,3.189,0,0,1-1.035,2.551,4.4,4.4,0,0,1-2.965.895Zm0-1.227h2.7a2.7,2.7,0,0,0,1.844-.567,2.075,2.075,0,0,0,.641-1.64,2.143,2.143,0,0,0-.641-1.628,2.525,2.525,0,0,0-1.758-.634H18.5ZM28.441,17H27V5h1.445Zm7.531,0a3.036,3.036,0,0,1-.2-.891,3.225,3.225,0,0,1-2.406,1.047,2.984,2.984,0,0,1-2.051-.707,2.287,2.287,0,0,1-.8-1.793,2.39,2.39,0,0,1,1-2.051,4.733,4.733,0,0,1,2.824-.73h1.406v-.664A1.623,1.623,0,0,0,35.293,10a1.821,1.821,0,0,0-1.336-.449,2.107,2.107,0,0,0-1.3.391,1.151,1.151,0,0,0-.523.945H30.684a2,2,0,0,1,.449-1.223,3.066,3.066,0,0,1,1.219-.934,4.1,4.1,0,0,1,1.691-.344,3.342,3.342,0,0,1,2.289.73,2.635,2.635,0,0,1,.859,2.012v3.891a4.757,4.757,0,0,0,.3,1.852V17Zm-2.4-1.1a2.54,2.54,0,0,0,1.289-.352,2.127,2.127,0,0,0,.883-.914V12.9H34.613q-2.656,0-2.656,1.555a1.316,1.316,0,0,0,.453,1.063A1.742,1.742,0,0,0,33.574,15.9Zm7.25-7.352.047,1.063A3.08,3.08,0,0,1,43.4,8.391q2.68,0,2.7,3.023V17H44.66V11.406a1.946,1.946,0,0,0-.418-1.352,1.675,1.675,0,0,0-1.277-.437,2.086,2.086,0,0,0-1.234.375,2.546,2.546,0,0,0-.828.984V17H39.457V8.547ZM47.9,12.7a4.993,4.993,0,0,1,.488-2.234A3.643,3.643,0,0,1,49.75,8.93a3.7,3.7,0,0,1,1.988-.539,3.565,3.565,0,0,1,2.793,1.2,4.6,4.6,0,0,1,1.066,3.18v.1a5.036,5.036,0,0,1-.473,2.215,3.589,3.589,0,0,1-1.352,1.527,3.743,3.743,0,0,1-2.02.547,3.556,3.556,0,0,1-2.785-1.2A4.575,4.575,0,0,1,47.9,12.8Zm1.453.172a3.616,3.616,0,0,0,.652,2.258,2.211,2.211,0,0,0,3.5-.012,3.955,3.955,0,0,0,.648-2.418,3.61,3.61,0,0,0-.66-2.254,2.1,2.1,0,0,0-1.754-.863,2.075,2.075,0,0,0-1.727.852A3.925,3.925,0,0,0,49.355,12.867Z" transform="translate(-7956 -8520.307)" fill="#12263f"/>
    <path id="Trazado_109119" data-name="Trazado 109119" d="M9.6,15.008l3.25-9.383h1.641L10.27,17H8.941L4.73,5.625H6.363ZM15.043,12.7a4.993,4.993,0,0,1,.488-2.234A3.643,3.643,0,0,1,16.891,8.93a3.7,3.7,0,0,1,1.988-.539,3.565,3.565,0,0,1,2.793,1.2,4.6,4.6,0,0,1,1.066,3.18v.1a5.036,5.036,0,0,1-.473,2.215,3.589,3.589,0,0,1-1.352,1.527,3.743,3.743,0,0,1-2.02.547,3.556,3.556,0,0,1-2.785-1.2A4.575,4.575,0,0,1,15.043,12.8Zm1.453.172a3.616,3.616,0,0,0,.652,2.258,2.211,2.211,0,0,0,3.5-.012,3.955,3.955,0,0,0,.648-2.418,3.61,3.61,0,0,0-.66-2.254,2.1,2.1,0,0,0-1.754-.863,2.075,2.075,0,0,0-1.727.852A3.925,3.925,0,0,0,16.5,12.867ZM26.121,17H24.676V5h1.445Zm7.531-.836a3.07,3.07,0,0,1-2.477.992,2.628,2.628,0,0,1-2.059-.785,3.4,3.4,0,0,1-.715-2.324v-5.5h1.445v5.461q0,1.922,1.563,1.922a2.163,2.163,0,0,0,2.2-1.234V8.547h1.445V17H33.684ZM32.48,5h1.75L32.137,7.3l-1.164,0Zm6.133,3.547.039.938A3.122,3.122,0,0,1,41.16,8.391,2.417,2.417,0,0,1,43.574,9.75a3.2,3.2,0,0,1,1.1-.984,3.242,3.242,0,0,1,1.6-.375q2.781,0,2.828,2.945V17H47.652V11.422a1.941,1.941,0,0,0-.414-1.355,1.823,1.823,0,0,0-1.391-.449,1.917,1.917,0,0,0-1.336.48,1.949,1.949,0,0,0-.617,1.293V17H42.441V11.461a1.613,1.613,0,0,0-1.8-1.844,1.934,1.934,0,0,0-1.945,1.211V17H37.246V8.547Zm16.172,8.609a3.693,3.693,0,0,1-2.8-1.129,4.19,4.19,0,0,1-1.078-3.02v-.266a5.073,5.073,0,0,1,.48-2.246,3.748,3.748,0,0,1,1.344-1.547,3.378,3.378,0,0,1,1.871-.559,3.166,3.166,0,0,1,2.563,1.086,4.7,4.7,0,0,1,.914,3.109v.6H52.355a3,3,0,0,0,.73,2.02,2.3,2.3,0,0,0,1.777.77,2.517,2.517,0,0,0,1.3-.312,3.259,3.259,0,0,0,.93-.828l.883.688A3.55,3.55,0,0,1,54.785,17.156Zm-.18-7.578a1.928,1.928,0,0,0-1.469.637A3.1,3.1,0,0,0,52.4,12h4.234v-.109a2.753,2.753,0,0,0-.594-1.707A1.815,1.815,0,0,0,54.605,9.578Zm6.516-1.031.047,1.063A3.08,3.08,0,0,1,63.7,8.391q2.68,0,2.7,3.023V17H64.957V11.406a1.946,1.946,0,0,0-.418-1.352,1.675,1.675,0,0,0-1.277-.437,2.086,2.086,0,0,0-1.234.375,2.546,2.546,0,0,0-.828.984V17H59.754V8.547Z" transform="translate(-7865 -8520.307)" fill="#12263f"/>
    <rect id="Rectángulo_5838" data-name="Rectángulo 5838" width="60" height="60" transform="translate(-7859 -8602)" fill="none"/>
    <rect id="Rectángulo_5835" data-name="Rectángulo 5835" width="60" height="60" transform="translate(-8132 -8602)" fill="none"/>
    <rect id="Rectángulo_5836" data-name="Rectángulo 5836" width="60" height="60" transform="translate(-8041 -8602)" fill="none"/>
    <rect id="Rectángulo_5837" data-name="Rectángulo 5837" width="60" height="60" transform="translate(-7950 -8602)" fill="none"/>
    <path id="Trazado_109059" data-name="Trazado 109059" d="M1600.409,36.838l-23.3-13.312a1.107,1.107,0,0,0-1.1,0l-23.3,13.312a1.111,1.111,0,0,0-.559.964V62.207a1.11,1.11,0,0,0,.559.963l23.3,13.312a1.1,1.1,0,0,0,1.1,0l23.3-13.312a1.108,1.108,0,0,0,.559-.963V37.8A1.109,1.109,0,0,0,1600.409,36.838Z" transform="translate(-9496.157 -8622.38)" fill="#bb83ff"/>
    <g id="Grupo_61881" data-name="Grupo 61881" transform="translate(-9346.658 -8624.164)">
      <g id="Grupo_61880" data-name="Grupo 61880">
        <path id="Trazado_109060" data-name="Trazado 109060" d="M1517.653,26.164l-23.995,11.987,23.995,11.987,23.995-11.987Z" fill="#dcbfff"/>
      </g>
      <path id="Trazado_109061" data-name="Trazado 109061" d="M1517.653,50.1V78.494l23.995-11.987V38.151Z" fill="#a271dc"/>
      <path id="Trazado_109062" data-name="Trazado 109062" d="M1493.658,38.151,1517.653,50.1V78.494l-23.995-11.987Z" fill="#bb83ff"/>
    </g>
    <circle id="Elipse_4151" data-name="Elipse 4151" cx="6.738" cy="6.738" r="6.738" transform="translate(-8109 -8579)" fill="#bb83ff"/>
    <g id="Grupo_61882" data-name="Grupo 61882" transform="translate(-9692.068 -8621.319)">
      <rect id="Rectángulo_5839" data-name="Rectángulo 5839" width="72.112" height="3" transform="translate(1654.068 73.31) rotate(-45)" fill="#bb83ff"/>
    </g>
  </g>
</svg>
